<?xml version="1.0" encoding="UTF-8"?>
<svg id="Layer_1" xmlns="http://www.w3.org/2000/svg" version="1.1" viewBox="0 0 492 492">
  <!-- Generator: Adobe Illustrator 29.1.0, SVG Export Plug-In . SVG Version: 2.1.0 Build 142)  -->
  <path d="M109.3,226.8L328.3,7.9C333.3,2.8,340.1,0,347.3,0s14,2.8,19,7.9l16.1,16.1c10.5,10.5,10.5,27.6,0,38.1l-183.9,183.9,184.1,184.1c5.1,5.1,7.9,11.8,7.9,19s-2.8,14-7.9,19l-16.1,16.1c-5.1,5.1-11.8,7.9-19,7.9s-14-2.8-19-7.9l-219.2-219.1c-5.1-5.1-7.9-11.9-7.8-19.1,0-7.2,2.8-14,7.8-19.1Z"/>
</svg>