<?xml version="1.0" encoding="UTF-8"?>
<svg id="PRINT" xmlns="http://www.w3.org/2000/svg" version="1.1" viewBox="0 0 435 600">
  <!-- Generator: Adobe Illustrator 29.1.0, SVG Export Plug-In . SVG Version: 2.1.0 Build 142)  -->
  <rect width="435" height="600" fill="#fff"/>
  <circle cx="489.3" cy="568.9" r="61.5" fill="#747ef7"/>
  <circle cx="455" cy="316.2" r="57.1" fill="#ffc866"/>
  <g>
    <g>
      <g>
        <path d="M116.4,173c0,1.7,0,3.3,0,4.9,0,4.8.3,9.6.7,14.5l-10.3-.7c.8-6.3,1.1-12.6,1-18.9h0c0-1.4,0-2.7-.1-4.1-.1-2.9-.4-5.8-.7-8.6-.2-1.7-.4-3.5-.7-5.2-.2-1.3-.4-2.6-.6-3.8,2.8-.2,5.7-.4,8.5-.6,1.2,0,2.4-.2,3.6-.3,0,.7-.1,1.5-.2,2.2-.2,2.3-.4,4.5-.5,6.8-.1,1.7-.2,3.4-.3,5.1-.1,2.9-.2,5.9-.2,8.8Z" fill="#666b46"/>
        <g>
          <path d="M106.9,160c-.2-1.7-.4-3.5-.7-5.2.2,0,.4,0,.6,0,3.3,0,3.4,5.1.1,5.2Z" fill="#8e935f"/>
          <path d="M117.7,150.1c0,.7-.1,1.5-.2,2.2-.3,0-.6.1-.9.1-1.5,0-2.3-1-2.5-2.1,1.2,0,2.4-.2,3.6-.3Z" fill="#8e935f"/>
          <path d="M116.9,159.1c-.1,1.7-.2,3.4-.3,5.1-.1,0-.3,0-.5,0-3.4,0-3.4-5.3,0-5.3s.5,0,.8,0Z" fill="#8e935f"/>
          <path d="M109.3,173.3c-.7,0-1.2-.2-1.6-.5h0c0-1.4,0-2.7-.1-4.1.4-.4,1-.6,1.7-.6,3.4,0,3.4,5.3,0,5.3Z" fill="#8e935f"/>
          <path d="M116.4,178c-.3.1-.6.2-.9.2-3.4,0-3.4-5.3,0-5.3s.7,0,.9.2c0,1.7,0,3.3,0,4.9Z" fill="#8e935f"/>
        </g>
      </g>
      <path d="M111.4,148.3c-.7.6-1.7.5-2.2-.2-2.2-2.6-3.1-6.4-2.5-9.9.5-3.2,2.1-6.2,4.1-8.7.7-.8,2-.7,2.6.2,1.6,2.5,3.7,4.7,4.2,7.7.4,2.3-.4,4.6-1.6,6.5-1,1.5-3,3-4.6,4.4Z" fill="#ff6000"/>
      <path d="M111.2,148.1c-.5.4-1.1.3-1.5-.1-1.5-1.8-2.1-4.4-1.7-6.8.3-2.2,1.4-4.2,2.8-6,.5-.6,1.4-.5,1.8.1,1.1,1.7,2.6,3.2,2.9,5.3.3,1.5-.3,3.1-1.1,4.5-.7,1.1-2,2.1-3.1,3Z" fill="#fca53d"/>
    </g>
    <g>
      <path d="M155.4,193.4c-29.5-.8-59.4-.5-89,.3-.2,12.2-.1,24.4,0,36.6h89.4c-.8-12.3-1-24.6-.5-37Z" fill="#fca53d"/>
      <path d="M74.3,194.2c-.3,9.9-.5,19.9-.8,29.8,0,2.9-.1,5.7-.2,8.6,0,1.5,2.3,1.5,2.3,0,.3-9.9.5-19.9.8-29.8,0-2.9.1-5.7.2-8.6,0-1.5-2.3-1.5-2.3,0Z" fill="#ffc866"/>
      <path d="M88.3,202.3c-.1-2.9-.2-5.7-.4-8.6,0-1.5-2.4-1.5-2.3,0,.4,10,.8,20,1.2,30.1l.4,8.6c0,1.5,2.4,1.5,2.3,0-.4-10-.8-20-1.2-30.1Z" fill="#ffc866"/>
      <path d="M97.1,200.6c0-2.9,0-5.7,0-8.6,0-1.5-2.3-1.5-2.3,0l.2,29.8c0,2.9,0,5.7,0,8.6,0,1.5,2.3,1.5,2.3,0,0-9.9-.2-19.9-.2-29.8Z" fill="#ffc866"/>
      <path d="M107.7,201c-.1-2.9-.2-5.8-.4-8.7,0-1.5-2.4-1.5-2.3,0,.4,10.1.8,20.3,1.3,30.4.1,2.9.2,5.8.4,8.7,0,1.5,2.4,1.5,2.3,0-.4-10.1-.8-20.3-1.3-30.4Z" fill="#ffc866"/>
      <path d="M122.4,201v-8.5c-.1-1.5-2.5-1.5-2.4,0,.1,9.9.2,19.8.4,29.7,0,2.8,0,5.7.1,8.5,0,1.5,2.4,1.5,2.3,0-.1-9.9-.2-19.8-.4-29.7Z" fill="#ffc866"/>
      <path d="M129.8,200.7c-.4-2.8-.7-5.6-1.1-8.3,0-.6-.5-1.2-1.2-1.2s-1.3.5-1.2,1.2c1.3,9.8,2.6,19.6,3.9,29.3.4,2.8.7,5.6,1.1,8.3,0,.6.5,1.2,1.2,1.2s1.3-.5,1.2-1.2c-1.3-9.8-2.6-19.6-3.9-29.3Z" fill="#ffc866"/>
      <path d="M145,191.8c0-1.5-2.2-1.5-2.3,0-.6,10.2-.9,20.3-.8,30.5,0,2.9,0,5.8.2,8.7,0,1.5,2.4,1.5,2.3,0-.3-10.2-.3-20.4.2-30.5.1-2.9.3-5.8.5-8.7Z" fill="#ffc866"/>
      <path d="M181.5,232c-46.8-1.7-94-2.3-140.8-1.8,2,19.4,2.9,39,2.8,58.6l137-1.4c-.8-18.5-.5-36.9,1.1-55.4Z" fill="#8e935f"/>
      <path d="M213.8,365.8l-193-1.8c-.3-7-.5-14-.8-21.1,0-.8,0-1.6,0-2.3,0-2.1-.2-4.2-.2-6.3-.2-6-.5-12-.7-18,0-1.4-.1-2.9-.2-4.3,0-.8,0-1.6,0-2.3l-.9-23.3c64.8-.4,129.8-.4,194.6,1.5.1,10.2.3,20.5.5,30.7,0,.8,0,1.6,0,2.3,0,1.8,0,3.5,0,5.3,0,4.2.2,8.4.2,12.6,0,1.8,0,3.7.1,5.6,0,.8,0,1.6,0,2.3.1,6.4.2,12.8.3,19.2Z" fill="#ffc866"/>
      <g>
        <path d="M188.9,434.5l-145.2.4c-1.6,0-2.4-1.9-1.3-3.1,1.4-1.4,2.4-3.1,3.2-4.9,1.5-3.6,1.6-7.6,1.8-11.5.2-3.9.6-7.9,2.4-11.3,2.8-5.4,8.6-8.5,14.5-10,5.8-1.5,12-1.8,17.9-3.1s11.9-3.9,15.3-9c2.9-4.3,3.5-9.7,3.4-14.9h27.4c.3,3.7.7,7,1.8,10.5,1.1,3.5,2.9,6.9,5.8,9.1,4.9,3.8,11.7,3.8,17.9,3.6,6.2-.1,13,.1,17.7,4.2,2.6,2.3,4.1,5.6,5.3,8.9,2.1,5.7,3.4,11.6,5.8,17.2,1.7,3.9,4.3,7.8,7.6,10.8,1.2,1.1.5,3.2-1.2,3.2Z" fill="#3f3c39"/>
        <path d="M20.3,372.1c65.7-.5,129.8.1,191.9,2,2.9,0,5.2-2.5,4.8-5.4l-.3-2c-.3-2.4-2.3-4.2-4.7-4.2-67.6-.4-131.7-.8-191.6-1.1-2.6,0-4.8,2.1-4.8,4.7v1.1c-.1,2.7,2,4.9,4.7,4.9Z" fill="#f24c70"/>
      </g>
      <path d="M13.3,282.6c-1.7,1.6-2.2,4.4-1.5,6.6.9,2.7,4,4.3,6.8,4.4,2.9,0,5.7-1,8.3-2.1-1,1.1.2,3.1,1.7,3.3s2.9-.7,4.1-1.8c-.5,3.6,1.2,7.4,4.2,9.5,3,2,7.2,2.1,10.3.2,3.1-1.9,5-5.6,4.6-9.3,1.4,2.1,3.9,3.4,6.4,3.5,2.5,0,5.1-1.1,6.6-3.1.8,1.2,1.9,1.4,3.4,1.4,1.4,0,2.8-1,3.4-2.3-.3,2.1,1,4.2,2.8,5.4,1.8,1.2,4,1.5,6.1,1.6,3,.2,6-.2,8.6-1.6s4.7-3.9,5-6.9c1.1,1.7,3.1,2.7,5.2,2.7,2,0,4-1.2,5-2.9,2.5,2.6,6.9,3.1,10,1.2.1,1,1,1.8,2,1.8,1,0,1.9-.6,2.2-1.5-.4,2.1.4,4.4,1.9,6,1.5,1.6,3.6,2.5,5.7,3,6.9,1.6,14.6-2.1,17.8-8.4,1.5,2.4,4.7,3,7.5,3.3,1.8.2,3.6.4,5.3-.3,1.7-.7,3-2.6,2.3-4.3.7,1,2.3,1.8,3.5,1.6s2.2-1.2,2.5-2.4c2.6,2.6,6.3,4,9.9,3.7,3.6-.3,7.1-2.2,9.2-5.2.2,2,1.4,4,3.3,4.8,1.8.9,4.1.6,5.8-.6,1.3,2.7,4.3,4.5,7.3,4.4,3,0,5.9-1.9,7.2-4.6.4,2.5,2.7,4.5,5.2,4.8,2.5.3,5.1-1,6.5-3.1,1.4-2.1,1.7-4.9.8-7.3-.5-1.5-1.6-3-3-3.7-2.1-1.1-4.6-.6-6.9,0,.9-1.6.1-3.9-1.5-4.7-1.6-.8-3.8-.3-5,1.1.6-6.1-4.2-12.3-10.3-13.1-6.1-.8-12.4,3.8-13.5,9.8-1.3-2.2-3.8-3.6-6.4-3.4-2.5.2-4.9,1.9-5.8,4.3-.9-1-2.5-1.5-3.8-1.1-1.3.4-2.4,1.6-2.7,2.9-1.5-4-5.7-6.8-9.9-6.7-4.2,0-8.3,2.8-9.9,6.8-1.5-1.9-5.4-2.2-6.8-.1-.7-3.9-4.3-7.1-8.3-7.3-4-.2-7.9,2.7-8.9,6.5-.8-2.2-2.9-3.9-5.3-4.1s-4.8,1.2-5.8,3.3c-1.5-1-3.6-1.2-5.2-.4-.2-4.2-3.7-8-7.9-8.5s-8.5,2.3-9.7,6.4c-2.3-3.6-6.6-5.9-10.9-5.6-4.3.3-8.3,3.1-10,7-1.9-2.1-5.4-2.4-7.7-.7-.6-4.2-5.4-6.9-9.6-6s-7.3,4.4-8.7,8.4c-.9-1.6-2.9-2.5-4.7-2.2-1.8.3-3.4,1.7-3.8,3.5-1.7-2.9-9.8-3.1-15.1,1.9Z" fill="#f24c70"/>
      <path d="M179.5,226.9c1.7,0,3.6,0,4.7,1.2,1.3,1.3,1.2,3.5,1,5.4-.7,7.1-1.5,14.2-2.2,21.3-.1,1.2-.3,2.6-1.3,3.4-1.5,1.2-3.9.2-4.8-1.4s-.8-3.7-.6-5.6c.2-2.5.3-5.1-.7-7.4-1-2.3-3.5-4.1-6-3.5-1.3.3-2.6,1.3-3.9,1-1.6-.4-2.3-2.5-3.9-3-1.4-.5-2.9.5-3.5,1.9-.6,1.3-.6,2.8-.6,4.3.2,5.7.3,11.5.5,17.2,0,2.5-.6,5.9-3.1,6-2,0-3.2-2.1-3.5-4-.8-4.5.4-9,.5-13.6,0-4.5-2-9.8-6.4-11-3.4-.9-7.1,1-10.5.2-1.8-.4-3.3-1.5-5-2.2-1.7-.7-3.8-1-5.2.2-2.9,2.4-.4,8.3-3.6,10.2-2.3,1.4-5.2-.7-6.7-3-1.5-2.2-3.1-5-5.8-5.3-2.3-.3-4.7,1.6-6.9.8-2.6-.9-3.6-5-6.3-5.1-2.7,0-3.6,3.5-3.8,6.1-.2,5.9-.5,11.9-.7,17.8-.1,2.8-1,6.4-3.7,6.6-1.5.1-2.8-1-3.5-2.3s-.8-2.9-.9-4.3c-.4-4.6-.7-9.2-1.1-13.8-.1-1.7-.3-3.5-1.2-4.9-.9-1.4-2.9-2.4-4.4-1.5-1.3.7-1.8,2.4-3.1,3.1-1.9,1-4.1-.7-5.6-2.3s-3.4-3.5-5.4-2.8c-3.7,1.2-2.3,8.7-6.2,9.2-4.3.5-4.5-8.8-8.8-8.2-2.3.3-3,3.4-3,5.7,0,4.5-.2,9.1-.2,13.6,0,2.2-.9,5.2-3.1,5-1.9-.2-2.5-2.7-2.6-4.6-.3-5.7-.6-11.4-.9-17-.1-2.8-.3-5.7-.4-8.5-.1-2.8.5-2.9,3.2-2.9,11.3-.2,22.7-.3,34-.4,22.6-.3,45.1-.6,67.7-.8,12.6-.2,25.2-.5,37.8-.5Z" fill="#3f3c39"/>
      <path d="M69.9,190c-1.5,0-3,0-4.4.5s-2.6,1.6-2.9,3c-.3,1.7,1.1,3.4,2.8,4.1,1.7.7,3.6.5,5.4.2,1.8-.3,3.6-.8,5.4-.7,2.5,0,5,1.2,7.5.9,2.5-.3,4.6-2,7.1-2.4,4.9-.7,9.6,3.8,14.5,2.6,2.3-.6,4.1-2.4,6.4-2.6,2.7-.3,5.2,1.6,7.8,1.4,2-.2,3.7-1.6,5.8-2,4.1-.8,8.2,2.9,12.3,2.1,2.1-.4,3.8-1.9,5.9-2.4,2-.5,4.1.1,6.1.7,2,.5,4.1,1,6.1.3,2-.7,3.5-2.9,2.5-4.7-.6-1.2-2.1-1.8-3.4-1.9-1.4-.1-2.7.1-4.1,0-3.3-.1-6.3-1.9-9.6-2.3-4.3-.6-8.5,1.1-12.8,1.7-4.9.7-9.8,0-14.7-.4-6-.5-12.1-.5-18.1,0-5.2.4-10,1.7-15.2,1.8h-10.5Z" fill="#8e935f"/>
      <path d="M78.2,189.6c1.1-.8,1.7-2.2,1.7-3.5,0-1.3-.5-2.6-1.4-3.7-.8-1-2-1.9-2.3-3.2-.1-.5,0-1.1-.5-1.4-.5-.4-1.3-.3-1.9,0-2.1.9-3.6,2.7-4.7,4.6-.5,1-1,2-1.1,3.1-.1,1.1,0,2.2.6,3.2.6.9,1.8,1.8,3,1.9,1.3.2,2.8.2,4.1,0,.9-.2,1.7-.5,2.4-1Z" fill="#bc3156"/>
      <path d="M96.6,189.6c1.1-.8,1.7-2.2,1.7-3.5,0-1.3-.5-2.6-1.4-3.7-.8-1-2-1.9-2.3-3.2-.1-.5,0-1.1-.5-1.4-.5-.4-1.3-.3-1.9,0-2.1.9-3.6,2.7-4.7,4.6-.5,1-1,2-1.1,3.1-.1,1.1,0,2.2.6,3.2.6.9,1.8,1.8,3,1.9,1.3.2,2.8.2,4.1,0,.9-.2,1.7-.5,2.4-1Z" fill="#bc3156"/>
      <path d="M115.1,189.6c1.1-.8,1.7-2.2,1.7-3.5,0-1.3-.5-2.6-1.4-3.7-.8-1-2-1.9-2.3-3.2-.1-.5,0-1.1-.5-1.4-.5-.4-1.3-.3-1.9,0-2.1.9-3.6,2.7-4.7,4.6-.5,1-1,2-1.1,3.1-.1,1.1,0,2.2.6,3.2.6.9,1.8,1.8,3,1.9,1.3.2,2.8.2,4.1,0,.9-.2,1.7-.5,2.4-1Z" fill="#bc3156"/>
      <path d="M133.5,189.6c1.1-.8,1.7-2.2,1.7-3.5,0-1.3-.5-2.6-1.4-3.7-.8-1-2-1.9-2.3-3.2-.1-.5,0-1.1-.5-1.4-.5-.4-1.3-.3-1.9,0-2.1.9-3.6,2.7-4.7,4.6-.5,1-1,2-1.1,3.1-.1,1.1,0,2.2.6,3.2.6.9,1.8,1.8,3,1.9,1.3.2,2.8.2,4.1,0,.9-.2,1.7-.5,2.4-1Z" fill="#bc3156"/>
      <path d="M152,189.6c1.1-.8,1.7-2.2,1.7-3.5,0-1.3-.5-2.6-1.4-3.7-.8-1-2-1.9-2.3-3.2-.1-.5,0-1.1-.5-1.4-.5-.4-1.3-.3-1.9,0-2.1.9-3.6,2.7-4.7,4.6-.5,1-1,2-1.1,3.1-.1,1.1,0,2.2.6,3.2.6.9,1.8,1.8,3,1.9,1.3.2,2.8.2,4.1,0,.9-.2,1.7-.5,2.4-1Z" fill="#bc3156"/>
      <path d="M213,320.8c-16.4-.5-32.8-1.1-49.3-1.7-30.8-1.2-61.7-2.6-92.5-4.2-17.5-.9-35-1.9-52.5-3,0-.8,0-1.6,0-2.3,4,.2,8,.5,12,.7,30.8,1.8,61.6,3.4,92.4,4.8,29.9,1.3,59.9,2.4,89.8,3.4,0,.8,0,1.6,0,2.3Z" fill="#3f3c39"/>
      <path d="M213.4,346.6c-6.6-.1-13.2-.3-19.8-.4-31.2-.6-62.4-1.2-93.5-1.8-26.7-.5-53.5-1-80.2-1.5,0-.8,0-1.6,0-2.3,13,.3,26.1.5,39.1.7,31.2.6,62.4,1.2,93.5,1.8,20.3.4,40.6.8,61,1.2,0,.8,0,1.6,0,2.3Z" fill="#3f3c39"/>
      <path d="M213.3,338.7c-64.5-3.3-129.1-4.8-193.7-4.5-.2-6-.5-12-.7-18,64.7,4,129.4,7.3,194.2,9.8,0,4.2.2,8.4.2,12.6Z" fill="#fca53d"/>
      <g>
        <path d="M51.8,265.6c.5,1.2,1.8,2,3.1,2,1.2,0,2.4-.7,2.9-1.8,2.1-4.7-8-5.3-6-.2Z" fill="#666b46"/>
        <path d="M71.7,260.5c.5,1.2,1.8,2,3.1,2,1.2,0,2.4-.7,2.9-1.8,2.1-4.7-8-5.3-6-.2Z" fill="#666b46"/>
        <path d="M97.3,261.6c.5,1.2,1.8,2,3.1,2,1.2,0,2.4-.7,2.9-1.8,2.1-4.7-8-5.3-6-.2Z" fill="#666b46"/>
        <path d="M129.2,252c.5,1.2,1.8,2,3.1,2,1.2,0,2.4-.7,2.9-1.8,2.1-4.7-8-5.3-6-.2Z" fill="#666b46"/>
        <path d="M168.9,261.6c.5,1.2,1.8,2,3.1,2,1.2,0,2.4-.7,2.9-1.8,2.1-4.7-8-5.3-6-.2Z" fill="#666b46"/>
        <path d="M115.4,270.8c.5,1.2,1.8,2,3.1,2,1.2,0,2.4-.7,2.9-1.8,2.1-4.7-8-5.3-6-.2Z" fill="#666b46"/>
        <path d="M59.3,254.3c.7,1.7,2.5,2.8,4.4,2.8,1.7,0,3.4-1,4.1-2.6,3-6.6-11.3-7.5-8.5-.2Z" fill="#666b46"/>
        <path d="M135.1,267.1c.7,1.7,2.5,2.8,4.4,2.8,1.7,0,3.4-1,4.1-2.6,3-6.6-11.3-7.5-8.5-.2Z" fill="#666b46"/>
        <path d="M161.6,249.2c.7,1.7,2.5,2.8,4.4,2.8,1.7,0,3.4-1,4.1-2.6,3-6.6-11.3-7.5-8.5-.2Z" fill="#666b46"/>
        <path d="M102.2,252.3c.7,1.7,2.5,2.8,4.4,2.8,1.7,0,3.4-1,4.1-2.6,3-6.6-11.3-7.5-8.5-.2Z" fill="#666b46"/>
      </g>
    </g>
    <g>
      <path d="M184.9,280.5c.8.9,2,1.3,3.1,1,.8-.2,1.5-.7,2-1.3,1.6-1.8,1.4-4.7-1.1-5.6-1.8-.7-3.7.5-4.5,2.2-.6,1.2-.5,2.7.4,3.7Z" fill="#bc3156"/>
      <path d="M134.8,294.9c.8.9,2,1.3,3.1,1,.8-.2,1.5-.7,2-1.3,1.6-1.8,1.4-4.7-1.1-5.6-1.8-.7-3.7.5-4.5,2.2-.6,1.2-.5,2.7.4,3.7Z" fill="#bc3156"/>
      <path d="M90.4,282.7c.8.9,2,1.3,3.1,1,.8-.2,1.5-.7,2-1.3,1.6-1.8,1.4-4.7-1.1-5.6-1.8-.7-3.7.5-4.5,2.2-.6,1.2-.5,2.7.4,3.7Z" fill="#bc3156"/>
      <path d="M44.5,294.9c.8.9,2,1.3,3.1,1,.8-.2,1.5-.7,2-1.3,1.6-1.8,1.4-4.7-1.1-5.6-1.8-.7-3.7.5-4.5,2.2-.6,1.2-.5,2.7.4,3.7Z" fill="#bc3156"/>
      <path d="M18.5,288.5c.8.9,2,1.3,3.1,1,.8-.2,1.5-.7,2-1.3,1.6-1.8,1.4-4.7-1.1-5.6-1.8-.7-3.7.5-4.5,2.2-.6,1.2-.5,2.7.4,3.7Z" fill="#bc3156"/>
      <path d="M193.1,285.1c.5.4,1.1.5,1.7.5.6,0,1.2-.2,1.6-.7.6-.7.6-1.9,0-2.5-1.6-1.5-5.5.7-3.2,2.6Z" fill="#bc3156"/>
      <path d="M174.4,291.2c.5.4,1.1.5,1.7.5.6,0,1.2-.2,1.6-.7.6-.7.6-1.9,0-2.5-1.6-1.5-5.5.7-3.2,2.6Z" fill="#bc3156"/>
      <path d="M146.5,282.2c.5.4,1.1.5,1.7.5.6,0,1.2-.2,1.6-.7.6-.7.6-1.9,0-2.5-1.6-1.5-5.5.7-3.2,2.6Z" fill="#bc3156"/>
      <path d="M125.6,282.2c.5.4,1.1.5,1.7.5.6,0,1.2-.2,1.6-.7.6-.7.6-1.9,0-2.5-1.6-1.5-5.5.7-3.2,2.6Z" fill="#bc3156"/>
      <path d="M64.4,281.5c.5.4,1.1.5,1.7.5.6,0,1.2-.2,1.6-.7.6-.7.6-1.9,0-2.5-1.6-1.5-5.5.7-3.2,2.6Z" fill="#bc3156"/>
      <path d="M40,280.3c.5.4,1.1.5,1.7.5.6,0,1.2-.2,1.6-.7.6-.7.6-1.9,0-2.5-1.6-1.5-5.5.7-3.2,2.6Z" fill="#bc3156"/>
      <path d="M85.8,291.2c.5.4,1.1.5,1.7.5s1.2-.2,1.6-.7c.6-.7.6-1.9,0-2.5-1.6-1.5-5.5.7-3.2,2.6Z" fill="#bc3156"/>
    </g>
  </g>
  <g>
    <g>
      <g>
        <path d="M242.5,292h-.1c0,.1-6.2.6-6.2.6,0-.2,0-.5,0-.7,0-.8-.1-1.7-.2-2.5-.2-2.3-.4-4.5-.7-6.8,0-.8-.2-1.6-.3-2.5-.3-2.2-.6-4.4-.9-6.6-.1-.8-.2-1.6-.4-2.4-.3-2.1-.7-4.3-1.1-6.4-.1-.8-.3-1.6-.4-2.3-.4-2.3-.9-4.6-1.3-6.8,3.4-1.7,5.1-2.1,8.6-3.9,0,1.1,0,2.2.1,3.3,0,.9,0,1.8.1,2.6.1,2.4.2,4.8.4,7.1,0,.9.1,1.7.2,2.6.2,2.3.3,4.7.5,7h0c0,.8.1,1.7.2,2.5.2,2.3.4,4.6.7,6.8,0,.8.2,1.7.3,2.5.2,1.9.4,3.8.7,5.7Z" fill="#f24c70"/>
        <path d="M239.6,257.7l-7,7c-.1-.8-.3-1.6-.4-2.3l7.4-7.4c0,.9,0,1.8.1,2.6Z" fill="#bc3156"/>
        <path d="M240.2,267.4l-6.1,6.1c-.1-.8-.2-1.6-.4-2.4l6.3-6.3c0,.9.1,1.7.2,2.6Z" fill="#bc3156"/>
        <path d="M240.9,276.9l-5.7,5.7c0-.8-.2-1.6-.3-2.5l5.8-5.8c0,.8.1,1.7.2,2.5Z" fill="#bc3156"/>
        <path d="M241.8,286.2l-5.7,5.7c0-.8-.1-1.7-.2-2.5l5.6-5.6c0,.8.2,1.7.3,2.5Z" fill="#bc3156"/>
        <path d="M235,251.8c-.5.5-1.3.5-1.8,0-2.1-2-3.1-5.1-2.9-8,.1-2.7,1.2-5.3,2.7-7.6.5-.8,1.6-.8,2.1,0,1.5,2,3.5,3.6,4.2,6,.5,1.8,0,3.8-.8,5.5-.7,1.4-2.2,2.8-3.4,4Z" fill="#ff6000"/>
        <path d="M234.8,251.7c-.3.4-.9.4-1.3,0-1.4-1.4-2.1-3.5-2-5.5,0-1.9.8-3.6,1.8-5.2.3-.5,1.1-.5,1.5,0,1,1.4,2.4,2.4,2.9,4.1.4,1.3,0,2.6-.5,3.8-.5.9-1.5,1.9-2.3,2.8Z" fill="#fca53d"/>
      </g>
      <g>
        <path d="M258.4,261.4c0,.9-.1,1.7-.2,2.5-.3,3.5-.5,6.3-.6,8.9-.2,2.9-.3,5.6-.3,8.5,0,2.5,0,5.2,0,8.5,0,.8,0,1.7,0,2.7h-.1c0,.1-6.2,0-6.2,0,0-4.5,0-7.8,0-10.8h0c-.1-2.7-.3-5.1-.6-7.9-.3-2.6-.6-5.5-1-9.3,3.6-1.4,5.3-1.6,8.9-3Z" fill="#ff6000"/>
        <path d="M258.2,263.9c-.3,3.5-.5,6.3-.6,8.9-2.1-.4-3.7-2.2-3.7-4.4s1.9-4.4,4.3-4.5Z" fill="#fff"/>
        <path d="M253.1,277.8c0,1.6-.9,3-2.1,3.8-.1-2.7-.3-5.1-.6-7.9,1.6.7,2.7,2.3,2.7,4.1Z" fill="#fff"/>
        <path d="M257.3,289.8c-1.8-.6-3.1-2.3-3.1-4.3s1.3-3.7,3.1-4.2c0,2.5,0,5.2,0,8.5Z" fill="#fff"/>
        <path d="M254,261.1c-.6.5-1.4.4-1.8-.2-1.9-2.2-2.6-5.3-2.1-8.2.4-2.7,1.7-5.1,3.4-7.3.6-.7,1.7-.6,2.1.2,1.3,2.1,3.1,3.9,3.5,6.4.3,1.9-.3,3.8-1.4,5.4-.8,1.3-2.5,2.5-3.8,3.6Z" fill="#ff6000"/>
        <path d="M253.8,260.9c-.4.3-.9.3-1.3-.1-1.3-1.5-1.8-3.7-1.4-5.6.3-1.8,1.2-3.5,2.4-5,.4-.5,1.1-.4,1.5.1.9,1.5,2.1,2.7,2.4,4.4.2,1.3-.2,2.6-.9,3.7-.6.9-1.7,1.7-2.6,2.5Z" fill="#fca53d"/>
      </g>
      <g>
        <path d="M292.2,259.6c-.4,3.1-.8,5.8-1.1,8.1-.5,4.2-.9,7.5-1.2,11.2-.2,2.7-.4,5.5-.6,8.9,0,1.6-.1,3.4-.2,5.4h-.1c0,.1-6.7-.4-6.7-.4.6-7.7.7-12.1.6-17,0-2.3-.2-4.8-.3-7.7,0-1.7-.2-3.6-.3-5.8,3.7-1.2,5.6-1.4,9.1-2.4h0c.3,0,.5-.2.8-.2Z" fill="#ff6000"/>
        <path d="M289.9,278.9c-.2,2.7-.4,5.5-.6,8.9-2.4,0-4.4-2-4.4-4.5s2-4.5,4.5-4.5.3,0,.5,0Z" fill="#fff"/>
        <path d="M285,272c0,1.6-.8,3-2.1,3.8,0-2.3-.2-4.8-.3-7.7,1.4.7,2.4,2.2,2.4,3.9Z" fill="#fff"/>
        <path d="M292.2,259.6c-.4,3.1-.8,5.8-1.1,8.1-1.3-.8-2.2-2.2-2.2-3.9s1-3.3,2.5-4h0c.3,0,.5-.2.8-.2Z" fill="#fff"/>
        <path d="M287.5,259c-.6.5-1.5.3-2-.3-1.9-2.5-2.4-6-1.8-9.1.6-2.9,2.2-5.5,4.2-7.6.7-.7,1.8-.6,2.3.3,1.3,2.4,3.1,4.4,3.4,7.2.2,2.1-.6,4.1-1.8,5.8-1,1.3-2.9,2.6-4.4,3.7Z" fill="#ff6000"/>
        <path d="M287.3,258.8c-.4.3-1,.2-1.4-.2-1.3-1.7-1.7-4.1-1.2-6.2.4-2,1.5-3.7,2.9-5.2.5-.5,1.3-.4,1.6.2.9,1.6,2.1,3,2.3,4.9.2,1.4-.4,2.8-1.2,4-.7.9-2,1.8-3,2.5Z" fill="#fca53d"/>
      </g>
      <g>
        <g>
          <path d="M276.7,235.6c-.3,2-.6,4.4-.8,7.1,0,.8-.2,1.6-.2,2.4-.2,2.6-.5,5.3-.7,8.2,0,.8-.1,1.6-.2,2.4-.2,2.7-.4,5.4-.5,8.1,0,.8,0,1.6-.1,2.4-.2,2.7-.3,5.5-.4,8.1,0,.8,0,1.6-.1,2.4-.1,2.8-.3,5.6-.4,8.1,0,.8,0,1.6-.1,2.3,0,2-.2,3.9-.2,5.5h-.1c0,.1-6.2-.4-6.2-.4,0-.3,0-.7,0-1.1,0-.7.1-1.5.2-2.4.2-2.4.3-5.1.4-8.1,0-.8,0-1.5,0-2.3,0-2.6.2-5.2.2-8,0-.8,0-1.5,0-2.3,0-2.6,0-5.3.1-7.9,0-.8,0-1.5,0-2.3,0-2.7,0-5.3,0-7.8,0-.8,0-1.5,0-2.3,0-3.8,0-7.1-.2-9.7,3.7-1.1,5.4-1.2,9.1-2.4Z" fill="#f24c70"/>
          <path d="M272.3,235c-.6.4-1.4.3-1.8-.3-1.7-2.3-2.2-5.5-1.5-8.4.6-2.6,2.1-5,3.9-7,.6-.7,1.7-.5,2.1.3,1.1,2.2,2.8,4.1,3.1,6.6.2,1.9-.6,3.8-1.7,5.3-.9,1.2-2.6,2.4-4.1,3.4Z" fill="#ff6000"/>
          <path d="M272.1,234.8c-.4.3-1,.2-1.3-.2-1.2-1.6-1.5-3.8-1.1-5.7.4-1.8,1.4-3.4,2.7-4.8.4-.4,1.2-.3,1.5.2.8,1.5,1.9,2.8,2.1,4.5.1,1.3-.4,2.6-1.2,3.6-.6.8-1.8,1.6-2.8,2.3Z" fill="#fca53d"/>
        </g>
        <path d="M275.8,242.7c0,.8-.2,1.6-.2,2.4-2.6,1.6-5.3,3.2-7.9,4.8,0-.8,0-1.5,0-2.3,2.7-1.7,5.4-3.3,8.1-5Z" fill="#bc3156"/>
        <path d="M275,253.4c0,.8-.1,1.6-.2,2.4-2.4,1.5-4.7,2.9-7.1,4.4,0-.8,0-1.5,0-2.3,2.4-1.5,4.8-3,7.3-4.4Z" fill="#bc3156"/>
        <path d="M274.3,263.9c0,.8,0,1.6-.1,2.4-2.2,1.4-4.4,2.7-6.6,4.1,0-.8,0-1.5,0-2.3,2.2-1.4,4.5-2.7,6.7-4.1Z" fill="#bc3156"/>
        <path d="M273.7,274.3c0,.8,0,1.6-.1,2.4-2.1,1.3-4.3,2.6-6.4,3.9,0-.8,0-1.5,0-2.3,2.1-1.3,4.3-2.6,6.4-3.9Z" fill="#bc3156"/>
        <path d="M273.2,284.8c0,.8,0,1.6-.1,2.3-2.2,1.3-4.3,2.7-6.5,4,0-.7.1-1.5.2-2.4,2.1-1.3,4.3-2.6,6.4-3.9Z" fill="#bc3156"/>
      </g>
      <path d="M325.8,354.1c-1-4.2,0-8.6-.1-12.9,0-4.3-1.5-9.2-5.4-11.2-2.3-1.2-4.9-1.2-7.5-1.2-31.4,0-62.9.1-94.3.2-3.7,0-7.8.1-10.7,2.5-3,2.5-3.7,6.7-3.5,10.5.2,3.8.9,7.7,0,11.4l121.6.8Z" fill="#666b46"/>
      <path d="M344.3,416c0,1.2-.2,2.3-.5,3.3-.6,2.3-1.9,4.1-4.5,5-1,.3-2.2.6-3.6.6-.6,0-1.2,0-1.7,0-1.9,0-3.7,0-5.6,0-.8,0-1.5,0-2.3,0-2.4,0-4.9,0-7.3,0-1.9,0-3.9,0-5.8,0-1.9,0-3.8,0-5.7,0-.8,0-1.5,0-2.3,0h-.3c-2.3,0-4.6,0-6.9,0h-5.8c-1.9,0-3.8,0-5.6,0h-2.3c-2.4,0-4.9,0-7.3,0s-3.8,0-5.8,0h-7.9c-2.4,0-4.8,0-7.3,0s-3.8,0-5.8,0h-5.6c-.8,0-1.5,0-2.3,0h-7.3c-1.9,0-3.8,0-5.7,0s-3.8,0-5.6,0c-.8,0-1.5,0-2.3,0-2.4,0-4.9,0-7.3,0h-5.7c-1.9,0-3.8,0-5.6,0h-.3c-.7,0-1.3,0-2,0-3.1-.2-6.3-.8-8-3.4-1.1-1.6-1.2-3.7-1.3-5.6-.2-3.6-.4-7.2-.6-10.8-.1-2-.2-4.1-.3-6.1-.6-10.6-1.1-21.3-1.7-31.9-.1-2.7-.3-5.5.9-8,0,0,0,0,0-.1,1-1.9,2.5-3.3,4.4-4.2,1.7-.8,3.6-1.3,5.6-1.5.6,0,1.3-.1,1.9-.2,1.4,0,2.8-.1,4.1,0,1.4,0,2.8,0,4.3,0,1.6,0,3.3,0,4.9,0,1.9,0,3.8,0,5.7,0,.6,0,1.3,0,1.9,0,2.8,0,5.6,0,8.4.1,1.6,0,3.3,0,4.9,0,1.9,0,3.8,0,5.7,0,.6,0,1.3,0,1.9,0,2.8,0,5.6,0,8.4.1,1.6,0,3.3,0,4.9,0,1.9,0,3.8,0,5.7,0,.6,0,1.3,0,1.9,0,2.8,0,5.6,0,8.4.1,1.6,0,3.3,0,4.9,0,1.9,0,3.8,0,5.7,0,.7,0,1.3,0,2,0,2.8,0,5.6,0,8.4.1,1.6,0,3.3,0,4.9,0,1.9,0,3.8,0,5.7,0,.6,0,1.3,0,1.9,0,2.8,0,5.6,0,8.4.1,1.6,0,3.3,0,4.9,0,1.9,0,3.8,0,5.7,0,.6,0,1.3,0,1.9,0,2.2,0,4.3,0,6.5,0,.6,0,1.3,0,1.9,0,1.6.1,3.1.4,4.3,1.4.3.2.5.5.8.7,1.5,1.8,1.8,4.6,1.9,7.1.1,3.5.3,7.1.4,10.6.3,8.7.7,17.4,1,26,.1,2.9.2,5.8.3,8.7,0,2.4.2,4.7.1,6.8Z" fill="#ffc866"/>
      <g>
        <path d="M202.7,424.8h-.3c-.7,0-1.3,0-2,0-.6-1.1-1.3-2.2-1.9-3.3-3-5.4-5.7-10.9-8-16.5-.1-2-.2-4.1-.3-6.1.8,2,1.6,4,2.4,6,2.9,6.9,6.3,13.5,10.1,19.9Z" fill="#fca53d"/>
        <path d="M214.1,424.8h-5.7c-12.3-19.9-16.6-42.9-19-65.8,0,0,0,0,0-.1,1-1.9,2.5-3.3,4.4-4.2,2.4,24.5,6.7,49.8,20.3,70.1Z" fill="#fca53d"/>
        <path d="M223.6,424.8c-.8,0-1.5,0-2.3,0-.7-1.1-1.3-2.2-1.9-3.3-6.5-11.7-11.6-24.3-15-37.3-2.7-10.1-4.4-20.6-5-31.1.6,0,1.3-.1,1.9-.2.3,4.6.7,9.1,1.4,13.7,2,13.1,5.6,26,10.8,38.3,2.9,6.9,6.3,13.5,10.1,19.9Z" fill="#fca53d"/>
        <path d="M235,424.8c-1.9,0-3.8,0-5.7,0-13.3-21.6-17.3-46.9-19.6-71.9,1.6,0,3.3,0,4.9,0,2.4,25.1,6.6,51.1,20.4,71.9Z" fill="#fca53d"/>
        <path d="M244.6,424.8c-.8,0-1.5,0-2.3,0-.7-1.1-1.3-2.2-1.9-3.3-6.5-11.7-11.6-24.3-15-37.3-2.7-10.2-4.4-20.6-5-31.2.6,0,1.3,0,1.9,0,.3,4.5.7,9.1,1.4,13.6,2,13.1,5.6,26,10.8,38.3,2.9,6.9,6.3,13.6,10.1,19.9Z" fill="#fca53d"/>
        <path d="M256,424.8c-1.9,0-3.8,0-5.8,0-13.3-21.6-17.2-46.8-19.6-71.7,1.6,0,3.3,0,4.9,0,2.4,25,6.6,50.9,20.4,71.6Z" fill="#fca53d"/>
        <path d="M265.5,424.8h-2.3c-.7-1.1-1.3-2.2-1.9-3.4-6.5-11.7-11.6-24.3-15-37.3-2.7-10.1-4.4-20.5-5-30.9.6,0,1.3,0,1.9,0,.3,4.4.7,8.9,1.4,13.3,2,13.1,5.6,26,10.8,38.3,2.9,6.9,6.3,13.6,10.1,20Z" fill="#fca53d"/>
        <path d="M276.9,424.8c-1.9,0-3.8,0-5.8,0-13.3-21.5-17.2-46.6-19.5-71.4,1.6,0,3.3,0,4.9,0,2.4,24.9,6.6,50.7,20.4,71.3Z" fill="#fca53d"/>
        <path d="M286.5,424.8h-2.3c-.7-1.1-1.3-2.2-1.9-3.4-6.5-11.7-11.6-24.3-15-37.3-2.6-10-4.3-20.3-5-30.6.6,0,1.3,0,1.9,0,.3,4.4.7,8.7,1.4,13,2,13.1,5.6,26,10.8,38.3,2.9,6.9,6.3,13.6,10.1,20Z" fill="#fca53d"/>
        <path d="M297.9,424.8h-5.8c-13.2-21.4-17.2-46.4-19.5-71.1,1.6,0,3.3,0,4.9,0,2.4,24.8,6.6,50.5,20.4,71.1Z" fill="#fca53d"/>
        <path d="M307.4,424.9c-.8,0-1.5,0-2.3,0-.7-1.1-1.3-2.2-1.9-3.4-6.5-11.7-11.6-24.3-15-37.3-2.6-9.9-4.3-20.1-5-30.4.7,0,1.3,0,2,0,.3,4.3.7,8.5,1.4,12.8,2,13.1,5.6,26,10.8,38.3,2.9,6.9,6.3,13.6,10.1,20Z" fill="#fca53d"/>
        <path d="M318.9,425c-1.9,0-3.9,0-5.8,0-13.2-21.4-17.2-46.3-19.6-71,1.6,0,3.3,0,4.9,0,2.4,24.8,6.7,50.5,20.5,71Z" fill="#fca53d"/>
        <path d="M328.5,425.1c-.8,0-1.5,0-2.3,0-.7-1.2-1.4-2.4-2.1-3.6-6.5-11.7-11.6-24.3-15-37.3-2.6-9.8-4.3-19.9-5-30.1.6,0,1.3,0,1.9,0,.3,4.2.7,8.3,1.4,12.5,2,13.1,5.6,26,10.8,38.3,2.9,7,6.4,13.7,10.3,20.2Z" fill="#fca53d"/>
        <path d="M339.4,424.3c-1,.3-2.2.6-3.6.6-.6,0-1.2,0-1.7,0-13.2-21.3-17.2-46.1-19.5-70.7,1.6,0,3.3,0,4.9,0,2.4,24.4,6.6,49.7,20,70Z" fill="#fca53d"/>
        <path d="M344.3,416c0,1.2-.2,2.3-.5,3.3-6-11.1-10.6-22.9-13.8-35.1-2.6-9.8-4.2-19.8-4.9-29.8.6,0,1.3,0,1.9,0,.3,4.1.7,8.2,1.3,12.2,2,13.1,5.6,26,10.8,38.3,1.6,3.8,3.3,7.5,5.2,11.1Z" fill="#fca53d"/>
        <path d="M343.9,400.4c-4.7-14.8-6.9-30.4-8.4-45.9,1.6.1,3.1.4,4.3,1.4.3.2.5.5.8.7.6,5.9,1.3,11.8,2.3,17.7.3,8.7.7,17.4,1,26Z" fill="#fca53d"/>
      </g>
      <path d="M197.5,351c-3.1,0-6.6.2-8.9,2.2-3,2.6-3.1,7.3-2.8,11.3l1,18.1c.2,2.8,1.2,6.4,3.9,6.5,2.5,0,3.8-3,3.8-5.5,0-2.5-.3-5.3,1.4-7.1,1.2-1.3,3.1-1.8,4.4-3,1.7-1.5,2.2-3.9,2.6-6.1s1-4.6,2.7-6c1.7-1.4,5-1.1,5.5,1.1.4,1.7-.9,3.5-.3,5.1.5,1.2,1.7,1.7,2.8,2.4,4.1,2.8,4.2,8.7,3.9,13.6-.3,5.5-.6,11-.9,16.5-.2,3.2.5,7.5,3.6,7.9,2.6.4,4.6-2.5,4.8-5,.2-2.6-.7-5.1-.7-7.7,0-7,6.5-12.7,6.9-19.6.1-2.4-.5-4.8-.6-7.3-.1-2.4.3-5.1,2-6.8s5.1-1.7,6.3.5c.6,1.1.5,2.4.7,3.6s1,2.5,2.2,2.5c1.3,0,2.1-1.3,3.2-1.8,1.5-.6,3.1.4,3.9,1.8.7,1.4.8,3,.8,4.5.2,13.2-.2,26.5-1.2,39.7-.3,3.3,0,7.4,2.9,8.7,2.4,1.1,5.3-.6,6.5-2.9,1.2-2.3,1.2-5.1,1.2-7.7,0-4.5-.2-9-.2-13.5,0-2.1.1-4.5,1.8-5.6,1.1-.7,2.5-.7,3.7-1.3,2.1-1,2.9-3.7,2.7-6s-1.1-4.6-1.3-6.9c-.7-7,4.5-12.9,9.4-18,1.5-1.6,4.1-3.3,5.8-1.9,1.1.9,1,2.6,1.2,4s1.1,3.1,2.5,2.9c1.9-.3,1.8-3.5,3.5-4.2,1.1-.4,2.3.3,2.8,1.4s.5,2.2.4,3.4c-.2,4.3-.3,8.7-.5,13,0,2,0,4.4,1.8,5.3,2,1,4.4-.9,4.9-3.1.7-2.8,0-5.9.6-8.7.3-1.4,1.2-2.7,2.5-3.1,1.2-.4,2.7,0,3.7-.7,1-.6,1.2-1.9,1.3-3.1,0-1.2,0-2.4.6-3.4.8-1.3,2.6-1.8,4-1.3,3.4,1.2,3.6,5.7,4,8.7.6,4.3,0,9.1,0,13.4,0,9.3-.2,18.5-.3,27.8,0,1,0,2,.5,2.9,1.2,1.8,4.3,1.2,5.5-.6,1.2-1.8,1.2-4.2,1.1-6.3,0-5.7,0-11.7,1.1-17.3,1.1-5.5.8-11.6,1-17.2,0-1.1.2-2.5,1.2-3.1,1.5-.9,3.7.4,5-.7.7-.6.8-1.5.8-2.4,0-.9,0-1.8.3-2.6.4-.8,1.5-1.2,2.2-.6.4.4.4,1,.4,1.6,0,2.5-.1,5-.2,7.5,0,1.3.1,2.9,1.3,3.4,1,.4,2.1-.2,3.2,0,.9.2,1.6.9,1.9,1.8.3.8.4,1.8.4,2.7.1,5.1,0,10.1-.5,15.2-.1,1.4-.3,2.9.3,4.1.8,1.6,3.3,2.6,4.7,1.4,1.6-1.4,1.9-4.2,2-6.2.2-9.1.4-18.2.6-27.2,0-4.5,0-9.6-3.4-12.6-2.8-2.6-7.1-2.7-10.9-2.8-18.1,0-36.2-.2-54.3-.3-9,0-18-.3-27-.1-3.3,0-6.5.9-9.9.9-4.5,0-9.1,0-13.6.1-10.2,0-20.3.2-30.5.2Z" fill="#ff6000"/>
      <path d="M319.1,321l-109-.8c-2,.3-3.7,2-4,4s.7,4.1,2.5,5.1c1.8.9,4.2.6,5.6-.8,0,1.1,1.1,2.2,2.2,2.4,1.1.2,2.3-.4,2.8-1.4.2.6.8,1,1.4,1.1.6,0,1.3-.3,1.6-.9,0,1.7,1.2,3.2,2.7,3.9,1.5.7,3.3.5,4.9,0,1.6-.6,2.9-1.7,4-2.9.9.6,1.5,1,2.5,1.3s2.1.2,3-.3c.9-.5,1.7-1.3,1.8-2.4.4.7,1.2,1.1,2,1.2.8,0,1.6-.3,2.1-.8,1.1,1.7,3.1,2.8,5.2,2.8,2,0,4.1-1,5.2-2.7.6.9,1.6,1.4,2.7,1.4,1,0,2.1-.6,2.6-1.5,1.7,2,4.2,3.4,6.8,3.5,2.6,0,5.3-1.4,6.4-3.7.6,1,2.2,2,3.4,2,1.2,0,2.4-.7,3.1-1.7,1,2.3,3.5,3.9,6,3.8,2.5-.1,4.9-1.9,5.7-4.3.7.6,1.5,1.2,2.4,1.4.9.2,2-.2,2.3-1.1,1,1.7,2.8,2.9,4.8,3.1,2,.2,4-.7,5.2-2.3.4.9,1.5,1.4,2.4,1.2,1-.2,1.7-1.1,1.7-2.1,1.4,1.8,3.8,2.6,6,2.1s3.9-2.4,4.4-4.6c.4-2.2-.6-4.6-2.4-5.9Z" fill="#ff6000"/>
      <path d="M204.1,315c0,1.8.1,3.9,1.3,5.3,1.5,1.9,4.3,2,6.7,2.1,34.2.4,68.5.8,102.7,1.2,2.4,0,5.1,0,6.6-1.9,1.1-1.3,1.3-3.2,1.4-4.9.2-2.9.3-5.8.4-8.7,0-2.3.1-4.7-1.1-6.7-2-3.2-6.5-3.6-10.2-3.7-32.9-.7-65.8-1.4-98.7-2.2-3.7,0-8.5.7-9.3,5-.9,4.5.1,9.9.2,14.5Z" fill="#666b46"/>
      <g>
        <path d="M208.9,343.4c-.2.5-.2,1,0,1.5.2.6.6,1,1.1,1.4,1.1.7,2.6.7,3.6,0s1.5-2.2,1.1-3.4c-1.1-2.8-4.8-1.9-5.7.6Z" fill="#454933"/>
        <path d="M234.9,336.2c-.2.5-.2,1,0,1.5.2.6.6,1,1.1,1.4,1.1.7,2.6.7,3.6,0,1.1-.7,1.5-2.2,1.1-3.4-1.1-2.8-4.8-1.9-5.7.6Z" fill="#454933"/>
        <path d="M264,337.3c-.2.5-.2,1,0,1.5.2.6.6,1,1.1,1.4,1.1.7,2.6.7,3.6,0,1.1-.7,1.5-2.2,1.1-3.4-1.1-2.8-4.8-1.9-5.7.6Z" fill="#454933"/>
        <path d="M295.9,345.1c-.2.5-.2,1,0,1.5.2.6.6,1,1.1,1.4,1.1.7,2.6.7,3.6,0,1.1-.7,1.5-2.2,1.1-3.4-1.1-2.8-4.8-1.9-5.7.6Z" fill="#454933"/>
        <path d="M310.3,311.8c-.2.5-.2,1,0,1.5.2.6.6,1,1.1,1.4,1.1.7,2.6.7,3.6,0,1.1-.7,1.5-2.2,1.1-3.4-1.1-2.8-4.8-1.9-5.7.6Z" fill="#454933"/>
        <path d="M292.8,304.4c-.2.5-.2,1,0,1.5.2.6.6,1,1.1,1.4,1.1.7,2.6.7,3.6,0s1.5-2.2,1.1-3.4c-1.1-2.8-4.8-1.9-5.7.6Z" fill="#454933"/>
        <path d="M249,301.5c-.2.5-.2,1,0,1.5.2.6.6,1,1.1,1.4,1.1.7,2.6.7,3.6,0,1.1-.7,1.5-2.2,1.1-3.4-1.1-2.8-4.8-1.9-5.7.6Z" fill="#454933"/>
        <path d="M229.6,313c-.2.5-.2,1,0,1.5.2.6.6,1,1.1,1.4,1.1.7,2.6.7,3.6,0,1.1-.7,1.5-2.2,1.1-3.4-1.1-2.8-4.8-1.9-5.7.6Z" fill="#454933"/>
        <path d="M210,301.5c-.2.5-.2,1,0,1.5.2.6.6,1,1.1,1.4,1.1.7,2.6.7,3.6,0,1.1-.7,1.5-2.2,1.1-3.4-1.1-2.8-4.8-1.9-5.7.6Z" fill="#454933"/>
        <path d="M274.7,314.7c-.2.5-.2,1,0,1.5.2.6.6,1,1.1,1.4,1.1.7,2.6.7,3.6,0,1.1-.7,1.5-2.2,1.1-3.4-1.1-2.8-4.8-1.9-5.7.6Z" fill="#454933"/>
        <path d="M214.1,339.8c.6.4,1.6.3,2-.3.2-.3.3-.6.3-1,.1-1.1-.8-2.2-2-1.7-1.2.5-1.6,2.2-.4,3Z" fill="#454933"/>
        <path d="M230.1,343.4c.6.4,1.6.3,2-.3.2-.3.3-.6.3-1,.1-1.1-.8-2.2-2-1.7-1.2.5-1.6,2.2-.4,3Z" fill="#454933"/>
        <path d="M254.2,348.2c.6.4,1.6.3,2-.3.2-.3.3-.6.3-1,.1-1.1-.8-2.2-2-1.7-1.2.5-1.6,2.2-.4,3Z" fill="#454933"/>
        <path d="M301.8,336.4c.6.4,1.6.3,2-.3.2-.3.3-.6.3-1,.1-1.1-.8-2.2-2-1.7-1.2.5-1.6,2.2-.4,3Z" fill="#454933"/>
        <path d="M271.8,338.1c.6.4,1.6.3,2-.3.2-.3.3-.6.3-1,.1-1.1-.8-2.2-2-1.7-1.2.5-1.6,2.2-.4,3Z" fill="#454933"/>
        <path d="M287.4,344.2c.6.4,1.6.3,2-.3.2-.3.3-.6.3-1,.1-1.1-.8-2.2-2-1.7-1.2.5-1.6,2.2-.4,3Z" fill="#454933"/>
        <path d="M311.2,343.4c.6.4,1.6.3,2-.3.2-.3.3-.6.3-1,.1-1.1-.8-2.2-2-1.7-1.2.5-1.6,2.2-.4,3Z" fill="#454933"/>
        <path d="M304.8,316c.6.4,1.6.3,2-.3.2-.3.3-.6.3-1,.1-1.1-.8-2.2-2-1.7-1.2.5-1.6,2.2-.4,3Z" fill="#454933"/>
        <path d="M288.9,311c.6.4,1.6.3,2-.3.2-.3.3-.6.3-1,.1-1.1-.8-2.2-2-1.7-1.2.5-1.6,2.2-.4,3Z" fill="#454933"/>
        <path d="M308.4,304.7c.6.4,1.6.3,2-.3.2-.3.3-.6.3-1,.1-1.1-.8-2.2-2-1.7-1.2.5-1.6,2.2-.4,3Z" fill="#454933"/>
        <path d="M278.2,303.5c.6.4,1.6.3,2-.3.2-.3.3-.6.3-1,.1-1.1-.8-2.2-2-1.7-1.2.5-1.6,2.2-.4,3Z" fill="#454933"/>
        <path d="M249.8,316.6c.6.4,1.6.3,2-.3.2-.3.3-.6.3-1,.1-1.1-.8-2.2-2-1.7-1.2.5-1.6,2.2-.4,3Z" fill="#454933"/>
        <path d="M224.7,309.3c.6.4,1.6.3,2-.3.2-.3.3-.6.3-1,.1-1.1-.8-2.2-2-1.7-1.2.5-1.6,2.2-.4,3Z" fill="#454933"/>
        <path d="M269.7,314.4c.6.4,1.6.3,2-.3.2-.3.3-.6.3-1,.1-1.1-.8-2.2-2-1.7-1.2.5-1.6,2.2-.4,3Z" fill="#454933"/>
        <path d="M237.3,305.2c.6.4,1.6.3,2-.3.2-.3.3-.6.3-1,.1-1.1-.8-2.2-2-1.7-1.2.5-1.6,2.2-.4,3Z" fill="#454933"/>
        <path d="M218.4,315.5c.6.4,1.6.3,2-.3.2-.3.3-.6.3-1,.1-1.1-.8-2.2-2-1.7-1.2.5-1.6,2.2-.4,3Z" fill="#454933"/>
        <path d="M259.6,308c.6.4,1.6.3,2-.3.2-.3.3-.6.3-1,.1-1.1-.8-2.2-2-1.7-1.2.5-1.6,2.2-.4,3Z" fill="#454933"/>
      </g>
      <path d="M225,291.2c-2.9,0-5.9,0-8.8,0-1.4,0-2.7,0-4,.3-1.5.3-2.9,0-4.4,0-1.5,0-3.2.2-4.1,1.4-.7.9-.7,2.1-.7,3.2,0,.9,0,1.8.3,2.7.3.9,1,1.6,1.9,1.8,1.6.2,2.7-1.4,4.1-2,1.1-.4,2.4-.1,3.3.7.8.8,1.1,1.9,2,2.6.8.6,2,.7,3,.3,1-.4,1.8-1.2,2.3-2.1.4-.6.8-1.4,1.5-1.7.4-.2.9-.2,1.4-.1,1.5,0,3,.1,4.5.2,1.3,0,2.7.1,3.9.9.7.5,1.3,1.2,2.1,1.7.7.5,1.8.7,2.5,0,.6-.5.6-1.4,1-2.1.9-1.8,3.3-.8,4.8-.6,1.9.3,4,1.1,4.8,3,.6,1.4.3,2.9.3,4.4,0,1.5.5,3.2,1.9,3.7,1.8.6,3.5-1.3,4.2-3.2.6-1.8.8-5.1,3.1-5.5.9-.1,1.8,0,2.6.2.9.1,1.8.2,2.6-.2.6-.3,1.1-.8,1.7-1.2,1.3-.7,2.8-.4,4.2-.2,1.7.3,3.5.7,5.2,1,1.3.2,2.6,0,3.9.1,3.4.3,6.9,0,10.1-1.1,1-.3,2.1-.7,3.1-.3,1,.4,1.6,1.3,2.5,1.9,1.2.8,2.8.6,4.2,0,1.4-.5,2.7-1.2,4.1-1.3,1.3-.2,2.7.1,3.7.9,1,.8,1.7,2,1.7,3.3,0,.5-.1,1-.1,1.5,0,.5.2,1,.7,1.3.5.3,1.2,0,1.6-.4s.5-1.1.5-1.6c0-.6,0-1.3.3-1.8s1-.9,1.6-.6c.5.3.5.9.5,1.5,0,1.5,0,3,0,4.6,0,.5,0,1.1.2,1.6s.6,1,1.2,1c1,.1,1.6-1.1,1.8-2.1.2-.9.2-1.9.2-2.8,0-.8-.2-1.7.2-2.5,1.3-2.2,4.7-.2,6.8-.8,2.2-.6,3.5-3.3,2.8-5.4-1.7-5.4-8.8-5.2-13.2-5.3-6.9,0-13.8-.1-20.6-.2-13.8-.1-27.6-.2-41.4-.4-7.8,0-15.5-.1-23.3-.2Z" fill="#ff6000"/>
      <g>
        <path d="M299.4,327.9c.3,0,.7,0,.9-.3.4-.4.3-1.4,0-1.9-.3-.6-1.2-.7-1.7-.4-.5.3-.8.9-.8,1.5,0,.9.7,1.1,1.5,1.1Z" fill="#fca53d"/>
        <path d="M316.9,327.6c.3,0,.7,0,.9-.3.4-.4.3-1.4,0-1.9-.3-.6-1.2-.7-1.7-.4-.5.3-.8.9-.8,1.5,0,.9.7,1.1,1.5,1.1Z" fill="#fca53d"/>
        <path d="M266.6,330.6c.3,0,.7,0,.9-.3.4-.4.3-1.4,0-1.9-.3-.6-1.2-.7-1.7-.4-.5.3-.8.9-.8,1.5,0,.9.7,1.1,1.5,1.1Z" fill="#fca53d"/>
        <path d="M283.4,329.2c.3,0,.7,0,.9-.3.4-.4.3-1.4,0-1.9-.3-.6-1.2-.7-1.7-.4-.5.3-.8.9-.8,1.5,0,.9.7,1.1,1.5,1.1Z" fill="#fca53d"/>
        <path d="M250.3,329.2c.3,0,.7,0,.9-.3.4-.4.3-1.4,0-1.9-.3-.6-1.2-.7-1.7-.4-.5.3-.8.9-.8,1.5,0,.9.7,1.1,1.5,1.1Z" fill="#fca53d"/>
        <path d="M229.6,327c.3,0,.7,0,.9-.3.4-.4.3-1.4,0-1.9-.3-.6-1.2-.7-1.7-.4-.5.3-.8.9-.8,1.5,0,.9.7,1.1,1.5,1.1Z" fill="#fca53d"/>
        <path d="M254.9,326.8c.3,0,.7,0,.9-.3.4-.4.3-1.4,0-1.9-.3-.6-1.2-.7-1.7-.4-.5.3-.8.9-.8,1.5,0,.9.7,1.1,1.5,1.1Z" fill="#fca53d"/>
        <path d="M302.7,329c.2,0,.4,0,.6-.2.3-.3.2-.9,0-1.2-.2-.4-.8-.4-1.1-.3-.3.2-.5.6-.5,1,0,.6.5.7,1,.7Z" fill="#fca53d"/>
        <path d="M311.5,327.6c.2,0,.4,0,.6-.2.3-.3.2-.9,0-1.2-.2-.4-.8-.4-1.1-.3-.3.2-.5.6-.5,1,0,.6.5.7,1,.7Z" fill="#fca53d"/>
        <path d="M286.1,330.8c.2,0,.4,0,.6-.2.3-.3.2-.9,0-1.2-.2-.4-.8-.4-1.1-.3-.3.2-.5.6-.5,1,0,.6.5.7,1,.7Z" fill="#fca53d"/>
        <path d="M270.3,327.2c.2,0,.4,0,.6-.2.3-.3.2-.9,0-1.2-.2-.4-.8-.4-1.1-.3-.3.2-.5.6-.5,1,0,.6.5.7,1,.7Z" fill="#fca53d"/>
        <path d="M246.3,326.5c.2,0,.4,0,.6-.2.3-.3.2-.9,0-1.2-.2-.4-.8-.4-1.1-.3-.3.2-.5.6-.5,1,0,.6.5.7,1,.7Z" fill="#fca53d"/>
        <path d="M218.7,327.9c.2,0,.4,0,.6-.2.3-.3.2-.9,0-1.2-.2-.4-.8-.4-1.1-.3-.3.2-.5.6-.5,1,0,.6.5.7,1,.7Z" fill="#fca53d"/>
        <path d="M230.7,329.7c.2,0,.4,0,.6-.2.3-.3.2-.9,0-1.2-.2-.4-.8-.4-1.1-.3-.3.2-.5.6-.5,1,0,.6.5.7,1,.7Z" fill="#fca53d"/>
        <path d="M211.1,326.5c.2,0,.4,0,.6-.2.3-.3.2-.9,0-1.2-.2-.4-.8-.4-1.1-.3-.3.2-.5.6-.5,1,0,.6.5.7,1,.7Z" fill="#fca53d"/>
        <path d="M289.5,325.8c.2,0,.4,0,.6-.2.3-.3.2-.9,0-1.2-.2-.4-.8-.4-1.1-.3-.3.2-.5.6-.5,1,0,.6.5.7,1,.7Z" fill="#fca53d"/>
      </g>
      <g>
        <path d="M252.9,363.5c0,0-.1-.2-.2-.2-.2-.2-.3-.3-.5-.3-.1,0-.2,0-.3,0,0,0-.1,0-.2,0,0,0-.2-.2-.2-.2-.2-.3-.4-.5-.7-.5-.2,0-.3,0-.5,0-.2,0-.3,0-.5.1-.3.2-.5.4-.6.7,0,.3,0,.7.1.9.3.4.6.8,1,1.1.2.1.4.2.7.3.1,0,.3.1.5.1.2,0,.3,0,.5,0,.2,0,.3,0,.5-.1.1,0,.3-.2.3-.3.1-.1.2-.3.2-.4,0-.3,0-.7-.1-.9Z" fill="#ffbf9b"/>
        <path d="M263.9,364l-.2-.2c-.2-.1-.4-.2-.6-.2-.2,0-.3,0-.5,0-.3,0-.5,0-.8.1-.3,0-.5.2-.7.3-.2.1-.4.3-.7.5-.1.1-.2.2-.3.4,0,.1-.1.3-.1.5,0,.3.1.7.4.9.2.2.5.4.9.4.1,0,.2,0,.3,0,.1,0,.2,0,.3-.2.1,0,.2-.2.4-.2.1,0,.2,0,.3,0,.2,0,.3,0,.5,0,.2,0,.3,0,.5-.1.2,0,.3-.1.4-.3.2-.2.4-.6.4-.9,0-.3-.1-.6-.4-.9Z" fill="#ffbf9b"/>
        <path d="M223.6,375.9c0-.2-.2-.4-.3-.5-.2-.2-.5-.4-.9-.4-.4,0-.8,0-1.2,0-.2,0-.3,0-.5.1-.2,0-.3.1-.4.3-.1.1-.2.2-.3.4,0,.1-.1.3-.1.5,0,.1,0,.2,0,.3,0,.2.2.4.3.5.2.2.5.4.9.4.4,0,.8,0,1.2,0,.2,0,.3,0,.5-.1.2,0,.3-.1.4-.3.1-.1.2-.2.3-.4,0-.1.1-.3.1-.5,0-.1,0-.2,0-.3Z" fill="#ffbf9b"/>
        <path d="M219.6,367.5c0,0,0-.2-.1-.3-.1-.2-.3-.3-.4-.4-.4-.2-.7-.5-1.1-.7-.1,0-.3-.1-.5-.1-.2,0-.3,0-.5,0-.2,0-.3.1-.4.2-.1,0-.2.2-.3.3,0,0,0,.2-.1.3,0,.2,0,.4,0,.6,0,0,0,.2.1.3.1.2.3.3.4.4.4.2.7.5,1.1.7.1,0,.3.1.5.1.2,0,.3,0,.5,0,.2,0,.3-.1.4-.2.1,0,.2-.2.3-.3,0,0,0-.2.1-.3,0-.2,0-.4,0-.6Z" fill="#ffbf9b"/>
        <path d="M226.9,360.2c0-.2,0-.3-.1-.5,0-.1-.2-.3-.3-.3-.1-.1-.3-.2-.4-.2-.1,0-.2,0-.3,0-.2,0-.4,0-.6.2,0,0-.2.1-.2.2-.2.2-.3.3-.3.5,0,.4-.2.7-.2,1.1,0,.2,0,.3,0,.5,0,.2,0,.3.1.5,0,.1.2.3.3.3.1.1.3.2.4.2.1,0,.2,0,.3,0,.2,0,.4,0,.6-.2,0,0,.2-.1.2-.2.2-.2.3-.3.3-.5,0-.4.2-.7.2-1.1,0-.2,0-.3,0-.5Z" fill="#ffbf9b"/>
        <path d="M259.5,383.7c0-.2-.2-.4-.3-.5,0-.1-.2-.2-.3-.3-.2-.1-.4-.3-.6-.4-.2-.1-.4-.2-.6-.3-.1,0-.3-.1-.4-.1-.3,0-.7,0-.9.1-.1,0-.3.2-.3.3-.1.1-.2.3-.2.4,0,.3,0,.7.1.9.2.3.4.5.7.6,0,0,.2,0,.3,0,.1,0,.2.1.3.2,0,0,.2.1.3.2.1.1.2.2.4.3.1,0,.3.1.5.1.2,0,.3,0,.5-.1.2,0,.3-.1.4-.3.2-.2.4-.5.4-.9,0-.1,0-.2,0-.3Z" fill="#ffbf9b"/>
        <path d="M294.6,356.8c-.3-.5-.6-1-.9-1.5-.2-.3-.4-.5-.7-.6-.2,0-.3,0-.5,0-.2,0-.3,0-.5.1-.3.2-.5.4-.6.7,0,.3,0,.7.1.9.3.5.6,1,.9,1.5.2.3.4.5.7.6.2,0,.3,0,.5,0,.2,0,.3,0,.5-.1.3-.2.5-.4.6-.7,0-.3,0-.7-.1-.9Z" fill="#ffbf9b"/>
        <path d="M301.6,361.4c0,0,0-.2-.1-.3-.1-.2-.3-.3-.4-.4,0,0-.2,0-.3-.1-.2,0-.4,0-.6,0l-1.2.5c-.2,0-.3.1-.4.2-.1,0-.2.2-.3.3,0,.1-.1.3-.1.5,0,.2,0,.3,0,.5,0,0,0,.2.1.3.1.2.3.3.4.4,0,0,.2,0,.3.1.2,0,.4,0,.6,0,.4-.2.8-.3,1.2-.5.2,0,.3-.1.4-.2.1,0,.2-.2.3-.3,0-.1.1-.3.1-.5,0-.2,0-.3,0-.5Z" fill="#ffbf9b"/>
        <path d="M322.4,357.6c0-.2,0-.3-.1-.5,0-.2-.1-.3-.3-.4-.1-.1-.2-.2-.4-.3-.1,0-.3-.1-.5-.1-.1,0-.2,0-.3,0-.2,0-.4.2-.5.3l-.2.2c-.1.2-.2.4-.2.6,0,.4,0,.7.1,1.1,0,.2,0,.3.1.5,0,.2.1.3.3.4.1.1.2.2.4.3.1,0,.3.1.5.1.1,0,.2,0,.3,0,.2,0,.4-.2.5-.3,0,0,.1-.2.2-.2.1-.2.2-.4.2-.6,0-.4,0-.7-.1-1.1Z" fill="#ffbf9b"/>
        <path d="M321.3,375c-.2-.3-.4-.5-.7-.6-.6-.2-1.3-.3-1.9-.5-.3,0-.7,0-.9.1-.3.1-.5.4-.6.7,0,.3,0,.7.1.9.2.3.4.5.7.6.6.2,1.3.3,1.9.5.3,0,.7,0,.9-.1.3-.1.5-.4.6-.7,0-.3,0-.7-.1-.9Z" fill="#ffbf9b"/>
        <path d="M337.8,370.2l-.8-1.4c0-.1-.2-.3-.3-.3-.1-.1-.3-.2-.4-.2-.2,0-.3,0-.5,0-.2,0-.3,0-.5.1-.3.2-.5.4-.6.7,0,.3,0,.6.1.9.3.5.5.9.8,1.4,0,.1.2.3.3.3.1.1.3.2.4.2.2,0,.3,0,.5,0,.2,0,.3,0,.5-.1.3-.2.5-.4.6-.7,0-.3,0-.6-.1-.9Z" fill="#ffbf9b"/>
        <path d="M341.5,357.2c0-.2,0-.3-.1-.5,0-.1-.2-.3-.3-.3-.1-.1-.3-.2-.4-.2-.1,0-.2,0-.3,0-.2,0-.4,0-.6.2,0,0-.2.1-.2.2-.2.2-.3.3-.3.5-.1.4-.3.9-.4,1.3,0,.2,0,.3,0,.5,0,.2,0,.3.1.5,0,.1.2.3.3.3.1.1.3.2.4.2.1,0,.2,0,.3,0,.2,0,.4,0,.6-.2,0,0,.2-.1.2-.2.2-.2.3-.3.3-.5.1-.4.3-.9.4-1.3,0-.2,0-.3,0-.5Z" fill="#ffbf9b"/>
        <path d="M263.2,353.3c-.2-.2-.3-.5-.5-.7,0-.1-.2-.3-.3-.3-.1-.1-.3-.2-.4-.2-.2,0-.3,0-.5,0-.2,0-.3,0-.5.1,0,0-.2.1-.2.2-.2.2-.3.3-.3.5,0,.1,0,.2,0,.3,0,.2,0,.4.2.6.2.2.3.5.5.7,0,.1.2.3.3.3.1.1.3.2.4.2.2,0,.3,0,.5,0,.2,0,.3,0,.5-.1,0,0,.2-.1.2-.2.2-.2.3-.3.3-.5,0-.1,0-.2,0-.3,0-.2,0-.4-.2-.6Z" fill="#ffbf9b"/>
        <path d="M194,366c0-.2,0-.3-.1-.5,0-.1-.2-.3-.3-.3-.1-.1-.3-.2-.4-.2-.1,0-.2,0-.3,0-.2,0-.4,0-.6.2,0,0-.2.1-.2.2-.2.2-.3.3-.3.5,0,.3-.2.6-.2.9,0,.2,0,.3,0,.5,0,.2,0,.3.1.5,0,.1.2.3.3.3.1.1.3.2.4.2.1,0,.2,0,.3,0,.2,0,.4,0,.6-.2,0,0,.2-.1.2-.2.2-.2.3-.3.3-.5,0-.3.2-.6.2-.9,0-.2,0-.3,0-.5Z" fill="#ffbf9b"/>
        <path d="M199,357.8c-.3-.3-.7-.6-1.1-.7-.2-.1-.5-.2-.7-.3-.3,0-.5,0-.8-.1-.2,0-.3,0-.5.1-.2,0-.3.1-.4.3-.1.1-.2.2-.3.4,0,.1-.1.3-.1.5,0,.3.1.6.4.9l.2.2c.2,0,.4.1.5.2.2,0,.3,0,.5.1.1,0,.3.1.4.2,0,0,0,0,0,0,.2.2.5.4.9.4s.7-.1.9-.4c.2-.2.4-.5.4-.9,0-.3-.1-.6-.4-.9Z" fill="#ffbf9b"/>
        <path d="M190.2,377.6c0-.2,0-.3-.1-.5,0-.1-.2-.3-.3-.3-.1-.1-.3-.2-.4-.2-.1,0-.2,0-.3,0-.2,0-.4,0-.6.2,0,0-.2.1-.2.2-.2.2-.3.3-.3.5,0,.2-.2.4-.2.6,0,.2,0,.3,0,.5,0,.2,0,.3.1.5,0,.1.2.3.3.3.1.1.3.2.4.2.1,0,.2,0,.3,0,.2,0,.4,0,.6-.2,0,0,.2-.1.2-.2.2-.2.3-.3.3-.5,0-.2.2-.4.2-.6,0-.2,0-.3,0-.5Z" fill="#ffbf9b"/>
      </g>
    </g>
    <g>
      <path d="M192.8,425.5c3.1,1.5,5.8,4,7.4,7,.8,1.5,2.4,2.4,4.1,2.4l127.6-1.1c2,0,3.8-1.3,4.4-3.2.7-2.3,1.9-4.4,3.6-6l-147.2.9Z" fill="#666b46"/>
      <path d="M349.1,421.1c.1,0,.2.1.3.2,2.2,1.4,1.8,4.9-1,4.9-46.1.5-92.3.9-138.4,1.4-7.2,0-14.4.1-21.6.2-1.9,0-4,0-5.4-1.6-4-4.3,4.5-4.7,6.4-4.8,5.7-.2,11.4-.3,17.1-.4,11.5-.3,23-.4,34.5-.5,8.1,0,16.3,0,24.4,0,3.2,0,6.6-.3,9.8.2,3.1.5,6.5,0,9.6,0,6.9-.2,13.8-.3,20.7-.4,13.2-.2,26.5-.3,39.7,0,1.3,0,2.7,0,3.9.7Z" fill="#3f3c39"/>
    </g>
  </g>
  <g>
    <g>
      <g>
        <path d="M392.7,307.3c-.3,2.2-.6,4.9-.9,7.8,0,.9-.2,1.8-.3,2.7-.3,2.8-.5,5.9-.7,9.1,0,.9-.1,1.7-.2,2.6-.2,2.9-.4,6-.6,9,0,.9-.1,1.7-.2,2.6-.2,3-.3,6-.5,8.9,0,.9,0,1.7-.1,2.6-.2,3.1-.3,6.1-.4,8.9,0,.9,0,1.8-.1,2.6,0,2.2-.2,4.3-.3,6h-.2c0,.1-6.8-.5-6.8-.5,0-.4,0-.8,0-1.2,0-.8.1-1.7.2-2.6.2-2.6.3-5.6.5-8.9,0-.8,0-1.7,0-2.6.1-2.8.2-5.8.3-8.8,0-.8,0-1.7,0-2.6,0-2.9.1-5.8.1-8.7,0-.8,0-1.7,0-2.5,0-3,0-5.9,0-8.6,0-.9,0-1.7,0-2.5,0-4.1,0-7.8-.2-10.7,4.1-1.2,6-1.4,10.1-2.6Z" fill="#ffc866"/>
        <path d="M387.9,306.6c-.6.5-1.5.3-2-.3-1.9-2.6-2.4-6.1-1.7-9.2.7-2.9,2.3-5.5,4.3-7.7.7-.7,1.9-.5,2.3.3,1.3,2.4,3.1,4.5,3.4,7.3.2,2.1-.6,4.2-1.9,5.9-1,1.4-2.9,2.6-4.5,3.7Z" fill="#ff6000"/>
        <path d="M387.7,306.4c-.4.3-1.1.2-1.4-.2-1.3-1.8-1.7-4.2-1.2-6.3.5-2,1.6-3.8,3-5.3.5-.5,1.3-.4,1.6.2.9,1.7,2.1,3.1,2.3,5,.1,1.4-.4,2.9-1.3,4-.7.9-2,1.8-3.1,2.5Z" fill="#fca53d"/>
      </g>
      <path d="M391.8,315.1c0,.9-.2,1.8-.3,2.7-2.9,1.8-5.8,3.6-8.7,5.3,0-.9,0-1.7,0-2.5,3-1.8,6-3.7,9-5.5Z" fill="#bc3156"/>
      <path d="M390.8,326.8c0,.9-.1,1.7-.2,2.6-2.6,1.6-5.2,3.2-7.9,4.8,0-.8,0-1.7,0-2.5,2.7-1.6,5.3-3.3,8-4.9Z" fill="#bc3156"/>
      <path d="M390.1,338.4c0,.9-.1,1.7-.2,2.6-2.4,1.5-4.9,3-7.3,4.5,0-.8,0-1.7,0-2.6,2.5-1.5,4.9-3,7.4-4.5Z" fill="#bc3156"/>
      <path d="M389.4,350c0,.9,0,1.7-.1,2.6-2.4,1.4-4.7,2.9-7.1,4.3,0-.8,0-1.7,0-2.6,2.4-1.5,4.7-2.9,7.1-4.3Z" fill="#bc3156"/>
      <path d="M388.9,361.5c0,.9,0,1.8-.1,2.6-2.4,1.5-4.8,2.9-7.2,4.4,0-.8.1-1.7.2-2.6,2.4-1.4,4.7-2.9,7.1-4.3Z" fill="#bc3156"/>
    </g>
    <path d="M408,366l-53.8,5.7c-1.6-.6-2.2-2.6-1.9-4.3.2-1.7,1-3.2,1.3-4.9.1-.8.2-1.7.2-2.5,0-1,0-1.9.2-2.9,0-.3.2-.7.3-1,.9-2.6,3.7-4.2,6.4-4.7,2.7-.5,5.5-.2,8.3-.2,5,0,9.9-1.1,14.6-2.9,3.4-1.3,6.8-2.9,10.5-3.2,3.7-.3,7.8,1.1,9.3,4.5.6,1.4.8,2.9,1.1,4.3.1.6.3,1.2.6,1.8.1.3.2.5.4.8.8,1.4,2,2.6,2.9,4.1,1,1.7,1.3,4.1-.2,5.4Z" fill="#8e935f"/>
    <g>
      <path d="M405.3,356.5c-.4.2-.8.3-1.2.4-2.4.5-4.7,0-6.3-.5-.7-.2-1.3-.4-2-.7-1.1-.4-2.2-.8-3.3-1-3.5-.8-7.3,0-10.3,2-.7.5-1.4,1.1-2.1,1.7-1.9,1.6-3.8,3.2-6.5,3.6-.4,0-.7,0-1.1,0-2,0-3.9-.7-5.7-1.5-.7-.3-1.3-.5-1.9-.7-3.6-1.2-7.6-1.1-11.2.1,0-1,0-1.9.2-2.9,3.9-1.1,8.1-1.1,11.8.2.7.2,1.4.5,2.1.8,1.9.8,3.7,1.5,5.5,1.2,1.9-.3,3.4-1.6,5.1-3,.7-.6,1.5-1.3,2.3-1.8,3.5-2.4,8.2-3.4,12.4-2.5,1.3.3,2.5.7,3.6,1.1.7.2,1.3.4,1.9.6,2,.6,3.6.8,4.9.5.3,0,.6-.2.9-.3.1.6.3,1.2.6,1.8.1.3.2.5.4.8Z" fill="#666b46"/>
      <path d="M384.5,360.6c2,1.1,4.6-1.5,2.4-2.8-1.8-1-4.9,1.5-2.4,2.8Z" fill="#666b46"/>
      <path d="M388.9,357.6c.2,0,.5,0,.7-.1.2-.1.3-.4.2-.6,0-.2-.2-.4-.4-.5-.2-.1-.5-.1-.8-.1-.4,0-.7.2-.6.6,0,.5.4.7.8.8Z" fill="#666b46"/>
      <path d="M360.8,355.2c.2,0,.5,0,.7-.1.2-.1.3-.4.2-.6s-.2-.4-.4-.5c-.2-.1-.5-.1-.8-.1-.4,0-.7.2-.6.6,0,.5.4.7.8.8Z" fill="#666b46"/>
      <path d="M395.7,350.1c.2.5.6.9,1,1.2.3.2.7.4,1.1.4.4,0,.8-.1,1.1-.4.4-.4.4-1.1.3-1.7,0-.4-.2-.8-.5-1.1-.3-.3-.7-.3-1.1-.4-1.4-.2-2.3.6-1.8,2Z" fill="#666b46"/>
      <path d="M361.9,363.5c.2.5.6.9,1,1.2.3.2.7.4,1.1.4.4,0,.8-.1,1.1-.4.4-.4.4-1.1.3-1.7,0-.4-.2-.8-.5-1.1-.3-.3-.7-.3-1.1-.4-1.4-.2-2.3.6-1.8,2Z" fill="#666b46"/>
      <path d="M391.1,349.2c0,.2,0,.3,0,.5.1.2.3.3.5.3.6,0,1.2-.1,1.5-.6.5-.7.2-2.1-.8-2.1-.8,0-1.1,1.3-1.2,1.9Z" fill="#666b46"/>
    </g>
    <path d="M413.7,384.6l-67.1,2c-2.5-3.2-3.2-7.6-1.9-11.4.1-.4.3-.8.5-1.2.4-.8.8-1.5,1.3-2.2,1.7-2.2,4-3.8,6.7-4.5,3.4-.9,7-.3,10.5,0,8.2.8,16.5,0,24.4-2.2,5.5-1.6,11.2-3.9,16.8-2.8,1.4.3,2.7.8,3.9,1.4.9.5,1.8,1.1,2.6,1.8,1.7,1.5,3.1,3.4,4,5.5,1.7,4.4,1.1,9.7-1.7,13.5Z" fill="#666b46"/>
    <g>
      <path d="M411.5,365.5c-2.8-.3-5.6-.2-8,.2-5.3,1-10.4,3.2-15.4,5.3-1.7.7-3.5,1.5-5.2,2.2-4.2,1.7-10.1,3.7-16.1,3.7s-4-.2-6-.7c-1.4-.4-2.8-.9-4.2-1.4-1.7-.6-3.4-1.3-5.1-1.6-1.9-.4-4.3-.3-6.2.7.4-.8.8-1.5,1.3-2.2,1.7-.4,3.6-.4,5.2,0,1.9.4,3.6,1,5.4,1.7,1.3.5,2.7,1,4,1.4,7.6,2,15.7-.7,21.1-2.9,1.7-.7,3.5-1.5,5.2-2.2,5-2.2,10.2-4.5,15.7-5.4,1.8-.3,3.7-.5,5.7-.4.9.5,1.8,1.1,2.6,1.8Z" fill="#454933"/>
      <path d="M408,369.5c0,.6.3,1.2.8,1.6.5.4,1.1.5,1.7.5.3,0,.6,0,.8-.2.4-.3.5-.8.5-1.2,0-.4,0-.8-.1-1.2-.2-.5-.7-.8-1.2-.9-1.2-.3-2.6,0-2.5,1.5Z" fill="#454933"/>
      <path d="M348.9,378.4c0,.6.3,1.2.8,1.6.5.4,1.1.5,1.7.5.3,0,.6,0,.8-.2.4-.3.5-.8.5-1.2,0-.4,0-.8-.1-1.2-.2-.5-.7-.8-1.2-.9-1.2-.3-2.6,0-2.5,1.5Z" fill="#454933"/>
      <path d="M364,369.5c0,.6.3,1.2.8,1.6.5.4,1.1.5,1.7.5.3,0,.6,0,.8-.2.4-.3.5-.8.5-1.2,0-.4,0-.8-.1-1.2-.2-.5-.7-.8-1.2-.9-1.2-.3-2.6,0-2.5,1.5Z" fill="#454933"/>
      <path d="M406.1,374.1c.5.4,1.3.3,1.6-.1.2-.3.2-.6.2-1,0-.5-.2-1-.6-1.2-1.3-.6-2.4,1.4-1.3,2.3Z" fill="#454933"/>
      <path d="M370.6,374c.5.4,1.3.3,1.6-.1.2-.3.2-.6.2-1,0-.5-.2-1-.6-1.2-1.3-.6-2.4,1.4-1.3,2.3Z" fill="#454933"/>
      <path d="M385.5,379c.5.4,1.3.3,1.6-.1.2-.3.2-.6.2-1,0-.5-.2-1-.6-1.2-1.3-.6-2.4,1.4-1.3,2.3Z" fill="#454933"/>
      <path d="M357.1,372.1c.5.4,1.3.3,1.6-.1.2-.3.2-.6.2-1,0-.5-.2-1-.6-1.2-1.3-.6-2.4,1.4-1.3,2.3Z" fill="#454933"/>
    </g>
    <path d="M418.2,385.3c-2.1-1.9-5.6-2.3-8.7-2.5-20.7-1.3-41.7-2.5-62.2.5-2,.3-4.2.7-5.3,2.1-1.1,1.4-.7,3.3-.2,4.9,3.1,10.4,5.9,20.8,9.8,31,1.1,2.9,2.3,5.8,4.6,8,3.1,3.1,7.8,4.3,12.3,4.9,5.3.7,10.8.9,16.1.7,4.8-.2,10.3-.2,14.8-1.9,6.6-2.4,8.4-9.4,10.6-15,2.9-7.5,5.7-14.9,8.6-22.4.7-1.7,1.3-3.5,1.4-5.3.1-1.8-.4-3.7-1.9-5Z" fill="#3f3c39"/>
    <g>
      <path d="M383.9,338.2c-.9-2-2.8-3.5-4.9-4.3-2.3-.9-5-1-7.4,0-.6.2-1.3.6-1.8.9-4.7,0-9.2,3.5-10.2,8.1-1.1,4.8,1.9,10.2,6.5,11.9,2,.7,4.2.8,6.4.6,2.3-.2,4.6-.8,6.5-2.2,2.3-1.7,3.7-4.4,4.6-7.2.8-2.6,1.3-5.4.2-7.9Z" fill="#bc3156"/>
      <path d="M370,337.1c.9,0,1.4-1,.8-1.7-1.6-2.1-3.7-3.9-6.1-5.1-2.6-1.4-5.5-2.1-8.4-2.1-.7,0-1.2.7-1,1.4.6,1.7,1.7,3.2,3.2,4.3,1.9,1.4,4.1,2.3,6.4,2.7,1.6.3,3.3.4,4.9.5Z" fill="#454933"/>
      <path d="M370.7,337.1c-.4-4.2-1.4-8.4-3.4-12.1-2-3.7-5.3-6.8-9.3-8.2" fill="none" stroke="#3f3c39" stroke-linecap="round" stroke-linejoin="round" stroke-width="1.4"/>
    </g>
    <g>
      <path d="M402.9,376.4c-.5-1-1.3-1.8-2.2-2.4-.7-.5-1.8-.2-2.2.6-.4.8-.2,1.7.6,2.2,0,0,.2.1.2.1,0,0,0,0,0,0,.1.1.3.3.4.4,0,0,0,.1.1.2,0,0,0,0,0,0,.1.2.2.3.3.5.4.7,1.5,1,2.2.6.8-.5,1-1.4.6-2.2Z" fill="#ffc866"/>
      <path d="M386,369c-.8-.2-1.8.2-2,1.1-.2.9-.3,1.8-.2,2.7,0,.8.7,1.7,1.6,1.6.8,0,1.7-.7,1.6-1.6,0-.4,0-.7,0-1.1,0,0,0-.2,0-.2,0-.2,0-.2,0-.1,0,.1,0,0,0-.1,0-.1,0-.2,0-.3.2-.8-.3-1.8-1.1-2Z" fill="#ff6000"/>
      <path d="M381.4,363.3c-.5-.4-1-.9-1.6-1.3-.3-.3-.7-.5-1.1-.5s-.9.2-1.1.5c-.5.6-.7,1.7,0,2.3.5.4,1,.9,1.6,1.3.3.3.7.5,1.1.5s.9-.2,1.1-.5c.5-.6.7-1.7,0-2.3Z" fill="#ffc866"/>
      <path d="M369.6,370.1c-.9-.2-1.7.3-2,1.1-.3,1-.6,2-.9,3-.2.8.3,1.8,1.1,2,.9.2,1.7-.3,2-1.1l.9-3c.2-.8-.3-1.8-1.1-2Z" fill="#f24c70"/>
      <path d="M354.9,369.1l-1.3-2c-.4-.7-1.5-1.1-2.2-.6-.7.5-1.1,1.4-.6,2.2l1.3,2c.4.7,1.5,1.1,2.2.6.7-.5,1.1-1.4.6-2.2Z" fill="#f24c70"/>
      <path d="M359.8,357.6c-.6-.6-1.6-.6-2.3,0-1,.9-1.9,1.7-2.9,2.6-.6.6-.6,1.7,0,2.3.6.6,1.6.6,2.3,0,1-.9,1.9-1.7,2.9-2.6.6-.6.6-1.7,0-2.3Z" fill="#ff6000"/>
      <path d="M358.5,378.6c-.3-.7-.7-1.5-1-2.2-.4-.8-1.5-1-2.2-.6-.8.5-1,1.4-.6,2.2.3.7.7,1.5,1,2.2.4.8,1.5,1,2.2.6.8-.5,1-1.4.6-2.2Z" fill="#ffc866"/>
      <path d="M393.1,354.9c-.7,1.3-1.4,2.6-2.1,3.8-1,1.8,1.8,3.5,2.8,1.6.7-1.3,1.4-2.6,2.1-3.8,1-1.8-1.8-3.5-2.8-1.6Z" fill="#f24c70"/>
      <path d="M400.8,350c.4-.8.2-1.7-.5-2.2l-1.5-1c-.7-.5-1.8-.2-2.2.5-.4.8-.2,1.7.5,2.2.5.3,1,.7,1.5,1,.7.5,1.8.2,2.2-.5Z" fill="#ff6000"/>
      <path d="M400.4,365.2c-.5-.8-1.4-1-2.2-.6l-1.6.9c-.7.4-1,1.5-.6,2.2.5.8,1.4,1,2.2.6.5-.3,1.1-.6,1.6-.9.7-.4,1-1.5.6-2.2Z" fill="#f24c70"/>
    </g>
    <g>
      <line x1="348.2" y1="386.9" x2="362.1" y2="428.2" fill="none" stroke="#ffe6c7" stroke-linecap="round" stroke-miterlimit="10" stroke-width="1.4"/>
      <line x1="359.7" y1="386.9" x2="370.4" y2="430.4" fill="none" stroke="#ffe6c7" stroke-linecap="round" stroke-miterlimit="10" stroke-width="1.4"/>
      <line x1="376.9" y1="431.2" x2="373.6" y2="386.1" fill="none" stroke="#ffe6c7" stroke-linecap="round" stroke-miterlimit="10" stroke-width="1.4"/>
      <line x1="386.9" y1="385.3" x2="384.4" y2="430.4" fill="none" stroke="#ffe6c7" stroke-linecap="round" stroke-miterlimit="10" stroke-width="1.4"/>
      <line x1="390.2" y1="430" x2="399.9" y2="388.4" fill="none" stroke="#ffe6c7" stroke-linecap="round" stroke-miterlimit="10" stroke-width="1.4"/>
      <line x1="412.8" y1="389.4" x2="398.8" y2="430.4" fill="none" stroke="#ffe6c7" stroke-linecap="round" stroke-miterlimit="10" stroke-width="1.4"/>
    </g>
  </g>
  <path d="M255.5,200.1c-4.7,0-9.3-.1-14-.3,3.1-3,6.2-6,9.2-9.1,2.6-2.6-1.2-6.4-3.8-3.8-2.9,2.8-5.8,5.6-8.6,8.5,0-4,0-8.1.1-12.1,0-3.7-5.3-3.7-5.4,0,0,4.1,0,8.2-.1,12.3-3-3.4-6-6.8-9-10.3-2.2-2.6-6,1.2-3.8,3.8,2.9,3.4,5.9,6.8,8.9,10.2-4.5-.3-9-.6-13.4-.9-3.4-.3-3.4,5.1,0,5.4,4.4.4,8.9.7,13.3.9-2.8,2.8-5.7,5.6-8.5,8.4-2.6,2.6,1.2,6.4,3.8,3.8,2.9-2.8,5.8-5.6,8.6-8.5,0,4,0,8.1-.1,12.1,0,3.7,5.3,3.7,5.4,0,0-3.7,0-7.5.1-11.2,2.9,3.1,5.9,6.2,9,9.3,2.4,2.5,6.2-1.3,3.8-3.8-3.1-3.1-6.2-6.3-9.2-9.5,4.6.1,9.1.2,13.7.2,3.5,0,3.5-5.4,0-5.4Z" fill="#fff"/>
  <path d="M51.1,154.4c-4.7,0-9.3-.1-14-.3,3.1-3,6.2-6,9.2-9.1,2.6-2.6-1.2-6.4-3.8-3.8-2.9,2.8-5.8,5.6-8.6,8.5,0-4,0-8.1.1-12.1,0-3.7-5.3-3.7-5.4,0,0,4.1,0,8.2-.1,12.3-3-3.4-6-6.8-9-10.3-2.2-2.6-6,1.2-3.8,3.8,2.9,3.4,5.9,6.8,8.9,10.2-4.5-.3-9-.6-13.4-.9-3.4-.3-3.4,5.1,0,5.4,4.4.4,8.9.7,13.3.9-2.8,2.8-5.7,5.6-8.5,8.4-2.6,2.6,1.2,6.4,3.8,3.8,2.9-2.8,5.8-5.6,8.6-8.5,0,4,0,8.1-.1,12.1,0,3.7,5.3,3.7,5.4,0,0-3.7,0-7.5.1-11.2,2.9,3.1,5.9,6.2,9,9.3,2.4,2.5,6.2-1.3,3.8-3.8-3.1-3.1-6.2-6.3-9.2-9.5,4.6.1,9.1.2,13.7.2,3.5,0,3.5-5.4,0-5.4Z" fill="#8e935f"/>
  <path d="M366,249.9c-3.3,0-6.6,0-9.9-.2,2.2-2.1,4.3-4.3,6.5-6.4,1.8-1.8-.8-4.5-2.7-2.7-2,2-4.1,4-6.1,6,0-2.9,0-5.7,0-8.6,0-2.6-3.8-2.6-3.8,0,0,2.9,0,5.8,0,8.7-2.1-2.4-4.3-4.8-6.3-7.3-1.6-1.9-4.2.8-2.7,2.7,2,2.4,4.1,4.8,6.3,7.2-3.2-.2-6.3-.4-9.5-.7-2.4-.2-2.4,3.6,0,3.8,3.1.3,6.3.5,9.4.7-2,2-4,3.9-6,5.9-1.8,1.8.8,4.5,2.7,2.7,2-2,4.1-4,6.1-6,0,2.9,0,5.7,0,8.6,0,2.6,3.8,2.6,3.8,0,0-2.6,0-5.3,0-7.9,2.1,2.2,4.2,4.4,6.3,6.5,1.7,1.7,4.4-1,2.7-2.7-2.2-2.2-4.3-4.4-6.5-6.7,3.2,0,6.5.2,9.7.2,2.4,0,2.4-3.8,0-3.8Z" fill="#f24c70"/>
  <path d="M430.5,314.4c-3.3,0-6.6,0-9.9-.2,2.2-2.1,4.3-4.3,6.5-6.4,1.8-1.8-.8-4.5-2.7-2.7-2,2-4.1,4-6.1,6,0-2.9,0-5.7,0-8.6,0-2.6-3.8-2.6-3.8,0,0,2.9,0,5.8,0,8.7-2.1-2.4-4.3-4.8-6.3-7.3-1.6-1.9-4.2.8-2.7,2.7,2,2.4,4.1,4.8,6.3,7.2-3.2-.2-6.3-.4-9.5-.7-2.4-.2-2.4,3.6,0,3.8,3.1.3,6.3.5,9.4.7-2,2-4,3.9-6,5.9-1.8,1.8.8,4.5,2.7,2.7,2-2,4.1-4,6.1-6,0,2.9,0,5.7,0,8.6,0,2.6,3.8,2.6,3.8,0,0-2.6,0-5.3,0-7.9,2.1,2.2,4.2,4.4,6.3,6.5,1.7,1.7,4.4-1,2.7-2.7-2.2-2.2-4.3-4.4-6.5-6.7,3.2,0,6.5.2,9.7.2,2.4,0,2.4-3.8,0-3.8Z" fill="#8e935f"/>
  <path d="M151.6,25.7c-3.3,0-6.6,0-9.9-.2,2.2-2.1,4.3-4.3,6.5-6.4,1.8-1.8-.8-4.5-2.7-2.7-2,2-4.1,4-6.1,6,0-2.9,0-5.7,0-8.6,0-2.6-3.8-2.6-3.8,0,0,2.9,0,5.8,0,8.7-2.1-2.4-4.3-4.8-6.3-7.3-1.6-1.9-4.2.8-2.7,2.7,2,2.4,4.1,4.8,6.3,7.2-3.2-.2-6.3-.4-9.5-.7-2.4-.2-2.4,3.6,0,3.8,3.1.3,6.3.5,9.4.7-2,2-4,3.9-6,5.9-1.8,1.8.8,4.5,2.7,2.7,2-2,4.1-4,6.1-6,0,2.9,0,5.7,0,8.6,0,2.6,3.8,2.6,3.8,0,0-2.6,0-5.3,0-7.9,2.1,2.2,4.2,4.4,6.3,6.5,1.7,1.7,4.4-1,2.7-2.7-2.2-2.2-4.3-4.4-6.5-6.7,3.2,0,6.5.2,9.7.2,2.4,0,2.4-3.8,0-3.8Z" fill="#ffc866"/>
  <path d="M47.7,567.6c-3.3,0-6.6,0-9.9-.2,2.2-2.1,4.3-4.3,6.5-6.4,1.8-1.8-.8-4.5-2.7-2.7-2,2-4.1,4-6.1,6,0-2.9,0-5.7,0-8.6,0-2.6-3.8-2.6-3.8,0,0,2.9,0,5.8,0,8.7-2.1-2.4-4.3-4.8-6.3-7.3-1.6-1.9-4.2.8-2.7,2.7,2,2.4,4.1,4.8,6.3,7.2-3.2-.2-6.3-.4-9.5-.7-2.4-.2-2.4,3.6,0,3.8,3.1.3,6.3.5,9.4.7-2,2-4,3.9-6,5.9-1.8,1.8.8,4.5,2.7,2.7,2-2,4.1-4,6.1-6,0,2.9,0,5.7,0,8.6,0,2.6,3.8,2.6,3.8,0,0-2.6,0-5.3,0-7.9,2.1,2.2,4.2,4.4,6.3,6.5,1.7,1.7,4.4-1,2.7-2.7-2.2-2.2-4.3-4.4-6.5-6.7,3.2,0,6.5.2,9.7.2,2.4,0,2.4-3.8,0-3.8Z" fill="#3f3c39"/>
  <path d="M425.9,578c-3.3,0-6.6,0-9.9-.2,2.2-2.1,4.3-4.3,6.5-6.4,1.8-1.8-.8-4.5-2.7-2.7-2,2-4.1,4-6.1,6,0-2.9,0-5.7,0-8.6,0-2.6-3.8-2.6-3.8,0,0,2.9,0,5.8,0,8.7-2.1-2.4-4.3-4.8-6.3-7.3-1.6-1.9-4.2.8-2.7,2.7,2,2.4,4.1,4.8,6.3,7.2-3.2-.2-6.3-.4-9.5-.7-2.4-.2-2.4,3.6,0,3.8,3.1.3,6.3.5,9.4.7-2,2-4,3.9-6,5.9-1.8,1.8.8,4.5,2.7,2.7,2-2,4.1-4,6.1-6,0,2.9,0,5.7,0,8.6,0,2.6,3.8,2.6,3.8,0,0-2.6,0-5.3,0-7.9,2.1,2.2,4.2,4.4,6.3,6.5,1.7,1.7,4.4-1,2.7-2.7-2.2-2.2-4.3-4.4-6.5-6.7,3.2,0,6.5.2,9.7.2,2.4,0,2.4-3.8,0-3.8Z" fill="#ffc866"/>
  <g>
    <path d="M193.1,234.9c-.3-3.2-.4-6.4.7-9.4,1.1-3,3.8-5.6,6.9-5.7,2.2,0,4.4,1.2,5.5,3.1,1.1,1.9,1.1,4.4,0,6.4-.9,1.5-2.5,2.6-4.2,2.5-1.6-.1-3-1.4-3.6-2.9-.6-1.5-.7-3.2-.6-4.8.2-3.6.9-7.3,2.8-10.4s4.8-5.7,8.4-6.4" fill="none" stroke="#3f3c39" stroke-linecap="round" stroke-miterlimit="10" stroke-width="2.3"/>
    <path d="M329.3,310.5c.3-2.8.5-5.7,1.4-8.4.9-2.7,2.5-5.3,5-6.7s5.8-1.7,8.1,0c3.1,2.2,3.2,7.5.2,9.8-1,.8-2.5,1.3-3.7.6-1.2-.7-1.6-2.3-1.6-3.7.2-4.8,4-8.9,8.4-10.7,4.4-1.8,9.4-1.7,14.2-1.2" fill="none" stroke="#3f3c39" stroke-linecap="round" stroke-miterlimit="10" stroke-width="2.3"/>
    <path d="M46.6,217.5c-5.6-5.3-12.2-9.6-19.4-12.6" fill="none" stroke="#3f3c39" stroke-linecap="round" stroke-miterlimit="10" stroke-width="2.3"/>
    <path d="M131,167.7c2.2-5.2,5.8-9.8,10.3-13" fill="none" stroke="#3f3c39" stroke-linecap="round" stroke-miterlimit="10" stroke-width="2.3"/>
    <path d="M417.4,361.8c3.9-4.3,8.4-8,13.3-11" fill="none" stroke="#3f3c39" stroke-linecap="round" stroke-miterlimit="10" stroke-width="2.3"/>
  </g>
  <g>
    <text transform="translate(25.2 101.1)" fill="#ffc866" font-family="Poppins-Bold, Poppins" font-size="53.3" font-weight="700"><tspan x="0" y="0">WSZYSTKIEGO</tspan></text>
    <text transform="translate(153.9 134.9)" fill="#f24c70" font-family="Poppins-Bold, Poppins" font-size="36" font-weight="700"><tspan x="0" y="0">NAJLEPSZEGO</tspan></text>
  </g>
  <rect x="52.8" y="502.6" width="329.3" height="31.4" rx="10.5" ry="10.5" fill="#ffc866"/>
  <g>
    <path d="M70.4,524.6l-5.2-5.7v5.7h-1.6v-12.5h1.6v5.8l5.2-5.8h2.1l-5.7,6.3,5.7,6.3h-2.1Z" fill="#3f3c39"/>
    <path d="M76.1,523.2h4.4v1.3h-6v-12.5h1.6v11.2Z" fill="#3f3c39"/>
    <path d="M83.8,512v12.5h-1.6v-12.5h1.6Z" fill="#3f3c39"/>
    <path d="M93.4,524.6l-5.2-5.7v5.7h-1.6v-12.5h1.6v5.8l5.2-5.8h2.1l-5.7,6.3,5.7,6.3h-2.1Z" fill="#3f3c39"/>
    <path d="M107.3,524.6h-1.6l-6.6-10v10h-1.6v-12.6h1.6l6.6,10v-10h1.6v12.6Z" fill="#3f3c39"/>
    <path d="M111.7,512v12.5h-1.6v-12.5h1.6Z" fill="#3f3c39"/>
    <path d="M120.8,512v9.3c0,1-.3,1.9-1,2.5-.6.6-1.5.9-2.5.9s-1.9-.3-2.5-.9-1-1.5-1-2.6h1.6c0,.6.2,1.1.5,1.5.3.4.8.6,1.4.6s1.1-.2,1.4-.5.5-.8.5-1.4v-9.3h1.7Z" fill="#3f3c39"/>
    <path d="M136.2,521.8h-5.5l-1,2.8h-1.7l4.5-12.5h1.9l4.5,12.5h-1.7l-1-2.8ZM135.8,520.4l-2.3-6.3-2.3,6.3h4.5Z" fill="#3f3c39"/>
    <path d="M148.5,518.7c.4.3.7.7.9,1.1s.3.9.3,1.4-.2,1.2-.5,1.7c-.3.5-.8.9-1.4,1.2-.6.3-1.3.4-2.2.4h-4.7v-12.5h4.5c.9,0,1.6.1,2.2.4.6.3,1,.7,1.3,1.1s.5,1,.5,1.6-.2,1.4-.6,1.8c-.4.5-.9.8-1.6,1.1.5,0,.9.3,1.3.6ZM142.6,517.4h2.8c.8,0,1.4-.2,1.8-.5.4-.4.6-.9.6-1.5s-.2-1.1-.6-1.5c-.4-.4-1-.5-1.8-.5h-2.7v4.1ZM147.4,522.6c.5-.4.7-.9.7-1.6s-.2-1.2-.7-1.6c-.5-.4-1.1-.6-1.9-.6h-2.8v4.4h2.9c.8,0,1.5-.2,1.9-.6Z" fill="#3f3c39"/>
    <path d="M160.8,512l-4.1,7.8v4.7h-1.6v-4.7l-4.1-7.8h1.8l3.1,6.4,3.1-6.4h1.8Z" fill="#3f3c39"/>
    <path d="M168.7,523.1h6.1v1.4h-8.1v-1.3l6.1-9.8h-6v-1.4h8v1.3l-6.1,9.8Z" fill="#3f3c39"/>
    <path d="M179.6,523.9c-1-.5-1.7-1.3-2.3-2.3s-.8-2.1-.8-3.3.3-2.3.8-3.3c.6-1,1.3-1.7,2.3-2.3,1-.5,2-.8,3.2-.8s2.2.3,3.2.8c1,.5,1.7,1.3,2.3,2.3.6,1,.8,2.1.8,3.3s-.3,2.3-.8,3.3c-.6,1-1.3,1.7-2.3,2.3-1,.5-2,.8-3.2.8s-2.2-.3-3.2-.8ZM185.1,522.7c.7-.4,1.3-1,1.7-1.7s.6-1.6.6-2.6-.2-1.9-.6-2.6-1-1.3-1.6-1.7c-.7-.4-1.5-.6-2.4-.6s-1.7.2-2.4.6c-.7.4-1.2,1-1.6,1.7s-.6,1.6-.6,2.6.2,1.9.6,2.6,1,1.3,1.7,1.7,1.5.6,2.4.6,1.7-.2,2.4-.6Z" fill="#3f3c39"/>
    <path d="M198.7,518.7c.4.3.7.7.9,1.1s.3.9.3,1.4-.2,1.2-.5,1.7c-.3.5-.8.9-1.4,1.2-.6.3-1.3.4-2.2.4h-4.7v-12.5h4.5c.9,0,1.6.1,2.2.4.6.3,1,.7,1.3,1.1s.5,1,.5,1.6-.2,1.4-.6,1.8c-.4.5-.9.8-1.6,1.1.5,0,.9.3,1.3.6ZM192.8,517.4h2.8c.8,0,1.4-.2,1.8-.5.4-.4.6-.9.6-1.5s-.2-1.1-.6-1.5c-.4-.4-1-.5-1.8-.5h-2.7v4.1ZM197.6,522.6c.5-.4.7-.9.7-1.6s-.2-1.2-.7-1.6c-.5-.4-1.1-.6-1.9-.6h-2.8v4.4h2.9c.8,0,1.5-.2,1.9-.6Z" fill="#3f3c39"/>
    <path d="M209.6,521.8h-5.5l-1,2.8h-1.7l4.5-12.5h1.9l4.5,12.5h-1.7l-1-2.8ZM209.2,520.4l-2.3-6.3-2.3,6.3h4.5Z" fill="#3f3c39"/>
    <path d="M214.6,515c.6-1,1.3-1.7,2.3-2.3,1-.6,2-.8,3.2-.8s2.6.3,3.6,1c1,.7,1.8,1.6,2.2,2.8h-2c-.3-.8-.8-1.3-1.5-1.7-.7-.4-1.4-.6-2.3-.6s-1.7.2-2.4.6-1.2,1-1.6,1.7c-.4.8-.6,1.6-.6,2.6s.2,1.9.6,2.6c.4.8.9,1.3,1.6,1.7.7.4,1.5.6,2.4.6s1.7-.2,2.3-.6c.7-.4,1.2-1,1.5-1.7h2c-.5,1.2-1.2,2.1-2.2,2.8-1,.7-2.2,1-3.6,1s-2.2-.3-3.2-.8c-1-.5-1.7-1.3-2.3-2.3-.6-1-.8-2.1-.8-3.3s.3-2.3.8-3.3Z" fill="#3f3c39"/>
    <path d="M229.6,523.1h6.1v1.4h-8.1v-1.3l6.1-9.8h-6v-1.4h8v1.3l-6.1,9.8Z" fill="#3f3c39"/>
    <path d="M246.8,512l-4.1,7.8v4.7h-1.6v-4.7l-4.1-7.8h1.8l3.1,6.4,3.1-6.4h1.8Z" fill="#3f3c39"/>
    <path d="M248.7,515c.6-1,1.3-1.7,2.3-2.3,1-.6,2-.8,3.2-.8s2.6.3,3.6,1c1,.7,1.8,1.6,2.2,2.8h-2c-.3-.8-.8-1.3-1.5-1.7-.7-.4-1.4-.6-2.3-.6s-1.7.2-2.4.6-1.2,1-1.6,1.7c-.4.8-.6,1.6-.6,2.6s.2,1.9.6,2.6c.4.8.9,1.3,1.6,1.7.7.4,1.5.6,2.4.6s1.7-.2,2.3-.6c.7-.4,1.2-1,1.5-1.7h2c-.5,1.2-1.2,2.1-2.2,2.8-1,.7-2.2,1-3.6,1s-2.2-.3-3.2-.8c-1-.5-1.7-1.3-2.3-2.3-.6-1-.8-2.1-.8-3.3s.3-2.3.8-3.3ZM256,509.2l-3.8,2.1v-1.2l3.8-2.2v1.4Z" fill="#3f3c39"/>
    <path d="M283,512l-3.6,12.5h-1.8l-2.9-10.1-3,10.1h-1.8s-3.5-12.5-3.5-12.5h1.7l2.7,10.6,3-10.6h1.8l2.9,10.6,2.8-10.6h1.8Z" fill="#3f3c39"/>
    <path d="M286.4,512v12.5h-1.6v-12.5h1.6Z" fill="#3f3c39"/>
    <path d="M296.1,526.9v1.1c-.5.2-.9.3-1.4.3s-1.1-.1-1.6-.4c-.4-.3-.6-.7-.6-1.4s.4-1.4,1.2-1.9h-4.6v-12.6h6.8v1.3h-5.1v4.2h4.6v1.4h-4.6v4.3h5.1v1.3l-1,.5c-.7.3-1.1.8-1.1,1.3s0,.5.3.6.4.2.8.2.7,0,1.2-.2Z" fill="#3f3c39"/>
    <path d="M298.7,515c.6-1,1.3-1.7,2.3-2.3,1-.6,2-.8,3.2-.8s2.6.3,3.6,1c1,.7,1.8,1.6,2.2,2.8h-2c-.3-.8-.8-1.3-1.5-1.7s-1.4-.6-2.3-.6-1.7.2-2.4.6c-.7.4-1.2,1-1.6,1.7s-.6,1.6-.6,2.6.2,1.9.6,2.6.9,1.3,1.6,1.7c.7.4,1.5.6,2.4.6s1.7-.2,2.3-.6,1.2-1,1.5-1.7h2c-.5,1.2-1.2,2.1-2.2,2.8-1,.7-2.2,1-3.6,1s-2.2-.3-3.2-.8c-1-.5-1.7-1.3-2.3-2.3-.6-1-.8-2.1-.8-3.3s.3-2.3.8-3.3Z" fill="#3f3c39"/>
    <path d="M314,513.4v4.2h4.6v1.4h-4.6v4.3h5.1v1.3h-6.8v-12.6h6.8v1.3h-5.1Z" fill="#3f3c39"/>
    <path d="M327.9,512v9.3c0,1-.3,1.9-1,2.5-.6.6-1.5.9-2.5.9s-1.9-.3-2.5-.9c-.6-.6-1-1.5-1-2.6h1.6c0,.6.2,1.1.5,1.5s.8.6,1.4.6,1.1-.2,1.4-.5c.3-.4.4-.8.4-1.4v-9.3h1.7Z" fill="#3f3c39"/>
  </g>
  <rect x="350.7" y="502.6" width="31.4" height="31.4" rx="10.5" ry="10.5" fill="#f24c70"/>
  <path d="M374.6,517.2h0c0-.1-5.5-5.7-5.5-5.7-.7-1,.5-2.1,1.5-1.4l7.5,7.5c.3.4.3.9,0,1.4l-7.5,7.5c-1,.7-2.2-.5-1.4-1.5l5.5-5.5h0c0-.1-18.6-.1-18.6-.1,0,0-.3-.1-.3-.2-.6-.4-.6-1.4,0-1.8s.3-.2.3-.2h18.6Z" fill="#747ef7"/>
</svg>