<?xml version="1.0" encoding="UTF-8"?>
<svg id="PRINT" xmlns="http://www.w3.org/2000/svg" version="1.1" xmlns:xlink="http://www.w3.org/1999/xlink" viewBox="0 0 290 400">
  <!-- Generator: Adobe Illustrator 29.1.0, SVG Export Plug-In . SVG Version: 2.1.0 Build 142)  -->
  <defs>
    <style>
      .st0 {
        fill: #666b46;
      }

      .st1 {
        fill: #bc3156;
      }

      .st2, .st3 {
        fill: #f24c70;
      }

      .st4 {
        fill: #fff;
      }

      .st5 {
        fill: #ffbf9b;
      }

      .st6, .st7, .st8, .st9 {
        fill: none;
      }

      .st10 {
        fill: #fca53d;
      }

      .st7 {
        stroke-width: 2.3px;
      }

      .st7, .st8 {
        stroke-miterlimit: 10;
      }

      .st7, .st8, .st9 {
        stroke-linecap: round;
      }

      .st7, .st9 {
        stroke: #3f3c39;
      }

      .st8 {
        stroke: #ffe6c7;
      }

      .st8, .st9 {
        stroke-width: 1.4px;
      }

      .st11 {
        font-size: 35.5px;
      }

      .st11, .st12 {
        fill: #ffc866;
      }

      .st11, .st3 {
        font-family: Poppins-Bold, Poppins;
        font-weight: 700;
      }

      .st3 {
        font-size: 24px;
      }

      .st13 {
        fill: #8e935f;
      }

      .st14 {
        fill: #747ef7;
      }

      .st9 {
        stroke-linejoin: round;
      }

      .st15 {
        clip-path: url(#clippath);
      }

      .st16 {
        fill: #ff6000;
      }

      .st17 {
        fill: #3f3c39;
      }

      .st18 {
        fill: #454933;
      }
    </style>
    <clipPath id="clippath">
      <rect class="st6" y="0" width="290" height="400"/>
    </clipPath>
  </defs>
  <rect class="st4" width="290" height="400"/>
  <g class="st15">
    <circle class="st14" cx="2.9" cy="13.8" r="35" transform="translate(-.5 .1) rotate(-2)"/>
    <circle class="st14" cx="295.1" cy="425.6" r="70.4"/>
    <circle class="st12" cx="289.2" cy="138" r="38.1"/>
    <circle class="st12" cx="5" cy="318.6" r="21.3"/>
  </g>
  <circle class="st12" cx="155.4" cy="172.8" r="62.3" transform="translate(-76.7 160.5) rotate(-45)"/>
  <g>
    <g>
      <g>
        <path class="st0" d="M77.6,115.3c0,1.1,0,2.2,0,3.3,0,3.2.2,6.4.4,9.6l-6.9-.5c.5-4.2.7-8.4.7-12.6h0c0-.9,0-1.8,0-2.7,0-1.9-.2-3.8-.5-5.8-.1-1.2-.3-2.3-.5-3.5-.1-.9-.3-1.7-.4-2.6,1.9-.1,3.8-.3,5.7-.4.8,0,1.6-.1,2.4-.2,0,.5,0,1-.1,1.5-.1,1.5-.3,3-.4,4.5,0,1.1-.1,2.3-.2,3.4,0,2-.2,3.9-.2,5.9Z"/>
        <g>
          <path class="st13" d="M71.3,106.7c-.1-1.2-.3-2.3-.5-3.5.1,0,.2,0,.4,0,2.2,0,2.3,3.4,0,3.5Z"/>
          <path class="st13" d="M78.5,100.1c0,.5,0,1-.1,1.5-.2,0-.4,0-.6,0-1,0-1.5-.6-1.7-1.4.8,0,1.6-.1,2.4-.2Z"/>
          <path class="st13" d="M78,106c0,1.1-.1,2.3-.2,3.4,0,0-.2,0-.3,0-2.3,0-2.3-3.5,0-3.5s.3,0,.5,0Z"/>
          <path class="st13" d="M72.9,115.5c-.4,0-.8-.1-1.1-.3h0c0-.9,0-1.8,0-2.7.3-.3.7-.4,1.2-.4,2.3,0,2.3,3.5,0,3.5Z"/>
          <path class="st13" d="M77.6,118.6c-.2,0-.4.1-.6.1-2.3,0-2.3-3.5,0-3.5s.4,0,.6.1c0,1.1,0,2.2,0,3.3Z"/>
        </g>
      </g>
      <path class="st16" d="M74.3,98.9c-.4.4-1.1.3-1.5-.1-1.5-1.8-2-4.3-1.7-6.6.3-2.1,1.4-4.1,2.8-5.8.5-.6,1.3-.5,1.7.1,1,1.7,2.5,3.1,2.8,5.1.3,1.5-.3,3.1-1.1,4.3-.7,1-2,2-3.1,2.9Z"/>
      <path class="st10" d="M74.1,98.7c-.3.3-.8.2-1,0-1-1.2-1.4-2.9-1.2-4.5.2-1.5.9-2.8,1.9-4,.3-.4.9-.3,1.2,0,.7,1.2,1.7,2.1,1.9,3.5.2,1-.2,2.1-.7,3-.5.7-1.4,1.4-2.1,2Z"/>
    </g>
    <g>
      <path class="st10" d="M103.6,129c-19.7-.5-39.6-.3-59.3.2-.1,8.1,0,16.3,0,24.4h59.6c-.5-8.2-.7-16.4-.3-24.6Z"/>
      <path class="st12" d="M49.6,129.5c-.2,6.6-.3,13.3-.5,19.9,0,1.9,0,3.8-.1,5.7,0,1,1.5,1,1.6,0,.2-6.6.3-13.3.5-19.9,0-1.9,0-3.8.1-5.7,0-1-1.5-1-1.6,0Z"/>
      <path class="st12" d="M58.9,134.9c0-1.9-.2-3.8-.2-5.7,0-1-1.6-1-1.6,0,.3,6.7.6,13.4.8,20l.2,5.7c0,1,1.6,1,1.6,0-.3-6.7-.6-13.4-.8-20Z"/>
      <path class="st12" d="M64.8,133.7c0-1.9,0-3.8,0-5.7,0-1-1.6-1-1.6,0l.2,19.9c0,1.9,0,3.8,0,5.7,0,1,1.6,1,1.6,0,0-6.6-.1-13.3-.2-19.9Z"/>
      <path class="st12" d="M71.8,134c0-1.9-.2-3.9-.2-5.8,0-1-1.6-1-1.6,0,.3,6.8.6,13.5.8,20.3,0,1.9.2,3.9.2,5.8,0,1,1.6,1,1.6,0-.3-6.8-.6-13.5-.8-20.3Z"/>
      <path class="st12" d="M81.6,134v-5.7c0-1-1.6-1-1.6,0,0,6.6.2,13.2.2,19.8,0,1.9,0,3.8,0,5.7,0,1,1.6,1,1.6,0,0-6.6-.2-13.2-.2-19.8Z"/>
      <path class="st12" d="M86.5,133.8c-.2-1.9-.5-3.7-.7-5.6,0-.4-.3-.8-.8-.8s-.8.4-.8.8c.9,6.5,1.7,13,2.6,19.6.2,1.9.5,3.7.7,5.6,0,.4.3.8.8.8s.8-.4.8-.8c-.9-6.5-1.7-13-2.6-19.6Z"/>
      <path class="st12" d="M96.7,127.9c0-1-1.5-1-1.6,0-.4,6.8-.6,13.6-.5,20.3,0,1.9,0,3.9.1,5.8,0,1,1.6,1,1.6,0-.2-6.8-.2-13.6.1-20.3,0-1.9.2-3.9.3-5.8Z"/>
      <path class="st13" d="M121,154.7c-31.2-1.1-62.6-1.5-93.9-1.2,1.3,13,2,26,1.8,39l91.3-.9c-.5-12.4-.3-24.6.7-36.9Z"/>
      <path class="st12" d="M142.5,243.9l-128.7-1.2c-.2-4.7-.4-9.4-.5-14,0-.5,0-1,0-1.6,0-1.4-.1-2.8-.2-4.2-.2-4-.3-8-.5-12,0-1,0-1.9-.1-2.9,0-.5,0-1,0-1.6l-.6-15.5c43.2-.3,86.6-.3,129.8,1,0,6.8.2,13.6.3,20.4,0,.5,0,1,0,1.6,0,1.2,0,2.3,0,3.5,0,2.8.1,5.6.2,8.4,0,1.2,0,2.5,0,3.7,0,.5,0,1,0,1.6,0,4.3.1,8.5.2,12.8Z"/>
      <g>
        <path class="st17" d="M125.9,289.7l-96.8.3c-1.1,0-1.6-1.3-.9-2.1.9-.9,1.6-2,2.1-3.3,1-2.4,1.1-5.1,1.2-7.6.2-2.6.4-5.3,1.6-7.6,1.9-3.6,5.7-5.7,9.6-6.7,3.9-1,8-1.2,11.9-2.1s7.9-2.6,10.2-6c1.9-2.9,2.4-6.5,2.3-9.9h18.3c.2,2.4.5,4.6,1.2,7,.7,2.3,2,4.6,3.9,6.1,3.3,2.5,7.8,2.5,11.9,2.4s8.7,0,11.8,2.8c1.7,1.5,2.8,3.7,3.6,5.9,1.4,3.8,2.3,7.7,3.9,11.4,1.1,2.6,2.9,5.2,5,7.2.8.7.3,2.1-.8,2.1Z"/>
        <path class="st2" d="M13.5,248.1c43.8-.3,86.5,0,127.9,1.3,1.9,0,3.5-1.7,3.2-3.6l-.2-1.3c-.2-1.6-1.6-2.8-3.2-2.8-45.1-.3-87.8-.5-127.7-.8-1.7,0-3.2,1.4-3.2,3.1v.8c0,1.8,1.4,3.3,3.1,3.3Z"/>
      </g>
      <path class="st2" d="M8.9,188.4c-1.1,1.1-1.5,2.9-1,4.4.6,1.8,2.6,2.9,4.6,2.9,1.9,0,3.8-.7,5.6-1.4-.7.8.1,2.1,1.1,2.2s2-.5,2.7-1.2c-.4,2.4.8,5,2.8,6.3,2,1.3,4.8,1.4,6.9.2,2.1-1.3,3.3-3.8,3.1-6.2,1,1.4,2.6,2.3,4.3,2.3,1.7,0,3.4-.7,4.4-2.1.5.8,1.3,1,2.2.9,1,0,1.9-.7,2.3-1.5-.2,1.4.7,2.8,1.8,3.6,1.2.8,2.6,1,4.1,1.1,2,.1,4-.1,5.8-1s3.2-2.6,3.3-4.6c.7,1.1,2.1,1.8,3.4,1.8,1.3,0,2.7-.8,3.4-1.9,1.7,1.7,4.6,2.1,6.7.8,0,.6.7,1.2,1.3,1.2.6,0,1.3-.4,1.5-1-.3,1.4.3,2.9,1.3,4,1,1.1,2.4,1.7,3.8,2,4.6,1,9.8-1.4,11.9-5.6,1,1.6,3.1,2,5,2.2,1.2.1,2.4.3,3.5-.2,1.1-.5,2-1.7,1.6-2.8.5.7,1.5,1.2,2.3,1.1s1.5-.8,1.7-1.6c1.7,1.7,4.2,2.7,6.6,2.5,2.4-.2,4.7-1.5,6.2-3.5.1,1.4.9,2.7,2.2,3.2,1.2.6,2.8.4,3.9-.4.9,1.8,2.9,3,4.9,3,2,0,3.9-1.3,4.8-3.1.3,1.7,1.8,3,3.5,3.2,1.7.2,3.4-.7,4.3-2.1.9-1.4,1.1-3.3.5-4.8-.4-1-1.1-2-2-2.5-1.4-.7-3.1-.4-4.6,0,.6-1.1,0-2.6-1-3.1-1.1-.6-2.5-.2-3.3.8.4-4.1-2.8-8.2-6.9-8.7-4.1-.6-8.3,2.5-9,6.6-.8-1.5-2.6-2.4-4.3-2.3-1.7.1-3.3,1.3-3.9,2.9-.6-.7-1.6-1-2.5-.8-.9.3-1.6,1-1.8,2-1-2.6-3.8-4.5-6.6-4.5-2.8,0-5.6,1.9-6.6,4.5-1-1.3-3.6-1.4-4.5,0-.5-2.6-2.9-4.7-5.5-4.8-2.6-.1-5.2,1.8-5.9,4.3-.5-1.5-2-2.6-3.5-2.7s-3.2.8-3.9,2.2c-1-.7-2.4-.8-3.5-.3-.1-2.8-2.5-5.3-5.3-5.7s-5.7,1.5-6.5,4.2c-1.5-2.4-4.4-3.9-7.3-3.7-2.8.2-5.5,2.1-6.7,4.7-1.3-1.4-3.6-1.6-5.1-.5-.4-2.8-3.6-4.6-6.4-4s-4.9,3-5.8,5.6c-.6-1.1-1.9-1.7-3.1-1.5-1.2.2-2.3,1.2-2.5,2.4-1.2-1.9-6.5-2.1-10.1,1.3Z"/>
      <path class="st17" d="M119.7,151.3c1.1,0,2.4,0,3.2.8.9.9.8,2.3.7,3.6-.5,4.7-1,9.5-1.5,14.2,0,.8-.2,1.7-.8,2.3-1,.8-2.6.2-3.2-1s-.5-2.5-.4-3.7c.1-1.7.2-3.4-.5-4.9-.7-1.5-2.3-2.8-4-2.4-.9.2-1.7.9-2.6.7-1.1-.3-1.5-1.7-2.6-2-.9-.3-1.9.4-2.4,1.2-.4.9-.4,1.9-.4,2.9.1,3.8.2,7.7.3,11.5,0,1.7-.4,4-2.1,4-1.3,0-2.1-1.4-2.4-2.7-.6-3,.3-6,.3-9.1,0-3-1.3-6.5-4.2-7.3-2.3-.6-4.7.7-7,.1-1.2-.3-2.2-1-3.3-1.5-1.1-.5-2.5-.6-3.4.1-2,1.6-.3,5.5-2.4,6.8-1.5,1-3.5-.5-4.5-2-1-1.5-2.1-3.4-3.9-3.6-1.6-.2-3.1,1-4.6.5-1.8-.6-2.4-3.3-4.2-3.4-1.8,0-2.4,2.3-2.5,4.1-.2,4-.3,7.9-.5,11.9,0,1.8-.6,4.2-2.5,4.4-1,0-1.9-.7-2.3-1.5s-.5-1.9-.6-2.9c-.2-3.1-.5-6.2-.7-9.2,0-1.1-.2-2.3-.8-3.3-.6-1-1.9-1.6-3-1-.9.5-1.2,1.6-2.1,2.1-1.3.7-2.7-.4-3.7-1.5s-2.3-2.3-3.6-1.9c-2.5.8-1.5,5.8-4.1,6.1-2.9.3-3-5.8-5.9-5.5-1.6.2-2,2.2-2,3.8,0,3-.1,6-.2,9.1,0,1.5-.6,3.5-2.1,3.4-1.3-.1-1.7-1.8-1.8-3.1-.2-3.8-.4-7.6-.6-11.4,0-1.9-.2-3.8-.3-5.7,0-1.9.4-1.9,2.1-2,7.6-.1,15.1-.2,22.7-.3,15-.2,30.1-.4,45.1-.6,8.4-.1,16.8-.3,25.2-.3Z"/>
      <path class="st13" d="M46.6,126.7c-1,0-2,0-2.9.4s-1.8,1.1-1.9,2c-.2,1.2.7,2.3,1.8,2.7,1.1.4,2.4.4,3.6.1,1.2-.2,2.4-.5,3.6-.5,1.7,0,3.3.8,5,.6,1.7-.2,3.1-1.4,4.8-1.6,3.3-.5,6.4,2.6,9.6,1.7,1.5-.4,2.7-1.6,4.3-1.7,1.8-.2,3.4,1.1,5.2.9,1.4-.1,2.5-1.1,3.8-1.3,2.8-.5,5.5,2,8.2,1.4,1.4-.3,2.5-1.3,3.9-1.6,1.3-.3,2.7,0,4.1.4,1.3.4,2.8.7,4.1.2,1.3-.4,2.3-1.9,1.7-3.1-.4-.8-1.4-1.2-2.3-1.2-.9,0-1.8,0-2.7,0-2.2,0-4.2-1.2-6.4-1.5-2.9-.4-5.7.7-8.5,1.1-3.2.5-6.5,0-9.8-.2-4-.3-8.1-.3-12.1,0-3.5.2-6.7,1.2-10.1,1.2h-7Z"/>
      <path class="st1" d="M52.1,126.4c.7-.6,1.1-1.4,1.2-2.3,0-.9-.3-1.7-.9-2.4-.6-.7-1.4-1.3-1.5-2.1,0-.3,0-.7-.3-1-.3-.3-.8-.2-1.2,0-1.4.6-2.4,1.8-3.1,3-.4.6-.6,1.3-.7,2.1,0,.7,0,1.5.4,2.1.4.6,1.2,1.2,2,1.3.8.1,1.9.1,2.7,0,.6-.1,1.1-.3,1.6-.7Z"/>
      <path class="st1" d="M64.4,126.4c.7-.6,1.1-1.4,1.2-2.3,0-.9-.3-1.7-.9-2.4-.6-.7-1.4-1.3-1.5-2.1,0-.3,0-.7-.3-1-.3-.3-.8-.2-1.2,0-1.4.6-2.4,1.8-3.1,3-.4.6-.6,1.3-.7,2.1,0,.7,0,1.5.4,2.1.4.6,1.2,1.2,2,1.3.8.1,1.9.1,2.7,0,.6-.1,1.1-.3,1.6-.7Z"/>
      <path class="st1" d="M76.7,126.4c.7-.6,1.1-1.4,1.2-2.3,0-.9-.3-1.7-.9-2.4-.6-.7-1.4-1.3-1.5-2.1,0-.3,0-.7-.3-1-.3-.3-.8-.2-1.2,0-1.4.6-2.4,1.8-3.1,3-.4.6-.6,1.3-.7,2.1,0,.7,0,1.5.4,2.1.4.6,1.2,1.2,2,1.3.8.1,1.9.1,2.7,0,.6-.1,1.1-.3,1.6-.7Z"/>
      <path class="st1" d="M89,126.4c.7-.6,1.1-1.4,1.2-2.3,0-.9-.3-1.7-.9-2.4-.6-.7-1.4-1.3-1.5-2.1,0-.3,0-.7-.3-1-.3-.3-.8-.2-1.2,0-1.4.6-2.4,1.8-3.1,3-.4.6-.6,1.3-.7,2.1,0,.7,0,1.5.4,2.1.4.6,1.2,1.2,2,1.3.8.1,1.9.1,2.7,0,.6-.1,1.1-.3,1.6-.7Z"/>
      <path class="st1" d="M101.3,126.4c.7-.6,1.1-1.4,1.2-2.3,0-.9-.3-1.7-.9-2.4-.6-.7-1.4-1.3-1.5-2.1,0-.3,0-.7-.3-1-.3-.3-.8-.2-1.2,0-1.4.6-2.4,1.8-3.1,3-.4.6-.6,1.3-.7,2.1,0,.7,0,1.5.4,2.1.4.6,1.2,1.2,2,1.3.8.1,1.9.1,2.7,0,.6-.1,1.1-.3,1.6-.7Z"/>
      <path class="st17" d="M142,213.9c-10.9-.3-21.9-.7-32.8-1.1-20.6-.8-41.1-1.7-61.7-2.8-11.7-.6-23.3-1.3-35-2,0-.5,0-1,0-1.6,2.7.2,5.3.3,8,.5,20.5,1.2,41.1,2.3,61.6,3.2,20,.9,39.9,1.6,59.9,2.2,0,.5,0,1,0,1.6Z"/>
      <path class="st17" d="M142.3,231.1c-4.4,0-8.8-.2-13.2-.2-20.8-.4-41.6-.8-62.4-1.2-17.8-.3-35.7-.7-53.5-1,0-.5,0-1,0-1.6,8.7.2,17.4.3,26.1.5,20.8.4,41.6.8,62.4,1.2,13.5.3,27.1.5,40.6.8,0,.5,0,1,0,1.6Z"/>
      <path class="st10" d="M142.2,225.8c-43-2.2-86.1-3.2-129.1-3-.2-4-.3-8-.5-12,43.1,2.7,86.3,4.9,129.4,6.6,0,2.8.1,5.6.2,8.4Z"/>
      <g>
        <path class="st0" d="M34.5,177.1c.3.8,1.2,1.3,2.1,1.3.8,0,1.6-.5,1.9-1.2,1.4-3.1-5.4-3.5-4-.1Z"/>
        <path class="st0" d="M47.8,173.7c.3.8,1.2,1.3,2.1,1.3.8,0,1.6-.5,1.9-1.2,1.4-3.1-5.4-3.5-4-.1Z"/>
        <path class="st0" d="M64.9,174.4c.3.8,1.2,1.3,2.1,1.3.8,0,1.6-.5,1.9-1.2,1.4-3.1-5.4-3.5-4-.1Z"/>
        <path class="st0" d="M86.1,168c.3.8,1.2,1.3,2.1,1.3.8,0,1.6-.5,1.9-1.2,1.4-3.1-5.4-3.5-4-.1Z"/>
        <path class="st0" d="M112.6,174.4c.3.8,1.2,1.3,2.1,1.3.8,0,1.6-.5,1.9-1.2,1.4-3.1-5.4-3.5-4-.1Z"/>
        <path class="st0" d="M76.9,180.5c.3.8,1.2,1.3,2.1,1.3.8,0,1.6-.5,1.9-1.2,1.4-3.1-5.4-3.5-4-.1Z"/>
        <path class="st0" d="M39.5,169.5c.4,1.1,1.7,1.9,2.9,1.9,1.1,0,2.3-.7,2.7-1.7,2-4.4-7.5-5-5.6-.2Z"/>
        <path class="st0" d="M90.1,178.1c.4,1.1,1.7,1.9,2.9,1.9,1.1,0,2.3-.7,2.7-1.7,2-4.4-7.5-5-5.6-.2Z"/>
        <path class="st0" d="M107.7,166.1c.4,1.1,1.7,1.9,2.9,1.9,1.1,0,2.3-.7,2.7-1.7,2-4.4-7.5-5-5.6-.2Z"/>
        <path class="st0" d="M68.2,168.2c.4,1.1,1.7,1.9,2.9,1.9,1.1,0,2.3-.7,2.7-1.7,2-4.4-7.5-5-5.6-.2Z"/>
      </g>
    </g>
    <g>
      <path class="st1" d="M123.3,187c.5.6,1.3.8,2.1.7.5-.1,1-.4,1.3-.8,1.1-1.2.9-3.2-.7-3.8-1.2-.5-2.5.4-3,1.4-.4.8-.3,1.8.3,2.5Z"/>
      <path class="st1" d="M89.9,196.6c.5.6,1.3.8,2.1.7.5-.1,1-.4,1.3-.8,1.1-1.2.9-3.2-.7-3.8-1.2-.5-2.5.4-3,1.4-.4.8-.3,1.8.3,2.5Z"/>
      <path class="st1" d="M60.2,188.5c.5.6,1.3.8,2.1.7.5-.1,1-.4,1.3-.8,1.1-1.2.9-3.2-.7-3.8-1.2-.5-2.5.4-3,1.4-.4.8-.3,1.8.3,2.5Z"/>
      <path class="st1" d="M29.7,196.6c.5.6,1.3.8,2.1.7.5-.1,1-.4,1.3-.8,1.1-1.2.9-3.2-.7-3.8-1.2-.5-2.5.4-3,1.4-.4.8-.3,1.8.3,2.5Z"/>
      <path class="st1" d="M12.4,192.4c.5.6,1.3.8,2.1.7.5-.1,1-.4,1.3-.8,1.1-1.2.9-3.2-.7-3.8-1.2-.5-2.5.4-3,1.4-.4.8-.3,1.8.3,2.5Z"/>
      <path class="st1" d="M128.7,190c.3.3.7.4,1.1.4.4,0,.8-.1,1.1-.4.4-.4.4-1.2,0-1.7-1.1-1-3.6.5-2.1,1.7Z"/>
      <path class="st1" d="M116.3,194.1c.3.3.7.4,1.1.4.4,0,.8-.1,1.1-.4.4-.4.4-1.2,0-1.7-1.1-1-3.6.5-2.1,1.7Z"/>
      <path class="st1" d="M97.7,188.1c.3.3.7.4,1.1.4.4,0,.8-.1,1.1-.4.4-.4.4-1.2,0-1.7-1.1-1-3.6.5-2.1,1.7Z"/>
      <path class="st1" d="M83.8,188.1c.3.3.7.4,1.1.4.4,0,.8-.1,1.1-.4.4-.4.4-1.2,0-1.7-1.1-1-3.6.5-2.1,1.7Z"/>
      <path class="st1" d="M43,187.6c.3.3.7.4,1.1.4.4,0,.8-.1,1.1-.4.4-.4.4-1.2,0-1.7-1.1-1-3.6.5-2.1,1.7Z"/>
      <path class="st1" d="M26.6,186.9c.3.3.7.4,1.1.4.4,0,.8-.1,1.1-.4.4-.4.4-1.2,0-1.7-1.1-1-3.6.5-2.1,1.7Z"/>
      <path class="st1" d="M57.2,194.1c.3.3.7.4,1.1.4s.8-.1,1.1-.4c.4-.4.4-1.2,0-1.7-1.1-1-3.6.5-2.1,1.7Z"/>
    </g>
  </g>
  <g>
    <g>
      <g>
        <path class="st2" d="M161.7,194.6h0c0,0-4.1.4-4.1.4,0-.2,0-.3,0-.5,0-.6,0-1.1-.2-1.7-.1-1.5-.3-3-.5-4.5,0-.5-.1-1.1-.2-1.6-.2-1.5-.4-2.9-.6-4.4,0-.5-.2-1.1-.2-1.6-.2-1.4-.5-2.9-.7-4.3,0-.5-.2-1-.3-1.6-.3-1.5-.6-3-.9-4.5,2.3-1.2,3.4-1.4,5.7-2.6,0,.7,0,1.5,0,2.2,0,.6,0,1.2,0,1.8,0,1.6.1,3.2.2,4.8,0,.6,0,1.2.1,1.7.1,1.6.2,3.1.3,4.7h0c0,.6,0,1.1.1,1.7.1,1.5.3,3,.4,4.6,0,.6.1,1.1.2,1.7.1,1.3.3,2.6.5,3.8Z"/>
        <path class="st1" d="M159.7,171.8l-4.7,4.7c0-.5-.2-1-.3-1.6l4.9-4.9c0,.6,0,1.2,0,1.8Z"/>
        <path class="st1" d="M160.1,178.3l-4.1,4.1c0-.5-.2-1.1-.2-1.6l4.2-4.2c0,.6,0,1.2.1,1.7Z"/>
        <path class="st1" d="M160.6,184.6l-3.8,3.8c0-.5-.1-1.1-.2-1.6l3.8-3.8c0,.6,0,1.1.1,1.7Z"/>
        <path class="st1" d="M161.2,190.8l-3.8,3.8c0-.6,0-1.1-.2-1.7l3.8-3.8c0,.6.1,1.1.2,1.7Z"/>
        <path class="st16" d="M156.7,167.9c-.3.3-.9.4-1.2,0-1.4-1.3-2.1-3.4-2-5.3,0-1.8.8-3.5,1.8-5,.3-.5,1.1-.5,1.4,0,1,1.3,2.3,2.4,2.8,4,.3,1.2,0,2.6-.5,3.7-.5.9-1.5,1.8-2.3,2.7Z"/>
        <path class="st10" d="M156.5,167.8c-.2.2-.6.2-.8,0-.9-.9-1.4-2.3-1.3-3.6,0-1.2.5-2.4,1.2-3.5.2-.3.7-.4,1,0,.7.9,1.6,1.6,1.9,2.7.2.8,0,1.8-.4,2.5-.3.6-1,1.3-1.6,1.8Z"/>
      </g>
      <g>
        <path class="st16" d="M172.3,174.3c0,.6,0,1.1-.1,1.7-.2,2.3-.3,4.2-.4,5.9-.1,2-.2,3.7-.2,5.7,0,1.7,0,3.5,0,5.7,0,.6,0,1.2,0,1.8h0c0,0-4.2,0-4.2,0,0-3,0-5.2,0-7.2h0c0-1.8-.2-3.4-.4-5.3-.2-1.7-.4-3.7-.7-6.2,2.4-.9,3.6-1.1,6-2Z"/>
        <path class="st4" d="M172.1,175.9c-.2,2.3-.3,4.2-.4,5.9-1.4-.2-2.5-1.5-2.5-2.9s1.3-2.9,2.9-3Z"/>
        <path class="st4" d="M168.8,185.2c0,1.1-.6,2-1.4,2.5,0-1.8-.2-3.4-.4-5.3,1.1.5,1.8,1.5,1.8,2.7Z"/>
        <path class="st4" d="M171.6,193.2c-1.2-.4-2.1-1.5-2.1-2.8s.9-2.4,2.1-2.8c0,1.7,0,3.5,0,5.7Z"/>
        <path class="st16" d="M169.3,174.1c-.4.3-.9.3-1.2-.1-1.2-1.5-1.7-3.6-1.4-5.5.3-1.8,1.1-3.4,2.3-4.8.4-.5,1.1-.4,1.4.1.9,1.4,2.1,2.6,2.4,4.3.2,1.3-.2,2.6-.9,3.6-.6.9-1.7,1.7-2.5,2.4Z"/>
        <path class="st10" d="M169.2,173.9c-.3.2-.6.2-.8,0-.8-1-1.2-2.4-1-3.8.2-1.2.8-2.4,1.6-3.3.3-.3.8-.3,1,0,.6,1,1.4,1.8,1.6,2.9.1.9-.1,1.7-.6,2.5-.4.6-1.1,1.2-1.7,1.7Z"/>
      </g>
      <g>
        <path class="st16" d="M194.8,173.1c-.3,2.1-.5,3.8-.7,5.4-.4,2.8-.6,5-.8,7.4-.1,1.8-.3,3.7-.4,5.9,0,1.1,0,2.3-.1,3.6h0c0,0-4.5-.3-4.5-.3.4-5.1.5-8.1.4-11.3,0-1.6-.1-3.2-.2-5.1,0-1.2-.1-2.4-.2-3.9,2.5-.8,3.7-.9,6.1-1.6h0c.2,0,.3-.1.5-.2Z"/>
        <path class="st4" d="M193.3,185.9c-.1,1.8-.3,3.7-.4,5.9-1.6,0-2.9-1.4-2.9-3s1.3-3,3-3,.2,0,.3,0Z"/>
        <path class="st4" d="M190,181.3c0,1.1-.6,2-1.4,2.5,0-1.6-.1-3.2-.2-5.1.9.5,1.6,1.5,1.6,2.6Z"/>
        <path class="st4" d="M194.8,173.1c-.3,2.1-.5,3.8-.7,5.4-.9-.5-1.5-1.5-1.5-2.6s.7-2.2,1.7-2.7h0c.2,0,.3-.1.5-.2Z"/>
        <path class="st16" d="M191.7,172.7c-.4.3-1,.2-1.3-.2-1.2-1.7-1.6-4-1.2-6,.4-1.9,1.5-3.6,2.8-5.1.4-.5,1.2-.4,1.5.2.8,1.6,2.1,3,2.3,4.8.2,1.4-.4,2.8-1.2,3.9-.7.9-1.9,1.7-2.9,2.5Z"/>
        <path class="st10" d="M191.5,172.5c-.3.2-.7.2-.9-.1-.9-1.1-1.1-2.7-.8-4.1.3-1.3,1-2.5,1.9-3.5.3-.3.8-.3,1.1.1.6,1.1,1.4,2,1.6,3.3.1.9-.3,1.9-.8,2.7-.5.6-1.3,1.2-2,1.7Z"/>
      </g>
      <g>
        <g>
          <path class="st2" d="M184.4,157.1c-.2,1.3-.4,2.9-.5,4.7,0,.5-.1,1.1-.2,1.6-.2,1.7-.3,3.6-.4,5.5,0,.5,0,1.1-.1,1.6-.1,1.8-.2,3.6-.3,5.4,0,.5,0,1.1,0,1.6-.1,1.8-.2,3.6-.3,5.4,0,.5,0,1.1,0,1.6,0,1.9-.2,3.7-.3,5.4,0,.5,0,1.1,0,1.6,0,1.4-.1,2.6-.2,3.7h0c0,0-4.1-.3-4.1-.3,0-.2,0-.5,0-.7,0-.5,0-1,.1-1.6.1-1.6.2-3.4.3-5.4,0-.5,0-1,0-1.6,0-1.7.1-3.5.2-5.3,0-.5,0-1,0-1.5,0-1.8,0-3.5,0-5.3,0-.5,0-1,0-1.5,0-1.8,0-3.6,0-5.2,0-.5,0-1,0-1.5,0-2.5,0-4.7-.1-6.5,2.5-.7,3.6-.8,6.1-1.6Z"/>
          <path class="st16" d="M181.5,156.7c-.4.3-.9.2-1.2-.2-1.1-1.6-1.5-3.7-1-5.6.4-1.8,1.4-3.3,2.6-4.7.4-.4,1.1-.3,1.4.2.8,1.5,1.9,2.7,2.1,4.4.1,1.3-.4,2.5-1.2,3.6-.6.8-1.8,1.6-2.7,2.2Z"/>
          <path class="st10" d="M181.4,156.5c-.3.2-.6.1-.8-.1-.8-1.1-1-2.5-.7-3.8.3-1.2.9-2.3,1.8-3.2.3-.3.8-.2,1,.1.5,1,1.3,1.9,1.4,3,0,.9-.3,1.7-.8,2.4-.4.6-1.2,1.1-1.9,1.5Z"/>
        </g>
        <path class="st1" d="M183.9,161.8c0,.5-.1,1.1-.2,1.6-1.8,1.1-3.5,2.1-5.3,3.2,0-.5,0-1,0-1.5,1.8-1.1,3.6-2.2,5.4-3.3Z"/>
        <path class="st1" d="M183.3,168.9c0,.5,0,1.1-.1,1.6-1.6,1-3.2,1.9-4.7,2.9,0-.5,0-1,0-1.5,1.6-1,3.2-2,4.8-3Z"/>
        <path class="st1" d="M182.8,175.9c0,.5,0,1.1,0,1.6-1.5.9-3,1.8-4.4,2.7,0-.5,0-1,0-1.5,1.5-.9,3-1.8,4.5-2.7Z"/>
        <path class="st1" d="M182.5,182.9c0,.5,0,1.1,0,1.6-1.4.9-2.8,1.7-4.3,2.6,0-.5,0-1,0-1.6,1.4-.9,2.9-1.8,4.3-2.6Z"/>
        <path class="st1" d="M182.1,189.8c0,.5,0,1.1,0,1.6-1.4.9-2.9,1.8-4.3,2.6,0-.5,0-1,.1-1.6,1.4-.9,2.9-1.7,4.3-2.6Z"/>
      </g>
      <path class="st0" d="M217.2,236.1c-.7-2.8,0-5.7,0-8.6,0-2.9-1-6.1-3.6-7.5-1.5-.8-3.3-.8-5-.8-21,0-41.9,0-62.9.1-2.5,0-5.2,0-7.1,1.6-2,1.6-2.5,4.5-2.4,7,.1,2.5.6,5.1,0,7.6l81.1.5Z"/>
      <path class="st12" d="M229.5,277.3c0,.8-.1,1.5-.3,2.2-.4,1.6-1.3,2.8-3,3.4-.7.2-1.4.4-2.4.4-.4,0-.8,0-1.2,0-1.2,0-2.5,0-3.7,0-.5,0-1,0-1.5,0-1.6,0-3.2,0-4.9,0-1.3,0-2.6,0-3.9,0-1.3,0-2.5,0-3.8,0-.5,0-1,0-1.5,0h-.2c-1.5,0-3.1,0-4.6,0h-3.8c-1.3,0-2.5,0-3.8,0h-1.5c-1.6,0-3.2,0-4.9,0s-2.6,0-3.8,0h-5.3c-1.6,0-3.2,0-4.8,0s-2.6,0-3.8,0h-3.8c-.5,0-1,0-1.5,0h-4.9c-1.3,0-2.6,0-3.8,0s-2.5,0-3.8,0c-.5,0-1,0-1.5,0-1.6,0-3.2,0-4.9,0h-3.8c-1.3,0-2.5,0-3.8,0h-.2c-.4,0-.9,0-1.4,0-2.1-.1-4.2-.6-5.3-2.2-.7-1.1-.8-2.5-.9-3.8-.1-2.4-.3-4.8-.4-7.2,0-1.4-.1-2.7-.2-4.1-.4-7.1-.8-14.2-1.1-21.3,0-1.8-.2-3.7.6-5.3,0,0,0,0,0,0,.6-1.3,1.7-2.2,2.9-2.8,1.1-.5,2.4-.8,3.7-1,.4,0,.9,0,1.3-.1.9,0,1.8,0,2.7,0,.9,0,1.9,0,2.8,0,1.1,0,2.2,0,3.3,0,1.3,0,2.6,0,3.8,0,.4,0,.9,0,1.3,0,1.9,0,3.7,0,5.6,0,1.1,0,2.2,0,3.3,0,1.3,0,2.5,0,3.8,0,.4,0,.9,0,1.3,0,1.9,0,3.7,0,5.6,0,1.1,0,2.2,0,3.3,0,1.3,0,2.5,0,3.8,0,.4,0,.9,0,1.3,0,1.9,0,3.7,0,5.6,0,1.1,0,2.2,0,3.3,0,1.3,0,2.5,0,3.8,0,.4,0,.9,0,1.3,0,1.9,0,3.7,0,5.6,0,1.1,0,2.2,0,3.3,0,1.3,0,2.5,0,3.8,0,.4,0,.9,0,1.3,0,1.9,0,3.7,0,5.6,0,1.1,0,2.2,0,3.3,0,1.3,0,2.5,0,3.8,0,.4,0,.9,0,1.3,0,1.4,0,2.9,0,4.3,0,.4,0,.9,0,1.3,0,1.1,0,2.1.3,2.9.9.2.2.4.3.5.5,1,1.2,1.2,3.1,1.2,4.7,0,2.4.2,4.7.3,7.1.2,5.8.5,11.6.7,17.4,0,1.9.2,3.9.2,5.8,0,1.6.1,3.1,0,4.5Z"/>
      <g>
        <path class="st10" d="M135.1,283.2h-.2c-.4,0-.9,0-1.4,0-.4-.7-.8-1.5-1.3-2.2-2-3.6-3.8-7.2-5.3-11,0-1.4-.1-2.7-.2-4.1.5,1.4,1,2.7,1.6,4,1.9,4.6,4.2,9,6.7,13.3Z"/>
        <path class="st10" d="M142.7,283.2h-3.8c-8.2-13.3-11-28.6-12.7-43.9,0,0,0,0,0,0,.6-1.3,1.7-2.2,2.9-2.8,1.6,16.4,4.5,33.2,13.5,46.8Z"/>
        <path class="st10" d="M149.1,283.2c-.5,0-1,0-1.5,0-.4-.7-.9-1.5-1.3-2.2-4.4-7.8-7.7-16.2-10-24.9-1.8-6.8-2.9-13.7-3.3-20.7.4,0,.9,0,1.3-.1.2,3.1.5,6.1,1,9.1,1.3,8.8,3.7,17.3,7.2,25.5,1.9,4.6,4.2,9,6.7,13.3Z"/>
        <path class="st10" d="M156.7,283.2c-1.3,0-2.6,0-3.8,0-8.9-14.4-11.5-31.3-13.1-47.9,1.1,0,2.2,0,3.3,0,1.6,16.7,4.4,34.1,13.6,47.9Z"/>
        <path class="st10" d="M163,283.2c-.5,0-1,0-1.5,0-.4-.7-.9-1.5-1.3-2.2-4.4-7.8-7.7-16.2-10-24.9-1.8-6.8-2.9-13.8-3.3-20.8.4,0,.9,0,1.3,0,.2,3,.5,6,1,9,1.3,8.8,3.7,17.3,7.2,25.5,1.9,4.6,4.2,9,6.8,13.3Z"/>
        <path class="st10" d="M170.6,283.2c-1.3,0-2.6,0-3.8,0-8.9-14.4-11.5-31.2-13-47.8,1.1,0,2.2,0,3.3,0,1.6,16.7,4.4,33.9,13.6,47.7Z"/>
        <path class="st10" d="M177,283.2h-1.5c-.4-.7-.9-1.5-1.3-2.2-4.4-7.8-7.7-16.2-10-24.9-1.8-6.7-2.9-13.6-3.3-20.6.4,0,.9,0,1.3,0,.2,3,.5,5.9.9,8.9,1.3,8.8,3.7,17.3,7.2,25.5,1.9,4.6,4.2,9,6.8,13.3Z"/>
        <path class="st10" d="M184.6,283.2c-1.3,0-2.6,0-3.8,0-8.8-14.3-11.5-31.1-13-47.6,1.1,0,2.2,0,3.3,0,1.6,16.6,4.4,33.8,13.6,47.6Z"/>
        <path class="st10" d="M191,283.2h-1.5c-.4-.7-.9-1.5-1.3-2.2-4.4-7.8-7.7-16.2-10-24.9-1.8-6.7-2.9-13.5-3.3-20.4.4,0,.9,0,1.3,0,.2,2.9.5,5.8.9,8.7,1.3,8.8,3.7,17.3,7.2,25.5,1.9,4.6,4.2,9,6.8,13.3Z"/>
        <path class="st10" d="M198.6,283.2h-3.8c-8.8-14.3-11.5-30.9-13-47.4,1.1,0,2.2,0,3.3,0,1.6,16.5,4.4,33.7,13.6,47.4Z"/>
        <path class="st10" d="M204.9,283.2c-.5,0-1,0-1.5,0-.4-.7-.9-1.5-1.3-2.3-4.4-7.8-7.7-16.2-10-24.9-1.8-6.6-2.9-13.4-3.3-20.2.4,0,.9,0,1.3,0,.2,2.8.5,5.7.9,8.5,1.3,8.8,3.7,17.3,7.2,25.5,1.9,4.6,4.2,9.1,6.8,13.3Z"/>
        <path class="st10" d="M212.6,283.3c-1.3,0-2.6,0-3.9,0-8.8-14.2-11.5-30.9-13-47.3,1.1,0,2.2,0,3.3,0,1.6,16.5,4.5,33.6,13.7,47.3Z"/>
        <path class="st10" d="M219,283.4c-.5,0-1,0-1.5,0-.5-.8-.9-1.6-1.4-2.4-4.4-7.8-7.7-16.2-10-24.9-1.7-6.6-2.8-13.3-3.3-20.1.4,0,.9,0,1.3,0,.2,2.8.5,5.6.9,8.3,1.3,8.8,3.7,17.3,7.2,25.5,2,4.6,4.2,9.1,6.8,13.5Z"/>
        <path class="st10" d="M226.2,282.9c-.7.2-1.4.4-2.4.4-.4,0-.8,0-1.2,0-8.8-14.2-11.5-30.7-13-47.1,1.1,0,2.2,0,3.3,0,1.6,16.3,4.4,33.1,13.3,46.7Z"/>
        <path class="st10" d="M229.5,277.3c0,.8-.1,1.5-.3,2.2-4-7.4-7.1-15.3-9.2-23.4-1.7-6.5-2.8-13.2-3.3-19.9.4,0,.9,0,1.3,0,.2,2.7.5,5.4.9,8.1,1.3,8.8,3.7,17.3,7.2,25.5,1.1,2.5,2.2,5,3.5,7.4Z"/>
        <path class="st10" d="M229.2,267c-3.2-9.8-4.6-20.2-5.6-30.6,1.1,0,2.1.3,2.9.9.2.2.4.3.5.5.4,3.9.9,7.9,1.5,11.8.2,5.8.5,11.6.7,17.4Z"/>
      </g>
      <path class="st16" d="M131.7,234c-2.1,0-4.4.1-6,1.5-2,1.8-2,4.9-1.9,7.5l.7,12.1c.1,1.9.8,4.3,2.6,4.3,1.6,0,2.5-2,2.6-3.6,0-1.6-.2-3.5.9-4.7.8-.9,2-1.2,2.9-2,1.1-1,1.5-2.6,1.8-4s.7-3.1,1.8-4c1.2-1,3.3-.7,3.7.7.3,1.1-.6,2.3-.2,3.4.3.8,1.2,1.1,1.8,1.6,2.7,1.9,2.8,5.8,2.6,9.1-.2,3.7-.4,7.3-.6,11-.1,2.1.3,5,2.4,5.3,1.7.2,3-1.6,3.2-3.4.1-1.7-.5-3.4-.5-5.2,0-4.7,4.3-8.4,4.6-13.1,0-1.6-.3-3.2-.4-4.8,0-1.6.2-3.4,1.3-4.5s3.4-1.1,4.2.3c.4.7.3,1.6.4,2.4s.7,1.7,1.5,1.7c.8,0,1.4-.9,2.2-1.2,1-.4,2.1.3,2.6,1.2.5.9.5,2,.6,3,.1,8.8-.1,17.7-.8,26.5-.2,2.2,0,4.9,2,5.8,1.6.7,3.5-.4,4.4-2,.8-1.6.8-3.4.8-5.1,0-3-.1-6-.2-9,0-1.4,0-3,1.2-3.8.7-.5,1.7-.5,2.4-.8,1.4-.7,1.9-2.5,1.8-4s-.7-3-.9-4.6c-.4-4.6,3-8.6,6.2-12,1-1.1,2.7-2.2,3.8-1.2.7.6.7,1.7.8,2.7s.7,2.1,1.7,1.9c1.3-.2,1.2-2.3,2.4-2.8.7-.3,1.6.2,1.9.9s.3,1.5.3,2.3c-.1,2.9-.2,5.8-.3,8.7,0,1.3,0,2.9,1.2,3.5,1.3.7,2.9-.6,3.3-2.1.5-1.9,0-3.9.4-5.8.2-.9.8-1.8,1.7-2.1.8-.3,1.8,0,2.5-.5.6-.4.8-1.3.9-2.1,0-.8,0-1.6.4-2.3.5-.9,1.7-1.2,2.7-.9,2.3.8,2.4,3.8,2.7,5.8.4,2.9,0,6.1,0,9,0,6.2-.1,12.4-.2,18.5,0,.7,0,1.4.4,1.9.8,1.2,2.9.8,3.7-.4.8-1.2.8-2.8.8-4.2,0-3.8,0-7.8.7-11.5.7-3.7.5-7.7.7-11.5,0-.8.1-1.7.8-2.1,1-.6,2.5.3,3.3-.5.4-.4.5-1,.5-1.6,0-.6,0-1.2.2-1.7.3-.5,1-.8,1.4-.4.3.3.3.7.3,1.1,0,1.7,0,3.3-.1,5,0,.9,0,1.9.9,2.2.7.3,1.4-.2,2.1,0,.6.1,1.1.6,1.3,1.2.2.6.2,1.2.3,1.8,0,3.4,0,6.8-.4,10.1,0,.9-.2,1.9.2,2.8.5,1.1,2.2,1.7,3.1.9,1.1-.9,1.3-2.8,1.3-4.1.1-6.1.2-12.1.4-18.2,0-3,0-6.4-2.3-8.4-1.9-1.7-4.7-1.8-7.3-1.8-12.1,0-24.1-.1-36.2-.2-6,0-12-.2-18,0-2.2,0-4.3.6-6.6.6-3,0-6,0-9.1,0-6.8,0-13.6.1-20.3.2Z"/>
      <path class="st16" d="M212.8,214l-72.7-.5c-1.3.2-2.5,1.3-2.7,2.7s.5,2.8,1.7,3.4c1.2.6,2.8.4,3.7-.5,0,.7.7,1.5,1.4,1.6.7.1,1.5-.3,1.8-.9.1.4.5.7.9.7.4,0,.8-.2,1-.6,0,1.1.8,2.1,1.8,2.6,1,.4,2.2.4,3.3,0,1-.4,1.9-1.1,2.7-2,.6.4,1,.7,1.7.8s1.4.1,2-.2c.6-.3,1.1-.9,1.2-1.6.3.4.8.7,1.3.8.5,0,1-.2,1.4-.6.7,1.1,2.1,1.9,3.4,1.9,1.4,0,2.7-.7,3.5-1.8.4.6,1.1.9,1.8.9.7,0,1.4-.4,1.7-1,1.1,1.3,2.8,2.3,4.5,2.3,1.8,0,3.6-.9,4.3-2.5.4.7,1.4,1.3,2.3,1.3.8,0,1.6-.4,2.1-1.1.7,1.5,2.4,2.6,4,2.5,1.7,0,3.3-1.2,3.8-2.8.5.4,1,.8,1.6.9.6.1,1.4-.1,1.5-.7.7,1.1,1.9,1.9,3.2,2,1.3.1,2.7-.5,3.5-1.5.3.6,1,.9,1.6.8.6-.1,1.1-.7,1.1-1.4.9,1.2,2.5,1.7,4,1.4s2.6-1.6,2.9-3.1c.3-1.5-.4-3.1-1.6-3.9Z"/>
      <path class="st0" d="M136.1,210c0,1.2,0,2.6.9,3.5,1,1.2,2.8,1.4,4.5,1.4,22.8.3,45.7.5,68.5.8,1.6,0,3.4,0,4.4-1.3.7-.9.8-2.1.9-3.3.1-1.9.2-3.9.3-5.8,0-1.5,0-3.2-.7-4.4-1.4-2.1-4.3-2.4-6.8-2.5-21.9-.5-43.9-1-65.8-1.4-2.4,0-5.7.5-6.2,3.3-.6,3,0,6.6.2,9.7Z"/>
      <g>
        <path class="st18" d="M139.3,228.9c-.1.3-.1.7,0,1,.1.4.4.7.7.9.7.5,1.7.5,2.4,0s1-1.5.7-2.3c-.8-1.9-3.2-1.3-3.8.4Z"/>
        <path class="st18" d="M156.6,224.1c-.1.3-.1.7,0,1,.1.4.4.7.7.9.7.5,1.7.5,2.4,0,.7-.5,1-1.5.7-2.3-.8-1.9-3.2-1.3-3.8.4Z"/>
        <path class="st18" d="M176,224.9c-.1.3-.1.7,0,1,.1.4.4.7.7.9.7.5,1.7.5,2.4,0,.7-.5,1-1.5.7-2.3-.8-1.9-3.2-1.3-3.8.4Z"/>
        <path class="st18" d="M197.2,230.1c-.1.3-.1.7,0,1,.1.4.4.7.7.9.7.5,1.7.5,2.4,0,.7-.5,1-1.5.7-2.3-.8-1.9-3.2-1.3-3.8.4Z"/>
        <path class="st18" d="M206.9,207.9c-.1.3-.1.7,0,1,.1.4.4.7.7.9.7.5,1.7.5,2.4,0,.7-.5,1-1.5.7-2.3-.8-1.9-3.2-1.3-3.8.4Z"/>
        <path class="st18" d="M195.2,202.9c-.1.3-.1.7,0,1,.1.4.4.7.7.9.7.5,1.7.5,2.4,0s1-1.5.7-2.3c-.8-1.9-3.2-1.3-3.8.4Z"/>
        <path class="st18" d="M166,201c-.1.3-.1.7,0,1,.1.4.4.7.7.9.7.5,1.7.5,2.4,0,.7-.5,1-1.5.7-2.3-.8-1.9-3.2-1.3-3.8.4Z"/>
        <path class="st18" d="M153.1,208.7c-.1.3-.1.7,0,1,.1.4.4.7.7.9.7.5,1.7.5,2.4,0,.7-.5,1-1.5.7-2.3-.8-1.9-3.2-1.3-3.8.4Z"/>
        <path class="st18" d="M140,201c-.1.3-.1.7,0,1,.1.4.4.7.7.9.7.5,1.7.5,2.4,0,.7-.5,1-1.5.7-2.3-.8-1.9-3.2-1.3-3.8.4Z"/>
        <path class="st18" d="M183.1,209.8c-.1.3-.1.7,0,1,.1.4.4.7.7.9.7.5,1.7.5,2.4,0,.7-.5,1-1.5.7-2.3-.8-1.9-3.2-1.3-3.8.4Z"/>
        <path class="st18" d="M142.7,226.5c.4.3,1,.2,1.3-.2.1-.2.2-.4.2-.6,0-.7-.6-1.5-1.3-1.1-.8.3-1.1,1.5-.3,2Z"/>
        <path class="st18" d="M153.4,228.9c.4.3,1,.2,1.3-.2.1-.2.2-.4.2-.6,0-.7-.6-1.5-1.3-1.1-.8.3-1.1,1.5-.3,2Z"/>
        <path class="st18" d="M169.5,232.1c.4.3,1,.2,1.3-.2.1-.2.2-.4.2-.6,0-.7-.6-1.5-1.3-1.1-.8.3-1.1,1.5-.3,2Z"/>
        <path class="st18" d="M201.2,224.3c.4.3,1,.2,1.3-.2.1-.2.2-.4.2-.6,0-.7-.6-1.5-1.3-1.1-.8.3-1.1,1.5-.3,2Z"/>
        <path class="st18" d="M181.2,225.4c.4.3,1,.2,1.3-.2.1-.2.2-.4.2-.6,0-.7-.6-1.5-1.3-1.1-.8.3-1.1,1.5-.3,2Z"/>
        <path class="st18" d="M191.6,229.5c.4.3,1,.2,1.3-.2.1-.2.2-.4.2-.6,0-.7-.6-1.5-1.3-1.1-.8.3-1.1,1.5-.3,2Z"/>
        <path class="st18" d="M207.5,228.9c.4.3,1,.2,1.3-.2.1-.2.2-.4.2-.6,0-.7-.6-1.5-1.3-1.1-.8.3-1.1,1.5-.3,2Z"/>
        <path class="st18" d="M203.2,210.7c.4.3,1,.2,1.3-.2.1-.2.2-.4.2-.6,0-.7-.6-1.5-1.3-1.1-.8.3-1.1,1.5-.3,2Z"/>
        <path class="st18" d="M192.6,207.3c.4.3,1,.2,1.3-.2.1-.2.2-.4.2-.6,0-.7-.6-1.5-1.3-1.1-.8.3-1.1,1.5-.3,2Z"/>
        <path class="st18" d="M205.6,203.1c.4.3,1,.2,1.3-.2.1-.2.2-.4.2-.6,0-.7-.6-1.5-1.3-1.1-.8.3-1.1,1.5-.3,2Z"/>
        <path class="st18" d="M185.5,202.3c.4.3,1,.2,1.3-.2.1-.2.2-.4.2-.6,0-.7-.6-1.5-1.3-1.1-.8.3-1.1,1.5-.3,2Z"/>
        <path class="st18" d="M166.5,211.1c.4.3,1,.2,1.3-.2.1-.2.2-.4.2-.6,0-.7-.6-1.5-1.3-1.1-.8.3-1.1,1.5-.3,2Z"/>
        <path class="st18" d="M149.8,206.2c.4.3,1,.2,1.3-.2.1-.2.2-.4.2-.6,0-.7-.6-1.5-1.3-1.1-.8.3-1.1,1.5-.3,2Z"/>
        <path class="st18" d="M179.8,209.6c.4.3,1,.2,1.3-.2.1-.2.2-.4.2-.6,0-.7-.6-1.5-1.3-1.1-.8.3-1.1,1.5-.3,2Z"/>
        <path class="st18" d="M158.2,203.4c.4.3,1,.2,1.3-.2.1-.2.2-.4.2-.6,0-.7-.6-1.5-1.3-1.1-.8.3-1.1,1.5-.3,2Z"/>
        <path class="st18" d="M145.6,210.3c.4.3,1,.2,1.3-.2.1-.2.2-.4.2-.6,0-.7-.6-1.5-1.3-1.1-.8.3-1.1,1.5-.3,2Z"/>
        <path class="st18" d="M173.1,205.3c.4.3,1,.2,1.3-.2.1-.2.2-.4.2-.6,0-.7-.6-1.5-1.3-1.1-.8.3-1.1,1.5-.3,2Z"/>
      </g>
      <path class="st16" d="M150,194.1c-2,0-3.9,0-5.9,0-.9,0-1.8,0-2.7.2-1,.2-1.9,0-2.9,0-1,0-2.1.1-2.7,1-.4.6-.5,1.4-.5,2.2,0,.6,0,1.2.2,1.8.2.6.7,1.1,1.3,1.2,1,.1,1.8-1,2.8-1.3.7-.3,1.6,0,2.2.5.5.5.8,1.3,1.3,1.7.6.4,1.4.5,2,.2.7-.3,1.2-.8,1.5-1.4.3-.4.5-.9,1-1.1.3-.1.6-.1.9,0,1,0,2,0,3,.1.9,0,1.8,0,2.6.6.5.3.9.8,1.4,1.1.5.3,1.2.4,1.6,0,.4-.4.4-1,.6-1.4.6-1.2,2.2-.5,3.2-.4,1.3.2,2.6.7,3.2,2,.4.9.2,1.9.2,2.9,0,1,.4,2.1,1.3,2.4,1.2.4,2.4-.9,2.8-2.1.4-1.2.5-3.4,2.1-3.7.6,0,1.2,0,1.8.1.6,0,1.2.1,1.7-.1.4-.2.7-.6,1.1-.8.8-.5,1.9-.3,2.8-.1,1.2.2,2.3.5,3.5.7.9.2,1.7,0,2.6,0,2.3.2,4.6,0,6.8-.7.7-.2,1.4-.5,2.1-.2.7.2,1,.9,1.6,1.3.8.5,1.9.4,2.8,0,.9-.3,1.8-.8,2.8-.9.9-.1,1.8,0,2.5.6.7.5,1.2,1.4,1.1,2.2,0,.3,0,.7,0,1,0,.3.2.7.4.9.3.2.8,0,1-.3s.3-.7.4-1.1c0-.4,0-.9.2-1.2s.7-.6,1-.4c.3.2.3.6.4,1,0,1,0,2,0,3,0,.4,0,.7.1,1.1s.4.6.8.7c.7,0,1.1-.7,1.2-1.4.1-.6.1-1.3.1-1.9,0-.6-.1-1.2.2-1.6.9-1.5,3.2-.1,4.5-.5,1.5-.4,2.3-2.2,1.8-3.6-1.2-3.6-5.9-3.5-8.8-3.5-4.6,0-9.2,0-13.8-.1-9.2,0-18.4-.2-27.6-.2-5.2,0-10.3,0-15.5-.1Z"/>
      <g>
        <path class="st10" d="M199.6,218.6c.2,0,.4,0,.6-.2.3-.3.2-1,0-1.3-.2-.4-.8-.4-1.1-.3-.4.2-.5.6-.5,1,0,.6.5.7,1,.7Z"/>
        <path class="st10" d="M211.3,218.4c.2,0,.4,0,.6-.2.3-.3.2-1,0-1.3-.2-.4-.8-.4-1.1-.3-.4.2-.5.6-.5,1,0,.6.5.7,1,.7Z"/>
        <path class="st10" d="M177.7,220.4c.2,0,.4,0,.6-.2.3-.3.2-1,0-1.3-.2-.4-.8-.4-1.1-.3-.4.2-.5.6-.5,1,0,.6.5.7,1,.7Z"/>
        <path class="st10" d="M188.9,219.5c.2,0,.4,0,.6-.2.3-.3.2-1,0-1.3-.2-.4-.8-.4-1.1-.3-.4.2-.5.6-.5,1,0,.6.5.7,1,.7Z"/>
        <path class="st10" d="M166.8,219.5c.2,0,.4,0,.6-.2.3-.3.2-1,0-1.3-.2-.4-.8-.4-1.1-.3-.4.2-.5.6-.5,1,0,.6.5.7,1,.7Z"/>
        <path class="st10" d="M153,218c.2,0,.4,0,.6-.2.3-.3.2-1,0-1.3-.2-.4-.8-.4-1.1-.3-.4.2-.5.6-.5,1,0,.6.5.7,1,.7Z"/>
        <path class="st10" d="M170,217.8c.2,0,.4,0,.6-.2.3-.3.2-1,0-1.3-.2-.4-.8-.4-1.1-.3-.4.2-.5.6-.5,1,0,.6.5.7,1,.7Z"/>
        <path class="st10" d="M201.8,219.4c.1,0,.3,0,.4-.1.2-.2.1-.6,0-.8-.1-.2-.5-.3-.8-.2-.2.1-.4.4-.3.6,0,.4.3.5.7.5Z"/>
        <path class="st10" d="M207.7,218.4c.1,0,.3,0,.4-.1.2-.2.1-.6,0-.8-.1-.2-.5-.3-.8-.2-.2.1-.4.4-.3.6,0,.4.3.5.7.5Z"/>
        <path class="st10" d="M190.8,220.5c.1,0,.3,0,.4-.1.2-.2.1-.6,0-.8-.1-.2-.5-.3-.8-.2-.2.1-.4.4-.3.6,0,.4.3.5.7.5Z"/>
        <path class="st10" d="M180.2,218.1c.1,0,.3,0,.4-.1.2-.2.1-.6,0-.8-.1-.2-.5-.3-.8-.2-.2.1-.4.4-.3.6,0,.4.3.5.7.5Z"/>
        <path class="st10" d="M164.2,217.7c.1,0,.3,0,.4-.1.2-.2.1-.6,0-.8-.1-.2-.5-.3-.8-.2-.2.1-.4.4-.3.6,0,.4.3.5.7.5Z"/>
        <path class="st10" d="M145.8,218.6c.1,0,.3,0,.4-.1.2-.2.1-.6,0-.8-.1-.2-.5-.3-.8-.2-.2.1-.4.4-.3.6,0,.4.3.5.7.5Z"/>
        <path class="st10" d="M153.8,219.8c.1,0,.3,0,.4-.1.2-.2.1-.6,0-.8-.1-.2-.5-.3-.8-.2-.2.1-.4.4-.3.6,0,.4.3.5.7.5Z"/>
        <path class="st10" d="M140.7,217.7c.1,0,.3,0,.4-.1.2-.2.1-.6,0-.8-.1-.2-.5-.3-.8-.2-.2.1-.4.4-.3.6,0,.4.3.5.7.5Z"/>
        <path class="st10" d="M193,217.2c.1,0,.3,0,.4-.1.2-.2.1-.6,0-.8-.1-.2-.5-.3-.8-.2-.2.1-.4.4-.3.6,0,.4.3.5.7.5Z"/>
      </g>
      <g>
        <path class="st5" d="M168.6,242.3c0,0,0-.1-.1-.2-.1-.1-.2-.2-.4-.2,0,0-.1,0-.2,0,0,0,0,0-.1,0,0,0-.1-.1-.2-.2-.1-.2-.3-.3-.5-.4-.1,0-.2,0-.3,0-.1,0-.2,0-.3,0-.2.1-.3.3-.4.5,0,.2,0,.4,0,.6.2.3.4.5.7.7.1,0,.3.2.4.2,0,0,.2,0,.3,0,.1,0,.2,0,.3,0,.1,0,.2,0,.3,0,0,0,.2-.1.2-.2,0,0,.1-.2.1-.3,0-.2,0-.4,0-.6Z"/>
        <path class="st5" d="M176,242.7h-.2c-.1-.2-.3-.2-.4-.2-.1,0-.2,0-.3,0-.2,0-.4,0-.5,0-.2,0-.3.1-.5.2-.2,0-.3.2-.4.3,0,0-.1.2-.2.3,0,0,0,.2,0,.3,0,.2,0,.4.2.6.2.1.4.2.6.2,0,0,.1,0,.2,0,0,0,.2,0,.2-.1,0,0,.2-.1.3-.2,0,0,.1,0,.2,0,.1,0,.2,0,.3,0,.1,0,.2,0,.3,0,.1,0,.2,0,.3-.2.1-.1.2-.4.2-.6,0-.2,0-.4-.2-.6Z"/>
        <path class="st5" d="M149.1,250.6c0-.1-.1-.3-.2-.4-.2-.1-.4-.2-.6-.2-.3,0-.6,0-.8,0-.1,0-.2,0-.3,0-.1,0-.2,0-.3.2,0,0-.1.2-.2.3,0,0,0,.2,0,.3,0,0,0,.1,0,.2,0,.1.1.3.2.4.2.1.4.2.6.2.3,0,.6,0,.8,0,.1,0,.2,0,.3,0,.1,0,.2,0,.3-.2,0,0,.1-.2.2-.3,0,0,0-.2,0-.3,0,0,0-.1,0-.2Z"/>
        <path class="st5" d="M146.4,245c0,0,0-.1,0-.2,0-.1-.2-.2-.3-.3-.2-.2-.5-.3-.7-.5,0,0-.2,0-.3,0-.1,0-.2,0-.3,0-.1,0-.2,0-.3.1,0,0-.2.1-.2.2,0,0,0,.1,0,.2,0,.1,0,.3,0,.4,0,0,0,.1,0,.2,0,.1.2.2.3.3.2.2.5.3.7.5,0,0,.2,0,.3,0,.1,0,.2,0,.3,0,.1,0,.2,0,.3-.1,0,0,.2-.1.2-.2,0,0,0-.1,0-.2,0-.1,0-.3,0-.4Z"/>
        <path class="st5" d="M151.2,240.1c0-.1,0-.2,0-.3,0,0-.1-.2-.2-.2,0,0-.2-.1-.3-.1,0,0-.1,0-.2,0-.1,0-.3,0-.4.1,0,0-.1,0-.2.1-.1.1-.2.2-.2.4,0,.2-.1.5-.2.7,0,.1,0,.2,0,.3,0,.1,0,.2,0,.3,0,0,.1.2.2.2,0,0,.2.1.3.1,0,0,.1,0,.2,0,.1,0,.3,0,.4-.1,0,0,.1,0,.2-.1.1-.1.2-.2.2-.4,0-.2.1-.5.2-.7,0-.1,0-.2,0-.3Z"/>
        <path class="st5" d="M173,255.8c0-.1-.1-.3-.2-.4,0,0-.1-.1-.2-.2-.1,0-.2-.2-.4-.3-.1,0-.3-.1-.4-.2,0,0-.2,0-.3,0-.2,0-.4,0-.6,0,0,0-.2.1-.2.2,0,0-.1.2-.1.3,0,.2,0,.4,0,.6.1.2.3.3.5.4,0,0,.1,0,.2,0,0,0,.2,0,.2.1,0,0,.1,0,.2.2,0,0,.2.1.3.2,0,0,.2,0,.3,0,.1,0,.2,0,.3,0,.1,0,.2,0,.3-.2.1-.2.2-.4.2-.6,0,0,0-.1,0-.2Z"/>
        <path class="st5" d="M196.4,237.9c-.2-.3-.4-.7-.6-1-.1-.2-.3-.3-.5-.4-.1,0-.2,0-.3,0-.1,0-.2,0-.3,0-.2.1-.3.3-.4.5,0,.2,0,.4,0,.6.2.3.4.7.6,1,.1.2.3.3.5.4.1,0,.2,0,.3,0,.1,0,.2,0,.3,0,.2-.1.3-.3.4-.5,0-.2,0-.4,0-.6Z"/>
        <path class="st5" d="M201.1,240.9c0,0,0-.1,0-.2,0-.1-.2-.2-.3-.3,0,0-.1,0-.2,0-.1,0-.3,0-.4,0l-.8.3c-.1,0-.2,0-.3.1,0,0-.2.1-.2.2,0,0,0,.2,0,.3,0,.1,0,.2,0,.3,0,0,0,.1,0,.2,0,.1.2.2.3.3,0,0,.1,0,.2,0,.1,0,.3,0,.4,0,.3-.1.5-.2.8-.3.1,0,.2,0,.3-.1,0,0,.2-.1.2-.2,0,0,0-.2,0-.3,0-.1,0-.2,0-.3Z"/>
        <path class="st5" d="M214.9,238.4c0-.1,0-.2,0-.3,0-.1,0-.2-.2-.3,0,0-.2-.1-.3-.2,0,0-.2,0-.3,0,0,0-.1,0-.2,0-.1,0-.3.1-.4.2v.2c-.2.1-.2.3-.2.4,0,.2,0,.5,0,.7,0,.1,0,.2,0,.3,0,.1,0,.2.2.3,0,0,.2.1.3.2,0,0,.2,0,.3,0,0,0,.1,0,.2,0,.1,0,.3-.1.4-.2,0,0,0-.1.1-.2,0-.1.1-.3.1-.4,0-.2,0-.5,0-.7Z"/>
        <path class="st5" d="M214.2,250c-.1-.2-.3-.3-.5-.4-.4-.1-.9-.2-1.3-.3-.2,0-.4,0-.6,0-.2,0-.3.3-.4.5,0,.2,0,.4,0,.6.1.2.3.3.5.4.4.1.9.2,1.3.3.2,0,.4,0,.6,0,.2,0,.3-.3.4-.5,0-.2,0-.4,0-.6Z"/>
        <path class="st5" d="M225.2,246.8l-.5-.9c0,0-.1-.2-.2-.2,0,0-.2-.1-.3-.1-.1,0-.2,0-.3,0-.1,0-.2,0-.3,0-.2.1-.3.3-.4.5,0,.2,0,.4,0,.6.2.3.4.6.5.9,0,0,.1.2.2.2,0,0,.2.1.3.1.1,0,.2,0,.3,0,.1,0,.2,0,.3,0,.2-.1.3-.3.4-.5,0-.2,0-.4,0-.6Z"/>
        <path class="st5" d="M227.7,238.1c0-.1,0-.2,0-.3,0,0-.1-.2-.2-.2,0,0-.2-.1-.3-.1,0,0-.1,0-.2,0-.1,0-.3,0-.4.1,0,0-.1,0-.2.1-.1.1-.2.2-.2.4,0,.3-.2.6-.3.9,0,.1,0,.2,0,.3,0,.1,0,.2,0,.3,0,0,.1.2.2.2,0,0,.2.1.3.1,0,0,.1,0,.2,0,.1,0,.3,0,.4-.1,0,0,.1,0,.2-.1.1-.1.2-.2.2-.4,0-.3.2-.6.3-.9,0-.1,0-.2,0-.3Z"/>
        <path class="st5" d="M175.5,235.5c-.1-.2-.2-.3-.3-.5,0,0-.1-.2-.2-.2,0,0-.2-.1-.3-.1-.1,0-.2,0-.3,0-.1,0-.2,0-.3,0,0,0-.1,0-.2.1-.1.1-.2.2-.2.4,0,0,0,.1,0,.2,0,.1,0,.3.1.4.1.2.2.3.3.5,0,0,.1.2.2.2,0,0,.2.1.3.1.1,0,.2,0,.3,0,.1,0,.2,0,.3,0,0,0,.1,0,.2-.1.1-.1.2-.2.2-.4,0,0,0-.1,0-.2,0-.1,0-.3-.1-.4Z"/>
        <path class="st5" d="M129.3,244c0-.1,0-.2,0-.3,0,0-.1-.2-.2-.2,0,0-.2-.1-.3-.1,0,0-.1,0-.2,0-.1,0-.3,0-.4.1,0,0-.1,0-.2.1-.1.1-.2.2-.2.4,0,.2-.1.4-.2.6,0,.1,0,.2,0,.3,0,.1,0,.2,0,.3,0,0,.1.2.2.2,0,0,.2.1.3.1,0,0,.1,0,.2,0,.1,0,.3,0,.4-.1,0,0,.1,0,.2-.1.1-.1.2-.2.2-.4,0-.2.1-.4.2-.6,0-.1,0-.2,0-.3Z"/>
        <path class="st5" d="M132.7,238.5c-.2-.2-.4-.4-.7-.5-.2,0-.3-.1-.5-.2-.2,0-.4,0-.5,0-.1,0-.2,0-.3,0-.1,0-.2,0-.3.2,0,0-.1.2-.2.3,0,0,0,.2,0,.3,0,.2,0,.4.2.6h.2c.1.2.2.2.4.2.1,0,.2,0,.3,0,0,0,.2,0,.3.2,0,0,0,0,0,0,.2.1.4.2.6.2s.4,0,.6-.2c.1-.2.2-.4.2-.6,0-.2,0-.4-.2-.6Z"/>
        <path class="st5" d="M126.8,251.7c0-.1,0-.2,0-.3,0,0-.1-.2-.2-.2,0,0-.2-.1-.3-.1,0,0-.1,0-.2,0-.1,0-.3,0-.4.1,0,0-.1,0-.2.1-.1.1-.2.2-.2.4,0,.1-.1.3-.2.4,0,.1,0,.2,0,.3,0,.1,0,.2,0,.3,0,0,.1.2.2.2,0,0,.2.1.3.1,0,0,.1,0,.2,0,.1,0,.3,0,.4-.1,0,0,.1,0,.2-.1.1-.1.2-.2.2-.4,0-.1.1-.3.2-.4,0-.1,0-.2,0-.3Z"/>
      </g>
    </g>
    <g>
      <path class="st0" d="M128.5,283.7c2.1,1,3.8,2.7,5,4.7.6,1,1.6,1.6,2.7,1.6l85-.7c1.3,0,2.5-.9,2.9-2.1.5-1.5,1.3-2.9,2.4-4l-98.1.6Z"/>
      <path class="st17" d="M232.7,280.7c0,0,.2,0,.2.1,1.5.9,1.2,3.3-.7,3.3-30.8.3-61.5.6-92.3.9-4.8,0-9.6,0-14.4.1-1.3,0-2.7,0-3.6-1-2.7-2.9,3-3.1,4.2-3.2,3.8-.1,7.6-.2,11.4-.3,7.7-.2,15.3-.3,23-.3,5.4,0,10.8,0,16.3,0,2.1,0,4.4-.2,6.5.1,2,.3,4.3,0,6.4,0,4.6-.1,9.2-.2,13.8-.3,8.8-.1,17.7-.2,26.5,0,.9,0,1.8,0,2.6.5Z"/>
    </g>
  </g>
  <g>
    <g>
      <g>
        <path class="st12" d="M261.8,204.8c-.2,1.5-.4,3.2-.6,5.2,0,.6-.1,1.2-.2,1.8-.2,1.9-.3,3.9-.5,6,0,.6,0,1.2-.1,1.8-.1,2-.3,4-.4,6,0,.6,0,1.2-.1,1.7-.1,2-.2,4-.3,5.9,0,.6,0,1.2,0,1.7-.1,2.1-.2,4.1-.3,5.9,0,.6,0,1.2,0,1.7,0,1.5-.1,2.8-.2,4h-.1c0,0-4.6-.3-4.6-.3,0-.3,0-.5,0-.8,0-.6,0-1.1.1-1.8.1-1.8.2-3.8.3-5.9,0-.6,0-1.1,0-1.7,0-1.9.1-3.8.2-5.9,0-.6,0-1.1,0-1.7,0-1.9,0-3.9,0-5.8,0-.6,0-1.1,0-1.7,0-2,0-3.9,0-5.8,0-.6,0-1.1,0-1.7,0-2.8,0-5.2-.1-7.1,2.7-.8,4-.9,6.7-1.7Z"/>
        <path class="st16" d="M258.6,204.4c-.4.3-1,.2-1.3-.2-1.3-1.7-1.6-4.1-1.1-6.1.4-1.9,1.5-3.7,2.9-5.1.5-.5,1.3-.4,1.6.2.8,1.6,2.1,3,2.3,4.9.1,1.4-.4,2.8-1.3,3.9-.7.9-1.9,1.7-3,2.5Z"/>
        <path class="st10" d="M258.5,204.2c-.3.2-.7.1-.9-.1-.9-1.2-1.1-2.8-.8-4.2.3-1.3,1-2.5,2-3.5.3-.3.9-.2,1.1.2.6,1.1,1.4,2.1,1.6,3.3,0,1-.3,1.9-.9,2.7-.5.6-1.3,1.2-2,1.7Z"/>
      </g>
      <path class="st1" d="M261.2,210.1c0,.6-.1,1.2-.2,1.8-1.9,1.2-3.9,2.4-5.8,3.6,0-.6,0-1.1,0-1.7,2-1.2,4-2.4,6-3.7Z"/>
      <path class="st1" d="M260.6,217.9c0,.6,0,1.2-.1,1.8-1.7,1.1-3.5,2.1-5.2,3.2,0-.6,0-1.1,0-1.7,1.8-1.1,3.6-2.2,5.3-3.3Z"/>
      <path class="st1" d="M260,225.6c0,.6,0,1.2-.1,1.7-1.6,1-3.3,2-4.9,3,0-.6,0-1.1,0-1.7,1.6-1,3.3-2,4.9-3Z"/>
      <path class="st1" d="M259.6,233.3c0,.6,0,1.2,0,1.7-1.6,1-3.1,1.9-4.7,2.9,0-.6,0-1.1,0-1.7,1.6-1,3.2-1.9,4.7-2.9Z"/>
      <path class="st1" d="M259.2,241c0,.6,0,1.2,0,1.7-1.6,1-3.2,2-4.8,2.9,0-.6,0-1.1.1-1.8,1.6-1,3.1-1.9,4.7-2.9Z"/>
    </g>
    <path class="st13" d="M272,244l-35.9,3.8c-1.1-.4-1.4-1.7-1.3-2.8.2-1.1.7-2.2.9-3.3,0-.5.1-1.1.1-1.7,0-.6,0-1.3.1-1.9,0-.2.1-.4.2-.6.6-1.7,2.5-2.8,4.3-3.1,1.8-.3,3.7-.1,5.5-.1,3.3,0,6.6-.8,9.7-1.9,2.3-.9,4.6-2,7-2.2,2.4-.2,5.2.8,6.2,3,.4.9.5,1.9.7,2.9,0,.4.2.8.4,1.2,0,.2.2.3.3.5.6,1,1.4,1.8,1.9,2.7.7,1.1.8,2.7-.1,3.6Z"/>
    <g>
      <path class="st0" d="M270.2,237.7c-.3.1-.5.2-.8.3-1.6.4-3.2,0-4.2-.3-.4-.1-.9-.3-1.3-.4-.8-.3-1.5-.5-2.2-.7-2.3-.5-4.9,0-6.9,1.4-.5.3-.9.7-1.4,1.1-1.3,1-2.6,2.1-4.3,2.4-.3,0-.5,0-.7,0-1.4,0-2.6-.5-3.8-1-.4-.2-.9-.3-1.3-.5-2.4-.8-5-.8-7.4,0,0-.6,0-1.3.1-1.9,2.6-.7,5.4-.7,7.9.2.5.2.9.3,1.4.5,1.3.5,2.5,1,3.6.8,1.2-.2,2.3-1.1,3.4-2,.5-.4,1-.8,1.6-1.2,2.4-1.6,5.4-2.2,8.3-1.6.8.2,1.7.5,2.4.7.4.2.8.3,1.3.4,1.4.4,2.4.5,3.3.3.2,0,.4-.1.6-.2,0,.4.2.8.4,1.2,0,.2.2.3.3.5Z"/>
      <path class="st0" d="M256.3,240.4c1.3.7,3.1-1,1.6-1.9-1.2-.7-3.2,1-1.6,1.9Z"/>
      <path class="st0" d="M259.3,238.4c.2,0,.3,0,.5,0,.1,0,.2-.3.2-.4,0-.2-.1-.3-.3-.4-.2,0-.3,0-.5,0-.2,0-.5.1-.4.4,0,.3.3.5.6.5Z"/>
      <path class="st0" d="M240.5,236.8c.2,0,.3,0,.5,0,.1,0,.2-.3.2-.4s-.1-.3-.3-.4c-.2,0-.3,0-.5,0-.2,0-.5.1-.4.4,0,.3.3.5.6.5Z"/>
      <path class="st0" d="M263.8,233.4c.1.3.4.6.7.8.2.1.5.2.7.3.3,0,.5,0,.7-.3.3-.3.3-.8.2-1.1,0-.3-.1-.5-.3-.7-.2-.2-.5-.2-.7-.3-.9-.1-1.6.4-1.2,1.3Z"/>
      <path class="st0" d="M241.3,242.3c.1.3.4.6.7.8.2.1.5.2.7.3.3,0,.5,0,.7-.3.3-.3.3-.8.2-1.1,0-.3-.1-.5-.3-.7-.2-.2-.5-.2-.7-.3-.9-.1-1.6.4-1.2,1.3Z"/>
      <path class="st0" d="M260.7,232.8c0,.1,0,.2,0,.3,0,.1.2.2.3.2.4,0,.8,0,1-.4.3-.5.1-1.4-.6-1.4-.5,0-.8.9-.8,1.3Z"/>
    </g>
    <path class="st0" d="M275.8,256.4l-44.7,1.3c-1.7-2.1-2.2-5.1-1.3-7.6,0-.3.2-.5.3-.8.2-.5.5-1,.9-1.5,1.1-1.5,2.7-2.5,4.4-3,2.3-.6,4.7-.2,7,0,5.5.5,11,0,16.3-1.5,3.7-1,7.5-2.6,11.2-1.8.9.2,1.8.5,2.6,1,.6.3,1.2.7,1.7,1.2,1.2,1,2.1,2.3,2.6,3.7,1.2,2.9.7,6.5-1.1,9Z"/>
    <g>
      <path class="st18" d="M274.3,243.7c-1.8-.2-3.7-.1-5.3.2-3.5.6-7,2.1-10.2,3.6-1.1.5-2.3,1-3.5,1.5-2.8,1.1-6.7,2.5-10.7,2.5s-2.7-.1-4-.5c-1-.3-1.9-.6-2.8-.9-1.2-.4-2.2-.8-3.4-1.1-1.3-.2-2.9-.2-4.2.4.2-.5.5-1,.9-1.5,1.2-.3,2.4-.2,3.5,0,1.2.2,2.4.7,3.6,1.1.9.3,1.8.7,2.7.9,5,1.3,10.4-.5,14.1-1.9,1.2-.5,2.3-1,3.5-1.5,3.4-1.5,6.8-3,10.5-3.6,1.2-.2,2.5-.3,3.8-.3.6.3,1.2.7,1.7,1.2Z"/>
      <path class="st18" d="M272,246.3c0,.4.2.8.6,1,.3.2.7.4,1.1.3.2,0,.4,0,.5-.2.2-.2.3-.5.3-.8,0-.3,0-.5,0-.8-.1-.3-.5-.5-.8-.6-.8-.2-1.7,0-1.7,1Z"/>
      <path class="st18" d="M232.6,252.3c0,.4.2.8.6,1,.3.2.7.4,1.1.3.2,0,.4,0,.5-.2.2-.2.3-.5.3-.8,0-.3,0-.5,0-.8-.1-.3-.5-.5-.8-.6-.8-.2-1.7,0-1.7,1Z"/>
      <path class="st18" d="M242.6,246.3c0,.4.2.8.6,1,.3.2.7.4,1.1.3.2,0,.4,0,.5-.2.2-.2.3-.5.3-.8,0-.3,0-.5,0-.8-.1-.3-.5-.5-.8-.6-.8-.2-1.7,0-1.7,1Z"/>
      <path class="st18" d="M270.7,249.4c.3.3.8.2,1.1,0,.1-.2.2-.4.1-.6,0-.3-.1-.6-.4-.8-.9-.4-1.6.9-.8,1.5Z"/>
      <path class="st18" d="M247,249.4c.3.3.8.2,1.1,0,.1-.2.2-.4.1-.6,0-.3-.1-.6-.4-.8-.9-.4-1.6.9-.8,1.5Z"/>
      <path class="st18" d="M257,252.7c.3.3.8.2,1.1,0,.1-.2.2-.4.1-.6,0-.3-.1-.6-.4-.8-.9-.4-1.6.9-.8,1.5Z"/>
      <path class="st18" d="M238,248.1c.3.3.8.2,1.1,0,.1-.2.2-.4.1-.6,0-.3-.1-.6-.4-.8-.9-.4-1.6.9-.8,1.5Z"/>
    </g>
    <path class="st17" d="M278.8,256.9c-1.4-1.3-3.7-1.5-5.8-1.6-13.8-.9-27.8-1.6-41.4.3-1.3.2-2.8.5-3.5,1.4-.7.9-.4,2.2-.1,3.3,2.1,6.9,4,13.9,6.6,20.7.7,1.9,1.6,3.9,3,5.3,2.1,2,5.2,2.9,8.2,3.2,3.6.5,7.2.6,10.8.5,3.2-.1,6.9-.1,9.9-1.2,4.4-1.6,5.6-6.2,7.1-10,1.9-5,3.8-10,5.7-14.9.4-1.1.9-2.3,1-3.5,0-1.2-.3-2.5-1.3-3.4Z"/>
    <g>
      <path class="st1" d="M255.9,225.5c-.6-1.4-1.9-2.4-3.3-2.9-1.6-.6-3.3-.6-4.9,0-.4.2-.8.4-1.2.6-3.1,0-6.1,2.4-6.8,5.4-.7,3.2,1.3,6.8,4.4,8,1.4.5,2.8.6,4.3.4,1.5-.1,3.1-.5,4.3-1.4,1.6-1.1,2.5-2.9,3.1-4.8.6-1.7.9-3.6.1-5.2Z"/>
      <path class="st18" d="M246.7,224.7c.6,0,.9-.7.6-1.1-1.1-1.4-2.5-2.6-4-3.4-1.7-.9-3.6-1.4-5.6-1.4-.5,0-.8.5-.7.9.4,1.1,1.2,2.1,2.2,2.9,1.2.9,2.8,1.5,4.3,1.8,1.1.2,2.2.3,3.3.3Z"/>
      <path class="st9" d="M247.2,224.7c-.3-2.8-.9-5.6-2.3-8.1-1.4-2.5-3.5-4.6-6.2-5.4"/>
    </g>
    <g>
      <path class="st12" d="M268.6,250.9c-.4-.7-.9-1.2-1.5-1.6-.5-.3-1.2-.1-1.5.4-.3.5-.1,1.1.4,1.5,0,0,.1,0,.1,0,0,0,0,0,0,0,0,0,.2.2.3.3,0,0,0,0,0,.1,0,0,0,0,0,0,0,.1.1.2.2.3.3.5,1,.7,1.5.4.5-.3.7-.9.4-1.5Z"/>
      <path class="st16" d="M257.4,246c-.6-.1-1.2.2-1.3.8-.1.6-.2,1.2-.1,1.8,0,.6.5,1.1,1.1,1.1.5,0,1.1-.5,1.1-1.1,0-.2,0-.5,0-.7,0,0,0-.1,0-.2,0-.1,0-.1,0,0,0,0,0,0,0,0,0,0,0-.1,0-.2.1-.5-.2-1.2-.8-1.3Z"/>
      <path class="st12" d="M254.3,242.2c-.3-.3-.7-.6-1-.9-.2-.2-.5-.3-.8-.3s-.6.1-.8.3c-.4.4-.5,1.1,0,1.5.3.3.7.6,1,.9.2.2.5.3.8.3s.6-.1.8-.3c.4-.4.5-1.1,0-1.5Z"/>
      <path class="st2" d="M246.4,246.7c-.6-.2-1.2.2-1.3.8-.2.7-.4,1.3-.6,2-.2.6.2,1.2.8,1.3.6.2,1.2-.2,1.3-.8l.6-2c.2-.6-.2-1.2-.8-1.3Z"/>
      <path class="st2" d="M236.6,246.1l-.8-1.4c-.3-.5-1-.7-1.5-.4-.5.3-.7,1-.4,1.5l.8,1.4c.3.5,1,.7,1.5.4.5-.3.7-1,.4-1.5Z"/>
      <path class="st16" d="M239.9,238.4c-.4-.4-1.1-.4-1.5,0-.6.6-1.3,1.2-1.9,1.7-.4.4-.4,1.1,0,1.5.4.4,1.1.4,1.5,0,.6-.6,1.3-1.2,1.9-1.7.4-.4.4-1.1,0-1.5Z"/>
      <path class="st12" d="M239,252.4c-.2-.5-.5-1-.7-1.5-.2-.5-1-.7-1.5-.4-.5.3-.6.9-.4,1.5.2.5.5,1,.7,1.5.2.5,1,.7,1.5.4.5-.3.6-.9.4-1.5Z"/>
      <path class="st2" d="M262,236.6c-.5.9-.9,1.7-1.4,2.6-.7,1.2,1.2,2.3,1.9,1.1.5-.9.9-1.7,1.4-2.6.7-1.2-1.2-2.3-1.9-1.1Z"/>
      <path class="st16" d="M267.2,233.4c.3-.5.2-1.1-.3-1.5l-1-.7c-.5-.3-1.2-.2-1.5.3-.3.5-.2,1.1.3,1.5.3.2.7.4,1,.7.5.3,1.2.2,1.5-.3Z"/>
      <path class="st2" d="M267,243.4c-.3-.5-.9-.7-1.5-.4l-1.1.6c-.5.3-.7,1-.4,1.5.3.5.9.7,1.5.4.4-.2.7-.4,1.1-.6.5-.3.7-1,.4-1.5Z"/>
    </g>
    <g>
      <line class="st8" x1="232.2" y1="258" x2="241.4" y2="285.5"/>
      <line class="st8" x1="239.8" y1="258" x2="247" y2="286.9"/>
      <line class="st8" x1="251.3" y1="287.5" x2="249.1" y2="257.4"/>
      <line class="st8" x1="257.9" y1="256.9" x2="256.3" y2="286.9"/>
      <line class="st8" x1="260.1" y1="286.7" x2="266.6" y2="259"/>
      <line class="st8" x1="275.2" y1="259.6" x2="265.9" y2="286.9"/>
    </g>
  </g>
  <path class="st4" d="M170.3,133.4c-3.1,0-6.2,0-9.3-.2,2.1-2,4.1-4,6.2-6,1.7-1.7-.8-4.2-2.5-2.5-1.9,1.9-3.8,3.8-5.8,5.6,0-2.7,0-5.4,0-8.1,0-2.4-3.6-2.4-3.6,0,0,2.7,0,5.5,0,8.2-2-2.3-4-4.5-6-6.9-1.5-1.8-4,.8-2.5,2.5,1.9,2.3,3.9,4.6,5.9,6.8-3-.2-6-.4-8.9-.6-2.3-.2-2.3,3.4,0,3.6,3,.3,5.9.5,8.9.6-1.9,1.9-3.8,3.7-5.7,5.6-1.7,1.7.8,4.2,2.5,2.5,1.9-1.9,3.8-3.8,5.8-5.6,0,2.7,0,5.4,0,8.1,0,2.4,3.6,2.4,3.6,0,0-2.5,0-5,0-7.5,2,2.1,3.9,4.1,6,6.2,1.6,1.6,4.2-.9,2.5-2.5-2.1-2.1-4.1-4.2-6.1-6.3,3,0,6.1.2,9.1.2,2.3,0,2.3-3.6,0-3.6Z"/>
  <path class="st13" d="M34.1,102.9c-3.1,0-6.2,0-9.3-.2,2.1-2,4.1-4,6.2-6,1.7-1.7-.8-4.2-2.5-2.5-1.9,1.9-3.8,3.8-5.8,5.6,0-2.7,0-5.4,0-8.1,0-2.4-3.6-2.4-3.6,0,0,2.7,0,5.5,0,8.2-2-2.3-4-4.5-6-6.9-1.5-1.8-4,.8-2.5,2.5,1.9,2.3,3.9,4.6,5.9,6.8-3-.2-6-.4-8.9-.6-2.3-.2-2.3,3.4,0,3.6,3,.3,5.9.5,8.9.6-1.9,1.9-3.8,3.7-5.7,5.6-1.7,1.7.8,4.2,2.5,2.5,1.9-1.9,3.8-3.8,5.8-5.6,0,2.7,0,5.4,0,8.1,0,2.4,3.6,2.4,3.6,0,0-2.5,0-5,0-7.5,2,2.1,3.9,4.1,6,6.2,1.6,1.6,4.2-.9,2.5-2.5-2.1-2.1-4.1-4.2-6.1-6.3,3,0,6.1.2,9.1.2,2.3,0,2.3-3.6,0-3.6Z"/>
  <path class="st2" d="M244,166.6c-2.2,0-4.4,0-6.6-.1,1.4-1.4,2.9-2.8,4.3-4.3,1.2-1.2-.6-3-1.8-1.8-1.4,1.3-2.7,2.7-4.1,4,0-1.9,0-3.8,0-5.7,0-1.7-2.5-1.7-2.5,0,0,1.9,0,3.9,0,5.8-1.4-1.6-2.8-3.2-4.2-4.9-1-1.2-2.8.6-1.8,1.8,1.4,1.6,2.8,3.2,4.2,4.8-2.1-.1-4.2-.3-6.3-.4-1.6-.1-1.6,2.4,0,2.5,2.1.2,4.2.3,6.3.4-1.3,1.3-2.7,2.6-4,3.9-1.2,1.2.6,3,1.8,1.8,1.4-1.3,2.7-2.7,4.1-4,0,1.9,0,3.8,0,5.7,0,1.7,2.5,1.7,2.5,0,0-1.8,0-3.5,0-5.3,1.4,1.5,2.8,2.9,4.2,4.4,1.1,1.2,2.9-.6,1.8-1.8-1.5-1.5-2.9-3-4.3-4.5,2.2,0,4.3.1,6.5.1,1.6,0,1.6-2.5,0-2.5Z"/>
  <path class="st13" d="M287,209.6c-2.2,0-4.4,0-6.6-.1,1.4-1.4,2.9-2.8,4.3-4.3,1.2-1.2-.6-3-1.8-1.8-1.4,1.3-2.7,2.7-4.1,4,0-1.9,0-3.8,0-5.7,0-1.7-2.5-1.7-2.5,0,0,1.9,0,3.9,0,5.8-1.4-1.6-2.8-3.2-4.2-4.9-1-1.2-2.8.6-1.8,1.8,1.4,1.6,2.8,3.2,4.2,4.8-2.1-.1-4.2-.3-6.3-.4-1.6-.1-1.6,2.4,0,2.5,2.1.2,4.2.3,6.3.4-1.3,1.3-2.7,2.6-4,3.9-1.2,1.2.6,3,1.8,1.8,1.4-1.3,2.7-2.7,4.1-4,0,1.9,0,3.8,0,5.7,0,1.7,2.5,1.7,2.5,0,0-1.8,0-3.5,0-5.3,1.4,1.5,2.8,2.9,4.2,4.4,1.1,1.2,2.9-.6,1.8-1.8-1.5-1.5-2.9-3-4.3-4.5,2.2,0,4.3.1,6.5.1,1.6,0,1.6-2.5,0-2.5Z"/>
  <path class="st12" d="M101.1,17.1c-2.2,0-4.4,0-6.6-.1,1.4-1.4,2.9-2.8,4.3-4.3,1.2-1.2-.6-3-1.8-1.8-1.4,1.3-2.7,2.7-4.1,4,0-1.9,0-3.8,0-5.7,0-1.7-2.5-1.7-2.5,0,0,1.9,0,3.9,0,5.8-1.4-1.6-2.8-3.2-4.2-4.9-1-1.2-2.8.6-1.8,1.8,1.4,1.6,2.8,3.2,4.2,4.8-2.1-.1-4.2-.3-6.3-.4-1.6-.1-1.6,2.4,0,2.5,2.1.2,4.2.3,6.3.4-1.3,1.3-2.7,2.6-4,3.9-1.2,1.2.6,3,1.8,1.8,1.4-1.3,2.7-2.7,4.1-4,0,1.9,0,3.8,0,5.7,0,1.7,2.5,1.7,2.5,0,0-1.8,0-3.5,0-5.3,1.4,1.5,2.8,2.9,4.2,4.4,1.1,1.2,2.9-.6,1.8-1.8-1.5-1.5-2.9-3-4.3-4.5,2.2,0,4.3.1,6.5.1,1.6,0,1.6-2.5,0-2.5Z"/>
  <path class="st17" d="M31.8,378.4c-2.2,0-4.4,0-6.6-.1,1.4-1.4,2.9-2.8,4.3-4.3,1.2-1.2-.6-3-1.8-1.8-1.4,1.3-2.7,2.7-4.1,4,0-1.9,0-3.8,0-5.7,0-1.7-2.5-1.7-2.5,0,0,1.9,0,3.9,0,5.8-1.4-1.6-2.8-3.2-4.2-4.9-1-1.2-2.8.6-1.8,1.8,1.4,1.6,2.8,3.2,4.2,4.8-2.1-.1-4.2-.3-6.3-.4-1.6-.1-1.6,2.4,0,2.5,2.1.2,4.2.3,6.3.4-1.3,1.3-2.7,2.6-4,3.9-1.2,1.2.6,3,1.8,1.8,1.4-1.3,2.7-2.7,4.1-4,0,1.9,0,3.8,0,5.7,0,1.7,2.5,1.7,2.5,0,0-1.8,0-3.5,0-5.3,1.4,1.5,2.8,2.9,4.2,4.4,1.1,1.2,2.9-.6,1.8-1.8-1.5-1.5-2.9-3-4.3-4.5,2.2,0,4.3.1,6.5.1,1.6,0,1.6-2.5,0-2.5Z"/>
  <path class="st12" d="M284,385.3c-2.2,0-4.4,0-6.6-.1,1.4-1.4,2.9-2.8,4.3-4.3,1.2-1.2-.6-3-1.8-1.8-1.4,1.3-2.7,2.7-4.1,4,0-1.9,0-3.8,0-5.7,0-1.7-2.5-1.7-2.5,0,0,1.9,0,3.9,0,5.8-1.4-1.6-2.8-3.2-4.2-4.9-1-1.2-2.8.6-1.8,1.8,1.4,1.6,2.8,3.2,4.2,4.8-2.1-.1-4.2-.3-6.3-.4-1.6-.1-1.6,2.4,0,2.5,2.1.2,4.2.3,6.3.4-1.3,1.3-2.7,2.6-4,3.9-1.2,1.2.6,3,1.8,1.8,1.4-1.3,2.7-2.7,4.1-4,0,1.9,0,3.8,0,5.7,0,1.7,2.5,1.7,2.5,0,0-1.8,0-3.5,0-5.3,1.4,1.5,2.8,2.9,4.2,4.4,1.1,1.2,2.9-.6,1.8-1.8-1.5-1.5-2.9-3-4.3-4.5,2.2,0,4.3.1,6.5.1,1.6,0,1.6-2.5,0-2.5Z"/>
  <g>
    <path class="st7" d="M128.7,156.6c-.2-2.1-.3-4.3.5-6.3.7-2,2.5-3.7,4.6-3.8,1.5,0,2.9.8,3.7,2.1.7,1.3.7,3,0,4.2-.6,1-1.6,1.7-2.8,1.6-1.1,0-2-1-2.4-2-.4-1-.5-2.1-.4-3.2.1-2.4.6-4.9,1.8-6.9s3.2-3.8,5.6-4.3"/>
    <path class="st7" d="M219.6,207c.2-1.9.3-3.8.9-5.6.6-1.8,1.7-3.5,3.3-4.5s3.8-1.1,5.4,0c2.1,1.5,2.1,5,.1,6.5-.7.5-1.7.8-2.5.4-.8-.5-1.1-1.5-1-2.4.1-3.2,2.6-5.9,5.6-7.1,3-1.2,6.3-1.1,9.4-.8"/>
    <path class="st7" d="M31.1,145c-3.8-3.5-8.2-6.4-12.9-8.4"/>
    <path class="st7" d="M87.3,111.8c1.4-3.5,3.8-6.5,6.9-8.7"/>
    <path class="st7" d="M278.3,241.2c2.6-2.8,5.6-5.3,8.9-7.3"/>
  </g>
  <g>
    <text class="st11" transform="translate(16.8 67.4)"><tspan x="0" y="0">WSZYSTKIEGO</tspan></text>
    <text class="st3" transform="translate(102.6 89.9)"><tspan x="0" y="0">NAJLEPSZEGO</tspan></text>
  </g>
  <rect class="st12" x="35.2" y="335" width="219.5" height="21" rx="10.5" ry="10.5"/>
  <g>
    <path class="st17" d="M47,349.7l-3.4-3.8v3.8h-1.1v-8.4h1.1v3.9l3.5-3.9h1.4l-3.8,4.2,3.8,4.2h-1.4Z"/>
    <path class="st17" d="M50.7,348.8h2.9v.9h-4v-8.4h1.1v7.5Z"/>
    <path class="st17" d="M55.9,341.4v8.4h-1.1v-8.4h1.1Z"/>
    <path class="st17" d="M62.3,349.7l-3.4-3.8v3.8h-1.1v-8.4h1.1v3.9l3.5-3.9h1.4l-3.8,4.2,3.8,4.2h-1.4Z"/>
    <path class="st17" d="M71.5,349.7h-1.1l-4.4-6.7v6.7h-1.1v-8.4h1.1l4.4,6.6v-6.6h1.1v8.4Z"/>
    <path class="st17" d="M74.5,341.4v8.4h-1.1v-8.4h1.1Z"/>
    <path class="st17" d="M80.5,341.4v6.2c0,.7-.2,1.2-.6,1.6-.4.4-1,.6-1.7.6s-1.3-.2-1.7-.6-.6-1-.6-1.7h1.1c0,.4.1.7.3,1,.2.3.5.4.9.4s.7-.1.9-.4.3-.6.3-.9v-6.2h1.1Z"/>
    <path class="st17" d="M90.8,347.9h-3.6l-.7,1.9h-1.2l3-8.3h1.3l3,8.3h-1.2l-.7-1.9ZM90.5,347l-1.5-4.2-1.5,4.2h3Z"/>
    <path class="st17" d="M99,345.8c.3.2.5.4.6.7s.2.6.2.9-.1.8-.3,1.1c-.2.3-.5.6-.9.8-.4.2-.9.3-1.5.3h-3.1v-8.4h3c.6,0,1.1,0,1.5.3.4.2.7.4.9.8s.3.7.3,1.1-.1.9-.4,1.2c-.3.3-.6.6-1.1.7.3,0,.6.2.8.4ZM95.1,345h1.8c.5,0,.9-.1,1.2-.4.3-.2.4-.6.4-1s-.1-.8-.4-1c-.3-.2-.7-.4-1.2-.4h-1.8v2.7ZM98.3,348.4c.3-.3.5-.6.5-1.1s-.2-.8-.5-1.1c-.3-.3-.7-.4-1.3-.4h-1.9v3h1.9c.5,0,1-.1,1.3-.4Z"/>
    <path class="st17" d="M107.2,341.4l-2.7,5.2v3.2h-1.1v-3.2l-2.7-5.2h1.2l2.1,4.2,2.1-4.2h1.2Z"/>
    <path class="st17" d="M112.5,348.8h4.1v.9h-5.4v-.9l4.1-6.6h-4v-.9h5.3v.9l-4.1,6.6Z"/>
    <path class="st17" d="M119.7,349.3c-.6-.4-1.1-.9-1.5-1.5s-.6-1.4-.6-2.2.2-1.5.6-2.2c.4-.7.9-1.2,1.5-1.5.6-.4,1.3-.5,2.1-.5s1.5.2,2.1.5c.6.4,1.1.9,1.5,1.5.4.6.6,1.4.6,2.2s-.2,1.6-.6,2.2c-.4.6-.9,1.2-1.5,1.5-.6.4-1.4.5-2.1.5s-1.5-.2-2.1-.5ZM123.4,348.4c.5-.3.8-.7,1.1-1.2s.4-1.1.4-1.8-.1-1.3-.4-1.8-.6-.9-1.1-1.2c-.5-.3-1-.4-1.6-.4s-1.1.1-1.6.4c-.5.3-.8.7-1.1,1.2s-.4,1.1-.4,1.8.1,1.2.4,1.8.6.9,1.1,1.2,1,.4,1.6.4,1.1-.1,1.6-.4Z"/>
    <path class="st17" d="M132.5,345.8c.3.2.5.4.6.7s.2.6.2.9-.1.8-.3,1.1c-.2.3-.5.6-.9.8-.4.2-.9.3-1.5.3h-3.1v-8.4h3c.6,0,1.1,0,1.5.3.4.2.7.4.9.8s.3.7.3,1.1-.1.9-.4,1.2c-.3.3-.6.6-1.1.7.3,0,.6.2.8.4ZM128.6,345h1.8c.5,0,.9-.1,1.2-.4.3-.2.4-.6.4-1s-.1-.8-.4-1c-.3-.2-.7-.4-1.2-.4h-1.8v2.7ZM131.8,348.4c.3-.3.5-.6.5-1.1s-.2-.8-.5-1.1c-.3-.3-.7-.4-1.3-.4h-1.9v3h1.9c.5,0,1-.1,1.3-.4Z"/>
    <path class="st17" d="M139.8,347.9h-3.6l-.7,1.9h-1.2l3-8.3h1.3l3,8.3h-1.2l-.7-1.9ZM139.5,347l-1.5-4.2-1.5,4.2h3Z"/>
    <path class="st17" d="M143.1,343.3c.4-.7.9-1.2,1.5-1.5.6-.4,1.3-.6,2.1-.6s1.7.2,2.4.7c.7.4,1.2,1.1,1.5,1.9h-1.3c-.2-.5-.6-.9-1-1.2-.4-.3-1-.4-1.6-.4s-1.1.1-1.6.4-.8.7-1.1,1.2c-.3.5-.4,1.1-.4,1.8s.1,1.2.4,1.7c.3.5.6.9,1.1,1.2.5.3,1,.4,1.6.4s1.1-.1,1.6-.4c.4-.3.8-.7,1-1.2h1.3c-.3.8-.8,1.4-1.5,1.9-.7.4-1.5.7-2.4.7s-1.5-.2-2.1-.5c-.6-.4-1.1-.9-1.5-1.5-.4-.6-.6-1.4-.6-2.2s.2-1.5.6-2.2Z"/>
    <path class="st17" d="M153.1,348.8h4.1v.9h-5.4v-.9l4.1-6.6h-4v-.9h5.3v.9l-4.1,6.6Z"/>
    <path class="st17" d="M164.5,341.4l-2.7,5.2v3.2h-1.1v-3.2l-2.7-5.2h1.2l2.1,4.2,2.1-4.2h1.2Z"/>
    <path class="st17" d="M165.8,343.3c.4-.7.9-1.2,1.5-1.5.6-.4,1.3-.6,2.1-.6s1.7.2,2.4.7c.7.4,1.2,1.1,1.5,1.9h-1.3c-.2-.5-.6-.9-1-1.2-.4-.3-1-.4-1.6-.4s-1.1.1-1.6.4-.8.7-1.1,1.2c-.3.5-.4,1.1-.4,1.8s.1,1.2.4,1.7c.3.5.6.9,1.1,1.2.5.3,1,.4,1.6.4s1.1-.1,1.6-.4c.4-.3.8-.7,1-1.2h1.3c-.3.8-.8,1.4-1.5,1.9-.7.4-1.5.7-2.4.7s-1.5-.2-2.1-.5c-.6-.4-1.1-.9-1.5-1.5-.4-.6-.6-1.4-.6-2.2s.2-1.5.6-2.2ZM170.7,339.5l-2.6,1.4v-.8l2.6-1.5v.9Z"/>
    <path class="st17" d="M188.7,341.4l-2.4,8.4h-1.2l-1.9-6.7-2,6.7h-1.2s-2.3-8.4-2.3-8.4h1.2l1.8,7.1,2-7.1h1.2l1.9,7.1,1.8-7.1h1.2Z"/>
    <path class="st17" d="M190.9,341.4v8.4h-1.1v-8.4h1.1Z"/>
    <path class="st17" d="M197.4,351.3v.7c-.3.1-.6.2-.9.2s-.8,0-1-.3c-.3-.2-.4-.5-.4-.9s.3-.9.8-1.3h-3v-8.4h4.5v.9h-3.4v2.8h3v.9h-3v2.9h3.4v.9l-.7.3c-.5.2-.7.5-.7.8s0,.3.2.4.3.2.5.2.5,0,.8-.2Z"/>
    <path class="st17" d="M199.1,343.3c.4-.7.9-1.2,1.5-1.5.6-.4,1.3-.6,2.1-.6s1.7.2,2.4.7c.7.4,1.2,1.1,1.5,1.9h-1.3c-.2-.5-.6-.9-1-1.2s-1-.4-1.6-.4-1.1.1-1.6.4c-.5.3-.8.7-1.1,1.2s-.4,1.1-.4,1.8.1,1.2.4,1.7.6.9,1.1,1.2c.5.3,1,.4,1.6.4s1.1-.1,1.6-.4.8-.7,1-1.2h1.3c-.3.8-.8,1.4-1.5,1.9-.7.4-1.5.7-2.4.7s-1.5-.2-2.1-.5c-.6-.4-1.1-.9-1.5-1.5-.4-.6-.6-1.4-.6-2.2s.2-1.5.6-2.2Z"/>
    <path class="st17" d="M209.3,342.2v2.8h3v.9h-3v2.9h3.4v.9h-4.5v-8.4h4.5v.9h-3.4Z"/>
    <path class="st17" d="M218.6,341.4v6.2c0,.7-.2,1.2-.6,1.6-.4.4-1,.6-1.7.6s-1.3-.2-1.7-.6c-.4-.4-.6-1-.6-1.7h1.1c0,.4.1.7.3,1s.5.4.9.4.7-.1.9-.4c.2-.2.3-.6.3-.9v-6.2h1.1Z"/>
  </g>
  <rect class="st2" x="233.8" y="335" width="21" height="21" rx="10.5" ry="10.5"/>
  <path class="st14" d="M249.7,344.8h0c0,0-3.7-3.8-3.7-3.8-.5-.7.3-1.4,1-1l5,5c.2.3.2.6,0,.9l-5,5c-.7.5-1.5-.3-1-1l3.7-3.7h0c0,0-12.4,0-12.4,0,0,0-.2,0-.2-.1-.4-.3-.4-.9,0-1.2s.2-.1.2-.1h12.4Z"/>
</svg>