<?xml version="1.0" encoding="utf-8"?>
<!-- Generator: Adobe Illustrator 29.1.0, SVG Export Plug-In . SVG Version: 9.03 Build 55587)  -->
<svg version="1.0" id="PRINT" xmlns="http://www.w3.org/2000/svg" xmlns:xlink="http://www.w3.org/1999/xlink" x="0px" y="0px"
	 viewBox="0 0 435 600" enable-background="new 0 0 435 600" xml:space="preserve">
<rect fill="#FFFFFF" width="435" height="600"/>
<g>
	<defs>
		<rect id="SVGID_1_" y="0" width="435" height="600"/>
	</defs>
	<clipPath id="SVGID_00000171706780556741016000000002947568414686545339_">
		<use xlink:href="#SVGID_1_"  overflow="visible"/>
	</clipPath>
	
		<ellipse transform="matrix(0.9994 -3.564614e-02 3.564614e-02 0.9994 -0.7326 0.1708)" clip-path="url(#SVGID_00000171706780556741016000000002947568414686545339_)" fill="#747EF7" cx="4.4" cy="20.6" rx="52.5" ry="52.5"/>
	
		<circle clip-path="url(#SVGID_00000171706780556741016000000002947568414686545339_)" fill="#747EF7" cx="442.7" cy="638.4" r="105.6"/>
	
		<circle clip-path="url(#SVGID_00000171706780556741016000000002947568414686545339_)" fill="#FFC866" cx="433.8" cy="207" r="57.1"/>
	<circle clip-path="url(#SVGID_00000171706780556741016000000002947568414686545339_)" fill="#FFC866" cx="7.5" cy="477.9" r="32"/>
</g>
<ellipse transform="matrix(0.7071 -0.7071 0.7071 0.7071 -115.0374 240.7838)" fill="#FFC866" cx="233.1" cy="259.3" rx="93.5" ry="93.5"/>
<g>
	<g>
		<g>
			<path fill="#666B46" d="M116.4,173c0,1.7,0,3.3,0,4.9c0.1,4.8,0.3,9.6,0.7,14.5l-10.3-0.7c0.8-6.3,1.1-12.6,1-18.9v0
				c0-1.4-0.1-2.7-0.1-4.1c-0.1-2.9-0.4-5.8-0.7-8.6c-0.2-1.7-0.4-3.5-0.7-5.2c-0.2-1.3-0.4-2.6-0.6-3.8c2.8-0.2,5.7-0.4,8.5-0.6
				c1.2-0.1,2.4-0.2,3.6-0.3c-0.1,0.7-0.1,1.5-0.2,2.2c-0.2,2.3-0.4,4.5-0.5,6.8c-0.1,1.7-0.2,3.4-0.3,5.1
				C116.5,167.1,116.4,170.1,116.4,173z"/>
			<g>
				<path fill="#8E935F" d="M106.9,160c-0.2-1.7-0.4-3.5-0.7-5.2c0.2,0,0.4-0.1,0.6-0.1C110.1,154.8,110.2,159.9,106.9,160z"/>
				<path fill="#8E935F" d="M117.7,150.1c-0.1,0.7-0.1,1.5-0.2,2.2c-0.3,0.1-0.6,0.1-0.9,0.1c-1.5,0-2.3-1-2.5-2.1
					C115.3,150.3,116.5,150.2,117.7,150.1z"/>
				<path fill="#8E935F" d="M116.9,159.1c-0.1,1.7-0.2,3.4-0.3,5.1c-0.1,0-0.3,0-0.5,0c-3.4,0-3.4-5.3,0-5.3
					C116.5,159,116.7,159,116.9,159.1z"/>
				<path fill="#8E935F" d="M109.3,173.3c-0.7,0-1.2-0.2-1.6-0.5v0c0-1.4-0.1-2.7-0.1-4.1c0.4-0.4,1-0.6,1.7-0.6
					C112.7,168.1,112.7,173.3,109.3,173.3z"/>
				<path fill="#8E935F" d="M116.4,178c-0.3,0.1-0.6,0.2-0.9,0.2c-3.4,0-3.4-5.3,0-5.3c0.3,0,0.7,0.1,0.9,0.2
					C116.4,174.7,116.4,176.3,116.4,178z"/>
			</g>
		</g>
		<path fill="#FF6000" d="M111.4,148.3c-0.7,0.6-1.7,0.5-2.2-0.2c-2.2-2.6-3.1-6.4-2.5-9.9c0.5-3.2,2.1-6.2,4.1-8.7
			c0.7-0.8,2-0.7,2.6,0.2c1.6,2.5,3.7,4.7,4.2,7.7c0.4,2.3-0.4,4.6-1.6,6.5C115,145.5,113,147,111.4,148.3z"/>
		<path fill="#FCA53D" d="M111.2,148.1c-0.5,0.4-1.1,0.3-1.5-0.1c-1.5-1.8-2.1-4.4-1.7-6.8c0.3-2.2,1.4-4.2,2.8-6
			c0.5-0.6,1.4-0.5,1.8,0.1c1.1,1.7,2.6,3.2,2.9,5.3c0.3,1.5-0.3,3.1-1.1,4.5C113.6,146.1,112.3,147.2,111.2,148.1z"/>
	</g>
	<g>
		<path fill="#FCA53D" d="M155.4,193.4c-29.5-0.8-59.4-0.5-89,0.3c-0.2,12.2-0.1,24.4,0.1,36.6l89.4,0
			C155.1,218.1,154.9,205.8,155.4,193.4z"/>
		<path fill="#FFC866" d="M74.3,194.2c-0.3,9.9-0.5,19.9-0.8,29.8c-0.1,2.9-0.1,5.7-0.2,8.6c0,1.5,2.3,1.5,2.3,0
			c0.3-9.9,0.5-19.9,0.8-29.8c0.1-2.9,0.1-5.7,0.2-8.6C76.7,192.7,74.4,192.7,74.3,194.2z"/>
		<path fill="#FFC866" d="M88.3,202.3c-0.1-2.9-0.2-5.7-0.4-8.6c-0.1-1.5-2.4-1.5-2.3,0c0.4,10,0.8,20,1.2,30.1l0.4,8.6
			c0.1,1.5,2.4,1.5,2.3,0C89.2,222.3,88.7,212.3,88.3,202.3z"/>
		<path fill="#FFC866" d="M97.1,200.6c0-2.9,0-5.7-0.1-8.6c0-1.5-2.3-1.5-2.3,0l0.2,29.8c0,2.9,0,5.7,0.1,8.6c0,1.5,2.3,1.5,2.3,0
			C97.3,220.5,97.2,210.6,97.1,200.6z"/>
		<path fill="#FFC866" d="M107.7,201c-0.1-2.9-0.2-5.8-0.4-8.7c-0.1-1.5-2.4-1.5-2.3,0c0.4,10.1,0.8,20.3,1.3,30.4
			c0.1,2.9,0.2,5.8,0.4,8.7c0.1,1.5,2.4,1.5,2.3,0C108.6,221.3,108.2,211.2,107.7,201z"/>
		<path fill="#FFC866" d="M122.4,201c0-2.8-0.1-5.7-0.1-8.5c0-1.5-2.4-1.5-2.3,0c0.1,9.9,0.2,19.8,0.4,29.7c0,2.8,0.1,5.7,0.1,8.5
			c0,1.5,2.4,1.5,2.3,0C122.7,220.8,122.6,210.9,122.4,201z"/>
		<path fill="#FFC866" d="M129.8,200.7c-0.4-2.8-0.7-5.6-1.1-8.3c-0.1-0.6-0.5-1.2-1.2-1.2c-0.6,0-1.3,0.5-1.2,1.2
			c1.3,9.8,2.6,19.6,3.9,29.3c0.4,2.8,0.7,5.6,1.1,8.3c0.1,0.6,0.5,1.2,1.2,1.2c0.6,0,1.3-0.5,1.2-1.2
			C132.4,220.2,131.1,210.5,129.8,200.7z"/>
		<path fill="#FFC866" d="M145,191.8c0.1-1.5-2.2-1.5-2.3,0c-0.6,10.2-0.9,20.3-0.8,30.5c0,2.9,0.1,5.8,0.2,8.7c0,1.5,2.4,1.5,2.3,0
			c-0.3-10.2-0.3-20.4,0.2-30.5C144.7,197.6,144.8,194.7,145,191.8z"/>
		<path fill="#8E935F" d="M181.5,232c-46.8-1.7-94-2.3-140.8-1.8c2,19.4,2.9,39,2.8,58.6l137-1.4C179.6,268.9,180,250.5,181.5,232z"
			/>
		<path fill="#FFC866" d="M213.8,365.8l-193-1.8c-0.3-7-0.5-14-0.8-21.1c0-0.8-0.1-1.6-0.1-2.3c-0.1-2.1-0.2-4.2-0.2-6.3
			c-0.2-6-0.5-12-0.7-18c-0.1-1.4-0.1-2.9-0.2-4.3c0-0.8-0.1-1.6-0.1-2.3l-0.9-23.3c64.8-0.4,129.8-0.4,194.6,1.5
			c0.1,10.2,0.3,20.5,0.5,30.7c0,0.8,0,1.6,0,2.3c0,1.8,0.1,3.5,0.1,5.3c0.1,4.2,0.2,8.4,0.2,12.6c0,1.8,0.1,3.7,0.1,5.6
			c0,0.8,0,1.6,0,2.3C213.6,353,213.7,359.4,213.8,365.8z"/>
		<g>
			<path fill="#3F3C39" d="M188.9,434.5l-145.2,0.4c-1.6,0-2.4-1.9-1.3-3.1c1.4-1.4,2.4-3.1,3.2-4.9c1.5-3.6,1.6-7.6,1.8-11.5
				c0.2-3.9,0.6-7.9,2.4-11.3c2.8-5.4,8.6-8.5,14.5-10c5.8-1.5,12-1.8,17.9-3.1c5.9-1.3,11.9-3.9,15.3-9c2.9-4.3,3.5-9.7,3.4-14.9
				l27.4,0c0.3,3.7,0.7,6.9,1.8,10.5c1.1,3.5,2.9,6.9,5.8,9.1c4.9,3.8,11.7,3.8,17.9,3.6c6.2-0.1,13,0.1,17.7,4.2
				c2.6,2.3,4.1,5.6,5.3,8.9c2.1,5.7,3.4,11.6,5.8,17.2c1.7,3.9,4.3,7.8,7.6,10.8C191.3,432.5,190.6,434.5,188.9,434.5z"/>
			<path fill="#F24C70" d="M20.3,372.1c65.7-0.5,129.8,0.1,191.9,2c2.9,0,5.2-2.5,4.8-5.4l-0.3-2c-0.3-2.4-2.3-4.2-4.7-4.2
				c-67.6-0.4-131.7-0.8-191.6-1.1c-2.6,0-4.8,2.1-4.8,4.7l0,1.1C15.5,369.9,17.6,372.1,20.3,372.1z"/>
		</g>
		<path fill="#F24C70" d="M13.3,282.6c-1.7,1.6-2.2,4.4-1.5,6.6c0.9,2.7,4,4.3,6.8,4.4c2.9,0.1,5.7-1,8.3-2.1
			c-1,1.1,0.2,3.1,1.7,3.3s2.9-0.7,4.1-1.8c-0.5,3.6,1.2,7.4,4.2,9.5c3,2,7.2,2.1,10.3,0.2c3.1-1.9,5-5.6,4.6-9.3
			c1.4,2.1,3.9,3.4,6.4,3.5c2.5,0.1,5.1-1.1,6.6-3.1c0.8,1.2,1.9,1.4,3.4,1.4c1.4-0.1,2.8-1,3.4-2.3c-0.3,2.1,1,4.2,2.8,5.4
			c1.8,1.2,4,1.5,6.1,1.6c3,0.2,6-0.2,8.6-1.6c2.6-1.4,4.7-3.9,5-6.9c1.1,1.7,3.1,2.7,5.2,2.7c2,0,4-1.2,5-2.9
			c2.5,2.6,6.9,3.1,10,1.2c0.1,1,1,1.8,2,1.8c1,0.1,1.9-0.6,2.2-1.5c-0.4,2.1,0.4,4.4,1.9,6c1.5,1.6,3.6,2.5,5.7,3
			c6.9,1.6,14.6-2.1,17.8-8.4c1.5,2.4,4.7,3,7.5,3.3c1.8,0.2,3.6,0.4,5.3-0.3c1.7-0.7,3-2.6,2.3-4.3c0.7,1,2.3,1.8,3.5,1.6
			c1.2-0.2,2.2-1.2,2.5-2.4c2.6,2.6,6.3,4,9.9,3.7c3.6-0.3,7.1-2.2,9.2-5.2c0.2,2,1.4,4,3.3,4.8c1.8,0.9,4.1,0.6,5.8-0.6
			c1.3,2.7,4.3,4.5,7.3,4.4c3,0,5.9-1.9,7.2-4.6c0.4,2.5,2.7,4.5,5.2,4.8c2.5,0.3,5.1-1,6.5-3.1c1.4-2.1,1.7-4.9,0.8-7.3
			c-0.5-1.5-1.6-3-3-3.7c-2.1-1.1-4.6-0.6-6.9-0.1c0.9-1.6,0.1-3.9-1.5-4.7c-1.6-0.8-3.8-0.3-5,1.1c0.6-6.1-4.2-12.3-10.3-13.1
			c-6.1-0.8-12.4,3.8-13.5,9.8c-1.3-2.2-3.8-3.6-6.4-3.4c-2.5,0.2-4.9,1.9-5.8,4.3c-0.9-1-2.5-1.5-3.8-1.1c-1.3,0.4-2.4,1.6-2.7,2.9
			c-1.5-4-5.7-6.8-9.9-6.7c-4.2,0-8.3,2.8-9.9,6.8c-1.5-1.9-5.4-2.2-6.8-0.1c-0.7-3.9-4.3-7.1-8.3-7.3c-4-0.2-7.9,2.7-8.9,6.5
			c-0.8-2.2-2.9-3.9-5.3-4.1c-2.4-0.2-4.8,1.2-5.8,3.3c-1.5-1-3.6-1.2-5.2-0.4c-0.2-4.2-3.7-8-7.9-8.5c-4.2-0.5-8.5,2.3-9.7,6.4
			c-2.3-3.6-6.6-5.9-10.9-5.6c-4.3,0.3-8.3,3.1-10,7c-1.9-2.1-5.4-2.4-7.7-0.7c-0.6-4.2-5.4-6.9-9.6-6c-4.1,0.8-7.3,4.4-8.7,8.4
			c-0.9-1.6-2.9-2.5-4.7-2.2c-1.8,0.3-3.4,1.7-3.8,3.5C26.7,277.8,18.6,277.6,13.3,282.6z"/>
		<path fill="#3F3C39" d="M179.5,226.9c1.7,0,3.6,0,4.7,1.2c1.3,1.3,1.2,3.5,1,5.4c-0.7,7.1-1.5,14.2-2.2,21.3
			c-0.1,1.2-0.3,2.6-1.3,3.4c-1.5,1.2-3.9,0.2-4.8-1.4c-0.9-1.7-0.8-3.7-0.6-5.6c0.2-2.5,0.3-5.1-0.7-7.4c-1-2.3-3.5-4.1-6-3.5
			c-1.3,0.3-2.6,1.3-3.9,1c-1.6-0.4-2.3-2.5-3.9-3c-1.4-0.5-2.9,0.5-3.5,1.9c-0.6,1.3-0.6,2.8-0.6,4.3c0.2,5.7,0.3,11.5,0.5,17.2
			c0.1,2.5-0.6,5.9-3.1,6c-2,0.1-3.2-2.1-3.5-4c-0.8-4.5,0.4-9,0.5-13.6c0-4.5-2-9.8-6.4-11c-3.4-0.9-7.1,1-10.5,0.2
			c-1.8-0.4-3.3-1.5-5-2.2c-1.7-0.7-3.8-1-5.2,0.2c-2.9,2.4-0.4,8.3-3.6,10.2c-2.3,1.4-5.2-0.7-6.7-3c-1.5-2.2-3.1-5-5.8-5.3
			c-2.3-0.3-4.7,1.6-6.9,0.8c-2.6-0.9-3.6-5-6.3-5.1c-2.7-0.1-3.6,3.5-3.8,6.1c-0.2,5.9-0.5,11.9-0.7,17.8c-0.1,2.8-1,6.4-3.7,6.6
			c-1.5,0.1-2.8-1-3.5-2.3c-0.7-1.3-0.8-2.9-0.9-4.3c-0.4-4.6-0.7-9.2-1.1-13.8c-0.1-1.7-0.3-3.5-1.2-4.9c-0.9-1.4-2.9-2.4-4.4-1.5
			c-1.3,0.7-1.8,2.4-3.1,3.1c-1.9,1-4.1-0.7-5.6-2.3c-1.4-1.6-3.4-3.5-5.4-2.8c-3.7,1.2-2.3,8.7-6.2,9.2c-4.3,0.5-4.5-8.8-8.8-8.2
			c-2.3,0.3-3,3.4-3,5.7c-0.1,4.5-0.2,9.1-0.2,13.6c0,2.2-0.9,5.2-3.1,5c-1.9-0.2-2.5-2.7-2.6-4.6c-0.3-5.7-0.6-11.4-0.9-17
			c-0.1-2.8-0.3-5.7-0.4-8.5c-0.1-2.8,0.5-2.9,3.2-2.9c11.3-0.2,22.7-0.3,34-0.4c22.6-0.3,45.1-0.6,67.7-0.8
			C154.4,227.2,166.9,226.9,179.5,226.9z"/>
		<path fill="#8E935F" d="M69.9,190c-1.5,0-3,0-4.4,0.5c-1.4,0.5-2.6,1.6-2.9,3c-0.3,1.7,1.1,3.4,2.8,4.1c1.7,0.7,3.6,0.5,5.4,0.2
			c1.8-0.3,3.6-0.8,5.4-0.7c2.5,0.1,5,1.2,7.5,0.9c2.5-0.3,4.6-2,7.1-2.4c4.9-0.7,9.6,3.8,14.5,2.6c2.3-0.6,4.1-2.4,6.4-2.6
			c2.7-0.3,5.2,1.6,7.8,1.4c2-0.2,3.7-1.6,5.8-2c4.1-0.8,8.2,2.9,12.3,2.1c2.1-0.4,3.8-1.9,5.9-2.4c2-0.5,4.1,0.1,6.1,0.7
			c2,0.5,4.1,1,6.1,0.3c2-0.7,3.5-2.9,2.5-4.7c-0.6-1.2-2.1-1.8-3.4-1.9c-1.4-0.1-2.7,0.1-4.1,0.1c-3.3-0.1-6.3-1.9-9.6-2.3
			c-4.3-0.6-8.5,1.1-12.8,1.7c-4.9,0.7-9.8,0-14.7-0.4c-6-0.5-12.1-0.5-18.1-0.1c-5.2,0.4-10,1.7-15.2,1.8
			C76.8,189.9,73.4,190,69.9,190z"/>
		<path fill="#BC3156" d="M78.2,189.6c1.1-0.8,1.7-2.2,1.7-3.5c0-1.3-0.5-2.6-1.4-3.7c-0.8-1-2-1.9-2.3-3.2
			c-0.1-0.5-0.1-1.1-0.5-1.4c-0.5-0.4-1.3-0.3-1.9,0c-2.1,0.9-3.6,2.7-4.7,4.6c-0.5,1-1,2-1.1,3.1c-0.1,1.1,0,2.2,0.6,3.2
			c0.6,0.9,1.8,1.8,3,1.9c1.3,0.2,2.8,0.2,4.1,0C76.6,190.5,77.5,190.1,78.2,189.6z"/>
		<path fill="#BC3156" d="M96.6,189.6c1.1-0.8,1.7-2.2,1.7-3.5c0-1.3-0.5-2.6-1.4-3.7c-0.8-1-2-1.9-2.3-3.2
			c-0.1-0.5-0.1-1.1-0.5-1.4c-0.5-0.4-1.3-0.3-1.9,0c-2.1,0.9-3.6,2.7-4.7,4.6c-0.5,1-1,2-1.1,3.1c-0.1,1.1,0,2.2,0.6,3.2
			c0.6,0.9,1.8,1.8,3,1.9c1.3,0.2,2.8,0.2,4.1,0C95.1,190.5,95.9,190.1,96.6,189.6z"/>
		<path fill="#BC3156" d="M115.1,189.6c1.1-0.8,1.7-2.2,1.7-3.5c0-1.3-0.5-2.6-1.4-3.7c-0.8-1-2-1.9-2.3-3.2
			c-0.1-0.5-0.1-1.1-0.5-1.4c-0.5-0.4-1.3-0.3-1.9,0c-2.1,0.9-3.6,2.7-4.7,4.6c-0.5,1-1,2-1.1,3.1c-0.1,1.1,0,2.2,0.6,3.2
			c0.6,0.9,1.8,1.8,3,1.9c1.3,0.2,2.8,0.2,4.1,0C113.5,190.5,114.4,190.1,115.1,189.6z"/>
		<path fill="#BC3156" d="M133.5,189.6c1.1-0.8,1.7-2.2,1.7-3.5c0-1.3-0.5-2.6-1.4-3.7c-0.8-1-2-1.9-2.3-3.2
			c-0.1-0.5-0.1-1.1-0.5-1.4c-0.5-0.4-1.3-0.3-1.9,0c-2.1,0.9-3.6,2.7-4.7,4.6c-0.5,1-1,2-1.1,3.1c-0.1,1.1,0,2.2,0.6,3.2
			c0.6,0.9,1.8,1.8,3,1.9c1.3,0.2,2.8,0.2,4.1,0C132,190.5,132.8,190.1,133.5,189.6z"/>
		<path fill="#BC3156" d="M152,189.6c1.1-0.8,1.7-2.2,1.7-3.5c0-1.3-0.5-2.6-1.4-3.7c-0.8-1-2-1.9-2.3-3.2c-0.1-0.5-0.1-1.1-0.5-1.4
			c-0.5-0.4-1.3-0.3-1.9,0c-2.1,0.9-3.6,2.7-4.7,4.6c-0.5,1-1,2-1.1,3.1c-0.1,1.1,0,2.2,0.6,3.2c0.6,0.9,1.8,1.8,3,1.9
			c1.3,0.2,2.8,0.2,4.1,0C150.5,190.5,151.3,190.1,152,189.6z"/>
		<path fill="#3F3C39" d="M213,320.8c-16.4-0.5-32.8-1.1-49.3-1.7c-30.8-1.2-61.7-2.6-92.5-4.2c-17.5-0.9-35-1.9-52.5-3
			c0-0.8-0.1-1.6-0.1-2.3c4,0.2,8,0.5,12,0.7c30.8,1.8,61.6,3.4,92.4,4.8c29.9,1.3,59.9,2.4,89.8,3.4
			C212.9,319.2,212.9,320,213,320.8z"/>
		<path fill="#3F3C39" d="M213.4,346.6c-6.6-0.1-13.2-0.3-19.8-0.4c-31.2-0.6-62.4-1.2-93.5-1.8c-26.7-0.5-53.5-1-80.2-1.5
			c0-0.8-0.1-1.6-0.1-2.3c13,0.3,26.1,0.5,39.1,0.7c31.2,0.6,62.4,1.2,93.5,1.8c20.3,0.4,40.6,0.8,61,1.2
			C213.4,345,213.4,345.8,213.4,346.6z"/>
		<path fill="#FCA53D" d="M213.3,338.7c-64.5-3.3-129.1-4.8-193.7-4.5c-0.2-6-0.5-12-0.7-18c64.7,4,129.4,7.3,194.2,9.8
			C213.1,330.3,213.2,334.5,213.3,338.7z"/>
		<g>
			<path fill="#666B46" d="M51.8,265.6c0.5,1.2,1.8,2,3.1,2c1.2,0,2.4-0.7,2.9-1.8C60,261,49.8,260.4,51.8,265.6z"/>
			<path fill="#666B46" d="M71.7,260.5c0.5,1.2,1.8,2,3.1,2c1.2,0,2.4-0.7,2.9-1.8C79.9,255.9,69.7,255.3,71.7,260.5z"/>
			<path fill="#666B46" d="M97.3,261.6c0.5,1.2,1.8,2,3.1,2c1.2,0,2.4-0.7,2.9-1.8C105.4,257.1,95.3,256.5,97.3,261.6z"/>
			<path fill="#666B46" d="M129.2,252c0.5,1.2,1.8,2,3.1,2c1.2,0,2.4-0.7,2.9-1.8C137.3,247.4,127.2,246.8,129.2,252z"/>
			<path fill="#666B46" d="M168.9,261.6c0.5,1.2,1.8,2,3.1,2c1.2,0,2.4-0.7,2.9-1.8C177,257.1,166.8,256.5,168.9,261.6z"/>
			<path fill="#666B46" d="M115.4,270.8c0.5,1.2,1.8,2,3.1,2c1.2,0,2.4-0.7,2.9-1.8C123.5,266.2,113.4,265.7,115.4,270.8z"/>
			<path fill="#666B46" d="M59.3,254.3c0.7,1.7,2.5,2.8,4.4,2.8c1.7,0,3.4-1,4.1-2.6C70.8,247.9,56.4,247,59.3,254.3z"/>
			<path fill="#666B46" d="M135.1,267.1c0.7,1.7,2.5,2.8,4.4,2.8c1.7,0,3.4-1,4.1-2.6C146.6,260.7,132.2,259.9,135.1,267.1z"/>
			<path fill="#666B46" d="M161.6,249.2c0.7,1.7,2.5,2.8,4.4,2.8c1.7,0,3.4-1,4.1-2.6C173.1,242.8,158.8,241.9,161.6,249.2z"/>
			<path fill="#666B46" d="M102.2,252.3c0.7,1.7,2.5,2.8,4.4,2.8c1.7,0,3.4-1,4.1-2.6C113.7,245.9,99.4,245.1,102.2,252.3z"/>
		</g>
	</g>
	<g>
		<g>
			<path fill="#BC3156" d="M184.9,280.5c0.8,0.9,2,1.3,3.1,1c0.8-0.2,1.5-0.7,2-1.3c1.6-1.8,1.4-4.7-1.1-5.6
				c-1.8-0.7-3.7,0.5-4.5,2.2C183.9,277.9,184,279.4,184.9,280.5z"/>
			<path fill="#BC3156" d="M134.8,294.9c0.8,0.9,2,1.3,3.1,1c0.8-0.2,1.5-0.7,2-1.3c1.6-1.8,1.4-4.7-1.1-5.6
				c-1.8-0.7-3.7,0.5-4.5,2.2C133.8,292.4,133.9,293.8,134.8,294.9z"/>
			<path fill="#BC3156" d="M90.4,282.7c0.8,0.9,2,1.3,3.1,1c0.8-0.2,1.5-0.7,2-1.3c1.6-1.8,1.4-4.7-1.1-5.6
				c-1.8-0.7-3.7,0.5-4.5,2.2C89.3,280.2,89.4,281.7,90.4,282.7z"/>
			<path fill="#BC3156" d="M44.5,294.9c0.8,0.9,2,1.3,3.1,1c0.8-0.2,1.5-0.7,2-1.3c1.6-1.8,1.4-4.7-1.1-5.6
				c-1.8-0.7-3.7,0.5-4.5,2.2C43.5,292.4,43.6,293.8,44.5,294.9z"/>
			<g>
				<path fill="#BC3156" d="M18.5,288.5c0.8,0.9,2,1.3,3.1,1c0.8-0.2,1.5-0.7,2-1.3c1.6-1.8,1.4-4.7-1.1-5.6
					c-1.8-0.7-3.7,0.5-4.5,2.2C17.5,286,17.6,287.5,18.5,288.5z"/>
			</g>
			<path fill="#BC3156" d="M193.1,285.1c0.5,0.4,1.1,0.5,1.7,0.5c0.6,0,1.2-0.2,1.6-0.7c0.6-0.7,0.6-1.9-0.1-2.5
				C194.7,281,190.8,283.2,193.1,285.1z"/>
			<path fill="#BC3156" d="M174.4,291.2c0.5,0.4,1.1,0.5,1.7,0.5c0.6,0,1.2-0.2,1.6-0.7c0.6-0.7,0.6-1.9-0.1-2.5
				C176,287.1,172.1,289.3,174.4,291.2z"/>
			<path fill="#BC3156" d="M146.5,282.2c0.5,0.4,1.1,0.5,1.7,0.5c0.6,0,1.2-0.2,1.6-0.7c0.6-0.7,0.6-1.9-0.1-2.5
				C148.1,278.1,144.2,280.3,146.5,282.2z"/>
			<path fill="#BC3156" d="M125.6,282.2c0.5,0.4,1.1,0.5,1.7,0.5c0.6,0,1.2-0.2,1.6-0.7c0.6-0.7,0.6-1.9-0.1-2.5
				C127.2,278.1,123.4,280.3,125.6,282.2z"/>
			<path fill="#BC3156" d="M64.4,281.5c0.5,0.4,1.1,0.5,1.7,0.5c0.6,0,1.2-0.2,1.6-0.7c0.6-0.7,0.6-1.9-0.1-2.5
				C66,277.4,62.2,279.6,64.4,281.5z"/>
			<g>
				<path fill="#BC3156" d="M40,280.3c0.5,0.4,1.1,0.5,1.7,0.5c0.6,0,1.2-0.2,1.6-0.7c0.6-0.7,0.6-1.9-0.1-2.5
					C41.6,276.3,37.7,278.5,40,280.3z"/>
			</g>
			<path fill="#BC3156" d="M85.8,291.2c0.5,0.4,1.1,0.5,1.7,0.5c0.6,0,1.2-0.2,1.6-0.7c0.6-0.7,0.6-1.9-0.1-2.5
				C87.4,287.1,83.6,289.3,85.8,291.2z"/>
		</g>
	</g>
</g>
<g>
	<g>
		<g>
			<path fill="#F24C70" d="M242.5,292l-0.1,0.1l-6.2,0.5c0-0.2,0-0.5-0.1-0.7c-0.1-0.8-0.1-1.7-0.2-2.5c-0.2-2.3-0.4-4.5-0.7-6.8
				c-0.1-0.8-0.2-1.6-0.3-2.5c-0.3-2.2-0.6-4.4-0.9-6.6c-0.1-0.8-0.2-1.6-0.4-2.4c-0.3-2.1-0.7-4.3-1.1-6.4
				c-0.1-0.8-0.3-1.6-0.4-2.3c-0.4-2.3-0.9-4.6-1.3-6.8c3.4-1.7,5.1-2.1,8.6-3.9c0,1.1,0.1,2.2,0.1,3.3c0,0.9,0.1,1.8,0.1,2.6
				c0.1,2.4,0.2,4.8,0.4,7.1c0.1,0.9,0.1,1.7,0.2,2.6c0.2,2.3,0.3,4.7,0.5,7v0c0.1,0.8,0.1,1.7,0.2,2.5c0.2,2.3,0.4,4.6,0.7,6.8
				c0.1,0.8,0.2,1.7,0.3,2.5C242.1,288.1,242.3,290.1,242.5,292z"/>
			<path fill="#BC3156" d="M239.6,257.7l-7,7c-0.1-0.8-0.3-1.6-0.4-2.3l7.4-7.4C239.5,255.9,239.6,256.8,239.6,257.7z"/>
			<path fill="#BC3156" d="M240.2,267.4l-6.1,6.1c-0.1-0.8-0.2-1.6-0.4-2.4l6.3-6.3C240,265.7,240.1,266.5,240.2,267.4z"/>
			<path fill="#BC3156" d="M240.9,276.9l-5.7,5.7c-0.1-0.8-0.2-1.6-0.3-2.5l5.8-5.8C240.7,275.2,240.8,276.1,240.9,276.9z"/>
			<path fill="#BC3156" d="M241.8,286.2l-5.7,5.7c-0.1-0.8-0.1-1.7-0.2-2.5l5.6-5.6C241.6,284.6,241.7,285.4,241.8,286.2z"/>
			<path fill="#FF6000" d="M235,251.8c-0.5,0.5-1.3,0.5-1.8,0c-2.1-2-3.1-5.1-2.9-8c0.1-2.7,1.2-5.3,2.7-7.6
				c0.5-0.8,1.6-0.8,2.1-0.1c1.5,2,3.5,3.6,4.2,6c0.5,1.8,0.1,3.8-0.8,5.5C237.7,249.2,236.2,250.6,235,251.8z"/>
			<path fill="#FCA53D" d="M234.8,251.7c-0.3,0.4-0.9,0.4-1.3,0c-1.4-1.4-2.1-3.5-2-5.5c0.1-1.9,0.8-3.6,1.8-5.2
				c0.3-0.5,1.1-0.5,1.5,0c1,1.4,2.4,2.4,2.9,4.1c0.4,1.3,0.1,2.6-0.5,3.8C236.6,249.8,235.6,250.8,234.8,251.7z"/>
		</g>
		<g>
			<path fill="#FF6000" d="M258.4,261.4c-0.1,0.9-0.1,1.7-0.2,2.5c-0.3,3.5-0.5,6.3-0.6,8.9c-0.2,2.9-0.3,5.6-0.3,8.5
				c0,2.5,0,5.2,0,8.5c0,0.8,0,1.7,0.1,2.7l-0.1,0.1l-6.2-0.1c0.1-4.5,0.1-7.8,0-10.8v0c-0.1-2.7-0.3-5.1-0.6-7.9
				c-0.3-2.6-0.6-5.5-1-9.3C253.1,263,254.8,262.8,258.4,261.4z"/>
			<path fill="#FFFFFF" d="M258.2,263.9c-0.3,3.5-0.5,6.3-0.6,8.9c-2.1-0.4-3.7-2.2-3.7-4.4C253.9,265.9,255.8,264,258.2,263.9z"/>
			<path fill="#FFFFFF" d="M253.1,277.8c0,1.6-0.9,3-2.1,3.8c-0.1-2.7-0.3-5.1-0.6-7.9C252,274.4,253.1,276,253.1,277.8z"/>
			<path fill="#FFFFFF" d="M257.3,289.8c-1.8-0.6-3.1-2.3-3.1-4.3c0-2,1.3-3.7,3.1-4.2C257.3,283.8,257.3,286.5,257.3,289.8z"/>
			<path fill="#FF6000" d="M254,261.1c-0.6,0.5-1.4,0.4-1.8-0.2c-1.9-2.2-2.6-5.3-2.1-8.2c0.4-2.7,1.7-5.1,3.4-7.3
				c0.6-0.7,1.7-0.6,2.1,0.2c1.3,2.1,3.1,3.9,3.5,6.4c0.3,1.9-0.3,3.8-1.4,5.4C257,258.7,255.3,260,254,261.1z"/>
			<path fill="#FCA53D" d="M253.8,260.9c-0.4,0.3-0.9,0.3-1.3-0.1c-1.3-1.5-1.8-3.7-1.4-5.6c0.3-1.8,1.2-3.5,2.4-5
				c0.4-0.5,1.1-0.4,1.5,0.1c0.9,1.5,2.1,2.7,2.4,4.4c0.2,1.3-0.2,2.6-0.9,3.7C255.8,259.3,254.7,260.1,253.8,260.9z"/>
		</g>
		<g>
			<path fill="#FF6000" d="M292.2,259.6c-0.4,3.1-0.8,5.8-1.1,8.1c-0.5,4.2-0.9,7.5-1.2,11.2c-0.2,2.7-0.4,5.5-0.6,8.9
				c-0.1,1.6-0.1,3.4-0.2,5.4l-0.1,0.1l-6.7-0.5c0.6-7.7,0.7-12.1,0.6-17c0-2.3-0.2-4.8-0.3-7.7c-0.1-1.7-0.2-3.6-0.3-5.8
				c3.7-1.2,5.6-1.4,9.1-2.4c0,0,0,0,0,0C291.7,259.8,292,259.7,292.2,259.6z"/>
			<path fill="#FFFFFF" d="M289.9,278.9c-0.2,2.7-0.4,5.5-0.6,8.9c-2.4,0-4.4-2-4.4-4.5c0-2.5,2-4.5,4.5-4.5
				C289.6,278.9,289.8,278.9,289.9,278.9z"/>
			<path fill="#FFFFFF" d="M285,272c0,1.6-0.8,3-2.1,3.8c0-2.3-0.2-4.8-0.3-7.7C284,268.8,285,270.3,285,272z"/>
			<path fill="#FFFFFF" d="M292.2,259.6c-0.4,3.1-0.8,5.8-1.1,8.1c-1.3-0.8-2.2-2.2-2.2-3.9c0-1.8,1-3.3,2.5-4c0,0,0,0,0,0
				C291.7,259.8,292,259.7,292.2,259.6z"/>
			<path fill="#FF6000" d="M287.5,259c-0.6,0.5-1.5,0.3-2-0.3c-1.9-2.5-2.4-6-1.8-9.1c0.6-2.9,2.2-5.5,4.2-7.6
				c0.7-0.7,1.8-0.6,2.3,0.3c1.3,2.4,3.1,4.4,3.4,7.2c0.2,2.1-0.6,4.1-1.8,5.8C290.9,256.6,289,257.9,287.5,259z"/>
			<path fill="#FCA53D" d="M287.3,258.8c-0.4,0.3-1,0.2-1.4-0.2c-1.3-1.7-1.7-4.1-1.2-6.2c0.4-2,1.5-3.7,2.9-5.2
				c0.5-0.5,1.3-0.4,1.6,0.2c0.9,1.6,2.1,3,2.3,4.9c0.2,1.4-0.4,2.8-1.2,4C289.6,257.2,288.3,258,287.3,258.8z"/>
		</g>
		<g>
			<g>
				<path fill="#F24C70" d="M276.7,235.6c-0.3,2-0.6,4.4-0.8,7.1c-0.1,0.8-0.2,1.6-0.2,2.4c-0.2,2.6-0.5,5.3-0.7,8.2
					c-0.1,0.8-0.1,1.6-0.2,2.4c-0.2,2.7-0.4,5.4-0.5,8.1c0,0.8-0.1,1.6-0.1,2.4c-0.2,2.7-0.3,5.5-0.4,8.1c0,0.8-0.1,1.6-0.1,2.4
					c-0.1,2.8-0.3,5.6-0.4,8.1c0,0.8-0.1,1.6-0.1,2.3c-0.1,2-0.2,3.9-0.2,5.5l-0.1,0.1l-6.2-0.6c0-0.3,0.1-0.7,0.1-1.1
					c0.1-0.7,0.1-1.5,0.2-2.4c0.2-2.4,0.3-5.1,0.4-8.1c0-0.8,0.1-1.5,0.1-2.3c0.1-2.6,0.2-5.2,0.2-8c0-0.8,0-1.5,0-2.3
					c0.1-2.6,0.1-5.3,0.1-7.9c0-0.8,0-1.5,0-2.3c0-2.7,0-5.3,0-7.8c0-0.8,0-1.5,0-2.3c0-3.8-0.1-7.1-0.2-9.7
					C271.2,236.9,273,236.8,276.7,235.6z"/>
				<path fill="#FF6000" d="M272.3,235c-0.6,0.4-1.4,0.3-1.8-0.3c-1.7-2.3-2.2-5.5-1.5-8.4c0.6-2.6,2.1-5,3.9-7
					c0.6-0.7,1.7-0.5,2.1,0.3c1.1,2.2,2.8,4.1,3.1,6.6c0.2,1.9-0.6,3.8-1.7,5.3C275.4,232.9,273.7,234,272.3,235z"/>
				<path fill="#FCA53D" d="M272.1,234.8c-0.4,0.3-1,0.2-1.3-0.2c-1.2-1.6-1.5-3.8-1.1-5.7c0.4-1.8,1.4-3.4,2.7-4.8
					c0.4-0.4,1.2-0.3,1.5,0.2c0.8,1.5,1.9,2.8,2.1,4.5c0.1,1.3-0.4,2.6-1.2,3.6C274.3,233.4,273.1,234.1,272.1,234.8z"/>
			</g>
			<path fill="#BC3156" d="M275.8,242.7c-0.1,0.8-0.2,1.6-0.2,2.4c-2.6,1.6-5.3,3.2-7.9,4.8c0-0.8,0-1.5,0-2.3
				C270.4,246,273.1,244.4,275.8,242.7z"/>
			<path fill="#BC3156" d="M275,253.4c-0.1,0.8-0.1,1.6-0.2,2.4c-2.4,1.5-4.7,2.9-7.1,4.4c0-0.8,0-1.5,0-2.3
				C270.1,256.3,272.5,254.8,275,253.4z"/>
			<path fill="#BC3156" d="M274.3,263.9c0,0.8-0.1,1.6-0.1,2.4c-2.2,1.4-4.4,2.7-6.6,4.1c0-0.8,0-1.5,0-2.3
				C269.8,266.6,272,265.3,274.3,263.9z"/>
			<path fill="#BC3156" d="M273.7,274.3c0,0.8-0.1,1.6-0.1,2.4c-2.1,1.3-4.3,2.6-6.4,3.9c0-0.8,0.1-1.5,0.1-2.3
				C269.4,277,271.6,275.6,273.7,274.3z"/>
			<path fill="#BC3156" d="M273.2,284.8c0,0.8-0.1,1.6-0.1,2.3c-2.2,1.3-4.3,2.7-6.5,4c0.1-0.7,0.1-1.5,0.2-2.4
				C268.9,287.4,271,286.1,273.2,284.8z"/>
		</g>
		<path fill="#666B46" d="M325.8,354.1c-1-4.2-0.1-8.6-0.1-12.9c0-4.3-1.5-9.2-5.4-11.2c-2.3-1.2-4.9-1.2-7.5-1.2
			c-31.4,0.1-62.9,0.1-94.3,0.2c-3.7,0-7.8,0.1-10.7,2.5c-3,2.5-3.7,6.7-3.5,10.5c0.2,3.8,0.9,7.7,0,11.4L325.8,354.1z"/>
		<path fill="#FFC866" d="M344.3,416c-0.1,1.2-0.2,2.3-0.5,3.3c-0.6,2.3-1.9,4.1-4.5,5c-1,0.3-2.2,0.6-3.6,0.6c-0.6,0-1.2,0-1.7,0.1
			c-1.9,0.1-3.7,0.1-5.6,0.1c-0.8,0-1.5,0-2.3,0c-2.4,0-4.9,0-7.3-0.1c-1.9,0-3.9-0.1-5.8-0.1c-1.9,0-3.8,0-5.7-0.1
			c-0.8,0-1.5,0-2.3,0h-0.3c-2.3,0-4.6,0-6.9,0h-5.8c-1.9,0-3.8,0-5.6,0h-2.3c-2.4,0-4.9,0-7.3,0c-1.9,0-3.8,0-5.8,0h-7.9
			c-2.4,0-4.8,0-7.3,0c-1.9,0-3.8,0-5.8,0h-5.6c-0.8,0-1.5,0-2.3,0H235c-1.9,0-3.8,0-5.7,0c-1.9,0-3.8,0-5.6,0c-0.8,0-1.5,0-2.3,0
			c-2.4,0-4.9,0-7.3,0h-5.7c-1.9,0-3.8,0-5.6,0h-0.3c-0.7,0-1.3,0-2,0c-3.1-0.2-6.3-0.8-8-3.4c-1.1-1.6-1.2-3.7-1.3-5.6
			c-0.2-3.6-0.4-7.2-0.6-10.8c-0.1-2-0.2-4.1-0.3-6.1c-0.6-10.6-1.1-21.3-1.7-31.9c-0.1-2.7-0.3-5.5,0.9-8c0,0,0-0.1,0.1-0.1
			c1-1.9,2.5-3.3,4.4-4.2c1.7-0.8,3.6-1.3,5.6-1.5c0.6-0.1,1.3-0.1,1.9-0.2c1.4-0.1,2.8-0.1,4.1-0.1c1.4,0,2.8,0,4.3,0.1
			c1.6,0,3.3,0,4.9,0.1c1.9,0,3.8,0,5.7,0.1c0.6,0,1.3,0,1.9,0c2.8,0,5.6,0.1,8.4,0.1c1.6,0,3.3,0,4.9,0.1c1.9,0,3.8,0,5.7,0.1
			c0.6,0,1.3,0,1.9,0c2.8,0,5.6,0.1,8.4,0.1c1.6,0,3.3,0,4.9,0.1c1.9,0,3.8,0,5.7,0.1c0.6,0,1.3,0,1.9,0c2.8,0,5.6,0.1,8.4,0.1
			c1.6,0,3.3,0,4.9,0.1c1.9,0,3.8,0,5.7,0.1c0.7,0,1.3,0,2,0c2.8,0,5.6,0.1,8.4,0.1c1.6,0,3.3,0,4.9,0.1c1.9,0,3.8,0,5.7,0.1
			c0.6,0,1.3,0,1.9,0c2.8,0,5.6,0.1,8.4,0.1c1.6,0,3.3,0,4.9,0.1c1.9,0,3.8,0,5.7,0.1c0.6,0,1.3,0,1.9,0c2.2,0,4.3,0.1,6.5,0.1
			c0.6,0,1.3,0,1.9,0.1c1.6,0.1,3.1,0.4,4.3,1.4c0.3,0.2,0.5,0.5,0.8,0.7c1.5,1.8,1.8,4.6,1.9,7.1c0.1,3.5,0.3,7.1,0.4,10.6
			c0.3,8.7,0.7,17.4,1,26c0.1,2.9,0.2,5.8,0.3,8.7C344.3,411.5,344.4,413.9,344.3,416z"/>
		<g>
			<path fill="#FCA53D" d="M202.7,424.8h-0.3c-0.7,0-1.3,0-2,0c-0.6-1.1-1.3-2.2-1.9-3.3c-3-5.4-5.7-10.9-8-16.5
				c-0.1-2-0.2-4.1-0.3-6.1c0.8,2,1.6,4,2.4,6C195.5,411.7,198.8,418.4,202.7,424.8z"/>
			<path fill="#FCA53D" d="M214.1,424.8h-5.7c-12.3-19.9-16.6-42.9-19-65.8c0,0,0-0.1,0.1-0.1c1-1.9,2.5-3.3,4.4-4.2
				C196.2,379.2,200.5,404.5,214.1,424.8z"/>
			<path fill="#FCA53D" d="M223.6,424.8c-0.8,0-1.5,0-2.3,0c-0.7-1.1-1.3-2.2-1.9-3.3c-6.5-11.7-11.6-24.3-15-37.3
				c-2.7-10.1-4.4-20.6-5-31.1c0.6-0.1,1.3-0.1,1.9-0.2c0.3,4.6,0.7,9.1,1.4,13.7c2,13.1,5.6,26,10.8,38.3
				C216.4,411.7,219.8,418.4,223.6,424.8z"/>
			<path fill="#FCA53D" d="M235,424.8c-1.9,0-3.8,0-5.7,0c-13.3-21.6-17.3-46.9-19.6-71.9c1.6,0,3.3,0,4.9,0.1
				C217,378,221.2,404,235,424.8z"/>
			<path fill="#FCA53D" d="M244.6,424.8c-0.8,0-1.5,0-2.3,0c-0.7-1.1-1.3-2.2-1.9-3.3c-6.5-11.7-11.6-24.3-15-37.3
				c-2.7-10.2-4.4-20.6-5-31.2c0.6,0,1.3,0,1.9,0c0.3,4.5,0.7,9.1,1.4,13.6c2,13.1,5.6,26,10.8,38.3
				C237.3,411.7,240.7,418.4,244.6,424.8z"/>
			<path fill="#FCA53D" d="M256,424.8c-1.9,0-3.8,0-5.8,0c-13.3-21.6-17.2-46.8-19.6-71.7c1.6,0,3.3,0,4.9,0.1
				C237.9,378.2,242.1,404.1,256,424.8z"/>
			<path fill="#FCA53D" d="M265.5,424.8h-2.3c-0.7-1.1-1.3-2.2-1.9-3.4c-6.5-11.7-11.6-24.3-15-37.3c-2.7-10.1-4.4-20.5-5-30.9
				c0.6,0,1.3,0,1.9,0c0.3,4.4,0.7,8.9,1.4,13.3c2,13.1,5.6,26,10.8,38.3C258.3,411.8,261.7,418.4,265.5,424.8z"/>
			<path fill="#FCA53D" d="M276.9,424.8c-1.9,0-3.8,0-5.8,0c-13.3-21.5-17.2-46.6-19.5-71.4c1.6,0,3.3,0,4.9,0.1
				C258.9,378.4,263.1,404.2,276.9,424.8z"/>
			<path fill="#FCA53D" d="M286.5,424.8h-2.3c-0.7-1.1-1.3-2.2-1.9-3.4c-6.5-11.7-11.6-24.3-15-37.3c-2.6-10-4.3-20.3-5-30.6
				c0.6,0,1.3,0,1.9,0c0.3,4.4,0.7,8.7,1.4,13c2,13.1,5.6,26,10.8,38.3C279.2,411.8,282.6,418.4,286.5,424.8z"/>
			<path fill="#FCA53D" d="M297.9,424.8h-5.8c-13.2-21.4-17.2-46.4-19.5-71.1c1.6,0,3.3,0,4.9,0.1
				C279.9,378.6,284.1,404.3,297.9,424.8z"/>
			<path fill="#FCA53D" d="M307.4,424.9c-0.8,0-1.5,0-2.3,0c-0.7-1.1-1.3-2.2-1.9-3.4c-6.5-11.7-11.6-24.3-15-37.3
				c-2.6-9.9-4.3-20.1-5-30.4c0.7,0,1.3,0,2,0c0.3,4.3,0.7,8.5,1.4,12.8c2,13.1,5.6,26,10.8,38.3
				C300.2,411.8,303.6,418.4,307.4,424.9z"/>
			<path fill="#FCA53D" d="M318.9,425c-1.9,0-3.9-0.1-5.8-0.1c-13.2-21.4-17.2-46.3-19.6-71c1.6,0,3.3,0,4.9,0.1
				C300.8,378.8,305.1,404.5,318.9,425z"/>
			<path fill="#FCA53D" d="M328.5,425.1c-0.8,0-1.5,0-2.3,0c-0.7-1.2-1.4-2.4-2.1-3.6c-6.5-11.7-11.6-24.3-15-37.3
				c-2.6-9.8-4.3-19.9-5-30.1c0.6,0,1.3,0,1.9,0c0.3,4.2,0.7,8.3,1.4,12.5c2,13.1,5.6,26,10.8,38.3
				C321.1,411.8,324.6,418.6,328.5,425.1z"/>
			<path fill="#FCA53D" d="M339.4,424.3c-1,0.3-2.2,0.6-3.6,0.6c-0.6,0-1.2,0-1.7,0.1c-13.2-21.3-17.2-46.1-19.5-70.7
				c1.6,0,3.3,0,4.9,0.1C321.8,378.7,326,404,339.4,424.3z"/>
			<path fill="#FCA53D" d="M344.3,416c-0.1,1.2-0.2,2.3-0.5,3.3c-6-11.1-10.6-22.9-13.8-35.1c-2.6-9.8-4.2-19.8-4.9-29.8
				c0.6,0,1.3,0,1.9,0c0.3,4.1,0.7,8.2,1.3,12.2c2,13.1,5.6,26,10.8,38.3C340.7,408.6,342.4,412.3,344.3,416z"/>
			<path fill="#FCA53D" d="M343.9,400.4c-4.7-14.8-6.9-30.4-8.4-45.9c1.6,0.1,3.1,0.4,4.3,1.4c0.3,0.2,0.5,0.5,0.8,0.7
				c0.6,5.9,1.3,11.8,2.3,17.7C343.2,383.1,343.5,391.8,343.9,400.4z"/>
		</g>
		<path fill="#FF6000" d="M197.5,351c-3.1,0-6.6,0.2-8.9,2.2c-3,2.6-3.1,7.3-2.8,11.3c0.3,6,0.7,12.1,1,18.1
			c0.2,2.8,1.2,6.4,3.9,6.5c2.5,0,3.8-3,3.8-5.5c0.1-2.5-0.3-5.3,1.4-7.1c1.2-1.3,3.1-1.8,4.4-3c1.7-1.5,2.2-3.9,2.6-6.1
			c0.4-2.2,1-4.6,2.7-6c1.7-1.4,5-1.1,5.5,1.1c0.4,1.7-0.9,3.5-0.3,5.1c0.5,1.2,1.7,1.7,2.8,2.4c4.1,2.8,4.2,8.7,3.9,13.6
			c-0.3,5.5-0.6,11-0.9,16.5c-0.2,3.2,0.5,7.5,3.6,7.9c2.6,0.4,4.6-2.5,4.8-5c0.2-2.6-0.7-5.1-0.7-7.7c0-7,6.5-12.7,6.9-19.6
			c0.1-2.4-0.5-4.8-0.6-7.3c-0.1-2.4,0.3-5.1,2-6.8c1.8-1.7,5.1-1.7,6.3,0.5c0.6,1.1,0.5,2.4,0.7,3.6c0.2,1.2,1,2.5,2.2,2.5
			c1.3,0,2.1-1.3,3.2-1.8c1.5-0.6,3.1,0.4,3.9,1.8c0.7,1.4,0.8,3,0.8,4.5c0.2,13.2-0.2,26.5-1.2,39.7c-0.3,3.3-0.1,7.4,2.9,8.7
			c2.4,1.1,5.3-0.6,6.5-2.9c1.2-2.3,1.2-5.1,1.2-7.7c-0.1-4.5-0.2-9-0.2-13.5c0-2.1,0.1-4.5,1.8-5.6c1.1-0.7,2.5-0.7,3.7-1.3
			c2.1-1,2.9-3.7,2.7-6s-1.1-4.6-1.3-6.9c-0.7-7,4.5-12.9,9.4-18c1.5-1.6,4.1-3.3,5.8-1.9c1.1,0.9,1,2.6,1.2,4
			c0.2,1.4,1.1,3.1,2.5,2.9c1.9-0.3,1.8-3.5,3.5-4.2c1.1-0.4,2.3,0.3,2.8,1.4s0.5,2.2,0.4,3.4c-0.2,4.3-0.3,8.7-0.5,13
			c-0.1,2,0.1,4.4,1.8,5.3c2,1,4.4-0.9,4.9-3.1c0.7-2.8,0-5.9,0.6-8.7c0.3-1.4,1.2-2.7,2.5-3.1c1.2-0.4,2.7,0,3.7-0.7
			c1-0.6,1.2-1.9,1.3-3.1c0.1-1.2,0-2.4,0.6-3.4c0.8-1.3,2.6-1.8,4-1.3c3.4,1.2,3.6,5.7,4,8.7c0.6,4.3,0,9.1,0,13.4
			c-0.1,9.3-0.2,18.5-0.3,27.8c0,1,0,2,0.5,2.9c1.2,1.8,4.3,1.2,5.5-0.6c1.2-1.8,1.2-4.2,1.1-6.3c-0.1-5.7,0-11.7,1.1-17.3
			c1.1-5.5,0.8-11.6,1-17.2c0.1-1.1,0.2-2.5,1.2-3.1c1.5-0.9,3.7,0.4,5-0.7c0.7-0.6,0.8-1.5,0.8-2.4c0-0.9-0.1-1.8,0.3-2.6
			c0.4-0.8,1.5-1.2,2.2-0.6c0.4,0.4,0.4,1,0.4,1.6c-0.1,2.5-0.1,5-0.2,7.5c0,1.3,0.1,2.9,1.3,3.4c1,0.4,2.1-0.2,3.2-0.1
			c0.9,0.2,1.6,0.9,1.9,1.8c0.3,0.8,0.4,1.8,0.4,2.7c0.1,5.1-0.1,10.1-0.5,15.2c-0.1,1.4-0.3,2.9,0.3,4.1c0.8,1.6,3.3,2.6,4.7,1.4
			c1.6-1.4,1.9-4.2,2-6.2c0.2-9.1,0.4-18.2,0.6-27.2c0.1-4.5-0.1-9.6-3.4-12.6c-2.8-2.6-7.1-2.7-10.9-2.8
			c-18.1-0.1-36.2-0.2-54.3-0.3c-9,0-18-0.3-27-0.1c-3.3,0.1-6.5,0.9-9.9,0.9c-4.5,0-9.1,0.1-13.6,0.1
			C217.9,350.9,207.7,350.9,197.5,351z"/>
		<path fill="#FF6000" d="M319.1,321l-109-0.8c-2,0.3-3.7,2-4,4c-0.3,2,0.7,4.1,2.5,5.1c1.8,0.9,4.2,0.6,5.6-0.8
			c0,1.1,1.1,2.2,2.2,2.4c1.1,0.2,2.3-0.4,2.8-1.4c0.2,0.6,0.8,1,1.4,1.1c0.6,0,1.3-0.3,1.6-0.9c0,1.7,1.2,3.2,2.7,3.9
			c1.5,0.7,3.3,0.5,4.9-0.1c1.6-0.6,2.9-1.7,4-2.9c0.9,0.6,1.5,1,2.5,1.3c1,0.2,2.1,0.2,3-0.3c0.9-0.5,1.7-1.3,1.8-2.4
			c0.4,0.7,1.2,1.1,2,1.2c0.8,0.1,1.6-0.3,2.1-0.8c1.1,1.7,3.1,2.8,5.2,2.8c2,0,4.1-1,5.2-2.7c0.6,0.9,1.6,1.4,2.7,1.4
			c1,0,2.1-0.6,2.6-1.5c1.7,2,4.2,3.4,6.8,3.5c2.6,0.1,5.3-1.4,6.5-3.7c0.6,1,2.2,2,3.4,2c1.2,0,2.4-0.7,3.1-1.7
			c1,2.3,3.5,3.9,6,3.8c2.5-0.1,4.9-1.9,5.7-4.3c0.7,0.6,1.5,1.2,2.4,1.4c0.9,0.2,2-0.2,2.3-1.1c1,1.7,2.8,2.9,4.8,3.1
			c2,0.2,4-0.7,5.2-2.3c0.4,0.9,1.5,1.4,2.4,1.2c1-0.2,1.7-1.1,1.7-2.1c1.4,1.8,3.8,2.6,6,2.1c2.2-0.5,3.9-2.4,4.4-4.6
			C321.9,324.7,321,322.3,319.1,321z"/>
		<path fill="#666B46" d="M204.1,315c0,1.8,0.1,3.9,1.3,5.3c1.5,1.9,4.3,2,6.7,2.1c34.2,0.4,68.5,0.8,102.7,1.2
			c2.4,0,5.1-0.1,6.6-1.9c1.1-1.3,1.3-3.2,1.4-4.9c0.2-2.9,0.3-5.8,0.4-8.7c0.1-2.3,0.1-4.7-1.1-6.7c-2-3.2-6.5-3.6-10.2-3.7
			c-32.9-0.7-65.8-1.4-98.7-2.2c-3.7-0.1-8.5,0.7-9.3,5C203,304.9,204,310.4,204.1,315z"/>
		<g>
			<path fill="#454933" d="M208.9,343.4c-0.2,0.5-0.2,1-0.1,1.5c0.2,0.6,0.6,1,1.1,1.4c1.1,0.7,2.6,0.7,3.6,0
				c1.1-0.7,1.5-2.2,1.1-3.4C213.5,340,209.7,340.9,208.9,343.4z"/>
			<path fill="#454933" d="M234.9,336.2c-0.2,0.5-0.2,1-0.1,1.5c0.2,0.6,0.6,1,1.1,1.4c1.1,0.7,2.6,0.7,3.6,0
				c1.1-0.7,1.5-2.2,1.1-3.4C239.5,332.7,235.8,333.7,234.9,336.2z"/>
			<path fill="#454933" d="M264,337.3c-0.2,0.5-0.2,1-0.1,1.5c0.2,0.6,0.6,1,1.1,1.4c1.1,0.7,2.6,0.7,3.6,0c1.1-0.7,1.5-2.2,1.1-3.4
				C268.6,333.9,264.9,334.8,264,337.3z"/>
			<path fill="#454933" d="M295.9,345.1c-0.2,0.5-0.2,1-0.1,1.5c0.2,0.6,0.6,1,1.1,1.4c1.1,0.7,2.6,0.7,3.6,0
				c1.1-0.7,1.5-2.2,1.1-3.4C300.4,341.7,296.7,342.6,295.9,345.1z"/>
			<path fill="#454933" d="M310.3,311.8c-0.2,0.5-0.2,1-0.1,1.5c0.2,0.6,0.6,1,1.1,1.4c1.1,0.7,2.6,0.7,3.6,0
				c1.1-0.7,1.5-2.2,1.1-3.4C314.9,308.4,311.2,309.4,310.3,311.8z"/>
			<path fill="#454933" d="M292.8,304.4c-0.2,0.5-0.2,1-0.1,1.5c0.2,0.6,0.6,1,1.1,1.4c1.1,0.7,2.6,0.7,3.6,0s1.5-2.2,1.1-3.4
				C297.4,301,293.7,301.9,292.8,304.4z"/>
			<path fill="#454933" d="M249,301.5c-0.2,0.5-0.2,1-0.1,1.5c0.2,0.6,0.6,1,1.1,1.4c1.1,0.7,2.6,0.7,3.6,0c1.1-0.7,1.5-2.2,1.1-3.4
				C253.5,298.1,249.8,299.1,249,301.5z"/>
			<path fill="#454933" d="M229.6,313c-0.2,0.5-0.2,1-0.1,1.5c0.2,0.6,0.6,1,1.1,1.4c1.1,0.7,2.6,0.7,3.6,0c1.1-0.7,1.5-2.2,1.1-3.4
				C234.2,309.6,230.4,310.5,229.6,313z"/>
			<path fill="#454933" d="M210,301.5c-0.2,0.5-0.2,1-0.1,1.5c0.2,0.6,0.6,1,1.1,1.4c1.1,0.7,2.6,0.7,3.6,0c1.1-0.7,1.5-2.2,1.1-3.4
				C214.5,298.1,210.8,299.1,210,301.5z"/>
			<path fill="#454933" d="M274.7,314.7c-0.2,0.5-0.2,1-0.1,1.5c0.2,0.6,0.6,1,1.1,1.4c1.1,0.7,2.6,0.7,3.6,0
				c1.1-0.7,1.5-2.2,1.1-3.4C279.2,311.3,275.5,312.2,274.7,314.7z"/>
			<path fill="#454933" d="M214.1,339.8c0.6,0.4,1.6,0.3,2-0.3c0.2-0.3,0.3-0.6,0.3-1c0.1-1.1-0.8-2.2-2-1.7
				C213.3,337.3,212.9,339,214.1,339.8z"/>
			<path fill="#454933" d="M230.1,343.4c0.6,0.4,1.6,0.3,2-0.3c0.2-0.3,0.3-0.6,0.3-1c0.1-1.1-0.8-2.2-2-1.7
				C229.3,340.9,228.9,342.6,230.1,343.4z"/>
			<path fill="#454933" d="M254.2,348.2c0.6,0.4,1.6,0.3,2-0.3c0.2-0.3,0.3-0.6,0.3-1c0.1-1.1-0.8-2.2-2-1.7
				C253.4,345.8,253,347.5,254.2,348.2z"/>
			<path fill="#454933" d="M301.8,336.4c0.6,0.4,1.6,0.3,2-0.3c0.2-0.3,0.3-0.6,0.3-1c0.1-1.1-0.8-2.2-2-1.7
				C301,334,300.6,335.7,301.8,336.4z"/>
			<path fill="#454933" d="M271.8,338.1c0.6,0.4,1.6,0.3,2-0.3c0.2-0.3,0.3-0.6,0.3-1c0.1-1.1-0.8-2.2-2-1.7
				C271,335.6,270.6,337.3,271.8,338.1z"/>
			<path fill="#454933" d="M287.4,344.2c0.6,0.4,1.6,0.3,2-0.3c0.2-0.3,0.3-0.6,0.3-1c0.1-1.1-0.8-2.2-2-1.7
				C286.6,341.7,286.2,343.4,287.4,344.2z"/>
			<path fill="#454933" d="M311.2,343.4c0.6,0.4,1.6,0.3,2-0.3c0.2-0.3,0.3-0.6,0.3-1c0.1-1.1-0.8-2.2-2-1.7
				C310.4,340.9,310,342.6,311.2,343.4z"/>
			<path fill="#454933" d="M304.8,316c0.6,0.4,1.6,0.3,2-0.3c0.2-0.3,0.3-0.6,0.3-1c0.1-1.1-0.8-2.2-2-1.7
				C304.1,313.6,303.7,315.3,304.8,316z"/>
			<path fill="#454933" d="M288.9,311c0.6,0.4,1.6,0.3,2-0.3c0.2-0.3,0.3-0.6,0.3-1c0.1-1.1-0.8-2.2-2-1.7
				C288.2,308.5,287.7,310.2,288.9,311z"/>
			<path fill="#454933" d="M308.4,304.7c0.6,0.4,1.6,0.3,2-0.3c0.2-0.3,0.3-0.6,0.3-1c0.1-1.1-0.8-2.2-2-1.7
				C307.6,302.2,307.2,303.9,308.4,304.7z"/>
			<path fill="#454933" d="M278.2,303.5c0.6,0.4,1.6,0.3,2-0.3c0.2-0.3,0.3-0.6,0.3-1c0.1-1.1-0.8-2.2-2-1.7
				C277.4,301,277,302.7,278.2,303.5z"/>
			<path fill="#454933" d="M249.8,316.6c0.6,0.4,1.6,0.3,2-0.3c0.2-0.3,0.3-0.6,0.3-1c0.1-1.1-0.8-2.2-2-1.7
				C249,314.2,248.6,315.9,249.8,316.6z"/>
			<path fill="#454933" d="M224.7,309.3c0.6,0.4,1.6,0.3,2-0.3c0.2-0.3,0.3-0.6,0.3-1c0.1-1.1-0.8-2.2-2-1.7
				C224,306.8,223.6,308.5,224.7,309.3z"/>
			<path fill="#454933" d="M269.7,314.4c0.6,0.4,1.6,0.3,2-0.3c0.2-0.3,0.3-0.6,0.3-1c0.1-1.1-0.8-2.2-2-1.7
				C268.9,311.9,268.5,313.6,269.7,314.4z"/>
			<path fill="#454933" d="M237.3,305.2c0.6,0.4,1.6,0.3,2-0.3c0.2-0.3,0.3-0.6,0.3-1c0.1-1.1-0.8-2.2-2-1.7
				C236.5,302.7,236.1,304.4,237.3,305.2z"/>
			<path fill="#454933" d="M218.4,315.5c0.6,0.4,1.6,0.3,2-0.3c0.2-0.3,0.3-0.6,0.3-1c0.1-1.1-0.8-2.2-2-1.7
				C217.6,313,217.2,314.7,218.4,315.5z"/>
			<path fill="#454933" d="M259.6,308c0.6,0.4,1.6,0.3,2-0.3c0.2-0.3,0.3-0.6,0.3-1c0.1-1.1-0.8-2.2-2-1.7
				C258.8,305.5,258.4,307.2,259.6,308z"/>
		</g>
		<path fill="#FF6000" d="M225,291.2c-2.9,0-5.9-0.1-8.8,0c-1.4,0-2.7,0-4,0.3c-1.5,0.3-2.9,0-4.4,0c-1.5-0.1-3.2,0.2-4.1,1.4
			c-0.7,0.9-0.7,2.1-0.7,3.2c0,0.9,0,1.8,0.3,2.7c0.3,0.9,1,1.6,1.9,1.8c1.6,0.2,2.7-1.4,4.1-2c1.1-0.4,2.4-0.1,3.3,0.7
			c0.8,0.8,1.1,1.9,2,2.6c0.8,0.6,2,0.7,3,0.3c1-0.4,1.8-1.2,2.3-2.1c0.4-0.6,0.8-1.4,1.5-1.7c0.4-0.2,0.9-0.2,1.4-0.1
			c1.5,0.1,3,0.1,4.5,0.2c1.3,0.1,2.7,0.1,3.9,0.9c0.7,0.5,1.3,1.2,2.1,1.7c0.7,0.5,1.8,0.7,2.5,0.1c0.6-0.5,0.6-1.4,1-2.1
			c0.9-1.8,3.3-0.8,4.8-0.6c1.9,0.3,4,1.1,4.8,3c0.6,1.4,0.3,2.9,0.3,4.4c0,1.5,0.5,3.2,1.9,3.7c1.8,0.6,3.5-1.3,4.2-3.2
			c0.6-1.8,0.8-5.1,3.1-5.5c0.9-0.1,1.8,0,2.6,0.2c0.9,0.1,1.8,0.2,2.6-0.2c0.6-0.3,1.1-0.8,1.7-1.2c1.3-0.7,2.8-0.4,4.2-0.2
			c1.7,0.3,3.5,0.7,5.2,1c1.3,0.2,2.6,0,3.9,0.1c3.4,0.3,6.9-0.1,10.1-1.1c1-0.3,2.1-0.7,3.1-0.3c1,0.4,1.6,1.3,2.5,1.9
			c1.2,0.8,2.8,0.6,4.2,0.1c1.4-0.5,2.7-1.2,4.1-1.3c1.3-0.2,2.7,0.1,3.7,0.9c1,0.8,1.7,2,1.7,3.3c0,0.5-0.1,1-0.1,1.5
			c0,0.5,0.2,1,0.7,1.3c0.5,0.3,1.2,0,1.6-0.4s0.5-1.1,0.5-1.6c0.1-0.6,0-1.3,0.3-1.8c0.3-0.6,1-0.9,1.6-0.6
			c0.5,0.3,0.5,0.9,0.5,1.5c0,1.5,0,3,0,4.6c0,0.5,0,1.1,0.2,1.6s0.6,1,1.2,1c1,0.1,1.6-1.1,1.8-2.1c0.2-0.9,0.2-1.9,0.2-2.8
			c0-0.8-0.2-1.7,0.2-2.5c1.3-2.2,4.7-0.2,6.8-0.8c2.2-0.6,3.5-3.3,2.8-5.4c-1.7-5.4-8.8-5.2-13.2-5.3c-6.9-0.1-13.8-0.1-20.6-0.2
			c-13.8-0.1-27.6-0.2-41.4-0.4C240.5,291.3,232.7,291.2,225,291.2z"/>
		<g>
			<g>
				<path fill="#FCA53D" d="M299.4,327.9c0.3,0,0.7,0,0.9-0.3c0.4-0.4,0.3-1.4,0.1-1.9c-0.3-0.6-1.2-0.7-1.7-0.4
					c-0.5,0.3-0.8,0.9-0.8,1.5C297.9,327.7,298.6,327.9,299.4,327.9z"/>
				<path fill="#FCA53D" d="M316.9,327.6c0.3,0,0.7,0,0.9-0.3c0.4-0.4,0.3-1.4,0.1-1.9c-0.3-0.6-1.2-0.7-1.7-0.4
					c-0.5,0.3-0.8,0.9-0.8,1.5C315.5,327.4,316.1,327.7,316.9,327.6z"/>
				<path fill="#FCA53D" d="M266.6,330.6c0.3,0,0.7,0,0.9-0.3c0.4-0.4,0.3-1.4,0.1-1.9c-0.3-0.6-1.2-0.7-1.7-0.4
					c-0.5,0.3-0.8,0.9-0.8,1.5C265.1,330.4,265.8,330.6,266.6,330.6z"/>
				<path fill="#FCA53D" d="M283.4,329.2c0.3,0,0.7,0,0.9-0.3c0.4-0.4,0.3-1.4,0.1-1.9c-0.3-0.6-1.2-0.7-1.7-0.4
					c-0.5,0.3-0.8,0.9-0.8,1.5C281.9,329,282.6,329.2,283.4,329.2z"/>
				<path fill="#FCA53D" d="M250.3,329.2c0.3,0,0.7,0,0.9-0.3c0.4-0.4,0.3-1.4,0.1-1.9c-0.3-0.6-1.2-0.7-1.7-0.4
					c-0.5,0.3-0.8,0.9-0.8,1.5C248.8,329,249.5,329.2,250.3,329.2z"/>
				<path fill="#FCA53D" d="M229.6,327c0.3,0,0.7,0,0.9-0.3c0.4-0.4,0.3-1.4,0.1-1.9c-0.3-0.6-1.2-0.7-1.7-0.4
					c-0.5,0.3-0.8,0.9-0.8,1.5C228.1,326.8,228.8,327,229.6,327z"/>
				<path fill="#FCA53D" d="M254.9,326.8c0.3,0,0.7,0,0.9-0.3c0.4-0.4,0.3-1.4,0.1-1.9c-0.3-0.6-1.2-0.7-1.7-0.4
					c-0.5,0.3-0.8,0.9-0.8,1.5C253.5,326.6,254.2,326.8,254.9,326.8z"/>
				<path fill="#FCA53D" d="M302.7,329c0.2,0,0.4,0,0.6-0.2c0.3-0.3,0.2-0.9,0-1.2c-0.2-0.4-0.8-0.4-1.1-0.3c-0.3,0.2-0.5,0.6-0.5,1
					C301.8,328.9,302.2,329.1,302.7,329z"/>
				<path fill="#FCA53D" d="M311.5,327.6c0.2,0,0.4,0,0.6-0.2c0.3-0.3,0.2-0.9,0-1.2c-0.2-0.4-0.8-0.4-1.1-0.3
					c-0.3,0.2-0.5,0.6-0.5,1C310.5,327.5,311,327.6,311.5,327.6z"/>
				<path fill="#FCA53D" d="M286.1,330.8c0.2,0,0.4,0,0.6-0.2c0.3-0.3,0.2-0.9,0-1.2c-0.2-0.4-0.8-0.4-1.1-0.3
					c-0.3,0.2-0.5,0.6-0.5,1C285.2,330.7,285.6,330.8,286.1,330.8z"/>
				<path fill="#FCA53D" d="M270.3,327.2c0.2,0,0.4,0,0.6-0.2c0.3-0.3,0.2-0.9,0-1.2c-0.2-0.4-0.8-0.4-1.1-0.3
					c-0.3,0.2-0.5,0.6-0.5,1C269.4,327.1,269.8,327.2,270.3,327.2z"/>
				<path fill="#FCA53D" d="M246.3,326.5c0.2,0,0.4,0,0.6-0.2c0.3-0.3,0.2-0.9,0-1.2c-0.2-0.4-0.8-0.4-1.1-0.3
					c-0.3,0.2-0.5,0.6-0.5,1C245.3,326.4,245.7,326.5,246.3,326.5z"/>
				<path fill="#FCA53D" d="M218.7,327.9c0.2,0,0.4,0,0.6-0.2c0.3-0.3,0.2-0.9,0-1.2c-0.2-0.4-0.8-0.4-1.1-0.3
					c-0.3,0.2-0.5,0.6-0.5,1C217.7,327.7,218.2,327.9,218.7,327.9z"/>
				<path fill="#FCA53D" d="M230.7,329.7c0.2,0,0.4,0,0.6-0.2c0.3-0.3,0.2-0.9,0-1.2c-0.2-0.4-0.8-0.4-1.1-0.3
					c-0.3,0.2-0.5,0.6-0.5,1C229.7,329.5,230.2,329.7,230.7,329.7z"/>
				<path fill="#FCA53D" d="M211.1,326.5c0.2,0,0.4,0,0.6-0.2c0.3-0.3,0.2-0.9,0-1.2c-0.2-0.4-0.8-0.4-1.1-0.3
					c-0.3,0.2-0.5,0.6-0.5,1C210.2,326.4,210.6,326.5,211.1,326.5z"/>
				<path fill="#FCA53D" d="M289.5,325.8c0.2,0,0.4,0,0.6-0.2c0.3-0.3,0.2-0.9,0-1.2c-0.2-0.4-0.8-0.4-1.1-0.3
					c-0.3,0.2-0.5,0.6-0.5,1C288.5,325.7,289,325.9,289.5,325.8z"/>
			</g>
		</g>
		<g>
			<path fill="#FFBF9B" d="M252.9,363.5c-0.1-0.1-0.1-0.2-0.2-0.2c-0.2-0.2-0.3-0.3-0.5-0.3c-0.1,0-0.2,0-0.3-0.1
				c-0.1,0-0.1-0.1-0.2-0.1c-0.1-0.1-0.2-0.2-0.2-0.2c-0.2-0.3-0.4-0.5-0.7-0.5c-0.2-0.1-0.3-0.1-0.5,0c-0.2,0-0.3,0.1-0.5,0.1
				c-0.3,0.2-0.5,0.4-0.6,0.7c-0.1,0.3-0.1,0.7,0.1,0.9c0.3,0.4,0.6,0.8,1,1.1c0.2,0.1,0.4,0.2,0.7,0.3c0.1,0.1,0.3,0.1,0.5,0.1
				c0.2,0.1,0.3,0.1,0.5,0c0.2,0,0.3-0.1,0.5-0.1c0.1-0.1,0.3-0.2,0.3-0.3c0.1-0.1,0.2-0.3,0.2-0.4
				C253.1,364.1,253.1,363.7,252.9,363.5z"/>
			<path fill="#FFBF9B" d="M263.9,364l-0.2-0.2c-0.2-0.1-0.4-0.2-0.6-0.2c-0.2,0-0.3,0-0.5,0c-0.3,0-0.5,0.1-0.8,0.1
				c-0.3,0.1-0.5,0.2-0.7,0.3c-0.2,0.1-0.4,0.3-0.7,0.5c-0.1,0.1-0.2,0.2-0.3,0.4c-0.1,0.1-0.1,0.3-0.1,0.5c0,0.3,0.1,0.7,0.4,0.9
				c0.2,0.2,0.5,0.4,0.9,0.4c0.1,0,0.2,0,0.3,0c0.1,0,0.2-0.1,0.3-0.2c0.1-0.1,0.2-0.2,0.4-0.2c0.1,0,0.2-0.1,0.3-0.1
				c0.2,0,0.3,0,0.5,0c0.2,0,0.3,0,0.5-0.1c0.2,0,0.3-0.1,0.4-0.3c0.2-0.2,0.4-0.6,0.4-0.9C264.3,364.6,264.2,364.3,263.9,364z"/>
			<path fill="#FFBF9B" d="M223.6,375.9c-0.1-0.2-0.2-0.4-0.3-0.5c-0.2-0.2-0.5-0.4-0.9-0.4c-0.4,0-0.8,0-1.2,0
				c-0.2,0-0.3,0-0.5,0.1c-0.2,0-0.3,0.1-0.4,0.3c-0.1,0.1-0.2,0.2-0.3,0.4c-0.1,0.1-0.1,0.3-0.1,0.5c0,0.1,0,0.2,0,0.3
				c0.1,0.2,0.2,0.4,0.3,0.5c0.2,0.2,0.5,0.4,0.9,0.4c0.4,0,0.8,0,1.2,0c0.2,0,0.3,0,0.5-0.1c0.2,0,0.3-0.1,0.4-0.3
				c0.1-0.1,0.2-0.2,0.3-0.4c0.1-0.1,0.1-0.3,0.1-0.5C223.6,376.1,223.6,376,223.6,375.9z"/>
			<path fill="#FFBF9B" d="M219.6,367.5c0-0.1-0.1-0.2-0.1-0.3c-0.1-0.2-0.3-0.3-0.4-0.4c-0.4-0.2-0.7-0.5-1.1-0.7
				c-0.1-0.1-0.3-0.1-0.5-0.1c-0.2,0-0.3,0-0.5,0c-0.2,0-0.3,0.1-0.4,0.2c-0.1,0.1-0.2,0.2-0.3,0.3c0,0.1-0.1,0.2-0.1,0.3
				c-0.1,0.2-0.1,0.4,0,0.6c0,0.1,0.1,0.2,0.1,0.3c0.1,0.2,0.3,0.3,0.4,0.4c0.4,0.2,0.7,0.5,1.1,0.7c0.1,0.1,0.3,0.1,0.5,0.1
				c0.2,0,0.3,0,0.5,0c0.2,0,0.3-0.1,0.4-0.2c0.1-0.1,0.2-0.2,0.3-0.3c0-0.1,0.1-0.2,0.1-0.3C219.7,367.9,219.7,367.7,219.6,367.5z"
				/>
			<path fill="#FFBF9B" d="M226.9,360.2c0-0.2-0.1-0.3-0.1-0.5c-0.1-0.1-0.2-0.3-0.3-0.3c-0.1-0.1-0.3-0.2-0.4-0.2
				c-0.1,0-0.2,0-0.3,0c-0.2,0-0.4,0.1-0.6,0.2c-0.1,0.1-0.2,0.1-0.2,0.2c-0.2,0.2-0.3,0.3-0.3,0.5c-0.1,0.4-0.2,0.7-0.2,1.1
				c-0.1,0.2-0.1,0.3,0,0.5c0,0.2,0.1,0.3,0.1,0.5c0.1,0.1,0.2,0.3,0.3,0.3c0.1,0.1,0.3,0.2,0.4,0.2c0.1,0,0.2,0,0.3,0
				c0.2,0,0.4-0.1,0.6-0.2c0.1-0.1,0.2-0.1,0.2-0.2c0.2-0.2,0.3-0.3,0.3-0.5c0.1-0.4,0.2-0.7,0.2-1.1
				C226.9,360.5,226.9,360.3,226.9,360.2z"/>
			<path fill="#FFBF9B" d="M259.5,383.7c-0.1-0.2-0.2-0.4-0.3-0.5c-0.1-0.1-0.2-0.2-0.3-0.3c-0.2-0.1-0.4-0.3-0.6-0.4
				c-0.2-0.1-0.4-0.2-0.6-0.3c-0.1-0.1-0.3-0.1-0.4-0.1c-0.3-0.1-0.7,0-0.9,0.1c-0.1,0.1-0.3,0.2-0.3,0.3c-0.1,0.1-0.2,0.3-0.2,0.4
				c-0.1,0.3-0.1,0.7,0.1,0.9c0.2,0.3,0.4,0.5,0.7,0.6c0.1,0,0.2,0.1,0.3,0.1c0.1,0.1,0.2,0.1,0.3,0.2c0.1,0.1,0.2,0.1,0.3,0.2
				c0.1,0.1,0.2,0.2,0.4,0.3c0.1,0.1,0.3,0.1,0.5,0.1c0.2,0,0.3,0,0.5-0.1c0.2,0,0.3-0.1,0.4-0.3c0.2-0.2,0.4-0.5,0.4-0.9
				C259.5,383.9,259.5,383.8,259.5,383.7z"/>
			<path fill="#FFBF9B" d="M294.6,356.8c-0.3-0.5-0.6-1-0.9-1.5c-0.2-0.3-0.4-0.5-0.7-0.6c-0.2-0.1-0.3-0.1-0.5,0
				c-0.2,0-0.3,0.1-0.5,0.1c-0.3,0.2-0.5,0.4-0.6,0.7c-0.1,0.3-0.1,0.7,0.1,0.9c0.3,0.5,0.6,1,0.9,1.5c0.2,0.3,0.4,0.5,0.7,0.6
				c0.2,0.1,0.3,0.1,0.5,0c0.2,0,0.3-0.1,0.5-0.1c0.3-0.2,0.5-0.4,0.6-0.7C294.8,357.4,294.8,357.1,294.6,356.8z"/>
			<path fill="#FFBF9B" d="M301.6,361.4c0-0.1-0.1-0.2-0.1-0.3c-0.1-0.2-0.3-0.3-0.4-0.4c-0.1,0-0.2-0.1-0.3-0.1
				c-0.2-0.1-0.4-0.1-0.6,0l-1.2,0.5c-0.2,0-0.3,0.1-0.4,0.2c-0.1,0.1-0.2,0.2-0.3,0.3c-0.1,0.1-0.1,0.3-0.1,0.5c0,0.2,0,0.3,0,0.5
				c0,0.1,0.1,0.2,0.1,0.3c0.1,0.2,0.3,0.3,0.4,0.4c0.1,0,0.2,0.1,0.3,0.1c0.2,0.1,0.4,0.1,0.6,0c0.4-0.2,0.8-0.3,1.2-0.5
				c0.2,0,0.3-0.1,0.4-0.2c0.1-0.1,0.2-0.2,0.3-0.3c0.1-0.1,0.1-0.3,0.1-0.5C301.7,361.7,301.7,361.5,301.6,361.4z"/>
			<path fill="#FFBF9B" d="M322.4,357.6c0-0.2,0-0.3-0.1-0.5c0-0.2-0.1-0.3-0.3-0.4c-0.1-0.1-0.2-0.2-0.4-0.3
				c-0.1-0.1-0.3-0.1-0.5-0.1c-0.1,0-0.2,0-0.3,0c-0.2,0.1-0.4,0.2-0.5,0.3l-0.2,0.2c-0.1,0.2-0.2,0.4-0.2,0.6
				c0,0.4,0.1,0.7,0.1,1.1c0,0.2,0,0.3,0.1,0.5c0,0.2,0.1,0.3,0.3,0.4c0.1,0.1,0.2,0.2,0.4,0.3c0.1,0.1,0.3,0.1,0.5,0.1
				c0.1,0,0.2,0,0.3,0c0.2-0.1,0.4-0.2,0.5-0.3c0.1-0.1,0.1-0.2,0.2-0.2c0.1-0.2,0.2-0.4,0.2-0.6C322.5,358.3,322.4,358,322.4,357.6
				z"/>
			<path fill="#FFBF9B" d="M321.3,375c-0.2-0.3-0.4-0.5-0.7-0.6c-0.6-0.2-1.3-0.3-1.9-0.5c-0.3-0.1-0.7,0-0.9,0.1
				c-0.3,0.1-0.5,0.4-0.6,0.7c-0.1,0.3-0.1,0.7,0.1,0.9c0.2,0.3,0.4,0.5,0.7,0.6c0.6,0.2,1.3,0.3,1.9,0.5c0.3,0.1,0.7,0,0.9-0.1
				c0.3-0.1,0.5-0.4,0.6-0.7C321.5,375.6,321.5,375.3,321.3,375z"/>
			<path fill="#FFBF9B" d="M337.8,370.2l-0.8-1.4c-0.1-0.1-0.2-0.3-0.3-0.3c-0.1-0.1-0.3-0.2-0.4-0.2c-0.2-0.1-0.3-0.1-0.5,0
				c-0.2,0-0.3,0.1-0.5,0.1c-0.3,0.2-0.5,0.4-0.6,0.7c-0.1,0.3,0,0.6,0.1,0.9c0.3,0.5,0.5,0.9,0.8,1.4c0.1,0.1,0.2,0.3,0.3,0.3
				c0.1,0.1,0.3,0.2,0.4,0.2c0.2,0.1,0.3,0.1,0.5,0c0.2,0,0.3-0.1,0.5-0.1c0.3-0.2,0.5-0.4,0.6-0.7C338,370.8,338,370.5,337.8,370.2
				z"/>
			<path fill="#FFBF9B" d="M341.5,357.2c0-0.2-0.1-0.3-0.1-0.5c-0.1-0.1-0.2-0.3-0.3-0.3c-0.1-0.1-0.3-0.2-0.4-0.2
				c-0.1,0-0.2,0-0.3,0c-0.2,0-0.4,0.1-0.6,0.2c-0.1,0.1-0.2,0.1-0.2,0.2c-0.2,0.2-0.3,0.3-0.3,0.5c-0.1,0.4-0.3,0.9-0.4,1.3
				c-0.1,0.2-0.1,0.3,0,0.5c0,0.2,0.1,0.3,0.1,0.5c0.1,0.1,0.2,0.3,0.3,0.3c0.1,0.1,0.3,0.2,0.4,0.2c0.1,0,0.2,0,0.3,0
				c0.2,0,0.4-0.1,0.6-0.2c0.1-0.1,0.2-0.1,0.2-0.2c0.2-0.2,0.3-0.3,0.3-0.5c0.1-0.4,0.3-0.9,0.4-1.3
				C341.6,357.5,341.6,357.4,341.5,357.2z"/>
			<path fill="#FFBF9B" d="M263.2,353.3c-0.2-0.2-0.3-0.5-0.5-0.7c-0.1-0.1-0.2-0.3-0.3-0.3c-0.1-0.1-0.3-0.2-0.4-0.2
				c-0.2-0.1-0.3-0.1-0.5,0c-0.2,0-0.3,0.1-0.5,0.1c-0.1,0.1-0.2,0.1-0.2,0.2c-0.2,0.2-0.3,0.3-0.3,0.5c0,0.1,0,0.2,0,0.3
				c0,0.2,0.1,0.4,0.2,0.6c0.2,0.2,0.3,0.5,0.5,0.7c0.1,0.1,0.2,0.3,0.3,0.3c0.1,0.1,0.3,0.2,0.4,0.2c0.2,0.1,0.3,0.1,0.5,0
				c0.2,0,0.3-0.1,0.5-0.1c0.1-0.1,0.2-0.1,0.2-0.2c0.2-0.2,0.3-0.3,0.3-0.5c0-0.1,0-0.2,0-0.3C263.4,353.7,263.3,353.4,263.2,353.3
				z"/>
			<path fill="#FFBF9B" d="M194,366c0-0.2-0.1-0.3-0.1-0.5c-0.1-0.1-0.2-0.3-0.3-0.3c-0.1-0.1-0.3-0.2-0.4-0.2c-0.1,0-0.2,0-0.3,0
				c-0.2,0-0.4,0.1-0.6,0.2c-0.1,0.1-0.2,0.1-0.2,0.2c-0.2,0.2-0.3,0.3-0.3,0.5c-0.1,0.3-0.2,0.6-0.2,0.9c-0.1,0.2-0.1,0.3,0,0.5
				c0,0.2,0.1,0.3,0.1,0.5c0.1,0.1,0.2,0.3,0.3,0.3c0.1,0.1,0.3,0.2,0.4,0.2c0.1,0,0.2,0,0.3,0c0.2,0,0.4-0.1,0.6-0.2
				c0.1-0.1,0.2-0.1,0.2-0.2c0.2-0.2,0.3-0.3,0.3-0.5c0.1-0.3,0.2-0.6,0.2-0.9C194,366.3,194,366.1,194,366z"/>
			<path fill="#FFBF9B" d="M199,357.8c-0.3-0.3-0.7-0.6-1.1-0.7c-0.2-0.1-0.5-0.2-0.7-0.3c-0.3-0.1-0.5-0.1-0.8-0.1
				c-0.2,0-0.3,0-0.5,0.1c-0.2,0-0.3,0.1-0.4,0.3c-0.1,0.1-0.2,0.2-0.3,0.4c-0.1,0.1-0.1,0.3-0.1,0.5c0,0.3,0.1,0.6,0.4,0.9l0.2,0.2
				c0.2,0.1,0.4,0.1,0.5,0.2c0.2,0,0.3,0.1,0.5,0.1c0.1,0.1,0.3,0.1,0.4,0.2c0,0,0,0,0.1,0.1c0.2,0.2,0.5,0.4,0.9,0.4
				c0.3,0,0.7-0.1,0.9-0.4c0.2-0.2,0.4-0.5,0.4-0.9C199.3,358.3,199.2,358,199,357.8z"/>
			<path fill="#FFBF9B" d="M190.2,377.6c0-0.2-0.1-0.3-0.1-0.5c-0.1-0.1-0.2-0.3-0.3-0.3c-0.1-0.1-0.3-0.2-0.4-0.2
				c-0.1,0-0.2,0-0.3,0c-0.2,0-0.4,0.1-0.6,0.2c-0.1,0.1-0.2,0.1-0.2,0.2c-0.2,0.2-0.3,0.3-0.3,0.5c-0.1,0.2-0.2,0.4-0.2,0.6
				c-0.1,0.2-0.1,0.3,0,0.5c0,0.2,0.1,0.3,0.1,0.5c0.1,0.1,0.2,0.3,0.3,0.3c0.1,0.1,0.3,0.2,0.4,0.2c0.1,0,0.2,0,0.3,0
				c0.2,0,0.4-0.1,0.6-0.2c0.1-0.1,0.2-0.1,0.2-0.2c0.2-0.2,0.3-0.3,0.3-0.5c0.1-0.2,0.2-0.4,0.2-0.6
				C190.2,377.9,190.2,377.7,190.2,377.6z"/>
		</g>
	</g>
	<g>
		<path fill="#666B46" d="M192.8,425.5c3.1,1.5,5.8,4,7.4,7c0.8,1.5,2.4,2.4,4.1,2.4l127.6-1.1c2,0,3.8-1.3,4.4-3.2
			c0.7-2.3,1.9-4.4,3.6-6L192.8,425.5z"/>
		<path fill="#3F3C39" d="M349.1,421.1c0.1,0.1,0.2,0.1,0.3,0.2c2.2,1.4,1.8,4.9-1,4.9c-46.1,0.5-92.3,0.9-138.4,1.4
			c-7.2,0.1-14.4,0.1-21.6,0.2c-1.9,0-4,0-5.4-1.6c-4-4.3,4.5-4.7,6.4-4.8c5.7-0.2,11.4-0.3,17.1-0.4c11.5-0.3,23-0.4,34.5-0.5
			c8.1,0,16.3,0,24.4,0c3.2,0,6.6-0.3,9.8,0.2c3.1,0.5,6.5,0,9.6,0c6.9-0.2,13.8-0.3,20.7-0.4c13.2-0.2,26.5-0.3,39.7,0
			C346.5,420.4,347.9,420.5,349.1,421.1z"/>
	</g>
</g>
<g>
	<g>
		<g>
			<path fill="#FFC866" d="M392.7,307.3c-0.3,2.2-0.6,4.9-0.9,7.8c-0.1,0.9-0.2,1.8-0.3,2.7c-0.3,2.8-0.5,5.9-0.7,9.1
				c-0.1,0.9-0.1,1.7-0.2,2.6c-0.2,2.9-0.4,6-0.6,9c0,0.9-0.1,1.7-0.2,2.6c-0.2,3-0.3,6-0.5,8.9c0,0.9-0.1,1.7-0.1,2.6
				c-0.2,3.1-0.3,6.1-0.4,8.9c0,0.9-0.1,1.8-0.1,2.6c-0.1,2.2-0.2,4.3-0.3,6l-0.2,0.1l-6.8-0.6c0-0.4,0.1-0.8,0.1-1.2
				c0.1-0.8,0.1-1.7,0.2-2.6c0.2-2.6,0.3-5.6,0.5-8.9c0-0.8,0.1-1.7,0.1-2.6c0.1-2.8,0.2-5.8,0.3-8.8c0-0.8,0-1.7,0.1-2.6
				c0.1-2.9,0.1-5.8,0.1-8.7c0-0.8,0-1.7,0-2.5c0-3,0-5.9,0-8.6c0-0.9,0-1.7,0-2.5c0-4.1-0.1-7.8-0.2-10.7
				C386.7,308.6,388.6,308.5,392.7,307.3z"/>
			<path fill="#FF6000" d="M387.9,306.6c-0.6,0.5-1.5,0.3-2-0.3c-1.9-2.6-2.4-6.1-1.7-9.2c0.7-2.9,2.3-5.5,4.3-7.7
				c0.7-0.7,1.9-0.5,2.3,0.3c1.3,2.4,3.1,4.5,3.4,7.3c0.2,2.1-0.6,4.2-1.9,5.9C391.4,304.2,389.4,305.5,387.9,306.6z"/>
			<path fill="#FCA53D" d="M387.7,306.4c-0.4,0.3-1.1,0.2-1.4-0.2c-1.3-1.8-1.7-4.2-1.2-6.3c0.5-2,1.6-3.8,3-5.3
				c0.5-0.5,1.3-0.4,1.6,0.2c0.9,1.7,2.1,3.1,2.3,5c0.1,1.4-0.4,2.9-1.3,4C390.1,304.7,388.8,305.6,387.7,306.4z"/>
		</g>
		<path fill="#BC3156" d="M391.8,315.1c-0.1,0.9-0.2,1.8-0.3,2.7c-2.9,1.8-5.8,3.6-8.7,5.3c0-0.9,0-1.7,0-2.5
			C385.8,318.7,388.8,316.9,391.8,315.1z"/>
		<path fill="#BC3156" d="M390.8,326.8c-0.1,0.9-0.1,1.7-0.2,2.6c-2.6,1.6-5.2,3.2-7.9,4.8c0-0.8,0-1.7,0-2.5
			C385.5,330.1,388.2,328.5,390.8,326.8z"/>
		<path fill="#BC3156" d="M390.1,338.4c0,0.9-0.1,1.7-0.2,2.6c-2.4,1.5-4.9,3-7.3,4.5c0-0.8,0-1.7,0.1-2.6
			C385.1,341.5,387.6,339.9,390.1,338.4z"/>
		<path fill="#BC3156" d="M389.4,350c0,0.9-0.1,1.7-0.1,2.6c-2.4,1.4-4.7,2.9-7.1,4.3c0-0.8,0.1-1.7,0.1-2.6
			C384.7,352.9,387.1,351.4,389.4,350z"/>
		<path fill="#BC3156" d="M388.9,361.5c0,0.9-0.1,1.8-0.1,2.6c-2.4,1.5-4.8,2.9-7.2,4.4c0.1-0.8,0.1-1.7,0.2-2.6
			C384.2,364.4,386.5,362.9,388.9,361.5z"/>
	</g>
	<path fill="#8E935F" d="M408,366l-53.8,5.7c-1.6-0.6-2.2-2.6-1.9-4.3c0.2-1.7,1-3.2,1.3-4.9c0.1-0.8,0.2-1.7,0.2-2.5
		c0-1,0-1.9,0.2-2.9c0.1-0.3,0.2-0.7,0.3-1c0.9-2.6,3.7-4.2,6.4-4.7c2.7-0.5,5.5-0.2,8.3-0.2c5,0,9.9-1.1,14.6-2.9
		c3.4-1.3,6.8-2.9,10.5-3.2c3.7-0.3,7.8,1.1,9.3,4.5c0.6,1.4,0.8,2.9,1.1,4.3c0.1,0.6,0.3,1.2,0.6,1.8c0.1,0.3,0.2,0.5,0.4,0.8
		c0.8,1.4,2,2.6,2.9,4.1C409.2,362.3,409.5,364.7,408,366z"/>
	<g>
		<path fill="#666B46" d="M405.3,356.5c-0.4,0.2-0.8,0.3-1.2,0.4c-2.4,0.5-4.7,0-6.3-0.5c-0.7-0.2-1.3-0.4-2-0.7
			c-1.1-0.4-2.2-0.8-3.3-1c-3.5-0.8-7.3,0-10.3,2c-0.7,0.5-1.4,1.1-2.1,1.7c-1.9,1.6-3.8,3.2-6.5,3.6c-0.4,0.1-0.7,0.1-1.1,0.1
			c-2,0-3.9-0.7-5.7-1.5c-0.7-0.3-1.3-0.5-1.9-0.7c-3.6-1.2-7.6-1.1-11.2,0.1c0-1,0-1.9,0.2-2.9c3.9-1.1,8.1-1.1,11.8,0.2
			c0.7,0.2,1.4,0.5,2.1,0.8c1.9,0.8,3.7,1.5,5.5,1.2c1.9-0.3,3.4-1.6,5.1-3c0.7-0.6,1.5-1.3,2.3-1.8c3.5-2.4,8.2-3.4,12.4-2.5
			c1.3,0.3,2.5,0.7,3.6,1.1c0.7,0.2,1.3,0.4,1.9,0.6c2,0.6,3.6,0.8,4.9,0.5c0.3-0.1,0.6-0.2,0.9-0.3c0.1,0.6,0.3,1.2,0.6,1.8
			C405.1,356,405.2,356.3,405.3,356.5z"/>
		<path fill="#666B46" d="M384.5,360.6c2,1.1,4.6-1.5,2.4-2.8C385.1,356.8,382,359.3,384.5,360.6z"/>
		<path fill="#666B46" d="M388.9,357.6c0.2,0,0.5,0,0.7-0.1c0.2-0.1,0.3-0.4,0.2-0.6c0-0.2-0.2-0.4-0.4-0.5
			c-0.2-0.1-0.5-0.1-0.8-0.1c-0.4,0-0.7,0.2-0.6,0.6C388.2,357.2,388.5,357.5,388.9,357.6z"/>
		<path fill="#666B46" d="M360.8,355.2c0.2,0,0.5,0,0.7-0.1c0.2-0.1,0.3-0.4,0.2-0.6c0-0.2-0.2-0.4-0.4-0.5
			c-0.2-0.1-0.5-0.1-0.8-0.1c-0.4,0-0.7,0.2-0.6,0.6C360,354.8,360.3,355.1,360.8,355.2z"/>
		<path fill="#666B46" d="M395.7,350.1c0.2,0.5,0.6,0.9,1,1.2c0.3,0.2,0.7,0.4,1.1,0.4c0.4,0,0.8-0.1,1.1-0.4
			c0.4-0.4,0.4-1.1,0.3-1.7c-0.1-0.4-0.2-0.8-0.5-1.1c-0.3-0.3-0.7-0.3-1.1-0.4C396.2,347.9,395.2,348.7,395.7,350.1z"/>
		<path fill="#666B46" d="M361.9,363.5c0.2,0.5,0.6,0.9,1,1.2c0.3,0.2,0.7,0.4,1.1,0.4c0.4,0,0.8-0.1,1.1-0.4
			c0.4-0.4,0.4-1.1,0.3-1.7c-0.1-0.4-0.2-0.8-0.5-1.1c-0.3-0.3-0.7-0.3-1.1-0.4C362.3,361.3,361.4,362.1,361.9,363.5z"/>
		<path fill="#666B46" d="M391.1,349.2c0,0.2,0,0.3,0.1,0.5c0.1,0.2,0.3,0.3,0.5,0.3c0.6,0.1,1.2-0.1,1.5-0.6
			c0.5-0.7,0.2-2.1-0.8-2.1C391.6,347.3,391.2,348.6,391.1,349.2z"/>
	</g>
	<path fill="#666B46" d="M413.7,384.6l-67.1,2c-2.5-3.2-3.2-7.6-1.9-11.4c0.1-0.4,0.3-0.8,0.5-1.2c0.4-0.8,0.8-1.5,1.3-2.2
		c1.7-2.2,4-3.8,6.7-4.5c3.4-0.9,7-0.3,10.5,0c8.2,0.8,16.5,0,24.4-2.2c5.5-1.6,11.2-3.9,16.8-2.8c1.4,0.3,2.7,0.8,3.9,1.4
		c0.9,0.5,1.8,1.1,2.6,1.8c1.7,1.5,3.1,3.4,4,5.5C417.2,375.5,416.5,380.8,413.7,384.6z"/>
	<g>
		<path fill="#454933" d="M411.5,365.5c-2.8-0.3-5.6-0.2-8,0.2c-5.3,1-10.4,3.2-15.4,5.3c-1.7,0.7-3.5,1.5-5.2,2.2
			c-4.2,1.7-10.1,3.7-16.1,3.7c-2,0-4-0.2-6-0.7c-1.4-0.4-2.8-0.9-4.2-1.4c-1.7-0.6-3.4-1.3-5.1-1.6c-1.9-0.4-4.3-0.3-6.2,0.7
			c0.4-0.8,0.8-1.5,1.3-2.2c1.7-0.4,3.6-0.4,5.2-0.1c1.9,0.4,3.6,1,5.4,1.7c1.3,0.5,2.7,1,4,1.4c7.6,2,15.7-0.7,21.1-2.9
			c1.7-0.7,3.5-1.5,5.2-2.2c5-2.2,10.2-4.5,15.7-5.4c1.8-0.3,3.7-0.5,5.7-0.4C409.8,364.3,410.7,364.9,411.5,365.5z"/>
		<path fill="#454933" d="M408,369.5c0,0.6,0.3,1.2,0.8,1.6c0.5,0.4,1.1,0.5,1.7,0.5c0.3,0,0.6-0.1,0.8-0.2c0.4-0.3,0.5-0.8,0.5-1.2
			c0-0.4,0-0.8-0.1-1.2c-0.2-0.5-0.7-0.8-1.2-0.9C409.4,367.7,408,368.1,408,369.5z"/>
		<path fill="#454933" d="M348.9,378.4c0,0.6,0.3,1.2,0.8,1.6c0.5,0.4,1.1,0.5,1.7,0.5c0.3,0,0.6-0.1,0.8-0.2
			c0.4-0.3,0.5-0.8,0.5-1.2c0-0.4,0-0.8-0.1-1.2c-0.2-0.5-0.7-0.8-1.2-0.9C350.3,376.6,348.9,377,348.9,378.4z"/>
		<path fill="#454933" d="M364,369.5c0,0.6,0.3,1.2,0.8,1.6c0.5,0.4,1.1,0.5,1.7,0.5c0.3,0,0.6-0.1,0.8-0.2c0.4-0.3,0.5-0.8,0.5-1.2
			c0-0.4,0-0.8-0.1-1.2c-0.2-0.5-0.7-0.8-1.2-0.9C365.3,367.7,364,368.1,364,369.5z"/>
		<path fill="#454933" d="M406.1,374.1c0.5,0.4,1.3,0.3,1.6-0.1c0.2-0.3,0.2-0.6,0.2-1c0-0.5-0.2-1-0.6-1.2
			C406.1,371.2,405,373.2,406.1,374.1z"/>
		<path fill="#454933" d="M370.6,374c0.5,0.4,1.3,0.3,1.6-0.1c0.2-0.3,0.2-0.6,0.2-1c0-0.5-0.2-1-0.6-1.2
			C370.5,371.2,369.5,373.1,370.6,374z"/>
		<path fill="#454933" d="M385.5,379c0.5,0.4,1.3,0.3,1.6-0.1c0.2-0.3,0.2-0.6,0.2-1c0-0.5-0.2-1-0.6-1.2
			C385.4,376.2,384.4,378.1,385.5,379z"/>
		<path fill="#454933" d="M357.1,372.1c0.5,0.4,1.3,0.3,1.6-0.1c0.2-0.3,0.2-0.6,0.2-1c0-0.5-0.2-1-0.6-1.2
			C357,369.3,356,371.2,357.1,372.1z"/>
	</g>
	<path fill="#3F3C39" d="M418.2,385.3c-2.1-1.9-5.6-2.3-8.7-2.5c-20.7-1.3-41.7-2.5-62.2,0.5c-2,0.3-4.2,0.7-5.3,2.1
		c-1.1,1.4-0.7,3.3-0.2,4.9c3.1,10.4,5.9,20.8,9.8,31c1.1,2.9,2.3,5.8,4.6,8c3.1,3.1,7.8,4.3,12.3,4.9c5.3,0.7,10.8,0.9,16.1,0.7
		c4.8-0.2,10.3-0.2,14.8-1.9c6.6-2.4,8.4-9.4,10.6-15c2.9-7.5,5.7-14.9,8.6-22.4c0.7-1.7,1.3-3.5,1.4-5.3
		C420.2,388.5,419.7,386.6,418.2,385.3z"/>
	<g>
		<path fill="#BC3156" d="M383.9,338.2c-0.9-2-2.8-3.5-4.9-4.3c-2.3-0.9-5-1-7.4-0.1c-0.6,0.2-1.3,0.6-1.8,0.9
			c-4.7,0-9.2,3.5-10.2,8.1c-1.1,4.8,1.9,10.2,6.5,11.9c2,0.7,4.2,0.8,6.4,0.6c2.3-0.2,4.6-0.8,6.5-2.2c2.3-1.7,3.7-4.4,4.6-7.2
			C384.5,343.5,385,340.7,383.9,338.2z"/>
		<path fill="#454933" d="M370,337.1c0.9,0,1.4-1,0.8-1.7c-1.6-2.1-3.7-3.9-6.1-5.1c-2.6-1.4-5.5-2.1-8.4-2.1c-0.7,0-1.2,0.7-1,1.4
			c0.6,1.7,1.7,3.2,3.2,4.3c1.9,1.4,4.1,2.3,6.4,2.7C366.7,337,368.4,337,370,337.1z"/>
		
			<path fill="none" stroke="#3F3C39" stroke-width="1.4325" stroke-linecap="round" stroke-linejoin="round" stroke-miterlimit="10" d="
			M370.7,337.1c-0.4-4.2-1.4-8.4-3.4-12.1c-2-3.7-5.3-6.8-9.3-8.2"/>
	</g>
	<g>
		<path fill="#FFC866" d="M402.9,376.4c-0.5-1-1.3-1.8-2.2-2.4c-0.7-0.5-1.8-0.2-2.2,0.6c-0.4,0.8-0.2,1.7,0.6,2.2
			c0,0,0.2,0.1,0.2,0.1c0,0,0,0,0,0c0.1,0.1,0.3,0.3,0.4,0.4c0,0.1,0.1,0.1,0.1,0.2c0,0,0,0,0,0c0.1,0.2,0.2,0.3,0.3,0.5
			c0.4,0.7,1.5,1,2.2,0.6C403.1,378.1,403.3,377.2,402.9,376.4z"/>
		<path fill="#FF6000" d="M386,369c-0.8-0.2-1.8,0.2-2,1.1c-0.2,0.9-0.3,1.8-0.2,2.7c0.1,0.8,0.7,1.7,1.6,1.6c0.8,0,1.7-0.7,1.6-1.6
			c0-0.4,0-0.7,0-1.1c0-0.1,0-0.2,0-0.2c0-0.2,0-0.2,0-0.1c0,0.1,0,0.1,0-0.1c0-0.1,0-0.2,0.1-0.3C387.4,370.1,386.9,369.2,386,369z
			"/>
		<path fill="#FFC866" d="M381.4,363.3c-0.5-0.4-1-0.9-1.6-1.3c-0.3-0.3-0.7-0.5-1.1-0.5c-0.4,0-0.9,0.2-1.1,0.5
			c-0.5,0.6-0.7,1.7,0,2.3c0.5,0.4,1,0.9,1.6,1.3c0.3,0.3,0.7,0.5,1.1,0.5c0.4,0,0.9-0.2,1.1-0.5C381.9,365,382.1,363.9,381.4,363.3
			z"/>
		<path fill="#F24C70" d="M369.6,370.1c-0.9-0.2-1.7,0.3-2,1.1c-0.3,1-0.6,2-0.9,3c-0.2,0.8,0.3,1.8,1.1,2c0.9,0.2,1.7-0.3,2-1.1
			c0.3-1,0.6-2,0.9-3C370.9,371.2,370.4,370.3,369.6,370.1z"/>
		<path fill="#F24C70" d="M354.9,369.1l-1.3-2c-0.4-0.7-1.5-1.1-2.2-0.6c-0.7,0.5-1.1,1.4-0.6,2.2l1.3,2c0.4,0.7,1.5,1.1,2.2,0.6
			C355,370.9,355.4,369.9,354.9,369.1z"/>
		<path fill="#FF6000" d="M359.8,357.6c-0.6-0.6-1.6-0.6-2.3,0c-1,0.9-1.9,1.7-2.9,2.6c-0.6,0.6-0.6,1.7,0,2.3
			c0.6,0.6,1.6,0.6,2.3,0c1-0.9,1.9-1.7,2.9-2.6C360.5,359.3,360.4,358.2,359.8,357.6z"/>
		<path fill="#FFC866" d="M358.5,378.6c-0.3-0.7-0.7-1.5-1-2.2c-0.4-0.8-1.5-1-2.2-0.6c-0.8,0.5-1,1.4-0.6,2.2
			c0.3,0.7,0.7,1.5,1,2.2c0.4,0.8,1.5,1,2.2,0.6C358.7,380.3,358.9,379.4,358.5,378.6z"/>
		<path fill="#F24C70" d="M393.1,354.9c-0.7,1.3-1.4,2.6-2.1,3.8c-1,1.8,1.8,3.5,2.8,1.6c0.7-1.3,1.4-2.6,2.1-3.8
			C396.8,354.7,394,353,393.1,354.9z"/>
		<path fill="#FF6000" d="M400.8,350c0.4-0.8,0.2-1.7-0.5-2.2l-1.5-1c-0.7-0.5-1.8-0.2-2.2,0.5c-0.4,0.8-0.2,1.7,0.5,2.2
			c0.5,0.3,1,0.7,1.5,1C399.3,351,400.4,350.8,400.8,350z"/>
		<path fill="#F24C70" d="M400.4,365.2c-0.5-0.8-1.4-1-2.2-0.6l-1.6,0.9c-0.7,0.4-1,1.5-0.6,2.2c0.5,0.8,1.4,1,2.2,0.6
			c0.5-0.3,1.1-0.6,1.6-0.9C400.6,367,400.9,365.9,400.4,365.2z"/>
	</g>
	<g>
		
			<line fill="none" stroke="#FFE6C7" stroke-width="1.4325" stroke-linecap="round" stroke-miterlimit="10" x1="348.2" y1="386.9" x2="362.1" y2="428.2"/>
		
			<line fill="none" stroke="#FFE6C7" stroke-width="1.4325" stroke-linecap="round" stroke-miterlimit="10" x1="359.7" y1="386.9" x2="370.4" y2="430.4"/>
		
			<line fill="none" stroke="#FFE6C7" stroke-width="1.4325" stroke-linecap="round" stroke-miterlimit="10" x1="376.9" y1="431.2" x2="373.6" y2="386.1"/>
		
			<line fill="none" stroke="#FFE6C7" stroke-width="1.4325" stroke-linecap="round" stroke-miterlimit="10" x1="386.9" y1="385.3" x2="384.4" y2="430.4"/>
		
			<line fill="none" stroke="#FFE6C7" stroke-width="1.4325" stroke-linecap="round" stroke-miterlimit="10" x1="390.2" y1="430" x2="399.9" y2="388.4"/>
		
			<line fill="none" stroke="#FFE6C7" stroke-width="1.4325" stroke-linecap="round" stroke-miterlimit="10" x1="412.8" y1="389.4" x2="398.8" y2="430.4"/>
	</g>
</g>
<path fill="#FFFFFF" d="M255.5,200.1c-4.7,0-9.3-0.1-14-0.3c3.1-3,6.2-6,9.2-9.1c2.6-2.6-1.2-6.4-3.8-3.8c-2.9,2.8-5.8,5.6-8.6,8.5
	c0-4,0.1-8.1,0.1-12.1c0-3.7-5.3-3.7-5.4,0c0,4.1-0.1,8.2-0.1,12.3c-3-3.4-6-6.8-9-10.3c-2.2-2.6-6,1.2-3.8,3.8
	c2.9,3.4,5.9,6.8,8.9,10.2c-4.5-0.3-9-0.6-13.4-0.9c-3.4-0.3-3.4,5.1,0,5.4c4.4,0.4,8.9,0.7,13.3,0.9c-2.8,2.8-5.7,5.6-8.5,8.4
	c-2.6,2.6,1.2,6.4,3.8,3.8c2.9-2.8,5.8-5.6,8.6-8.5c0,4-0.1,8.1-0.1,12.1c0,3.7,5.3,3.7,5.4,0c0-3.7,0.1-7.5,0.1-11.2
	c2.9,3.1,5.9,6.2,9,9.3c2.4,2.5,6.2-1.3,3.8-3.8c-3.1-3.1-6.2-6.3-9.2-9.5c4.6,0.1,9.1,0.2,13.7,0.2
	C258.9,205.4,259,200.1,255.5,200.1z"/>
<path fill="#8E935F" d="M51.1,154.4c-4.7,0-9.3-0.1-14-0.3c3.1-3,6.2-6,9.2-9.1c2.6-2.6-1.2-6.4-3.8-3.8c-2.9,2.8-5.8,5.6-8.6,8.5
	c0-4,0.1-8.1,0.1-12.1c0-3.7-5.3-3.7-5.4,0c0,4.1-0.1,8.2-0.1,12.3c-3-3.4-6-6.8-9-10.3c-2.2-2.6-6,1.2-3.8,3.8
	c2.9,3.4,5.9,6.8,8.9,10.2c-4.5-0.3-9-0.6-13.4-0.9c-3.4-0.3-3.4,5.1,0,5.4c4.4,0.4,8.9,0.7,13.3,0.9c-2.8,2.8-5.7,5.6-8.5,8.4
	c-2.6,2.6,1.2,6.4,3.8,3.8c2.9-2.8,5.8-5.6,8.6-8.5c0,4-0.1,8.1-0.1,12.1c0,3.7,5.3,3.7,5.4,0c0-3.7,0.1-7.5,0.1-11.2
	c2.9,3.1,5.9,6.2,9,9.3c2.4,2.5,6.2-1.3,3.8-3.8c-3.1-3.1-6.2-6.3-9.2-9.5c4.6,0.1,9.1,0.2,13.7,0.2
	C54.6,159.8,54.6,154.4,51.1,154.4z"/>
<path fill="#F24C70" d="M366,249.9c-3.3,0-6.6-0.1-9.9-0.2c2.2-2.1,4.3-4.3,6.5-6.4c1.8-1.8-0.8-4.5-2.7-2.7c-2,2-4.1,4-6.1,6
	c0-2.9,0.1-5.7,0.1-8.6c0-2.6-3.8-2.6-3.8,0c0,2.9-0.1,5.8-0.1,8.7c-2.1-2.4-4.3-4.8-6.3-7.3c-1.6-1.9-4.2,0.8-2.7,2.7
	c2,2.4,4.1,4.8,6.3,7.2c-3.2-0.2-6.3-0.4-9.5-0.7c-2.4-0.2-2.4,3.6,0,3.8c3.1,0.3,6.3,0.5,9.4,0.7c-2,2-4,3.9-6,5.9
	c-1.8,1.8,0.8,4.5,2.7,2.7c2-2,4.1-4,6.1-6c0,2.9-0.1,5.7-0.1,8.6c0,2.6,3.8,2.6,3.8,0c0-2.6,0.1-5.3,0.1-7.9
	c2.1,2.2,4.2,4.4,6.3,6.5c1.7,1.7,4.4-1,2.7-2.7c-2.2-2.2-4.3-4.4-6.5-6.7c3.2,0.1,6.5,0.2,9.7,0.2
	C368.4,253.7,368.4,249.9,366,249.9z"/>
<path fill="#8E935F" d="M430.5,314.4c-3.3,0-6.6-0.1-9.9-0.2c2.2-2.1,4.3-4.3,6.5-6.4c1.8-1.8-0.8-4.5-2.7-2.7c-2,2-4.1,4-6.1,6
	c0-2.9,0.1-5.7,0.1-8.6c0-2.6-3.8-2.6-3.8,0c0,2.9-0.1,5.8-0.1,8.7c-2.1-2.4-4.3-4.8-6.3-7.3c-1.6-1.9-4.2,0.8-2.7,2.7
	c2,2.4,4.1,4.8,6.3,7.2c-3.2-0.2-6.3-0.4-9.5-0.7c-2.4-0.2-2.4,3.6,0,3.8c3.1,0.3,6.3,0.5,9.4,0.7c-2,2-4,3.9-6,5.9
	c-1.8,1.8,0.8,4.5,2.7,2.7c2-2,4.1-4,6.1-6c0,2.9-0.1,5.7-0.1,8.6c0,2.6,3.8,2.6,3.8,0c0-2.6,0.1-5.3,0.1-7.9
	c2.1,2.2,4.2,4.4,6.3,6.5c1.7,1.7,4.4-1,2.7-2.7c-2.2-2.2-4.3-4.4-6.5-6.7c3.2,0.1,6.5,0.2,9.7,0.2
	C432.9,318.2,432.9,314.4,430.5,314.4z"/>
<path fill="#FFC866" d="M151.6,25.7c-3.3,0-6.6-0.1-9.9-0.2c2.2-2.1,4.3-4.3,6.5-6.4c1.8-1.8-0.8-4.5-2.7-2.7c-2,2-4.1,4-6.1,6
	c0-2.9,0.1-5.7,0.1-8.6c0-2.6-3.8-2.6-3.8,0c0,2.9-0.1,5.8-0.1,8.7c-2.1-2.4-4.3-4.8-6.3-7.3c-1.6-1.9-4.2,0.8-2.7,2.7
	c2,2.4,4.1,4.8,6.3,7.2c-3.2-0.2-6.3-0.4-9.5-0.7c-2.4-0.2-2.4,3.6,0,3.8c3.1,0.3,6.3,0.5,9.4,0.7c-2,2-4,3.9-6,5.9
	c-1.8,1.8,0.8,4.5,2.7,2.7c2-2,4.1-4,6.1-6c0,2.9-0.1,5.7-0.1,8.6c0,2.6,3.8,2.6,3.8,0c0-2.6,0.1-5.3,0.1-7.9
	c2.1,2.2,4.2,4.4,6.3,6.5c1.7,1.7,4.4-1,2.7-2.7c-2.2-2.2-4.3-4.4-6.5-6.7c3.2,0.1,6.5,0.2,9.7,0.2C154,29.5,154,25.7,151.6,25.7z"
	/>
<path fill="#3F3C39" d="M47.7,567.6c-3.3,0-6.6-0.1-9.9-0.2c2.2-2.1,4.3-4.3,6.5-6.4c1.8-1.8-0.8-4.5-2.7-2.7c-2,2-4.1,4-6.1,6
	c0-2.9,0.1-5.7,0.1-8.6c0-2.6-3.8-2.6-3.8,0c0,2.9-0.1,5.8-0.1,8.7c-2.1-2.4-4.3-4.8-6.3-7.3c-1.6-1.9-4.2,0.8-2.7,2.7
	c2,2.4,4.1,4.8,6.3,7.2c-3.2-0.2-6.3-0.4-9.5-0.7c-2.4-0.2-2.4,3.6,0,3.8c3.1,0.3,6.3,0.5,9.4,0.7c-2,2-4,3.9-6,5.9
	c-1.8,1.8,0.8,4.5,2.7,2.7c2-2,4.1-4,6.1-6c0,2.9-0.1,5.7-0.1,8.6c0,2.6,3.8,2.6,3.8,0c0-2.6,0.1-5.3,0.1-7.9
	c2.1,2.2,4.2,4.4,6.3,6.5c1.7,1.7,4.4-1,2.7-2.7c-2.2-2.2-4.3-4.4-6.5-6.7c3.2,0.1,6.5,0.2,9.7,0.2
	C50.2,571.4,50.2,567.6,47.7,567.6z"/>
<path fill="#FFC866" d="M425.9,578c-3.3,0-6.6-0.1-9.9-0.2c2.2-2.1,4.3-4.3,6.5-6.4c1.8-1.8-0.8-4.5-2.7-2.7c-2,2-4.1,4-6.1,6
	c0-2.9,0.1-5.7,0.1-8.6c0-2.6-3.8-2.6-3.8,0c0,2.9-0.1,5.8-0.1,8.7c-2.1-2.4-4.3-4.8-6.3-7.3c-1.6-1.9-4.2,0.8-2.7,2.7
	c2,2.4,4.1,4.8,6.3,7.2c-3.2-0.2-6.3-0.4-9.5-0.7c-2.4-0.2-2.4,3.6,0,3.8c3.1,0.3,6.3,0.5,9.4,0.7c-2,2-4,3.9-6,5.9
	c-1.8,1.8,0.8,4.5,2.7,2.7c2-2,4.1-4,6.1-6c0,2.9-0.1,5.7-0.1,8.6c0,2.6,3.8,2.6,3.8,0c0-2.6,0.1-5.3,0.1-7.9
	c2.1,2.2,4.2,4.4,6.3,6.5c1.7,1.7,4.4-1,2.7-2.7c-2.2-2.2-4.3-4.4-6.5-6.7c3.2,0.1,6.5,0.2,9.7,0.2C428.4,581.8,428.4,578,425.9,578
	z"/>
<g>
	<path fill="none" stroke="#3F3C39" stroke-width="2.2851" stroke-linecap="round" stroke-miterlimit="10" d="M193.1,234.9
		c-0.3-3.2-0.4-6.4,0.7-9.4c1.1-3,3.8-5.6,6.9-5.7c2.2-0.1,4.4,1.2,5.5,3.1c1.1,1.9,1.1,4.4,0,6.4c-0.9,1.5-2.5,2.6-4.2,2.5
		c-1.6-0.1-3-1.4-3.6-2.9c-0.6-1.5-0.7-3.2-0.6-4.8c0.2-3.6,0.9-7.3,2.8-10.4c1.8-3.1,4.8-5.7,8.4-6.4"/>
	<path fill="none" stroke="#3F3C39" stroke-width="2.2851" stroke-linecap="round" stroke-miterlimit="10" d="M329.3,310.5
		c0.3-2.8,0.5-5.7,1.4-8.4c0.9-2.7,2.5-5.3,5-6.7s5.8-1.7,8.1,0c3.1,2.2,3.2,7.5,0.2,9.8c-1,0.8-2.5,1.3-3.7,0.6
		c-1.2-0.7-1.6-2.3-1.6-3.7c0.2-4.8,4-8.9,8.4-10.7c4.4-1.8,9.4-1.7,14.2-1.2"/>
	<path fill="none" stroke="#3F3C39" stroke-width="2.2851" stroke-linecap="round" stroke-miterlimit="10" d="M46.6,217.5
		c-5.6-5.3-12.2-9.6-19.4-12.6"/>
	<path fill="none" stroke="#3F3C39" stroke-width="2.2851" stroke-linecap="round" stroke-miterlimit="10" d="M131,167.7
		c2.2-5.2,5.8-9.8,10.3-13"/>
	<path fill="none" stroke="#3F3C39" stroke-width="2.2851" stroke-linecap="round" stroke-miterlimit="10" d="M417.4,361.8
		c3.9-4.3,8.4-8,13.3-11"/>
</g>
<g>
	<g>
		<g>
			<text transform="matrix(1 0 0 1 25.1542 101.0541)" fill="#FFC866" font-family="'Poppins-Bold'" font-size="53.2748px">WSZYSTKIEGO</text>
		</g>
		<g>
			<text transform="matrix(1 0 0 1 153.8754 134.8559)" fill="#F24C70" font-family="'Poppins-Bold'" font-size="36px">NAJLEPSZEGO</text>
		</g>
	</g>
</g>
<path fill="#FFC866" d="M371.7,534H63.3c-5.8,0-10.5-4.7-10.5-10.5V513c0-5.8,4.7-10.5,10.5-10.5h308.4c5.8,0,10.5,4.7,10.5,10.5
	v10.5C382.2,529.3,377.4,534,371.7,534z"/>
<g>
	<g>
		<path fill="#3F3C39" d="M70.4,524.6l-5.2-5.7v5.7h-1.6V512h1.6v5.8l5.2-5.8h2.1l-5.7,6.3l5.7,6.3H70.4z"/>
		<path fill="#3F3C39" d="M76.1,523.2h4.4v1.3h-6V512h1.6V523.2z"/>
		<path fill="#3F3C39" d="M83.8,512v12.5h-1.6V512H83.8z"/>
		<path fill="#3F3C39" d="M93.4,524.6l-5.2-5.7v5.7h-1.6V512h1.6v5.8l5.2-5.8h2.1l-5.7,6.3l5.7,6.3H93.4z"/>
		<path fill="#3F3C39" d="M107.3,524.6h-1.6l-6.6-10v10h-1.6V512H99l6.6,10v-10h1.6V524.6z"/>
		<path fill="#3F3C39" d="M111.7,512v12.5h-1.6V512H111.7z"/>
		<path fill="#3F3C39" d="M120.8,512v9.3c0,1-0.3,1.9-1,2.5c-0.6,0.6-1.5,0.9-2.5,0.9c-1.1,0-1.9-0.3-2.5-0.9s-1-1.5-1-2.6h1.6
			c0,0.6,0.2,1.1,0.5,1.5c0.3,0.4,0.8,0.6,1.4,0.6s1.1-0.2,1.4-0.5s0.5-0.8,0.5-1.4V512H120.8z"/>
		<path fill="#3F3C39" d="M136.2,521.8h-5.5l-1,2.8H128l4.5-12.5h1.9l4.5,12.5h-1.7L136.2,521.8z M135.8,520.4l-2.3-6.3l-2.3,6.3
			H135.8z"/>
		<path fill="#3F3C39" d="M148.5,518.7c0.4,0.3,0.7,0.7,0.9,1.1s0.3,0.9,0.3,1.4c0,0.6-0.2,1.2-0.5,1.7c-0.3,0.5-0.8,0.9-1.4,1.2
			c-0.6,0.3-1.3,0.4-2.2,0.4H141V512h4.5c0.9,0,1.6,0.1,2.2,0.4c0.6,0.3,1,0.7,1.3,1.1s0.5,1,0.5,1.6c0,0.7-0.2,1.4-0.6,1.8
			c-0.4,0.5-0.9,0.8-1.6,1.1C147.7,518.2,148.1,518.4,148.5,518.7z M142.6,517.4h2.8c0.8,0,1.4-0.2,1.8-0.5c0.4-0.4,0.6-0.9,0.6-1.5
			s-0.2-1.1-0.6-1.5c-0.4-0.4-1-0.5-1.8-0.5h-2.7V517.4z M147.4,522.6c0.5-0.4,0.7-0.9,0.7-1.6c0-0.7-0.2-1.2-0.7-1.6
			c-0.5-0.4-1.1-0.6-1.9-0.6h-2.8v4.4h2.9C146.3,523.2,146.9,523,147.4,522.6z"/>
		<path fill="#3F3C39" d="M160.8,512l-4.1,7.8v4.7h-1.6v-4.7l-4.1-7.8h1.8l3.1,6.4l3.1-6.4H160.8z"/>
		<path fill="#3F3C39" d="M168.7,523.1h6.1v1.4h-8.1v-1.3l6.1-9.8h-6V512h8v1.3L168.7,523.1z"/>
		<path fill="#3F3C39" d="M179.6,523.9c-1-0.5-1.7-1.3-2.3-2.3s-0.8-2.1-0.8-3.3s0.3-2.3,0.8-3.3c0.6-1,1.3-1.7,2.3-2.3
			c1-0.5,2-0.8,3.2-0.8c1.2,0,2.2,0.3,3.2,0.8c1,0.5,1.7,1.3,2.3,2.3c0.6,1,0.8,2.1,0.8,3.3c0,1.2-0.3,2.3-0.8,3.3
			c-0.6,1-1.3,1.7-2.3,2.3c-1,0.5-2,0.8-3.2,0.8C181.6,524.7,180.5,524.4,179.6,523.9z M185.1,522.7c0.7-0.4,1.3-1,1.7-1.7
			s0.6-1.6,0.6-2.6c0-1-0.2-1.9-0.6-2.6s-1-1.3-1.6-1.7c-0.7-0.4-1.5-0.6-2.4-0.6c-0.9,0-1.7,0.2-2.4,0.6c-0.7,0.4-1.2,1-1.6,1.7
			s-0.6,1.6-0.6,2.6c0,1,0.2,1.9,0.6,2.6s1,1.3,1.7,1.7s1.5,0.6,2.4,0.6C183.6,523.3,184.4,523.1,185.1,522.7z"/>
		<path fill="#3F3C39" d="M198.7,518.7c0.4,0.3,0.7,0.7,0.9,1.1s0.3,0.9,0.3,1.4c0,0.6-0.2,1.2-0.5,1.7c-0.3,0.5-0.8,0.9-1.4,1.2
			c-0.6,0.3-1.3,0.4-2.2,0.4h-4.7V512h4.5c0.9,0,1.6,0.1,2.2,0.4c0.6,0.3,1,0.7,1.3,1.1s0.5,1,0.5,1.6c0,0.7-0.2,1.4-0.6,1.8
			c-0.4,0.5-0.9,0.8-1.6,1.1C197.9,518.2,198.4,518.4,198.7,518.7z M192.8,517.4h2.8c0.8,0,1.4-0.2,1.8-0.5c0.4-0.4,0.6-0.9,0.6-1.5
			s-0.2-1.1-0.6-1.5c-0.4-0.4-1-0.5-1.8-0.5h-2.7V517.4z M197.6,522.6c0.5-0.4,0.7-0.9,0.7-1.6c0-0.7-0.2-1.2-0.7-1.6
			c-0.5-0.4-1.1-0.6-1.9-0.6h-2.8v4.4h2.9C196.5,523.2,197.2,523,197.6,522.6z"/>
		<path fill="#3F3C39" d="M209.6,521.8h-5.5l-1,2.8h-1.7l4.5-12.5h1.9l4.5,12.5h-1.7L209.6,521.8z M209.2,520.4l-2.3-6.3l-2.3,6.3
			H209.2z"/>
		<path fill="#3F3C39" d="M214.6,515c0.6-1,1.3-1.7,2.3-2.3c1-0.6,2-0.8,3.2-0.8c1.4,0,2.6,0.3,3.6,1c1,0.7,1.8,1.6,2.2,2.8h-2
			c-0.3-0.8-0.8-1.3-1.5-1.7c-0.7-0.4-1.4-0.6-2.3-0.6c-0.9,0-1.7,0.2-2.4,0.6s-1.2,1-1.6,1.7c-0.4,0.8-0.6,1.6-0.6,2.6
			c0,1,0.2,1.9,0.6,2.6c0.4,0.8,0.9,1.3,1.6,1.7c0.7,0.4,1.5,0.6,2.4,0.6c0.9,0,1.7-0.2,2.3-0.6c0.7-0.4,1.2-1,1.5-1.7h2
			c-0.5,1.2-1.2,2.1-2.2,2.8c-1,0.7-2.2,1-3.6,1c-1.2,0-2.2-0.3-3.2-0.8c-1-0.5-1.7-1.3-2.3-2.3c-0.6-1-0.8-2.1-0.8-3.3
			S214,516,214.6,515z"/>
		<path fill="#3F3C39" d="M229.6,523.1h6.1v1.4h-8.1v-1.3l6.1-9.8h-6V512h8v1.3L229.6,523.1z"/>
		<path fill="#3F3C39" d="M246.8,512l-4.1,7.8v4.7h-1.6v-4.7L237,512h1.8l3.1,6.4l3.1-6.4H246.8z"/>
		<path fill="#3F3C39" d="M248.7,515c0.6-1,1.3-1.7,2.3-2.3c1-0.6,2-0.8,3.2-0.8c1.4,0,2.6,0.3,3.6,1c1,0.7,1.8,1.6,2.2,2.8h-2
			c-0.3-0.8-0.8-1.3-1.5-1.7c-0.7-0.4-1.4-0.6-2.3-0.6c-0.9,0-1.7,0.2-2.4,0.6s-1.2,1-1.6,1.7c-0.4,0.8-0.6,1.6-0.6,2.6
			c0,1,0.2,1.9,0.6,2.6c0.4,0.8,0.9,1.3,1.6,1.7c0.7,0.4,1.5,0.6,2.4,0.6c0.9,0,1.7-0.2,2.3-0.6c0.7-0.4,1.2-1,1.5-1.7h2
			c-0.5,1.2-1.2,2.1-2.2,2.8c-1,0.7-2.2,1-3.6,1c-1.2,0-2.2-0.3-3.2-0.8c-1-0.5-1.7-1.3-2.3-2.3c-0.6-1-0.8-2.1-0.8-3.3
			S248.2,516,248.7,515z M256,509.2l-3.8,2.1V510l3.8-2.2V509.2z"/>
		<path fill="#3F3C39" d="M283,512l-3.6,12.5h-1.8l-2.9-10.1l-3,10.1l-1.8,0l-3.5-12.6h1.7l2.7,10.6l3-10.6h1.8l2.9,10.6l2.8-10.6
			H283z"/>
		<path fill="#3F3C39" d="M286.4,512v12.5h-1.6V512H286.4z"/>
		<path fill="#3F3C39" d="M296.1,526.9v1.1c-0.5,0.2-0.9,0.3-1.4,0.3c-0.6,0-1.1-0.1-1.6-0.4c-0.4-0.3-0.6-0.7-0.6-1.4
			c0-0.7,0.4-1.4,1.2-1.9h-4.6V512h6.8v1.3h-5.1v4.2h4.6v1.4h-4.6v4.3h5.1v1.3l-1,0.5c-0.7,0.3-1.1,0.8-1.1,1.3
			c0,0.3,0.1,0.5,0.3,0.6s0.4,0.2,0.8,0.2C295.3,527.2,295.7,527.1,296.1,526.9z"/>
		<path fill="#3F3C39" d="M298.7,515c0.6-1,1.3-1.7,2.3-2.3c1-0.6,2-0.8,3.2-0.8c1.4,0,2.6,0.3,3.6,1c1,0.7,1.8,1.6,2.2,2.8h-2
			c-0.3-0.8-0.8-1.3-1.5-1.7s-1.4-0.6-2.3-0.6c-0.9,0-1.7,0.2-2.4,0.6c-0.7,0.4-1.2,1-1.6,1.7s-0.6,1.6-0.6,2.6c0,1,0.2,1.9,0.6,2.6
			s0.9,1.3,1.6,1.7c0.7,0.4,1.5,0.6,2.4,0.6c0.9,0,1.7-0.2,2.3-0.6s1.2-1,1.5-1.7h2c-0.5,1.2-1.2,2.1-2.2,2.8c-1,0.7-2.2,1-3.6,1
			c-1.2,0-2.2-0.3-3.2-0.8c-1-0.5-1.7-1.3-2.3-2.3c-0.6-1-0.8-2.1-0.8-3.3S298.1,516,298.7,515z"/>
		<path fill="#3F3C39" d="M314,513.4v4.2h4.6v1.4H314v4.3h5.1v1.3h-6.8V512h6.8v1.3H314z"/>
		<path fill="#3F3C39" d="M327.9,512v9.3c0,1-0.3,1.9-1,2.5c-0.6,0.6-1.5,0.9-2.5,0.9c-1.1,0-1.9-0.3-2.5-0.9c-0.6-0.6-1-1.5-1-2.6
			h1.6c0,0.6,0.2,1.1,0.5,1.5s0.8,0.6,1.4,0.6c0.6,0,1.1-0.2,1.4-0.5c0.3-0.4,0.4-0.8,0.4-1.4V512H327.9z"/>
	</g>
</g>
<path fill="#F24C70" d="M371.7,534h-10.5c-5.8,0-10.5-4.7-10.5-10.5V513c0-5.8,4.7-10.5,10.5-10.5h10.5c5.8,0,10.5,4.7,10.5,10.5
	v10.5C382.2,529.3,377.4,534,371.7,534z"/>
<g>
	<path fill="#747EF7" d="M374.6,517.2l-0.1-0.1l-5.5-5.5c-0.7-1,0.5-2.1,1.5-1.4l7.5,7.5c0.3,0.4,0.3,0.9,0,1.4l-7.5,7.5
		c-1,0.7-2.2-0.5-1.4-1.5l5.5-5.5l0.1-0.1h-18.6c0,0-0.3-0.1-0.3-0.2c-0.6-0.4-0.6-1.4,0-1.8c0,0,0.3-0.2,0.3-0.2H374.6z"/>
</g>
</svg>
