<svg id="Capa_1" enable-background="new 0 0 512 512" height="512" viewBox="0 0 512 512" width="512" xmlns="http://www.w3.org/2000/svg"><g><path d="m256 21.996c-135.311 0-245.002 109.691-245.002 245.002 0 88.403 46.827 165.861 117.024 208.948h255.957c70.197-43.087 117.024-120.545 117.024-208.948-.001-135.311-109.692-245.002-245.003-245.002z" fill="#1d2e79"/><path d="m428.972 0h-214.819c-3.418 4.652-7.494 13.521 2.847 21.42l13 60.33s-7.484 8.104-7.546 17.463h206.518c27.397 0 49.606-22.21 49.606-49.606 0-27.397-22.209-49.607-49.606-49.607z" fill="#fef156"/><path d="m83.028 0c-27.397 0-49.606 22.21-49.606 49.606 0 27.397 22.21 49.606 49.606 49.606h140.426c.062-9.358 7.546-17.462 7.546-17.462l-13-60.33c-10.341-7.898-6.265-16.768-2.847-21.42z" fill="#ffc242"/><path d="m334.489 260.189c-10.504 11.159-28.216 23.273-54.639 34.489v5.072h55.727c13.078 0 24.574-6.397 31.664-16.004-24.614 4.481-31.063-13.709-32.752-23.557z" fill="#ffc242"/><path d="m373.875 253.461c-1.237-5.8-3.751-11.392-7.542-16.348-12.915-16.885-31.722-16.236-31.722-16.236l-.207.246c15.325 4.987 17.426 21.111-.596 39.779 1.753 9.946 8.343 27.99 33.11 23.274 6.394-8.421 9.372-19.392 6.957-30.715z" fill="#fef156"/><path d="m334.611 220.876c-19.805-5.796-46.764 34.219-59.402 55.336 2.915 3.956 4.641 8.842 4.641 14.133v4.751c71.552-30.064 80.16-66.786 54.761-74.22z" fill="#fea53d"/><path d="m232.151 294.678c-69.91-29.674-78.877-65.641-54.554-73.556l-.207-.245s-18.807-.649-31.722 16.236c-3.791 4.956-6.305 10.548-7.542 16.348-5.103 23.922 13.838 46.289 38.298 46.289h55.727z" fill="#ffc242"/><path d="m232.151 290.345c0-5.291 1.725-10.177 4.641-14.133-12.637-21.117-39.597-61.133-59.402-55.336-25.399 7.434-16.791 44.156 54.761 74.221z" fill="#fea53d"/><path d="m281.625 299.197v-9.511c0-14.152-11.473-25.625-25.625-25.625s-25.625 11.473-25.625 25.625v9.511z" fill="#ffc242"/><path d="m445.41 190.241c-3.369-6.734.51-14.479.548-14.554l.15-.291.015-.326c.078-1.663 1.687-40.89-17.991-55.2-5.162-3.755-7.832-7.908-7.934-12.345-.076-3.314 1.28-6.381 2.895-8.844h-200.631c-.178 4.889 1.61 10.159 7.537 14.821 0 0-9.796 6.413-9.796 20.205v41.542s-6.336 14.272 4.087 22.645h229.333c.324 0 .644-.018.967-.025-4.462-1.807-7.543-4.355-9.18-7.628z" fill="#fe3d97"/><path d="m453.623 98.682h-32.305c-3.452 5.765-5.203 14.303 5.932 22.402 19.25 14 17.375 53.917 17.375 53.917s-7.732 15.01 6.52 22.895h2.478c27.397 0 49.606-22.21 49.606-49.606 0-27.399-22.209-49.608-49.606-49.608z" fill="#fd77a6"/><path d="m58.377 98.682c-27.397 0-49.606 22.21-49.606 49.606 0 27.397 22.209 49.606 49.606 49.606h166.913c-10.422-8.372-4.087-22.645-4.087-22.645s0-27.75 0-41.542 9.796-20.205 9.796-20.205c-5.927-4.662-7.715-9.932-7.537-14.821h-165.085z" fill="#e51e82"/><g><g><path d="m412.054 182.324c-3.03 0-5.885-1.851-7.018-4.854l-14.862-39.381-15.006 39.401c-1.475 3.871-5.811 5.814-9.678 4.34-3.871-1.475-5.814-5.808-4.34-9.678l20.875-54.811c.021-.058.044-.114.067-.171 1.352-3.304 4.531-5.44 8.1-5.443h.009c3.565 0 6.744 2.129 8.101 5.427.028.068.056.137.081.205l20.686 54.814c1.463 3.876-.493 8.203-4.368 9.665-.872.33-1.767.486-2.647.486z" fill="#fef156"/></g><g><path d="m405.646 171.671h-30.978c-4.142 0-7.5-3.357-7.5-7.5s3.358-7.5 7.5-7.5h30.978c4.143 0 7.5 3.357 7.5 7.5s-3.357 7.5-7.5 7.5z" fill="#fef156"/></g></g><g><g><path d="m124.519 182.322c-4.142 0-7.5-3.357-7.5-7.5v-55.595c0-4.143 3.358-7.5 7.5-7.5s7.5 3.357 7.5 7.5v55.595c0 4.143-3.357 7.5-7.5 7.5z" fill="#fef156"/></g></g><g><g><path d="m251.885 182.322c-4.142 0-7.5-3.357-7.5-7.5v-55.595c0-4.143 3.358-7.5 7.5-7.5 4.143 0 7.5 3.357 7.5 7.5v55.595c0 4.143-3.358 7.5-7.5 7.5z" fill="#fef156"/></g><g><path d="m290.357 182.322c-4.143 0-7.5-3.357-7.5-7.5v-55.595c0-4.143 3.357-7.5 7.5-7.5s7.5 3.357 7.5 7.5v55.595c0 4.143-3.357 7.5-7.5 7.5z" fill="#fef156"/></g><g><path d="m290.357 153.571h-38.473c-4.142 0-7.5-3.357-7.5-7.5s3.358-7.5 7.5-7.5h38.473c4.143 0 7.5 3.357 7.5 7.5s-3.357 7.5-7.5 7.5z" fill="#fef156"/></g></g><g><g><path d="m314.977 180.624c-4.142 0-7.5-3.357-7.5-7.5v-53.018c0-4.143 3.358-7.5 7.5-7.5 4.143 0 7.5 3.357 7.5 7.5v53.018c0 4.143-3.357 7.5-7.5 7.5z" fill="#fef156"/></g><g><path d="m315.087 181.5c-1.979 0-3.879-.782-5.284-2.178-1.411-1.401-2.209-3.306-2.216-5.295 0 0-.07-19.561-.07-27.062 0-6.151-.039-26.902-.039-26.902-.004-1.991.785-3.902 2.191-5.312 1.407-1.41 3.317-2.202 5.309-2.202h15.28c17.518 0 29.287 13.854 29.287 34.475 0 19.615-12.073 34.064-28.708 34.356-4.359.076-15.26.117-15.722.119-.01.001-.019.001-.028.001zm7.404-53.95c.011 6.59.025 15.686.025 19.416 0 4.453.024 13.167.045 19.495 2.99-.02 6.156-.046 8.013-.078 6.954-.122 13.971-6.155 13.971-19.358 0-4.568-1.03-19.475-14.287-19.475z" fill="#fef156"/></g></g><g><g><path d="m66.413 152.369c-1.983 0-3.886-.785-5.291-2.184-1.414-1.408-2.208-3.32-2.208-5.316v-25.642c0-4.143 3.358-7.5 7.5-7.5h16.149c11.189 0 20.293 9.103 20.293 20.292s-9.103 20.293-20.293 20.293c-3.497 0-16.114.057-16.116.057-.012 0-.023 0-.034 0zm7.5-25.641v10.61c3.4-.013 7.016-.025 8.649-.025 2.919 0 5.293-2.374 5.293-5.293 0-2.918-2.374-5.292-5.293-5.292z" fill="#fef156"/></g><g><path d="m66.413 182.322c-1.983 0-3.886-.785-5.291-2.185-1.414-1.408-2.208-3.32-2.208-5.315v-29.995c0-4.142 3.358-7.5 7.5-7.5h18.969c12.387 0 22.465 10.078 22.465 22.465s-10.078 22.465-22.465 22.465c-4.091 0-18.936.066-18.936.066-.012-.001-.024-.001-.034-.001zm7.5-29.995v14.964c4.341-.017 9.347-.034 11.469-.034 4.116 0 7.465-3.349 7.465-7.465s-3.349-7.465-7.465-7.465z" fill="#fef156"/></g></g><g><g><path d="m439.046 153.924c-2.533 0-4.894-1.278-6.279-3.399l-17.759-27.196c-2.265-3.468-1.289-8.115 2.179-10.38 3.47-2.265 8.115-1.289 10.38 2.179l11.47 17.564 11.337-17.415c2.261-3.471 6.905-4.451 10.377-2.193 3.472 2.26 4.453 6.905 2.193 10.377l-17.612 27.056c-1.383 2.124-3.745 3.406-6.28 3.408-.002-.001-.004-.001-.006-.001z" fill="#fef156"/></g><g><path d="m438.977 182.322c-.006 0-.012 0-.019 0-4.142-.01-7.491-3.376-7.481-7.519l.069-28.398c.01-4.136 3.366-7.481 7.5-7.481h.019c4.142.01 7.491 3.376 7.481 7.519l-.069 28.398c-.01 4.136-3.367 7.481-7.5 7.481z" fill="#fef156"/></g></g><g><g><path d="m230.844 126.728h-30.703c-4.142 0-7.5-3.357-7.5-7.5s3.358-7.5 7.5-7.5h30.703c4.142 0 7.5 3.357 7.5 7.5 0 4.142-3.358 7.5-7.5 7.5z" fill="#fef156"/></g><g><path d="m215.43 182.322c-4.142 0-7.5-3.357-7.5-7.5v-53.819c0-4.142 3.358-7.5 7.5-7.5s7.5 3.358 7.5 7.5v53.819c0 4.143-3.358 7.5-7.5 7.5z" fill="#fef156"/></g></g><g><g><path d="m182.623 182.322c-2.08 0-4.15-.86-5.633-2.545l-23.354-26.534c-2.737-3.109-2.434-7.849.675-10.585s7.849-2.435 10.585.675l23.354 26.534c2.737 3.109 2.435 7.849-.675 10.585-1.425 1.254-3.192 1.87-4.952 1.87z" fill="#fef156"/></g><g><path d="m152.562 182.322c-4.142 0-7.5-3.357-7.5-7.5v-55.595c0-4.143 3.358-7.5 7.5-7.5s7.5 3.357 7.5 7.5v55.595c0 4.143-3.358 7.5-7.5 7.5z" fill="#fef156"/></g><g><path d="m152.682 155.689c-4.121 0-7.473-3.327-7.499-7.453 0 0-.066-10.525-.066-14.56 0-3.298-.037-14.422-.037-14.423-.006-1.994.781-3.908 2.188-5.32 1.407-1.411 3.318-2.205 5.312-2.205h14.773c12.554 0 22.767 9.846 22.767 21.948s-10.213 21.948-22.767 21.948c-4.087 0-14.622.065-14.624.065-.016 0-.031 0-.047 0zm7.421-28.961c.007 2.762.014 5.553.014 6.948 0 1.635.011 4.34.024 6.973 2.709-.014 5.514-.024 7.212-.024 4.21 0 7.767-3.182 7.767-6.948s-3.557-6.948-7.767-6.948h-7.25z" fill="#fef156"/></g></g><g><g><path d="m233.621 86.59c-3.031 0-5.885-1.851-7.019-4.854l-14.861-39.381-15.006 39.401c-1.474 3.87-5.806 5.815-9.678 4.34-3.871-1.475-5.813-5.808-4.339-9.678l20.876-54.812c.021-.058.044-.114.067-.171 1.352-3.303 4.531-5.439 8.099-5.443h.009c3.565 0 6.745 2.13 8.102 5.428.028.068.055.137.081.205l20.686 54.815c1.462 3.876-.494 8.203-4.369 9.665-.874.329-1.769.485-2.648.485z" fill="#9957bc"/></g><g><path d="m227.213 75.937h-30.978c-4.142 0-7.5-3.357-7.5-7.5s3.358-7.5 7.5-7.5h30.978c4.142 0 7.5 3.357 7.5 7.5 0 4.142-3.358 7.5-7.5 7.5z" fill="#9957bc"/></g></g><g><g><path d="m129.24 86.588c-4.142 0-7.5-3.357-7.5-7.5v-55.596c0-4.143 3.358-7.5 7.5-7.5s7.5 3.357 7.5 7.5v55.596c0 4.143-3.358 7.5-7.5 7.5z" fill="#9957bc"/></g><g><path d="m167.713 86.588c-4.142 0-7.5-3.357-7.5-7.5v-55.596c0-4.143 3.358-7.5 7.5-7.5s7.5 3.357 7.5 7.5v55.596c0 4.143-3.358 7.5-7.5 7.5z" fill="#9957bc"/></g><g><path d="m167.713 57.837h-38.473c-4.142 0-7.5-3.357-7.5-7.5s3.358-7.5 7.5-7.5h38.473c4.142 0 7.5 3.357 7.5 7.5s-3.358 7.5-7.5 7.5z" fill="#9957bc"/></g></g><g><g><path d="m376.218 58.19c-2.533 0-4.895-1.278-6.28-3.4l-17.758-27.197c-2.265-3.469-1.288-8.116 2.18-10.381 3.469-2.261 8.116-1.289 10.381 2.18l11.468 17.565 11.337-17.415c2.261-3.472 6.906-4.451 10.377-2.193 3.472 2.26 4.453 6.905 2.193 10.377l-17.612 27.056c-1.383 2.124-3.745 3.406-6.28 3.408-.002 0-.004 0-.006 0z" fill="#9957bc"/></g><g><path d="m376.148 86.588c-.006 0-.012 0-.019 0-4.142-.01-7.491-3.376-7.481-7.519l.069-28.398c.01-4.136 3.366-7.481 7.5-7.481h.019c4.142.01 7.491 3.376 7.481 7.518l-.069 28.398c-.009 4.136-3.366 7.482-7.5 7.482z" fill="#9957bc"/></g></g><g><g><path d="m254.3 86.588c-4.142 0-7.5-3.357-7.5-7.5v-55.596c0-4.143 3.358-7.5 7.5-7.5s7.5 3.357 7.5 7.5v55.596c.001 4.143-3.358 7.5-7.5 7.5z" fill="#9957bc"/></g><g><path d="m254.408 62.44c-1.973 0-3.867-.777-5.271-2.164-1.415-1.398-2.217-3.302-2.229-5.291 0 0-.069-11.423-.069-15.803 0-3.581-.039-15.666-.039-15.666-.006-1.993.781-3.906 2.188-5.318s3.318-2.205 5.312-2.205h15.48c12.956 0 23.496 10.402 23.496 23.189s-10.54 23.19-23.496 23.19c-4.284 0-15.326.068-15.326.068-.016 0-.031 0-.046 0zm7.414-31.448c.009 3.201.017 6.566.017 8.189 0 1.909.014 5.163.028 8.217 2.945-.015 6.059-.027 7.913-.027 4.605 0 8.496-3.75 8.496-8.19 0-4.439-3.891-8.189-8.496-8.189z" fill="#9957bc"/></g></g><g><g><path d="m308.803 86.588c-4.142 0-7.5-3.357-7.5-7.5v-55.596c0-4.143 3.358-7.5 7.5-7.5 4.143 0 7.5 3.357 7.5 7.5v55.596c0 4.143-3.358 7.5-7.5 7.5z" fill="#9957bc"/></g><g><path d="m308.91 62.44c-1.973 0-3.866-.777-5.271-2.164-1.415-1.398-2.217-3.301-2.229-5.29 0 0-.069-11.424-.069-15.804 0-3.581-.038-15.666-.038-15.666-.006-1.993.781-3.907 2.189-5.318 1.407-1.412 3.318-2.205 5.311-2.205h15.48c12.956 0 23.496 10.402 23.496 23.189s-10.54 23.19-23.496 23.19c-4.284 0-15.326.068-15.326.068-.016 0-.031 0-.047 0zm7.414-31.448c.009 3.201.017 6.566.017 8.189 0 1.909.014 5.163.028 8.217 2.945-.015 6.059-.027 7.913-.027 4.605 0 8.496-3.75 8.496-8.19 0-4.439-3.891-8.189-8.496-8.189z" fill="#9957bc"/></g></g><path d="m286.89 394.25v115.817c35.242-4.434 68.149-16.359 97.088-34.121v-81.696z" fill="#3ecd8d"/><path d="m286.89 363.755v31.995h97.088v-32.015c-.133.005-.263.02-.397.02z" fill="#00b7a0"/><path d="m183.221 443.631v57.349c13.502 4.197 27.497 7.277 41.889 9.087v-115.25c-23.686 3.621-41.889 24.131-41.889 48.814z" fill="#3ecd8d"/><path d="m128.022 363.735v112.211c17.558 10.777 36.584 19.389 56.699 25.499v-57.814c0-23.895 17.505-43.697 40.389-47.293v-32.582h-96.691c-.134-.001-.265-.016-.397-.021z" fill="#00b7a0"/><path d="m225.11 298.758h-96.691c-6.13 0-11.145 5.015-11.145 11.145v43.636c0 6.13 5.015 11.145 11.145 11.145h96.691z" fill="#3ecd8d"/><path d="m332.8 331.721c0-15.391 10.03-28.432 23.908-32.963h-69.818v65.926h69.817c-13.877-4.531-23.907-17.572-23.907-32.963z" fill="#3ecd8d"/><path d="m383.581 298.758h-27.874c-13.877 4.531-23.908 17.573-23.908 32.963 0 15.391 10.03 28.432 23.908 32.963h27.874c6.13 0 11.145-5.015 11.145-11.145v-43.636c.001-6.13-5.015-11.145-11.145-11.145z" fill="#baee63"/><path d="m232.601 394.25c-3.272 0-6.468.328-9.564.938v114.598c10.783 1.45 21.783 2.214 32.963 2.214s22.18-.764 32.963-2.215v-115.535z" fill="#ffc242"/><path d="m232.601 395.75h56.362v-31.995h-65.926v32.952c3.091-.626 6.289-.957 9.564-.957z" fill="#fea53d"/><path d="m223.037 298.758h65.926v65.926h-65.926z" fill="#fef156"/><circle cx="429.186" cy="49.291" fill="#fea53d" r="15.399"/><circle cx="82.814" cy="49.291" fill="#fc753f" r="15.399"/><g><path d="m448.387 424.358c-2.662 0-5.344-.846-7.616-2.595-5.47-4.211-6.491-12.06-2.28-17.53 4.467-5.803 3.852-10.991-2.058-17.347-17.473-18.792-12.811-37.18-2.624-48.122 4.704-5.052 12.612-5.335 17.667-.63 5.052 4.705 5.334 12.614.63 17.667-1.825 1.96-5.224 5.609 2.636 14.063 10.625 11.428 12.142 22.472 11.543 29.724-.728 8.817-4.743 15.685-7.983 19.895-2.463 3.198-6.169 4.875-9.915 4.875z" fill="#02c0fc"/></g><g><path d="m69.256 317.949c-2.662 0-5.344-.846-7.616-2.595-5.47-4.211-6.491-12.06-2.28-17.53 4.467-5.803 3.852-10.991-2.058-17.347-17.473-18.793-12.812-37.18-2.624-48.122 4.704-5.052 12.612-5.335 17.667-.63 5.052 4.705 5.334 12.614.63 17.667-1.825 1.96-5.224 5.609 2.636 14.063 10.625 11.428 12.142 22.472 11.543 29.724-.729 8.817-4.743 15.686-7.983 19.895-2.463 3.197-6.169 4.875-9.915 4.875z" fill="#02c0fc"/></g><path d="m473.563 258.569-13.011-13.67c-4.874-5.12-13.051-5.323-18.171-.449l-13.67 13.011c-5.121 4.874-5.323 13.051-.449 18.171l13.011 13.67c4.874 5.12 13.051 5.323 18.171.449l13.67-13.011c5.12-4.873 5.323-13.05.449-18.171z" fill="#fef156"/><path d="m74.59 414.84 8.475-16.862c3.174-6.316.604-14.081-5.713-17.256l-16.862-8.475c-6.316-3.175-14.081-.604-17.256 5.712l-8.475 16.862c-3.174 6.316-.604 14.081 5.712 17.256l16.862 8.474c6.318 3.176 14.083.606 17.257-5.711z" fill="#fe3d97"/></g></svg>