<?xml version="1.0" encoding="UTF-8"?>
<svg id="PRINT" xmlns="http://www.w3.org/2000/svg" version="1.1" xmlns:xlink="http://www.w3.org/1999/xlink" viewBox="0 0 362.5 500">
  <!-- Generator: Adobe Illustrator 29.1.0, SVG Export Plug-In . SVG Version: 2.1.0 Build 142)  -->
  <defs>
    <clipPath id="clippath">
      <rect width="362.5" height="500" fill="none"/>
    </clipPath>
  </defs>
  <rect y="0" width="362.5" height="500" fill="#fff"/>
  <g clip-path="url(#clippath)">
    <circle cx="3.7" cy="17.2" r="43.8" transform="translate(-.6 .1) rotate(-2)" fill="#747ef7"/>
    <circle cx="368.9" cy="532" r="88" fill="#747ef7"/>
    <circle cx="361.5" cy="172.5" r="47.6" fill="#ffc866"/>
    <circle cx="6.3" cy="398.3" r="26.7" fill="#ffc866"/>
  </g>
  <circle cx="194.3" cy="216" r="77.9" transform="translate(-95.9 200.7) rotate(-45)" fill="#ffc866"/>
  <g>
    <g>
      <g>
        <path d="M97,144.2c0,1.4,0,2.7,0,4.1,0,4,.2,8,.6,12l-8.6-.6c.7-5.2.9-10.5.8-15.8h0c0-1.1,0-2.3-.1-3.4-.1-2.4-.3-4.8-.6-7.2-.2-1.4-.4-2.9-.6-4.3-.2-1.1-.3-2.1-.5-3.2,2.3-.1,4.7-.4,7.1-.5,1,0,2-.2,3-.2,0,.6-.1,1.2-.2,1.8-.2,1.9-.3,3.8-.5,5.6,0,1.4-.2,2.8-.2,4.3-.1,2.5-.2,4.9-.2,7.4Z" fill="#666b46"/>
        <g>
          <path d="M89.1,133.4c-.2-1.4-.4-2.9-.6-4.3.2,0,.3,0,.5,0,2.8,0,2.8,4.3,0,4.4Z" fill="#8e935f"/>
          <path d="M98.1,125.1c0,.6-.1,1.2-.2,1.8-.2,0-.5.1-.8.1-1.2,0-1.9-.8-2.1-1.7,1,0,2-.2,3-.2Z" fill="#8e935f"/>
          <path d="M97.4,132.6c0,1.4-.2,2.8-.2,4.3-.1,0-.3,0-.4,0-2.8,0-2.8-4.4,0-4.4s.4,0,.6,0Z" fill="#8e935f"/>
          <path d="M91.1,144.4c-.6,0-1-.2-1.3-.4h0c0-1.1,0-2.3-.1-3.4.3-.3.8-.5,1.4-.5,2.8,0,2.8,4.4,0,4.4Z" fill="#8e935f"/>
          <path d="M97,148.3c-.2,0-.5.1-.8.1-2.8,0-2.8-4.4,0-4.4s.5,0,.8.1c0,1.4,0,2.7,0,4.1Z" fill="#8e935f"/>
        </g>
      </g>
      <path d="M92.8,123.6c-.6.5-1.4.4-1.8-.2-1.9-2.2-2.6-5.3-2.1-8.2.4-2.7,1.7-5.1,3.4-7.2.6-.7,1.7-.6,2.1.2,1.3,2.1,3.1,3.9,3.5,6.4.3,1.9-.3,3.8-1.4,5.4-.8,1.3-2.5,2.5-3.8,3.6Z" fill="#ff6000"/>
      <path d="M92.6,123.4c-.4.3-.9.3-1.3-.1-1.3-1.5-1.8-3.7-1.4-5.6.3-1.8,1.2-3.5,2.4-5,.4-.5,1.1-.4,1.5.1.9,1.5,2.1,2.7,2.4,4.4.2,1.3-.2,2.6-.9,3.7-.6.9-1.7,1.7-2.6,2.5Z" fill="#fca53d"/>
    </g>
    <g>
      <path d="M129.5,161.2c-24.6-.7-49.5-.4-74.2.3-.1,10.2-.1,20.4,0,30.5h74.5c-.7-10.3-.9-20.5-.4-30.8Z" fill="#fca53d"/>
      <path d="M61.9,161.8c-.2,8.3-.4,16.6-.6,24.9,0,2.4-.1,4.8-.2,7.2,0,1.3,1.9,1.3,1.9,0,.2-8.3.4-16.6.6-24.9,0-2.4.1-4.8.2-7.2,0-1.3-1.9-1.3-1.9,0Z" fill="#ffc866"/>
      <path d="M73.6,168.6c0-2.4-.2-4.8-.3-7.1,0-1.2-2-1.3-1.9,0,.3,8.3.7,16.7,1,25.1l.3,7.1c0,1.2,2,1.3,1.9,0-.3-8.3-.7-16.7-1-25Z" fill="#ffc866"/>
      <path d="M81,167.2c0-2.4,0-4.8,0-7.2,0-1.3-2-1.3-1.9,0l.2,24.9c0,2.4,0,4.8,0,7.2,0,1.3,2,1.3,1.9,0,0-8.3-.1-16.6-.2-24.9Z" fill="#ffc866"/>
      <path d="M89.8,167.5c-.1-2.4-.2-4.8-.3-7.2,0-1.2-2-1.3-1.9,0,.4,8.5.7,16.9,1.1,25.4.1,2.4.2,4.8.3,7.2,0,1.2,2,1.3,1.9,0-.4-8.5-.7-16.9-1.1-25.4Z" fill="#ffc866"/>
      <path d="M102,167.5v-7.1c-.1-1.3-2-1.3-2,0,.1,8.2.2,16.5.3,24.7,0,2.4,0,4.7,0,7.1,0,1.3,2,1.3,1.9,0-.1-8.2-.2-16.5-.3-24.7Z" fill="#ffc866"/>
      <path d="M108.2,167.2c-.3-2.3-.6-4.6-.9-7,0-.5-.4-1-1-1s-1,.4-1,1c1.1,8.2,2.2,16.3,3.3,24.5.3,2.3.6,4.6.9,7,0,.5.4,1,1,1s1-.4,1-1c-1.1-8.2-2.2-16.3-3.3-24.5Z" fill="#ffc866"/>
      <path d="M120.8,159.8c0-1.2-1.9-1.2-1.9,0-.5,8.5-.8,16.9-.7,25.4,0,2.4,0,4.8.1,7.3,0,1.2,2,1.3,1.9,0-.3-8.5-.2-17,.1-25.4.1-2.4.2-4.8.4-7.3Z" fill="#ffc866"/>
      <path d="M151.3,193.3c-39-1.4-78.3-1.9-117.4-1.5,1.7,16.2,2.4,32.5,2.3,48.8l114.2-1.2c-.7-15.4-.4-30.7.9-46.1Z" fill="#8e935f"/>
      <path d="M178.1,304.8l-160.9-1.5c-.2-5.9-.4-11.7-.7-17.6,0-.7,0-1.3,0-1.9,0-1.8-.1-3.5-.2-5.3-.2-5-.4-10-.6-15,0-1.2,0-2.4-.1-3.6,0-.7,0-1.3,0-1.9l-.7-19.4c54-.4,108.2-.4,162.2,1.3.1,8.5.3,17,.4,25.6,0,.6,0,1.3,0,1.9,0,1.5,0,2.9,0,4.4,0,3.5.1,7,.2,10.5,0,1.5,0,3.1,0,4.6,0,.6,0,1.3,0,1.9,0,5.3.2,10.7.3,16Z" fill="#ffc866"/>
      <g>
        <path d="M157.4,362.1l-121,.3c-1.4,0-2-1.6-1.1-2.6,1.1-1.2,2-2.5,2.7-4.1,1.2-3,1.3-6.3,1.5-9.6.2-3.2.5-6.6,2-9.4,2.3-4.5,7.2-7.1,12.1-8.4,4.9-1.3,10-1.5,14.9-2.6s9.9-3.3,12.7-7.5c2.4-3.6,2.9-8.1,2.8-12.4h22.8c.3,3.1.6,5.8,1.5,8.7.9,2.9,2.4,5.7,4.9,7.6,4.1,3.2,9.7,3.1,14.9,3s10.9,0,14.7,3.5c2.2,1.9,3.4,4.7,4.4,7.4,1.7,4.7,2.9,9.7,4.8,14.3,1.4,3.3,3.6,6.5,6.3,9,1,.9.4,2.6-1,2.6Z" fill="#3f3c39"/>
        <path d="M16.9,310.1c54.8-.4,108.2,0,159.9,1.6,2.4,0,4.3-2.1,4-4.5l-.2-1.7c-.3-2-1.9-3.5-3.9-3.5-56.3-.3-109.8-.7-159.6-.9-2.2,0-4,1.7-4,3.9v1c0,2.2,1.7,4.1,3.9,4.1Z" fill="#f24c70"/>
      </g>
      <path d="M11.1,235.5c-1.4,1.3-1.8,3.7-1.2,5.5.8,2.3,3.3,3.6,5.7,3.7,2.4,0,4.7-.8,7-1.7-.8,1,.2,2.6,1.4,2.8s2.4-.6,3.4-1.5c-.4,3,1,6.2,3.5,7.9,2.5,1.7,6,1.8,8.6.2,2.6-1.6,4.2-4.7,3.9-7.7,1.2,1.7,3.3,2.9,5.4,2.9,2.1,0,4.2-.9,5.5-2.6.7,1,1.6,1.2,2.8,1.1,1.2,0,2.3-.8,2.9-1.9-.3,1.8.8,3.5,2.3,4.5,1.5,1,3.3,1.3,5.1,1.4,2.5.1,5-.1,7.2-1.3s3.9-3.3,4.2-5.7c.9,1.4,2.6,2.3,4.3,2.2,1.7,0,3.3-1,4.2-2.4,2.1,2.2,5.8,2.6,8.3,1,.1.8.8,1.5,1.6,1.5.8,0,1.6-.5,1.9-1.3-.4,1.8.3,3.7,1.6,5,1.2,1.3,3,2.1,4.7,2.5,5.7,1.3,12.2-1.7,14.9-7,1.2,2,3.9,2.5,6.3,2.8,1.5.2,3,.3,4.4-.2,1.4-.6,2.5-2.1,2-3.5.6.8,1.9,1.5,2.9,1.3s1.9-1,2.1-2c2.1,2.2,5.3,3.3,8.3,3.1,3-.2,5.9-1.9,7.7-4.3.1,1.7,1.2,3.3,2.7,4,1.5.7,3.5.5,4.8-.5,1.1,2.2,3.6,3.7,6.1,3.7,2.5,0,4.9-1.6,6-3.9.4,2.1,2.3,3.7,4.4,4,2.1.3,4.3-.8,5.4-2.6,1.2-1.8,1.4-4.1.7-6.1-.5-1.3-1.3-2.5-2.5-3.1-1.8-.9-3.9-.5-5.8,0,.8-1.3,0-3.2-1.3-3.9-1.4-.7-3.2-.2-4.2.9.5-5.1-3.5-10.2-8.6-10.9-5.1-.7-10.3,3.1-11.2,8.2-1-1.8-3.2-3-5.3-2.8-2.1.2-4.1,1.6-4.8,3.6-.8-.9-2.1-1.3-3.2-.9-1.1.3-2,1.3-2.2,2.5-1.3-3.3-4.7-5.6-8.2-5.6-3.5,0-7,2.4-8.2,5.7-1.3-1.6-4.5-1.8-5.7-.1-.6-3.3-3.6-5.9-6.9-6.1-3.3-.2-6.5,2.2-7.4,5.4-.6-1.9-2.5-3.3-4.4-3.4s-4,1-4.9,2.7c-1.3-.8-3-1-4.4-.4-.2-3.5-3.1-6.7-6.6-7.1s-7.1,1.9-8.1,5.3c-1.9-3-5.5-4.9-9.1-4.6-3.6.2-6.9,2.6-8.3,5.9-1.6-1.8-4.5-2-6.4-.6-.5-3.5-4.5-5.7-8-5s-6.1,3.7-7.3,7c-.8-1.3-2.4-2.1-3.9-1.9-1.5.2-2.8,1.5-3.2,2.9-1.4-2.4-8.2-2.6-12.6,1.6Z" fill="#f24c70"/>
      <path d="M149.6,189.1c1.4,0,3,0,4,1,1.1,1.1,1,2.9.9,4.5-.6,5.9-1.2,11.8-1.9,17.8-.1,1-.3,2.2-1.1,2.8-1.2,1-3.2.2-4-1.2s-.6-3.1-.5-4.6c.1-2.1.2-4.3-.6-6.2-.8-1.9-2.9-3.4-5-2.9-1.1.3-2.1,1.1-3.2.8-1.4-.3-1.9-2.1-3.3-2.5-1.2-.4-2.4.5-3,1.5-.5,1.1-.5,2.4-.5,3.6.1,4.8.3,9.6.4,14.3,0,2.1-.5,5-2.6,5-1.6,0-2.7-1.8-3-3.4-.7-3.7.4-7.5.4-11.3,0-3.8-1.6-8.2-5.3-9.1-2.9-.8-5.9.9-8.8.2-1.5-.3-2.7-1.3-4.1-1.8-1.4-.6-3.1-.8-4.3.1-2.4,2-.4,6.9-3,8.5-1.9,1.2-4.3-.6-5.6-2.5-1.3-1.9-2.6-4.2-4.8-4.4-1.9-.2-3.9,1.3-5.8.7-2.2-.8-3-4.1-5.3-4.2-2.2,0-3,2.9-3.1,5.1-.2,4.9-.4,9.9-.6,14.8,0,2.3-.8,5.3-3.1,5.5-1.2,0-2.4-.8-2.9-1.9s-.7-2.4-.8-3.6c-.3-3.8-.6-7.7-.9-11.5-.1-1.4-.2-2.9-1-4.1-.8-1.2-2.4-2-3.7-1.3-1.1.6-1.5,2-2.6,2.6-1.6.8-3.4-.6-4.6-1.9s-2.8-2.9-4.5-2.3c-3.1,1-1.9,7.3-5.2,7.7-3.6.4-3.7-7.3-7.3-6.8-1.9.3-2.5,2.8-2.5,4.8,0,3.8-.1,7.5-.2,11.3,0,1.9-.7,4.4-2.6,4.2-1.6-.1-2.1-2.2-2.2-3.8-.2-4.7-.5-9.5-.7-14.2-.1-2.4-.3-4.7-.4-7.1-.1-2.3.4-2.4,2.7-2.4,9.5-.1,18.9-.2,28.4-.3,18.8-.2,37.6-.5,56.4-.7,10.5-.1,21-.4,31.5-.4Z" fill="#3f3c39"/>
      <path d="M58.2,158.3c-1.2,0-2.5,0-3.7.4s-2.2,1.3-2.4,2.5c-.2,1.5.9,2.9,2.3,3.4,1.4.6,3,.4,4.5.2,1.5-.3,3-.6,4.5-.6,2.1,0,4.2,1,6.3.7,2.1-.3,3.9-1.7,5.9-2,4.1-.6,8,3.2,12.1,2.2,1.9-.5,3.4-2,5.3-2.2,2.2-.2,4.3,1.3,6.5,1.1,1.7-.2,3.1-1.4,4.8-1.7,3.5-.7,6.8,2.4,10.3,1.8,1.7-.3,3.2-1.6,4.9-2,1.7-.4,3.4.1,5.1.5,1.7.4,3.5.8,5.1.3,1.6-.5,2.9-2.4,2.1-3.9-.5-1-1.7-1.5-2.9-1.6-1.1,0-2.3.1-3.4,0-2.7,0-5.2-1.5-8-1.9-3.6-.5-7.1.9-10.7,1.4-4,.6-8.2,0-12.2-.3-5-.4-10.1-.4-15.1,0-4.3.3-8.4,1.4-12.6,1.5h-8.7Z" fill="#8e935f"/>
      <path d="M65.1,158c.9-.7,1.4-1.8,1.4-2.9,0-1.1-.4-2.2-1.2-3-.7-.8-1.7-1.6-1.9-2.6,0-.4,0-.9-.4-1.2-.4-.4-1.1-.2-1.6,0-1.7.8-3,2.2-3.9,3.8-.4.8-.8,1.7-.9,2.6-.1.9,0,1.8.5,2.6.5.8,1.5,1.5,2.5,1.6,1.1.1,2.3.2,3.4,0,.7-.1,1.4-.4,2-.8Z" fill="#bc3156"/>
      <path d="M80.5,158c.9-.7,1.4-1.8,1.4-2.9,0-1.1-.4-2.2-1.2-3-.7-.8-1.7-1.6-1.9-2.6,0-.4,0-.9-.4-1.2-.4-.4-1.1-.2-1.6,0-1.7.8-3,2.2-3.9,3.8-.4.8-.8,1.7-.9,2.6-.1.9,0,1.8.5,2.6.5.8,1.5,1.5,2.5,1.6,1.1.1,2.3.2,3.4,0,.7-.1,1.4-.4,2-.8Z" fill="#bc3156"/>
      <path d="M95.9,158c.9-.7,1.4-1.8,1.4-2.9,0-1.1-.4-2.2-1.2-3-.7-.8-1.7-1.6-1.9-2.6,0-.4,0-.9-.4-1.2-.4-.4-1.1-.2-1.6,0-1.7.8-3,2.2-3.9,3.8-.4.8-.8,1.7-.9,2.6-.1.9,0,1.8.5,2.6.5.8,1.5,1.5,2.5,1.6,1.1.1,2.3.2,3.4,0,.7-.1,1.4-.4,2-.8Z" fill="#bc3156"/>
      <path d="M111.3,158c.9-.7,1.4-1.8,1.4-2.9,0-1.1-.4-2.2-1.2-3-.7-.8-1.7-1.6-1.9-2.6,0-.4,0-.9-.4-1.2-.4-.4-1.1-.2-1.6,0-1.7.8-3,2.2-3.9,3.8-.4.8-.8,1.7-.9,2.6-.1.9,0,1.8.5,2.6.5.8,1.5,1.5,2.5,1.6,1.1.1,2.3.2,3.4,0,.7-.1,1.4-.4,2-.8Z" fill="#bc3156"/>
      <path d="M126.7,158c.9-.7,1.4-1.8,1.4-2.9,0-1.1-.4-2.2-1.2-3-.7-.8-1.7-1.6-1.9-2.6,0-.4,0-.9-.4-1.2-.4-.4-1.1-.2-1.6,0-1.7.8-3,2.2-3.9,3.8-.4.8-.8,1.7-.9,2.6-.1.9,0,1.8.5,2.6.5.8,1.5,1.5,2.5,1.6,1.1.1,2.3.2,3.4,0,.7-.1,1.4-.4,2-.8Z" fill="#bc3156"/>
      <path d="M177.5,267.3c-13.7-.4-27.4-.9-41-1.4-25.7-1-51.4-2.1-77.1-3.5-14.6-.8-29.2-1.6-43.7-2.5,0-.7,0-1.3,0-1.9,3.3.2,6.7.4,10,.6,25.7,1.5,51.3,2.9,77,4,24.9,1.1,49.9,2,74.8,2.8,0,.6,0,1.3,0,1.9Z" fill="#3f3c39"/>
      <path d="M177.9,288.8c-5.5-.1-11-.2-16.5-.3-26-.5-52-1-77.9-1.5-22.3-.4-44.6-.9-66.9-1.3,0-.7,0-1.3,0-1.9,10.9.2,21.7.4,32.6.6,26,.5,52,1,77.9,1.5,16.9.3,33.9.6,50.8,1,0,.6,0,1.3,0,1.9Z" fill="#3f3c39"/>
      <path d="M177.8,282.3c-53.8-2.8-107.6-4-161.4-3.7-.2-5-.4-10-.6-15,53.9,3.4,107.8,6.1,161.8,8.2,0,3.5.1,7,.2,10.5Z" fill="#fca53d"/>
      <g>
        <path d="M43.2,221.3c.4,1,1.5,1.7,2.6,1.6,1,0,2-.6,2.4-1.5,1.8-3.9-6.7-4.4-5-.1Z" fill="#666b46"/>
        <path d="M59.8,217.1c.4,1,1.5,1.7,2.6,1.6,1,0,2-.6,2.4-1.5,1.8-3.9-6.7-4.4-5-.1Z" fill="#666b46"/>
        <path d="M81.1,218c.4,1,1.5,1.7,2.6,1.6,1,0,2-.6,2.4-1.5,1.8-3.9-6.7-4.4-5-.1Z" fill="#666b46"/>
        <path d="M107.6,210c.4,1,1.5,1.7,2.6,1.6,1,0,2-.6,2.4-1.5,1.8-3.9-6.7-4.4-5-.1Z" fill="#666b46"/>
        <path d="M140.7,218c.4,1,1.5,1.7,2.6,1.6,1,0,2-.6,2.4-1.5,1.8-3.9-6.7-4.4-5-.1Z" fill="#666b46"/>
        <path d="M96.2,225.7c.4,1,1.5,1.7,2.6,1.6,1,0,2-.6,2.4-1.5,1.8-3.9-6.7-4.4-5-.1Z" fill="#666b46"/>
        <path d="M49.4,211.9c.6,1.4,2.1,2.3,3.6,2.3,1.4,0,2.8-.8,3.4-2.1,2.5-5.5-9.4-6.2-7-.2Z" fill="#666b46"/>
        <path d="M112.6,222.6c.6,1.4,2.1,2.3,3.6,2.3,1.4,0,2.8-.8,3.4-2.1,2.5-5.5-9.4-6.2-7-.2Z" fill="#666b46"/>
        <path d="M134.7,207.6c.6,1.4,2.1,2.3,3.6,2.3,1.4,0,2.8-.8,3.4-2.1,2.5-5.5-9.4-6.2-7-.2Z" fill="#666b46"/>
        <path d="M85.2,210.3c.6,1.4,2.1,2.3,3.6,2.3,1.4,0,2.8-.8,3.4-2.1,2.5-5.5-9.4-6.2-7-.2Z" fill="#666b46"/>
      </g>
    </g>
    <g>
      <path d="M154.1,233.7c.6.7,1.7,1.1,2.6.8.6-.2,1.2-.6,1.7-1.1,1.3-1.5,1.2-3.9-.9-4.7-1.5-.6-3.1.5-3.7,1.8-.5,1-.4,2.2.3,3.1Z" fill="#bc3156"/>
      <path d="M112.4,245.7c.6.7,1.7,1.1,2.6.8.6-.2,1.2-.6,1.7-1.1,1.3-1.5,1.2-3.9-.9-4.7-1.5-.6-3.1.5-3.7,1.8-.5,1-.4,2.2.3,3.1Z" fill="#bc3156"/>
      <path d="M75.3,235.6c.6.7,1.7,1.1,2.6.8.6-.2,1.2-.6,1.7-1.1,1.3-1.5,1.2-3.9-.9-4.7-1.5-.6-3.1.5-3.7,1.8-.5,1-.4,2.2.3,3.1Z" fill="#bc3156"/>
      <path d="M37.1,245.7c.6.7,1.7,1.1,2.6.8.6-.2,1.2-.6,1.7-1.1,1.3-1.5,1.2-3.9-.9-4.7-1.5-.6-3.1.5-3.7,1.8-.5,1-.4,2.2.3,3.1Z" fill="#bc3156"/>
      <path d="M15.5,240.4c.6.7,1.7,1.1,2.6.8.6-.2,1.2-.6,1.7-1.1,1.3-1.5,1.2-3.9-.9-4.7-1.5-.6-3.1.5-3.7,1.8-.5,1-.4,2.2.3,3.1Z" fill="#bc3156"/>
      <path d="M160.9,237.6c.4.3.9.5,1.4.4.5,0,1-.2,1.3-.6.5-.6.5-1.5,0-2.1-1.3-1.2-4.5.6-2.7,2.2Z" fill="#bc3156"/>
      <path d="M145.3,242.6c.4.3.9.5,1.4.4.5,0,1-.2,1.3-.6.5-.6.5-1.5,0-2.1-1.3-1.2-4.5.6-2.7,2.2Z" fill="#bc3156"/>
      <path d="M122.1,235.1c.4.3.9.5,1.4.4.5,0,1-.2,1.3-.6.5-.6.5-1.5,0-2.1-1.3-1.2-4.5.6-2.7,2.2Z" fill="#bc3156"/>
      <path d="M104.7,235.1c.4.3.9.5,1.4.4.5,0,1-.2,1.3-.6.5-.6.5-1.5,0-2.1-1.3-1.2-4.5.6-2.7,2.2Z" fill="#bc3156"/>
      <path d="M53.7,234.6c.4.3.9.5,1.4.4.5,0,1-.2,1.3-.6.5-.6.5-1.5,0-2.1-1.3-1.2-4.5.6-2.7,2.2Z" fill="#bc3156"/>
      <path d="M33.3,233.6c.4.3.9.5,1.4.4.5,0,1-.2,1.3-.6.5-.6.5-1.5,0-2.1-1.3-1.2-4.5.6-2.7,2.2Z" fill="#bc3156"/>
      <path d="M71.5,242.6c.4.3.9.5,1.4.4s1-.2,1.3-.6c.5-.6.5-1.5,0-2.1-1.3-1.2-4.5.6-2.7,2.2Z" fill="#bc3156"/>
    </g>
  </g>
  <g>
    <g>
      <g>
        <path d="M202.1,243.3h0c0,.1-5.2.5-5.2.5,0-.2,0-.4,0-.6,0-.7-.1-1.4-.2-2.1-.2-1.9-.4-3.8-.6-5.7,0-.7-.2-1.4-.2-2-.2-1.8-.5-3.7-.8-5.5,0-.7-.2-1.3-.3-2-.3-1.8-.6-3.6-.9-5.4-.1-.6-.2-1.3-.4-1.9-.3-1.9-.7-3.8-1.1-5.7,2.9-1.4,4.3-1.8,7.2-3.2,0,.9,0,1.9,0,2.8,0,.7,0,1.5,0,2.2,0,2,.2,4,.3,5.9,0,.7,0,1.4.1,2.2.1,1.9.3,3.9.4,5.8h0c0,.7.1,1.4.2,2.1.2,1.9.4,3.8.6,5.7,0,.7.2,1.4.2,2.1.2,1.6.4,3.2.6,4.8Z" fill="#f24c70"/>
        <path d="M199.7,214.7l-5.9,5.9c-.1-.6-.2-1.3-.4-1.9l6.1-6.1c0,.7,0,1.5,0,2.2Z" fill="#bc3156"/>
        <path d="M200.1,222.8l-5.1,5.1c0-.7-.2-1.3-.3-2l5.3-5.3c0,.7,0,1.4.1,2.2Z" fill="#bc3156"/>
        <path d="M200.7,230.8l-4.7,4.7c0-.7-.2-1.4-.2-2l4.8-4.8c0,.7.1,1.4.2,2.1Z" fill="#bc3156"/>
        <path d="M201.5,238.5l-4.7,4.7c0-.7-.1-1.4-.2-2.1l4.7-4.7c0,.7.2,1.4.2,2.1Z" fill="#bc3156"/>
        <path d="M195.8,209.9c-.4.4-1.1.4-1.5,0-1.7-1.7-2.6-4.2-2.4-6.6.1-2.3,1-4.4,2.2-6.3.4-.6,1.3-.6,1.8,0,1.3,1.6,2.9,3,3.5,5,.4,1.5,0,3.2-.7,4.6-.6,1.1-1.8,2.3-2.9,3.3Z" fill="#ff6000"/>
        <path d="M195.6,209.7c-.3.3-.8.3-1.1,0-1.2-1.1-1.8-2.9-1.7-4.5,0-1.5.7-3,1.5-4.3.3-.4.9-.4,1.2,0,.9,1.1,2,2,2.4,3.4.3,1.1,0,2.2-.5,3.2-.4.8-1.3,1.6-2,2.3Z" fill="#fca53d"/>
      </g>
      <g>
        <path d="M215.3,217.8c0,.7-.1,1.4-.2,2.1-.2,2.9-.4,5.2-.5,7.4-.1,2.4-.2,4.6-.3,7.1,0,2.1,0,4.3,0,7.1,0,.7,0,1.4,0,2.2h-.1c0,.1-5.2,0-5.2,0,0-3.8,0-6.5,0-9h0c0-2.2-.2-4.3-.5-6.6-.2-2.2-.5-4.6-.8-7.8,3-1.1,4.5-1.3,7.5-2.5Z" fill="#ff6000"/>
        <path d="M215.2,219.9c-.2,2.9-.4,5.2-.5,7.4-1.7-.3-3.1-1.8-3.1-3.7s1.6-3.6,3.6-3.7Z" fill="#fff"/>
        <path d="M211,231.5c0,1.3-.7,2.5-1.8,3.2,0-2.2-.2-4.3-.5-6.6,1.3.6,2.3,1.9,2.3,3.4Z" fill="#fff"/>
        <path d="M214.5,241.5c-1.5-.5-2.6-1.9-2.6-3.6s1.1-3.1,2.6-3.5c0,2.1,0,4.3,0,7.1Z" fill="#fff"/>
        <path d="M211.7,217.6c-.5.4-1.1.3-1.5-.1-1.5-1.8-2.1-4.5-1.8-6.9.3-2.2,1.4-4.3,2.9-6,.5-.6,1.4-.5,1.8.1,1.1,1.8,2.6,3.3,3,5.3.3,1.6-.3,3.2-1.1,4.5-.7,1.1-2.1,2.1-3.2,3Z" fill="#ff6000"/>
        <path d="M211.5,217.4c-.3.3-.8.2-1.1,0-1.1-1.3-1.5-3.1-1.2-4.7.2-1.5,1-2.9,2-4.1.3-.4,1-.3,1.2,0,.7,1.2,1.8,2.2,2,3.7.2,1.1-.2,2.2-.8,3.1-.5.7-1.4,1.4-2.2,2.1Z" fill="#fca53d"/>
      </g>
      <g>
        <path d="M243.5,216.4c-.3,2.6-.6,4.8-.9,6.8-.4,3.5-.8,6.3-1,9.3-.2,2.2-.3,4.6-.5,7.4,0,1.4-.1,2.8-.2,4.5h-.1c0,.1-5.6-.3-5.6-.3.5-6.4.6-10.1.5-14.2,0-1.9-.1-4-.2-6.4,0-1.4-.1-3-.2-4.8,3.1-1,4.7-1.1,7.6-2h0c.2,0,.4-.1.7-.2Z" fill="#ff6000"/>
        <path d="M241.6,232.4c-.2,2.2-.3,4.6-.5,7.4-2,0-3.6-1.7-3.6-3.7s1.7-3.7,3.7-3.7.3,0,.4,0Z" fill="#fff"/>
        <path d="M237.5,226.7c0,1.3-.7,2.5-1.7,3.1,0-1.9-.1-4-.2-6.4,1.2.6,2,1.9,2,3.3Z" fill="#fff"/>
        <path d="M243.5,216.4c-.3,2.6-.6,4.8-.9,6.8-1.1-.6-1.9-1.8-1.9-3.2s.9-2.8,2.1-3.4h0c.2,0,.4-.1.7-.2Z" fill="#fff"/>
        <path d="M239.6,215.8c-.5.4-1.3.3-1.7-.2-1.6-2.1-2-5-1.5-7.5.5-2.4,1.8-4.6,3.5-6.4.6-.6,1.5-.5,1.9.3,1.1,2,2.6,3.7,2.9,6,.2,1.7-.5,3.4-1.5,4.8-.8,1.1-2.4,2.2-3.6,3.1Z" fill="#ff6000"/>
        <path d="M239.4,215.7c-.4.3-.9.2-1.1-.2-1.1-1.4-1.4-3.4-1-5.2.4-1.6,1.3-3.1,2.4-4.4.4-.4,1.1-.3,1.3.2.7,1.4,1.8,2.5,2,4.1.1,1.2-.3,2.4-1,3.3-.6.8-1.6,1.5-2.5,2.1Z" fill="#fca53d"/>
      </g>
      <g>
        <g>
          <path d="M230.6,196.4c-.2,1.7-.5,3.7-.7,5.9,0,.7-.1,1.3-.2,2-.2,2.1-.4,4.5-.5,6.9,0,.7,0,1.3-.1,2-.2,2.2-.3,4.5-.4,6.8,0,.7,0,1.3-.1,2-.1,2.3-.3,4.5-.4,6.7,0,.7,0,1.3,0,2-.1,2.4-.2,4.6-.3,6.7,0,.7,0,1.3,0,2,0,1.7-.1,3.2-.2,4.6h-.1c0,0-5.2-.4-5.2-.4,0-.3,0-.6,0-.9,0-.6,0-1.3.1-2,.1-2,.2-4.3.3-6.7,0-.6,0-1.3,0-1.9,0-2.1.1-4.4.2-6.6,0-.6,0-1.3,0-1.9,0-2.2,0-4.4.1-6.6,0-.6,0-1.3,0-1.9,0-2.3,0-4.5,0-6.5,0-.6,0-1.3,0-1.9,0-3.1,0-5.9-.1-8.1,3.1-.9,4.5-1,7.6-2Z" fill="#f24c70"/>
          <path d="M226.9,195.9c-.5.3-1.2.2-1.5-.2-1.4-1.9-1.8-4.6-1.3-7,.5-2.2,1.7-4.2,3.3-5.8.5-.5,1.4-.4,1.8.3,1,1.8,2.4,3.4,2.6,5.5.2,1.6-.5,3.2-1.4,4.4-.8,1-2.2,2-3.4,2.8Z" fill="#ff6000"/>
          <path d="M226.8,195.7c-.3.2-.8.2-1-.2-1-1.3-1.2-3.1-.9-4.8.3-1.5,1.2-2.9,2.3-4,.4-.4,1-.3,1.2.2.7,1.3,1.6,2.4,1.8,3.8.1,1.1-.3,2.2-1,3-.5.7-1.5,1.3-2.3,1.9Z" fill="#fca53d"/>
        </g>
        <path d="M229.9,202.3c0,.7-.1,1.3-.2,2-2.2,1.3-4.4,2.7-6.6,4,0-.6,0-1.3,0-1.9,2.3-1.4,4.5-2.8,6.8-4.1Z" fill="#bc3156"/>
        <path d="M229.1,211.1c0,.7,0,1.3-.1,2-2,1.2-4,2.4-5.9,3.6,0-.6,0-1.3,0-1.9,2-1.2,4-2.5,6.1-3.7Z" fill="#bc3156"/>
        <path d="M228.6,219.9c0,.7,0,1.3-.1,2-1.8,1.1-3.7,2.3-5.5,3.4,0-.6,0-1.3,0-1.9,1.9-1.1,3.7-2.3,5.6-3.4Z" fill="#bc3156"/>
        <path d="M228.1,228.6c0,.7,0,1.3,0,2-1.8,1.1-3.6,2.2-5.3,3.3,0-.6,0-1.3,0-1.9,1.8-1.1,3.6-2.2,5.4-3.3Z" fill="#bc3156"/>
        <path d="M227.7,237.3c0,.7,0,1.3,0,2-1.8,1.1-3.6,2.2-5.4,3.3,0-.6,0-1.3.1-2,1.8-1.1,3.6-2.2,5.4-3.3Z" fill="#bc3156"/>
      </g>
      <path d="M271.5,295.1c-.8-3.5,0-7.2,0-10.8,0-3.6-1.2-7.6-4.5-9.3-1.9-1-4.1-1-6.3-1-26.2,0-52.4.1-78.6.2-3.1,0-6.5.1-8.9,2.1-2.5,2.1-3.1,5.6-2.9,8.7.1,3.2.8,6.4,0,9.5l101.3.7Z" fill="#666b46"/>
      <path d="M286.9,346.6c0,1-.2,1.9-.4,2.7-.5,2-1.6,3.5-3.7,4.2-.8.3-1.8.5-3,.5-.5,0-1,0-1.5,0-1.5,0-3.1,0-4.7,0-.6,0-1.3,0-1.9,0-2,0-4,0-6.1,0-1.6,0-3.2,0-4.8,0-1.6,0-3.2,0-4.7,0-.6,0-1.3,0-1.9,0h-.3c-1.9,0-3.9,0-5.8,0h-4.8c-1.6,0-3.1,0-4.7,0h-1.9c-2,0-4,0-6.1,0s-3.2,0-4.8,0h-6.6c-2,0-4,0-6.1,0s-3.2,0-4.8,0h-4.7c-.6,0-1.3,0-1.9,0h-6.1c-1.6,0-3.2,0-4.8,0s-3.1,0-4.7,0c-.6,0-1.3,0-1.9,0-2,0-4,0-6.1,0h-4.8c-1.6,0-3.1,0-4.7,0h-.2c-.6,0-1.1,0-1.7,0-2.6-.1-5.3-.7-6.7-2.8-.9-1.4-1-3.1-1.1-4.7-.2-3-.3-6-.5-9,0-1.7-.2-3.4-.3-5.1-.5-8.9-.9-17.7-1.4-26.6-.1-2.2-.2-4.6.7-6.6,0,0,0,0,0-.1.8-1.6,2.1-2.7,3.7-3.5,1.4-.7,3-1.1,4.6-1.3.5,0,1.1-.1,1.6-.2,1.2,0,2.3,0,3.4,0,1.2,0,2.4,0,3.6,0,1.4,0,2.7,0,4.1,0,1.6,0,3.2,0,4.8,0,.5,0,1.1,0,1.6,0,2.3,0,4.7,0,7,0,1.4,0,2.7,0,4.1,0,1.6,0,3.2,0,4.8,0,.5,0,1.1,0,1.6,0,2.3,0,4.7,0,7,0,1.4,0,2.7,0,4.1,0,1.6,0,3.2,0,4.8,0,.5,0,1.1,0,1.6,0,2.3,0,4.7,0,7,0,1.4,0,2.7,0,4.1,0,1.6,0,3.2,0,4.8,0,.5,0,1.1,0,1.6,0,2.3,0,4.7,0,7,0,1.4,0,2.7,0,4.1,0,1.6,0,3.2,0,4.8,0,.5,0,1.1,0,1.6,0,2.3,0,4.7,0,7,0,1.4,0,2.7,0,4.1,0,1.6,0,3.2,0,4.7,0,.5,0,1.1,0,1.6,0,1.8,0,3.6,0,5.4,0,.5,0,1.1,0,1.6,0,1.3,0,2.6.4,3.6,1.2.2.2.4.4.6.6,1.3,1.5,1.5,3.8,1.6,5.9.1,2.9.2,5.9.3,8.8.3,7.2.6,14.5.8,21.7,0,2.4.2,4.8.3,7.3,0,2,.2,3.9,0,5.7Z" fill="#ffc866"/>
      <g>
        <path d="M168.9,354h-.2c-.6,0-1.1,0-1.7,0-.5-.9-1.1-1.8-1.6-2.7-2.5-4.5-4.7-9.1-6.7-13.8,0-1.7-.2-3.4-.3-5.1.6,1.7,1.3,3.4,2,5,2.4,5.7,5.2,11.3,8.4,16.6Z" fill="#fca53d"/>
        <path d="M178.4,354h-4.8c-10.2-16.6-13.8-35.7-15.8-54.9,0,0,0,0,0-.1.8-1.6,2.1-2.7,3.7-3.5,2,20.4,5.6,41.5,16.9,58.4Z" fill="#fca53d"/>
        <path d="M186.4,354c-.6,0-1.3,0-1.9,0-.5-.9-1.1-1.8-1.6-2.8-5.5-9.8-9.7-20.2-12.5-31.1-2.2-8.5-3.6-17.1-4.2-25.9.5,0,1.1-.1,1.6-.2.2,3.8.6,7.6,1.2,11.4,1.6,10.9,4.7,21.7,9,31.9,2.4,5.7,5.2,11.3,8.4,16.6Z" fill="#fca53d"/>
        <path d="M195.9,354c-1.6,0-3.2,0-4.8,0-11.1-18-14.4-39.1-16.3-59.9,1.4,0,2.7,0,4.1,0,2,20.9,5.5,42.6,17,59.9Z" fill="#fca53d"/>
        <path d="M203.8,354c-.6,0-1.3,0-1.9,0-.5-.9-1.1-1.8-1.6-2.8-5.4-9.8-9.7-20.2-12.5-31.1-2.2-8.5-3.7-17.2-4.2-26,.5,0,1.1,0,1.6,0,.2,3.8.6,7.5,1.2,11.3,1.6,10.9,4.7,21.7,9,31.9,2.4,5.7,5.2,11.3,8.4,16.6Z" fill="#fca53d"/>
        <path d="M213.3,354c-1.6,0-3.2,0-4.8,0-11.1-18-14.4-39-16.3-59.7,1.4,0,2.7,0,4.1,0,2,20.8,5.5,42.4,17,59.7Z" fill="#fca53d"/>
        <path d="M221.3,354h-1.9c-.5-.9-1.1-1.9-1.6-2.8-5.4-9.8-9.7-20.2-12.5-31.1-2.2-8.4-3.6-17.1-4.2-25.7.5,0,1.1,0,1.6,0,.2,3.7.6,7.4,1.2,11.1,1.6,10.9,4.7,21.7,9,31.9,2.4,5.7,5.2,11.3,8.4,16.6Z" fill="#fca53d"/>
        <path d="M230.8,354c-1.6,0-3.2,0-4.8,0-11-17.9-14.4-38.8-16.3-59.5,1.4,0,2.7,0,4.1,0,2,20.8,5.5,42.3,17,59.4Z" fill="#fca53d"/>
        <path d="M238.7,354h-1.9c-.6-.9-1.1-1.9-1.6-2.8-5.5-9.8-9.7-20.2-12.5-31.1-2.2-8.3-3.6-16.9-4.2-25.5.5,0,1.1,0,1.6,0,.2,3.6.6,7.2,1.2,10.8,1.6,10.9,4.7,21.7,9,31.9,2.4,5.7,5.2,11.3,8.5,16.6Z" fill="#fca53d"/>
        <path d="M248.2,354h-4.8c-11-17.8-14.3-38.7-16.3-59.3,1.4,0,2.7,0,4.1,0,2,20.7,5.5,42.1,17,59.2Z" fill="#fca53d"/>
        <path d="M256.2,354c-.6,0-1.3,0-1.9,0-.5-.9-1.1-1.9-1.6-2.8-5.5-9.8-9.7-20.2-12.5-31.1-2.2-8.3-3.6-16.8-4.1-25.3.5,0,1.1,0,1.6,0,.2,3.6.6,7.1,1.1,10.6,1.6,10.9,4.7,21.7,9,31.9,2.4,5.7,5.2,11.3,8.5,16.7Z" fill="#fca53d"/>
        <path d="M265.8,354.2c-1.6,0-3.2,0-4.8,0-11-17.8-14.3-38.6-16.3-59.1,1.4,0,2.7,0,4.1,0,2,20.7,5.6,42.1,17.1,59.1Z" fill="#fca53d"/>
        <path d="M273.7,354.2c-.6,0-1.3,0-1.9,0-.6-1-1.2-2-1.7-3-5.4-9.8-9.7-20.2-12.5-31.1-2.2-8.2-3.6-16.6-4.1-25.1.5,0,1.1,0,1.6,0,.2,3.5.6,7,1.1,10.4,1.6,10.9,4.7,21.7,9,31.9,2.4,5.8,5.3,11.4,8.6,16.8Z" fill="#fca53d"/>
        <path d="M282.8,353.6c-.8.3-1.8.5-3,.5-.5,0-1,0-1.5,0-11-17.7-14.3-38.4-16.3-58.9,1.4,0,2.7,0,4.1,0,2,20.4,5.5,41.4,16.6,58.3Z" fill="#fca53d"/>
        <path d="M286.9,346.6c0,1-.2,1.9-.4,2.7-5-9.2-8.8-19.1-11.5-29.2-2.2-8.1-3.5-16.5-4.1-24.9.5,0,1.1,0,1.6,0,.2,3.4.6,6.8,1.1,10.2,1.6,10.9,4.7,21.7,9,31.9,1.3,3.1,2.8,6.2,4.3,9.2Z" fill="#fca53d"/>
        <path d="M286.6,333.7c-3.9-12.3-5.8-25.3-7-38.3,1.3,0,2.6.4,3.6,1.2.2.2.4.4.6.6.5,4.9,1.1,9.9,1.9,14.8.3,7.2.6,14.5.8,21.7Z" fill="#fca53d"/>
      </g>
      <path d="M164.6,292.5c-2.6,0-5.5.1-7.4,1.8-2.5,2.2-2.5,6.1-2.4,9.4l.9,15.1c.1,2.3,1,5.4,3.3,5.4,2.1,0,3.1-2.5,3.2-4.5,0-2.1-.2-4.4,1.1-5.9,1-1.1,2.5-1.5,3.7-2.5,1.4-1.2,1.8-3.2,2.2-5.1s.8-3.8,2.3-5c1.4-1.2,4.2-.9,4.6.9.3,1.4-.8,2.9-.2,4.3.4,1,1.5,1.4,2.3,2,3.4,2.4,3.5,7.2,3.3,11.4-.3,4.6-.5,9.2-.8,13.7-.1,2.7.4,6.2,3,6.6,2.1.3,3.8-2,4-4.2.2-2.2-.6-4.3-.6-6.5,0-5.8,5.4-10.5,5.7-16.4.1-2-.4-4-.5-6.1-.1-2,.2-4.2,1.7-5.7s4.3-1.4,5.2.4c.5.9.4,2,.6,3s.8,2.1,1.8,2.1c1,0,1.7-1.1,2.7-1.5,1.2-.5,2.6.4,3.2,1.5.6,1.1.7,2.5.7,3.8.2,11-.2,22.1-1,33.1-.2,2.7,0,6.2,2.4,7.2,2,.9,4.4-.5,5.4-2.5,1-1.9,1-4.2,1-6.4,0-3.8-.1-7.5-.2-11.3,0-1.7,0-3.7,1.5-4.7.9-.6,2.1-.6,3.1-1.1,1.8-.9,2.4-3.1,2.2-5s-.9-3.8-1.1-5.8c-.5-5.8,3.8-10.8,7.8-15,1.3-1.3,3.4-2.8,4.8-1.5.9.8.8,2.1,1,3.3s.9,2.6,2.1,2.4c1.6-.3,1.5-2.9,3-3.5.9-.4,1.9.3,2.4,1.1s.4,1.9.4,2.8c-.1,3.6-.3,7.2-.4,10.8,0,1.7,0,3.7,1.5,4.4,1.7.8,3.6-.8,4.1-2.6.6-2.3,0-4.9.5-7.3.2-1.1,1-2.2,2.1-2.6,1-.3,2.2,0,3.1-.6.8-.5,1-1.6,1.1-2.6,0-1,0-2,.5-2.8.7-1.1,2.2-1.5,3.4-1.1,2.9,1,3,4.7,3.3,7.2.5,3.6,0,7.6,0,11.2,0,7.7-.1,15.4-.2,23.2,0,.8,0,1.7.5,2.4,1,1.5,3.6,1,4.6-.5,1-1.5,1-3.5.9-5.3,0-4.7,0-9.7.9-14.4.9-4.6.6-9.7.9-14.4,0-1,.2-2.1,1-2.6,1.2-.8,3.1.4,4.2-.6.6-.5.7-1.3.6-2,0-.7,0-1.5.3-2.1.3-.6,1.3-1,1.8-.5.3.3.3.8.3,1.3,0,2.1-.1,4.1-.2,6.2,0,1.1,0,2.4,1.1,2.8.8.3,1.8-.2,2.7,0,.7.1,1.3.8,1.6,1.5.3.7.3,1.5.3,2.2,0,4.2,0,8.4-.4,12.6-.1,1.2-.2,2.4.3,3.5.7,1.3,2.7,2.1,3.9,1.1,1.3-1.1,1.6-3.5,1.7-5.2.2-7.6.3-15.1.5-22.7,0-3.7,0-8-2.8-10.5-2.4-2.1-5.9-2.3-9.1-2.3-15.1,0-30.2-.1-45.2-.2-7.5,0-15-.2-22.5-.1-2.8,0-5.4.8-8.2.8-3.8,0-7.6,0-11.3,0-8.5,0-17,.1-25.4.2Z" fill="#ff6000"/>
      <path d="M265.9,267.5l-90.9-.6c-1.7.3-3.1,1.7-3.4,3.3s.6,3.5,2.1,4.2c1.5.8,3.5.5,4.7-.7,0,.9.9,1.8,1.8,2,.9.2,1.9-.3,2.3-1.2.2.5.7.9,1.2.9.5,0,1.1-.3,1.3-.7,0,1.4,1,2.7,2.3,3.2,1.3.6,2.8.5,4.1,0,1.3-.5,2.4-1.4,3.4-2.4.7.5,1.3.9,2.1,1s1.8.1,2.5-.2c.8-.4,1.4-1.1,1.5-2,.3.6,1,.9,1.6,1,.6,0,1.3-.2,1.7-.7.9,1.4,2.6,2.3,4.3,2.4,1.7,0,3.4-.8,4.4-2.2.5.7,1.4,1.2,2.2,1.2.9,0,1.7-.5,2.2-1.3,1.4,1.7,3.5,2.9,5.7,2.9,2.2,0,4.5-1.1,5.4-3.1.5.9,1.8,1.6,2.8,1.6,1,0,2-.5,2.6-1.4.9,1.9,2.9,3.2,5,3.1,2.1,0,4.1-1.6,4.8-3.5.6.5,1.2,1,2,1.2.8.2,1.7-.2,1.9-.9.8,1.4,2.4,2.4,4,2.5,1.6.1,3.3-.6,4.4-1.9.3.7,1.2,1.2,2,1,.8-.2,1.4-.9,1.4-1.7,1.1,1.5,3.2,2.2,5,1.7s3.3-2,3.6-3.8c.3-1.8-.5-3.8-2-4.9Z" fill="#ff6000"/>
      <path d="M170.1,262.5c0,1.5.1,3.2,1.1,4.4,1.3,1.5,3.6,1.7,5.6,1.7,28.5.3,57.1.7,85.6,1,2,0,4.3,0,5.5-1.6.9-1.1,1.1-2.7,1.1-4.1.1-2.4.2-4.8.3-7.3,0-1.9,0-3.9-.9-5.6-1.7-2.7-5.4-3-8.5-3.1-27.4-.6-54.8-1.2-82.2-1.8-3.1,0-7.1.6-7.8,4.2-.7,3.7.1,8.3.2,12.1Z" fill="#666b46"/>
      <g>
        <path d="M174.1,286.2c-.1.4-.2.8,0,1.2.1.5.5.9.9,1.1.9.6,2.1.6,3,0s1.3-1.8.9-2.8c-.9-2.4-4-1.6-4.7.5Z" fill="#454933"/>
        <path d="M195.8,280.1c-.1.4-.2.8,0,1.2.1.5.5.9.9,1.1.9.6,2.1.6,3,0,.9-.6,1.3-1.8.9-2.8-.9-2.4-4-1.6-4.7.5Z" fill="#454933"/>
        <path d="M220,281.1c-.1.4-.2.8,0,1.2.1.5.5.9.9,1.1.9.6,2.1.6,3,0,.9-.6,1.3-1.8.9-2.8-.9-2.4-4-1.6-4.7.5Z" fill="#454933"/>
        <path d="M246.5,287.6c-.1.4-.2.8,0,1.2.1.5.5.9.9,1.1.9.6,2.1.6,3,0,.9-.6,1.3-1.8.9-2.8-.9-2.4-4-1.6-4.7.5Z" fill="#454933"/>
        <path d="M258.6,259.9c-.1.4-.2.8,0,1.2.1.5.5.9.9,1.1.9.6,2.1.6,3,0,.9-.6,1.3-1.8.9-2.8-.9-2.4-4-1.6-4.7.5Z" fill="#454933"/>
        <path d="M244,253.7c-.1.4-.2.8,0,1.2.1.5.5.9.9,1.1.9.6,2.1.6,3,0s1.3-1.8.9-2.8c-.9-2.4-4-1.6-4.7.5Z" fill="#454933"/>
        <path d="M207.5,251.3c-.1.4-.2.8,0,1.2.1.5.5.9.9,1.1.9.6,2.1.6,3,0,.9-.6,1.3-1.8.9-2.8-.9-2.4-4-1.6-4.7.5Z" fill="#454933"/>
        <path d="M191.3,260.8c-.1.4-.2.8,0,1.2.1.5.5.9.9,1.1.9.6,2.1.6,3,0,.9-.6,1.3-1.8.9-2.8-.9-2.4-4-1.6-4.7.5Z" fill="#454933"/>
        <path d="M175,251.3c-.1.4-.2.8,0,1.2.1.5.5.9.9,1.1.9.6,2.1.6,3,0,.9-.6,1.3-1.8.9-2.8-.9-2.4-4-1.6-4.7.5Z" fill="#454933"/>
        <path d="M228.9,262.2c-.1.4-.2.8,0,1.2.1.5.5.9.9,1.1.9.6,2.1.6,3,0,.9-.6,1.3-1.8.9-2.8-.9-2.4-4-1.6-4.7.5Z" fill="#454933"/>
        <path d="M178.4,283.2c.5.3,1.3.2,1.7-.3.2-.2.3-.5.3-.8.1-.9-.7-1.8-1.6-1.4-1,.4-1.3,1.8-.3,2.5Z" fill="#454933"/>
        <path d="M191.7,286.2c.5.3,1.3.2,1.7-.3.2-.2.3-.5.3-.8.1-.9-.7-1.8-1.6-1.4-1,.4-1.3,1.8-.3,2.5Z" fill="#454933"/>
        <path d="M211.8,290.2c.5.3,1.3.2,1.7-.3.2-.2.3-.5.3-.8.1-.9-.7-1.8-1.6-1.4-1,.4-1.3,1.8-.3,2.5Z" fill="#454933"/>
        <path d="M251.5,280.4c.5.3,1.3.2,1.7-.3.2-.2.3-.5.3-.8.1-.9-.7-1.8-1.6-1.4-1,.4-1.3,1.8-.3,2.5Z" fill="#454933"/>
        <path d="M226.5,281.8c.5.3,1.3.2,1.7-.3.2-.2.3-.5.3-.8.1-.9-.7-1.8-1.6-1.4-1,.4-1.3,1.8-.3,2.5Z" fill="#454933"/>
        <path d="M239.5,286.8c.5.3,1.3.2,1.7-.3.2-.2.3-.5.3-.8.1-.9-.7-1.8-1.6-1.4-1,.4-1.3,1.8-.3,2.5Z" fill="#454933"/>
        <path d="M259.3,286.2c.5.3,1.3.2,1.7-.3.2-.2.3-.5.3-.8.1-.9-.7-1.8-1.6-1.4-1,.4-1.3,1.8-.3,2.5Z" fill="#454933"/>
        <path d="M254,263.4c.5.3,1.3.2,1.7-.3.2-.2.3-.5.3-.8.1-.9-.7-1.8-1.6-1.4-1,.4-1.3,1.8-.3,2.5Z" fill="#454933"/>
        <path d="M240.8,259.1c.5.3,1.3.2,1.7-.3.2-.2.3-.5.3-.8.1-.9-.7-1.8-1.6-1.4-1,.4-1.3,1.8-.3,2.5Z" fill="#454933"/>
        <path d="M257,253.9c.5.3,1.3.2,1.7-.3.2-.2.3-.5.3-.8.1-.9-.7-1.8-1.6-1.4-1,.4-1.3,1.8-.3,2.5Z" fill="#454933"/>
        <path d="M231.8,252.9c.5.3,1.3.2,1.7-.3.2-.2.3-.5.3-.8.1-.9-.7-1.8-1.6-1.4-1,.4-1.3,1.8-.3,2.5Z" fill="#454933"/>
        <path d="M208.2,263.9c.5.3,1.3.2,1.7-.3.2-.2.3-.5.3-.8.1-.9-.7-1.8-1.6-1.4-1,.4-1.3,1.8-.3,2.5Z" fill="#454933"/>
        <path d="M187.3,257.7c.5.3,1.3.2,1.7-.3.2-.2.3-.5.3-.8.1-.9-.7-1.8-1.6-1.4-1,.4-1.3,1.8-.3,2.5Z" fill="#454933"/>
        <path d="M224.7,262c.5.3,1.3.2,1.7-.3.2-.2.3-.5.3-.8.1-.9-.7-1.8-1.6-1.4-1,.4-1.3,1.8-.3,2.5Z" fill="#454933"/>
        <path d="M197.7,254.3c.5.3,1.3.2,1.7-.3.2-.2.3-.5.3-.8.1-.9-.7-1.8-1.6-1.4-1,.4-1.3,1.8-.3,2.5Z" fill="#454933"/>
        <path d="M182,262.9c.5.3,1.3.2,1.7-.3.2-.2.3-.5.3-.8.1-.9-.7-1.8-1.6-1.4-1,.4-1.3,1.8-.3,2.5Z" fill="#454933"/>
        <path d="M216.3,256.7c.5.3,1.3.2,1.7-.3.2-.2.3-.5.3-.8.1-.9-.7-1.8-1.6-1.4-1,.4-1.3,1.8-.3,2.5Z" fill="#454933"/>
      </g>
      <path d="M187.5,242.6c-2.4,0-4.9,0-7.3,0-1.1,0-2.3,0-3.4.2-1.2.2-2.4,0-3.7,0-1.2,0-2.6.2-3.4,1.2-.6.8-.6,1.8-.6,2.7,0,.8,0,1.5.2,2.3.3.7.8,1.4,1.6,1.5,1.3.2,2.2-1.2,3.5-1.7.9-.3,2-.1,2.7.6.7.6,1,1.6,1.7,2.1.7.5,1.7.6,2.5.2.8-.3,1.5-1,1.9-1.7.3-.5.7-1.2,1.2-1.4.4-.2.8-.1,1.1-.1,1.2,0,2.5.1,3.7.2,1.1,0,2.3.1,3.2.7.6.4,1.1,1,1.7,1.4.6.4,1.5.6,2,0,.5-.4.5-1.2.8-1.8.8-1.5,2.7-.7,4-.5,1.6.3,3.3.9,4,2.5.5,1.1.2,2.4.2,3.7,0,1.2.4,2.7,1.6,3.1,1.5.5,2.9-1.1,3.5-2.6.5-1.5.7-4.3,2.6-4.6.7-.1,1.5,0,2.2.1.7.1,1.5.1,2.2-.2.5-.2.9-.7,1.4-1,1-.6,2.3-.4,3.5-.1,1.4.3,2.9.6,4.3.9,1.1.2,2.1,0,3.2.1,2.8.2,5.7,0,8.4-.9.8-.3,1.8-.6,2.6-.3.8.3,1.3,1.1,2,1.6,1,.6,2.4.5,3.5,0,1.1-.4,2.2-1,3.4-1.1,1.1-.1,2.2.1,3.1.8.9.6,1.4,1.7,1.4,2.8,0,.4-.1.8,0,1.3,0,.4.2.9.6,1.1.4.2,1,0,1.3-.4s.4-.9.5-1.4c0-.5,0-1.1.3-1.5s.9-.8,1.3-.5c.4.2.4.8.4,1.2,0,1.3,0,2.5,0,3.8,0,.5,0,.9.2,1.3s.5.8,1,.8c.8,0,1.4-.9,1.5-1.8.1-.8.2-1.6.1-2.4,0-.7-.1-1.4.2-2,1.1-1.8,3.9-.1,5.6-.6,1.8-.5,2.9-2.7,2.3-4.5-1.4-4.5-7.3-4.4-11-4.4-5.7,0-11.5-.1-17.2-.2-11.5-.1-23-.2-34.5-.3-6.5,0-12.9-.1-19.4-.2Z" fill="#ff6000"/>
      <g>
        <path d="M249.5,273.2c.3,0,.6,0,.7-.2.3-.3.3-1.2,0-1.6-.3-.5-1-.6-1.4-.3-.4.2-.7.7-.6,1.2,0,.7.6.9,1.3.9Z" fill="#fca53d"/>
        <path d="M264.1,273c.3,0,.6,0,.7-.2.3-.3.3-1.2,0-1.6-.3-.5-1-.6-1.4-.3-.4.2-.7.7-.6,1.2,0,.7.6.9,1.3.9Z" fill="#fca53d"/>
        <path d="M222.2,275.5c.3,0,.6,0,.7-.2.3-.3.3-1.2,0-1.6-.3-.5-1-.6-1.4-.3-.4.2-.7.7-.6,1.2,0,.7.6.9,1.3.9Z" fill="#fca53d"/>
        <path d="M236.1,274.3c.3,0,.6,0,.7-.2.3-.3.3-1.2,0-1.6-.3-.5-1-.6-1.4-.3-.4.2-.7.7-.6,1.2,0,.7.6.9,1.3.9Z" fill="#fca53d"/>
        <path d="M208.6,274.3c.3,0,.6,0,.7-.2.3-.3.3-1.2,0-1.6-.3-.5-1-.6-1.4-.3-.4.2-.7.7-.6,1.2,0,.7.6.9,1.3.9Z" fill="#fca53d"/>
        <path d="M191.3,272.5c.3,0,.6,0,.7-.2.3-.3.3-1.2,0-1.6-.3-.5-1-.6-1.4-.3-.4.2-.7.7-.6,1.2,0,.7.6.9,1.3.9Z" fill="#fca53d"/>
        <path d="M212.5,272.3c.3,0,.6,0,.7-.2.3-.3.3-1.2,0-1.6-.3-.5-1-.6-1.4-.3-.4.2-.7.7-.6,1.2,0,.7.6.9,1.3.9Z" fill="#fca53d"/>
        <path d="M252.3,274.2c.2,0,.4,0,.5-.1.2-.2.2-.8,0-1-.2-.3-.6-.4-.9-.2-.3.1-.4.5-.4.8,0,.5.4.6.8.6Z" fill="#fca53d"/>
        <path d="M259.6,273c.2,0,.4,0,.5-.1.2-.2.2-.8,0-1-.2-.3-.6-.4-.9-.2-.3.1-.4.5-.4.8,0,.5.4.6.8.6Z" fill="#fca53d"/>
        <path d="M238.4,275.7c.2,0,.4,0,.5-.1.2-.2.2-.8,0-1-.2-.3-.6-.4-.9-.2-.3.1-.4.5-.4.8,0,.5.4.6.8.6Z" fill="#fca53d"/>
        <path d="M225.3,272.7c.2,0,.4,0,.5-.1.2-.2.2-.8,0-1-.2-.3-.6-.4-.9-.2-.3.1-.4.5-.4.8,0,.5.4.6.8.6Z" fill="#fca53d"/>
        <path d="M205.2,272.1c.2,0,.4,0,.5-.1.2-.2.2-.8,0-1-.2-.3-.6-.4-.9-.2-.3.1-.4.5-.4.8,0,.5.4.6.8.6Z" fill="#fca53d"/>
        <path d="M182.2,273.2c.2,0,.4,0,.5-.1.2-.2.2-.8,0-1-.2-.3-.6-.4-.9-.2-.3.1-.4.5-.4.8,0,.5.4.6.8.6Z" fill="#fca53d"/>
        <path d="M192.2,274.7c.2,0,.4,0,.5-.1.2-.2.2-.8,0-1-.2-.3-.6-.4-.9-.2-.3.1-.4.5-.4.8,0,.5.4.6.8.6Z" fill="#fca53d"/>
        <path d="M175.9,272.1c.2,0,.4,0,.5-.1.2-.2.2-.8,0-1-.2-.3-.6-.4-.9-.2-.3.1-.4.5-.4.8,0,.5.4.6.8.6Z" fill="#fca53d"/>
        <path d="M241.2,271.5c.2,0,.4,0,.5-.1.2-.2.2-.8,0-1-.2-.3-.6-.4-.9-.2-.3.1-.4.5-.4.8,0,.5.4.6.8.6Z" fill="#fca53d"/>
      </g>
      <g>
        <path d="M210.8,302.9c0,0-.1-.1-.2-.2-.1-.1-.3-.2-.4-.3,0,0-.2,0-.3,0,0,0,0,0-.1,0,0,0-.1-.1-.2-.2-.1-.2-.3-.4-.6-.4-.1,0-.3,0-.4,0-.1,0-.3,0-.4.1-.2.1-.4.3-.5.6,0,.3,0,.5.1.8.2.4.5.7.9.9.2.1.4.2.6.3.1,0,.3,0,.4.1.1,0,.3,0,.4,0,.1,0,.3,0,.4-.1.1,0,.2-.2.3-.3,0,0,.2-.2.2-.3,0-.3,0-.6-.1-.8Z" fill="#ffbf9b"/>
        <path d="M220,303.4l-.2-.2c-.2,0-.3-.1-.5-.1-.1,0-.3,0-.4,0-.2,0-.5,0-.7.1-.2,0-.4.1-.6.2-.2.1-.4.2-.5.4,0,0-.2.2-.2.3,0,.1,0,.3,0,.4,0,.2.1.5.3.7.2.2.4.3.7.3,0,0,.2,0,.3,0,.1,0,.2,0,.3-.1,0,0,.2-.1.3-.2,0,0,.2,0,.3,0,.1,0,.3,0,.4,0,.1,0,.3,0,.4,0,.1,0,.2-.1.3-.2.2-.2.3-.5.3-.7,0-.3,0-.5-.3-.7Z" fill="#ffbf9b"/>
        <path d="M186.3,313.2c0-.2-.1-.3-.3-.4-.2-.2-.4-.3-.7-.3-.3,0-.7,0-1,0-.1,0-.3,0-.4,0-.1,0-.2.1-.3.2,0,0-.2.2-.2.3,0,.1,0,.3,0,.4,0,0,0,.2,0,.3,0,.2.1.3.3.4.2.2.4.3.7.3.3,0,.7,0,1,0,.1,0,.3,0,.4,0,.1,0,.2-.1.3-.2,0,0,.2-.2.2-.3,0-.1,0-.3,0-.4,0,0,0-.2,0-.3Z" fill="#ffbf9b"/>
        <path d="M183,306.2c0,0,0-.2-.1-.2,0-.2-.2-.3-.4-.4-.3-.2-.6-.4-.9-.6-.1,0-.2-.1-.4-.1-.1,0-.3,0-.4,0-.1,0-.2,0-.3.2-.1,0-.2.2-.3.3,0,0,0,.2-.1.2,0,.2,0,.4,0,.5,0,0,0,.2.1.2,0,.2.2.3.4.4.3.2.6.4.9.6.1,0,.2.1.4.1.1,0,.3,0,.4,0,.1,0,.2,0,.3-.2.1,0,.2-.2.3-.3,0,0,0-.2.1-.2,0-.2,0-.4,0-.5Z" fill="#ffbf9b"/>
        <path d="M189.1,300.1c0-.1,0-.3-.1-.4,0-.1-.2-.2-.3-.3,0,0-.2-.2-.3-.2,0,0-.2,0-.3,0-.2,0-.4,0-.5.1,0,0-.1.1-.2.2-.1.1-.2.3-.3.4,0,.3-.1.6-.2.9,0,.1,0,.3,0,.4,0,.1,0,.3.1.4,0,.1.2.2.3.3,0,0,.2.2.3.2,0,0,.2,0,.3,0,.2,0,.4,0,.5-.1,0,0,.1-.1.2-.2.1-.1.2-.3.3-.4,0-.3.1-.6.2-.9,0-.1,0-.3,0-.4Z" fill="#ffbf9b"/>
        <path d="M216.2,319.8c0-.2-.1-.3-.3-.4,0,0-.2-.2-.3-.2-.2-.1-.3-.2-.5-.3-.2-.1-.4-.2-.5-.2-.1,0-.2,0-.3-.1-.3,0-.5,0-.8.1-.1,0-.2.2-.3.3,0,0-.2.2-.2.3,0,.3,0,.6.1.8.1.2.3.4.6.5,0,0,.2,0,.2,0,0,0,.2.1.3.2,0,0,.1.1.2.2,0,0,.2.2.3.2.1,0,.3,0,.4,0,.1,0,.3,0,.4,0,.1,0,.2-.1.3-.2.2-.2.3-.4.3-.7,0,0,0-.2,0-.3Z" fill="#ffbf9b"/>
        <path d="M245.5,297.3c-.3-.4-.5-.8-.8-1.2-.1-.2-.4-.4-.6-.5-.1,0-.3,0-.4,0-.1,0-.3,0-.4.1-.2.1-.4.3-.5.6,0,.3,0,.5.1.8.3.4.5.8.8,1.2.1.2.4.4.6.5.1,0,.3,0,.4,0,.1,0,.3,0,.4-.1.2-.1.4-.3.5-.6,0-.3,0-.5-.1-.8Z" fill="#ffbf9b"/>
        <path d="M251.3,301.1c0,0,0-.2-.1-.2,0-.2-.2-.3-.4-.4,0,0-.2,0-.2-.1-.2,0-.4,0-.5,0l-1,.4c-.1,0-.2,0-.3.2-.1,0-.2.2-.3.3,0,.1-.1.2-.1.4,0,.1,0,.3,0,.4,0,0,0,.2.1.2,0,.2.2.3.4.4,0,0,.2,0,.2.1.2,0,.4,0,.5,0,.3-.1.7-.3,1-.4.1,0,.2,0,.3-.2.1,0,.2-.2.3-.3,0-.1.1-.2.1-.4,0-.1,0-.3,0-.4Z" fill="#ffbf9b"/>
        <path d="M268.7,298c0-.1,0-.3,0-.4,0-.1-.1-.2-.2-.3,0,0-.2-.2-.3-.2-.1,0-.3,0-.4,0,0,0-.2,0-.3,0-.2,0-.3.1-.4.3l-.2.2c0,.2-.1.3-.1.5,0,.3,0,.6,0,.9,0,.1,0,.3,0,.4,0,.1.1.2.2.3,0,0,.2.2.3.2.1,0,.3,0,.4,0,0,0,.2,0,.3,0,.2,0,.3-.1.4-.3,0,0,.1-.1.2-.2,0-.2.1-.3.1-.5,0-.3,0-.6,0-.9Z" fill="#ffbf9b"/>
        <path d="M267.8,312.5c-.1-.2-.3-.4-.6-.5-.5-.1-1.1-.3-1.6-.4-.3,0-.5,0-.8.1-.2.1-.4.4-.5.6,0,.3,0,.6.1.8.1.2.3.4.6.5.5.1,1.1.3,1.6.4.3,0,.5,0,.8-.1.2-.1.4-.4.5-.6,0-.3,0-.6-.1-.8Z" fill="#ffbf9b"/>
        <path d="M281.5,308.5l-.7-1.1c0-.1-.2-.2-.3-.3,0,0-.2-.2-.3-.2-.1,0-.3,0-.4,0-.1,0-.3,0-.4.1-.2.1-.4.3-.5.6,0,.3,0,.5.1.8.2.4.4.8.7,1.1,0,.1.2.2.3.3,0,0,.2.2.3.2.1,0,.3,0,.4,0,.1,0,.3,0,.4-.1.2-.1.4-.3.5-.6,0-.3,0-.5-.1-.8Z" fill="#ffbf9b"/>
        <path d="M284.6,297.7c0-.1,0-.3-.1-.4,0-.1-.2-.2-.3-.3,0,0-.2-.2-.3-.2,0,0-.2,0-.3,0-.2,0-.4,0-.5.1,0,0-.1.1-.2.2-.1.1-.2.3-.3.4-.1.4-.2.7-.4,1.1,0,.1,0,.3,0,.4,0,.1,0,.3.1.4,0,.1.2.2.3.3,0,0,.2.2.3.2,0,0,.2,0,.3,0,.2,0,.4,0,.5-.1,0,0,.1-.1.2-.2.1-.1.2-.3.3-.4.1-.4.2-.7.4-1.1,0-.1,0-.3,0-.4Z" fill="#ffbf9b"/>
        <path d="M219.3,294.4c-.1-.2-.3-.4-.4-.6,0-.1-.2-.2-.3-.3,0,0-.2-.2-.3-.2-.1,0-.3,0-.4,0-.1,0-.3,0-.4.1,0,0-.1.1-.2.2-.1.1-.2.3-.3.4,0,0,0,.2,0,.3,0,.2,0,.4.1.5.1.2.3.4.4.6,0,.1.2.2.3.3,0,0,.2.2.3.2.1,0,.3,0,.4,0,.1,0,.3,0,.4-.1,0,0,.1-.1.2-.2.1-.1.2-.3.3-.4,0,0,0-.2,0-.3,0-.2,0-.4-.1-.5Z" fill="#ffbf9b"/>
        <path d="M161.7,305c0-.1,0-.3-.1-.4,0-.1-.2-.2-.3-.3,0,0-.2-.2-.3-.2,0,0-.2,0-.3,0-.2,0-.4,0-.5.1,0,0-.1.1-.2.2-.1.1-.2.3-.3.4,0,.2-.1.5-.2.7,0,.1,0,.3,0,.4,0,.1,0,.3.1.4,0,.1.2.2.3.3,0,0,.2.2.3.2,0,0,.2,0,.3,0,.2,0,.4,0,.5-.1,0,0,.1-.1.2-.2.1-.1.2-.3.3-.4,0-.2.1-.5.2-.7,0-.1,0-.3,0-.4Z" fill="#ffbf9b"/>
        <path d="M165.8,298.2c-.3-.2-.6-.5-.9-.6-.2,0-.4-.2-.6-.2-.2,0-.4,0-.7,0-.1,0-.3,0-.4,0-.1,0-.2.1-.3.2,0,0-.2.2-.2.3,0,.1,0,.3,0,.4,0,.3,0,.5.3.7l.2.2c.1,0,.3.1.5.1.1,0,.3,0,.4.1.1,0,.2.1.3.2,0,0,0,0,0,0,.2.2.4.3.7.3s.5-.1.7-.3c.2-.2.3-.4.3-.7,0-.3,0-.5-.3-.7Z" fill="#ffbf9b"/>
        <path d="M158.5,314.6c0-.1,0-.3-.1-.4,0-.1-.2-.2-.3-.3,0,0-.2-.2-.3-.2,0,0-.2,0-.3,0-.2,0-.4,0-.5.1,0,0-.1.1-.2.2-.1.1-.2.3-.3.4,0,.2-.1.3-.2.5,0,.1,0,.3,0,.4,0,.1,0,.3.1.4,0,.1.2.2.3.3,0,0,.2.2.3.2,0,0,.2,0,.3,0,.2,0,.4,0,.5-.1,0,0,.1-.1.2-.2.1-.1.2-.3.3-.4,0-.2.1-.3.2-.5,0-.1,0-.3,0-.4Z" fill="#ffbf9b"/>
      </g>
    </g>
    <g>
      <path d="M160.7,354.6c2.6,1.2,4.8,3.3,6.2,5.8.7,1.2,2,2,3.4,2l106.3-.9c1.7,0,3.2-1.1,3.7-2.7.6-1.9,1.6-3.6,3-5l-122.6.7Z" fill="#666b46"/>
      <path d="M290.9,350.9c0,0,.2.1.3.2,1.8,1.2,1.5,4.1-.8,4.1-38.4.4-76.9.8-115.3,1.2-6,0-12,.1-18,.2-1.6,0-3.3,0-4.5-1.3-3.4-3.6,3.8-3.9,5.3-4,4.8-.1,9.5-.3,14.3-.4,9.6-.2,19.1-.3,28.7-.4,6.8,0,13.6,0,20.3,0,2.7,0,5.5-.3,8.2.2,2.6.4,5.4,0,8,0,5.7-.1,11.5-.3,17.2-.4,11-.2,22.1-.2,33.1,0,1.1,0,2.3,0,3.2.6Z" fill="#3f3c39"/>
    </g>
  </g>
  <g>
    <g>
      <g>
        <path d="M327.3,256.1c-.3,1.9-.5,4.1-.8,6.5,0,.7-.1,1.5-.2,2.2-.2,2.4-.4,4.9-.6,7.6,0,.7-.1,1.5-.2,2.2-.2,2.4-.3,5-.5,7.5,0,.7,0,1.5-.1,2.2-.1,2.5-.3,5-.4,7.4,0,.7,0,1.5-.1,2.2-.1,2.6-.3,5.1-.4,7.4,0,.7,0,1.5,0,2.2,0,1.9-.2,3.6-.2,5h-.1c0,.1-5.7-.4-5.7-.4,0-.3,0-.6,0-1,0-.7.1-1.4.2-2.2.1-2.2.3-4.7.4-7.4,0-.7,0-1.4,0-2.1,0-2.3.2-4.8.2-7.3,0-.7,0-1.4,0-2.1,0-2.4,0-4.9.1-7.3,0-.7,0-1.4,0-2.1,0-2.5,0-4.9,0-7.2,0-.7,0-1.4,0-2.1,0-3.5,0-6.5-.2-8.9,3.4-1,5-1.1,8.4-2.2Z" fill="#ffc866"/>
        <path d="M323.2,255.5c-.5.4-1.3.3-1.7-.3-1.6-2.1-2-5.1-1.4-7.7.6-2.4,1.9-4.6,3.6-6.4.6-.6,1.6-.5,1.9.3,1.1,2,2.6,3.8,2.8,6.1.2,1.7-.5,3.5-1.6,4.9-.8,1.1-2.4,2.2-3.7,3.1Z" fill="#ff6000"/>
        <path d="M323.1,255.3c-.4.3-.9.2-1.2-.2-1.1-1.5-1.4-3.5-1-5.3.4-1.7,1.3-3.2,2.5-4.4.4-.4,1.1-.3,1.3.2.7,1.4,1.8,2.6,1.9,4.2.1,1.2-.4,2.4-1.1,3.4-.6.8-1.7,1.5-2.6,2.1Z" fill="#fca53d"/>
      </g>
      <path d="M326.5,262.6c0,.7-.1,1.5-.2,2.2-2.4,1.5-4.8,3-7.3,4.4,0-.7,0-1.4,0-2.1,2.5-1.5,5-3.1,7.5-4.6Z" fill="#bc3156"/>
      <path d="M325.7,272.4c0,.7-.1,1.5-.2,2.2-2.2,1.3-4.4,2.7-6.5,4,0-.7,0-1.4,0-2.1,2.2-1.4,4.5-2.7,6.7-4.1Z" fill="#bc3156"/>
      <path d="M325.1,282c0,.7,0,1.5-.1,2.2-2,1.2-4.1,2.5-6.1,3.7,0-.7,0-1.4,0-2.1,2.1-1.3,4.1-2.5,6.2-3.8Z" fill="#bc3156"/>
      <path d="M324.5,291.6c0,.7,0,1.5-.1,2.2-2,1.2-3.9,2.4-5.9,3.6,0-.7,0-1.4,0-2.1,2-1.2,3.9-2.4,5.9-3.6Z" fill="#bc3156"/>
      <path d="M324.1,301.2c0,.7,0,1.5,0,2.2-2,1.2-4,2.4-6,3.7,0-.7.1-1.4.2-2.2,2-1.2,3.9-2.4,5.9-3.6Z" fill="#bc3156"/>
    </g>
    <path d="M340,305l-44.9,4.7c-1.3-.5-1.8-2.2-1.6-3.6.2-1.4.9-2.7,1.1-4.1.1-.7.1-1.4.1-2.1,0-.8,0-1.6.2-2.4,0-.3.1-.5.2-.8.8-2.2,3.1-3.5,5.3-3.9,2.3-.4,4.6-.1,6.9-.1,4.2,0,8.3-.9,12.2-2.4,2.9-1.1,5.7-2.4,8.7-2.7,3.1-.3,6.5,1,7.8,3.7.5,1.1.6,2.4.9,3.6.1.5.3,1,.5,1.5,0,.2.2.4.3.6.7,1.2,1.7,2.2,2.4,3.4.8,1.4,1.1,3.4-.2,4.5Z" fill="#8e935f"/>
    <g>
      <path d="M337.8,297.1c-.3.1-.7.2-1,.3-2,.5-3.9,0-5.3-.4-.6-.2-1.1-.4-1.7-.6-1-.3-1.8-.6-2.8-.8-2.9-.6-6.1,0-8.6,1.7-.6.4-1.2.9-1.8,1.4-1.6,1.3-3.2,2.7-5.4,3-.3,0-.6,0-.9,0-1.7,0-3.2-.6-4.8-1.2-.6-.2-1.1-.4-1.6-.6-3-1-6.3-1-9.3,0,0-.8,0-1.6.2-2.4,3.2-.9,6.7-.9,9.9.2.6.2,1.2.4,1.7.7,1.6.6,3.1,1.2,4.5,1,1.5-.2,2.9-1.3,4.3-2.5.6-.5,1.3-1.1,2-1.5,2.9-2,6.8-2.8,10.3-2,1.1.2,2.1.6,3,.9.5.2,1.1.4,1.6.5,1.7.5,3,.6,4.1.4.3,0,.5-.1.7-.3.1.5.3,1,.5,1.5,0,.2.2.4.3.6Z" fill="#666b46"/>
      <path d="M320.4,300.5c1.7.9,3.8-1.3,2-2.3-1.5-.9-4.1,1.2-2,2.3Z" fill="#666b46"/>
      <path d="M324.1,298c.2,0,.4,0,.6,0,.2-.1.2-.3.2-.5,0-.2-.2-.4-.3-.5-.2,0-.4,0-.6,0-.3,0-.6.1-.5.5,0,.4.3.6.7.7Z" fill="#666b46"/>
      <path d="M300.7,296c.2,0,.4,0,.6,0,.2-.1.2-.3.2-.5s-.2-.4-.3-.5c-.2,0-.4,0-.6,0-.3,0-.6.1-.5.5,0,.4.3.6.7.7Z" fill="#666b46"/>
      <path d="M329.8,291.8c.2.4.5.7.8,1,.3.2.6.3.9.3.3,0,.7,0,.9-.3.3-.4.3-.9.2-1.4,0-.3-.2-.7-.4-.9-.2-.2-.6-.3-.9-.3-1.1-.2-2,.5-1.5,1.7Z" fill="#666b46"/>
      <path d="M301.6,302.9c.2.4.5.7.8,1,.3.2.6.3.9.3.3,0,.7,0,.9-.3.3-.4.3-.9.2-1.4,0-.3-.2-.7-.4-.9-.2-.2-.6-.3-.9-.3-1.1-.2-2,.5-1.5,1.7Z" fill="#666b46"/>
      <path d="M325.9,291c0,.1,0,.3,0,.4,0,.1.3.2.4.2.5,0,1-.1,1.2-.5.4-.6.1-1.7-.7-1.7-.6,0-1,1.1-1,1.6Z" fill="#666b46"/>
    </g>
    <path d="M344.8,320.5l-55.9,1.7c-2.1-2.6-2.7-6.3-1.6-9.5.1-.3.3-.7.4-1,.3-.6.7-1.3,1.1-1.8,1.4-1.8,3.4-3.2,5.6-3.8,2.8-.8,5.8-.2,8.8,0,6.8.6,13.8,0,20.4-1.9,4.6-1.3,9.3-3.2,14-2.3,1.1.2,2.2.6,3.3,1.2.8.4,1.5.9,2.2,1.5,1.5,1.3,2.6,2.8,3.3,4.6,1.4,3.7.9,8.1-1.4,11.3Z" fill="#666b46"/>
    <g>
      <path d="M342.9,304.6c-2.3-.3-4.6-.2-6.7.2-4.4.8-8.7,2.6-12.8,4.4-1.4.6-2.9,1.3-4.4,1.8-3.5,1.4-8.4,3.1-13.4,3.1s-3.3-.2-5-.6c-1.2-.3-2.4-.8-3.5-1.2-1.4-.5-2.8-1-4.2-1.3-1.6-.3-3.6-.3-5.2.6.3-.6.7-1.3,1.1-1.8,1.5-.3,3-.3,4.4,0,1.6.3,3,.9,4.5,1.4,1.1.4,2.2.8,3.4,1.1,6.3,1.6,13-.6,17.6-2.4,1.4-.6,2.9-1.2,4.3-1.8,4.2-1.8,8.5-3.7,13.1-4.5,1.5-.3,3.1-.4,4.8-.4.8.4,1.5.9,2.2,1.5Z" fill="#454933"/>
      <path d="M340,307.9c0,.5.3,1,.7,1.3.4.3.9.4,1.4.4.2,0,.5,0,.7-.2.3-.2.4-.7.4-1,0-.3,0-.7-.1-1-.2-.4-.6-.7-1-.8-1-.2-2.1,0-2.1,1.2Z" fill="#454933"/>
      <path d="M290.8,315.4c0,.5.3,1,.7,1.3.4.3.9.4,1.4.4.2,0,.5,0,.7-.2.3-.2.4-.7.4-1,0-.3,0-.7-.1-1-.2-.4-.6-.7-1-.8-1-.2-2.1,0-2.1,1.2Z" fill="#454933"/>
      <path d="M303.3,307.9c0,.5.3,1,.7,1.3.4.3.9.4,1.4.4.2,0,.5,0,.7-.2.3-.2.4-.7.4-1,0-.3,0-.7-.1-1-.2-.4-.6-.7-1-.8-1-.2-2.1,0-2.1,1.2Z" fill="#454933"/>
      <path d="M338.4,311.7c.4.3,1.1.3,1.3-.1.2-.2.2-.5.2-.8,0-.4-.1-.8-.5-1-1.1-.5-2,1.2-1,1.9Z" fill="#454933"/>
      <path d="M308.8,311.7c.4.3,1.1.3,1.3-.1.2-.2.2-.5.2-.8,0-.4-.1-.8-.5-1-1.1-.5-2,1.2-1,1.9Z" fill="#454933"/>
      <path d="M321.2,315.8c.4.3,1.1.3,1.3-.1.2-.2.2-.5.2-.8,0-.4-.1-.8-.5-1-1.1-.5-2,1.2-1,1.9Z" fill="#454933"/>
      <path d="M297.6,310.1c.4.3,1.1.3,1.3-.1.2-.2.2-.5.2-.8,0-.4-.1-.8-.5-1-1.1-.5-2,1.2-1,1.9Z" fill="#454933"/>
    </g>
    <path d="M348.5,321.1c-1.8-1.6-4.7-1.9-7.3-2.1-17.3-1.1-34.7-2.1-51.8.4-1.7.2-3.5.6-4.4,1.8-.9,1.2-.6,2.7-.1,4.1,2.6,8.6,5,17.4,8.2,25.8.9,2.4,1.9,4.8,3.8,6.7,2.6,2.6,6.5,3.6,10.2,4,4.5.6,9,.7,13.4.6,4-.1,8.6-.1,12.3-1.6,5.5-2,7-7.8,8.8-12.5,2.4-6.2,4.8-12.5,7.2-18.7.6-1.4,1.1-2.9,1.2-4.4,0-1.5-.4-3.1-1.6-4.2Z" fill="#3f3c39"/>
    <g>
      <path d="M319.9,281.8c-.8-1.7-2.3-2.9-4.1-3.6-2-.7-4.2-.8-6.1,0-.5.2-1,.5-1.5.8-3.9,0-7.6,3-8.5,6.8-.9,4,1.6,8.5,5.5,10,1.7.6,3.5.7,5.3.5,1.9-.2,3.9-.7,5.4-1.8,1.9-1.4,3.1-3.7,3.8-6,.7-2.1,1.1-4.5.2-6.6Z" fill="#bc3156"/>
      <path d="M308.4,280.9c.7,0,1.2-.8.7-1.4-1.4-1.7-3.1-3.2-5-4.2-2.1-1.1-4.6-1.7-7-1.8-.6,0-1,.6-.8,1.1.5,1.4,1.4,2.7,2.7,3.6,1.6,1.2,3.4,1.9,5.4,2.3,1.4.3,2.7.4,4.1.4Z" fill="#454933"/>
      <path d="M309,280.9c-.4-3.5-1.1-7-2.8-10.1-1.7-3.1-4.4-5.7-7.7-6.8" fill="none" stroke="#3f3c39" stroke-linecap="round" stroke-linejoin="round" stroke-width="1.4"/>
    </g>
    <g>
      <path d="M335.8,313.6c-.4-.8-1.1-1.5-1.9-2-.6-.4-1.5-.1-1.8.5-.4.7-.1,1.4.5,1.8,0,0,.2.1.2.1,0,0,0,0,0,0,.1.1.2.2.4.3,0,0,0,0,.1.1,0,0,0,0,0,0,0,.1.2.3.3.4.3.6,1.2.9,1.8.5.6-.4.8-1.2.5-1.8Z" fill="#ffc866"/>
      <path d="M321.7,307.5c-.7-.2-1.5.2-1.7.9-.2.7-.3,1.5-.2,2.3,0,.7.6,1.4,1.3,1.3.7,0,1.4-.6,1.3-1.3,0-.3,0-.6,0-.9,0,0,0-.1,0-.2,0-.2,0-.2,0,0,0,0,0,0,0,0,0,0,0-.2,0-.3.2-.7-.2-1.5-.9-1.7Z" fill="#ff6000"/>
      <path d="M317.8,302.7c-.4-.4-.9-.7-1.3-1.1-.3-.2-.6-.4-.9-.4s-.7.1-.9.4c-.5.5-.6,1.4,0,1.9.4.4.9.7,1.3,1.1.3.2.6.4.9.4s.7-.1.9-.4c.5-.5.6-1.4,0-1.9Z" fill="#ffc866"/>
      <path d="M308,308.4c-.7-.2-1.4.2-1.7.9-.2.8-.5,1.7-.7,2.5-.2.7.2,1.5.9,1.7.7.2,1.4-.2,1.7-.9l.7-2.5c.2-.7-.2-1.5-.9-1.7Z" fill="#f24c70"/>
      <path d="M295.8,307.6l-1-1.7c-.4-.6-1.2-.9-1.8-.5-.6.4-.9,1.2-.5,1.8l1,1.7c.4.6,1.2.9,1.8.5.6-.4.9-1.2.5-1.8Z" fill="#f24c70"/>
      <path d="M299.8,298c-.5-.5-1.4-.5-1.9,0-.8.7-1.6,1.4-2.4,2.2-.5.5-.5,1.4,0,1.9.5.5,1.4.5,1.9,0,.8-.7,1.6-1.4,2.4-2.2.5-.5.5-1.4,0-1.9Z" fill="#ff6000"/>
      <path d="M298.8,315.5c-.3-.6-.6-1.2-.9-1.8-.3-.6-1.3-.8-1.8-.5-.7.4-.8,1.2-.5,1.8.3.6.6,1.2.9,1.8.3.6,1.3.8,1.8.5.7-.4.8-1.2.5-1.8Z" fill="#ffc866"/>
      <path d="M327.5,295.7c-.6,1.1-1.2,2.1-1.7,3.2-.8,1.5,1.5,2.9,2.3,1.4.6-1.1,1.2-2.1,1.7-3.2.8-1.5-1.5-2.9-2.3-1.4Z" fill="#f24c70"/>
      <path d="M334,291.7c.4-.6.2-1.4-.4-1.9l-1.3-.8c-.6-.4-1.5-.2-1.9.4-.4.6-.2,1.4.4,1.9.4.3.8.6,1.3.8.6.4,1.5.2,1.9-.4Z" fill="#ff6000"/>
      <path d="M333.7,304.3c-.4-.6-1.2-.8-1.8-.5l-1.3.7c-.6.3-.9,1.2-.5,1.8.4.6,1.2.8,1.8.5.4-.2.9-.5,1.3-.7.6-.3.9-1.2.5-1.8Z" fill="#f24c70"/>
    </g>
    <g>
      <line x1="290.2" y1="322.4" x2="301.7" y2="356.9" fill="none" stroke="#ffe6c7" stroke-linecap="round" stroke-miterlimit="10" stroke-width="1.4"/>
      <line x1="299.8" y1="322.4" x2="308.7" y2="358.7" fill="none" stroke="#ffe6c7" stroke-linecap="round" stroke-miterlimit="10" stroke-width="1.4"/>
      <line x1="314.1" y1="359.4" x2="311.3" y2="321.8" fill="none" stroke="#ffe6c7" stroke-linecap="round" stroke-miterlimit="10" stroke-width="1.4"/>
      <line x1="322.4" y1="321.1" x2="320.4" y2="358.7" fill="none" stroke="#ffe6c7" stroke-linecap="round" stroke-miterlimit="10" stroke-width="1.4"/>
      <line x1="325.2" y1="358.3" x2="333.3" y2="323.7" fill="none" stroke="#ffe6c7" stroke-linecap="round" stroke-miterlimit="10" stroke-width="1.4"/>
      <line x1="344" y1="324.5" x2="332.4" y2="358.7" fill="none" stroke="#ffe6c7" stroke-linecap="round" stroke-miterlimit="10" stroke-width="1.4"/>
    </g>
  </g>
  <path d="M212.9,166.7c-3.9,0-7.8,0-11.7-.2,2.6-2.5,5.1-5,7.7-7.5,2.2-2.1-1-5.3-3.2-3.2-2.4,2.4-4.8,4.7-7.2,7,0-3.4,0-6.7,0-10.1,0-3-4.5-3-4.5,0,0,3.4,0,6.8-.1,10.2-2.5-2.8-5-5.7-7.5-8.6-1.9-2.2-5,1-3.2,3.2,2.4,2.9,4.9,5.7,7.4,8.5-3.7-.2-7.5-.5-11.2-.8-2.9-.2-2.9,4.2,0,4.5,3.7.3,7.4.6,11.1.8-2.4,2.3-4.7,4.6-7.1,7-2.2,2.1,1,5.3,3.2,3.2,2.4-2.3,4.8-4.7,7.2-7,0,3.4,0,6.7,0,10.1,0,3,4.5,3,4.5,0,0-3.1,0-6.2,0-9.4,2.5,2.6,4.9,5.2,7.5,7.7,2,2,5.2-1.1,3.2-3.2-2.6-2.6-5.1-5.2-7.6-7.9,3.8.1,7.6.2,11.4.2,2.9,0,2.9-4.5,0-4.5Z" fill="#fff"/>
  <path d="M42.6,128.7c-3.9,0-7.8,0-11.7-.2,2.6-2.5,5.1-5,7.7-7.5,2.2-2.1-1-5.3-3.2-3.2-2.4,2.3-4.8,4.7-7.2,7,0-3.4,0-6.7,0-10.1,0-3-4.5-3-4.5,0,0,3.4,0,6.8-.1,10.2-2.5-2.8-5-5.7-7.5-8.6-1.9-2.2-5,1-3.2,3.2,2.4,2.9,4.9,5.7,7.4,8.5-3.7-.2-7.5-.5-11.2-.8-2.9-.2-2.9,4.2,0,4.5,3.7.3,7.4.6,11.1.8-2.4,2.3-4.7,4.6-7.1,7-2.2,2.1,1,5.3,3.2,3.2,2.4-2.4,4.8-4.7,7.2-7,0,3.4,0,6.7,0,10.1,0,3,4.5,3,4.5,0,0-3.1,0-6.2,0-9.4,2.5,2.6,4.9,5.2,7.5,7.7,2,2,5.2-1.1,3.2-3.2-2.6-2.6-5.1-5.2-7.6-7.9,3.8.1,7.6.2,11.4.2,2.9,0,2.9-4.5,0-4.5Z" fill="#8e935f"/>
  <path d="M305,208.2c-2.7,0-5.5,0-8.2-.1,1.8-1.8,3.6-3.6,5.4-5.3,1.5-1.5-.7-3.7-2.2-2.2-1.7,1.7-3.4,3.3-5.1,5,0-2.4,0-4.8,0-7.1,0-2.1-3.1-2.1-3.2,0,0,2.4,0,4.8,0,7.2-1.8-2-3.5-4-5.3-6.1-1.3-1.6-3.5.7-2.2,2.2,1.7,2,3.5,4,5.2,6-2.6-.2-5.3-.3-7.9-.6-2-.2-2,3,0,3.2,2.6.2,5.2.4,7.8.5-1.7,1.6-3.3,3.3-5,4.9-1.5,1.5.7,3.7,2.2,2.2,1.7-1.7,3.4-3.3,5.1-5,0,2.4,0,4.8,0,7.1,0,2.1,3.1,2.1,3.2,0,0-2.2,0-4.4,0-6.6,1.7,1.8,3.5,3.7,5.3,5.4,1.4,1.4,3.7-.8,2.2-2.2-1.8-1.8-3.6-3.7-5.4-5.6,2.7,0,5.4.1,8.1.1,2,0,2-3.2,0-3.2Z" fill="#f24c70"/>
  <path d="M358.7,262c-2.7,0-5.5,0-8.2-.1,1.8-1.8,3.6-3.6,5.4-5.3,1.5-1.5-.7-3.7-2.2-2.2-1.7,1.7-3.4,3.3-5.1,5,0-2.4,0-4.8,0-7.1,0-2.1-3.1-2.1-3.2,0,0,2.4,0,4.8,0,7.2-1.8-2-3.5-4-5.3-6.1-1.3-1.6-3.5.7-2.2,2.2,1.7,2,3.5,4,5.2,6-2.6-.2-5.3-.3-7.9-.6-2-.2-2,3,0,3.2,2.6.2,5.2.4,7.8.5-1.7,1.6-3.3,3.3-5,4.9-1.5,1.5.7,3.7,2.2,2.2,1.7-1.7,3.4-3.3,5.1-5,0,2.4,0,4.8,0,7.1,0,2.1,3.1,2.1,3.2,0,0-2.2,0-4.4,0-6.6,1.7,1.8,3.5,3.7,5.3,5.4,1.4,1.4,3.7-.8,2.2-2.2-1.8-1.8-3.6-3.7-5.4-5.6,2.7,0,5.4.1,8.1.1,2,0,2-3.2,0-3.2Z" fill="#8e935f"/>
  <path d="M126.3,21.4c-2.7,0-5.5,0-8.2-.1,1.8-1.8,3.6-3.6,5.4-5.3,1.5-1.5-.7-3.7-2.2-2.2-1.7,1.7-3.4,3.3-5.1,5,0-2.4,0-4.8,0-7.1,0-2.1-3.1-2.1-3.2,0,0,2.4,0,4.8,0,7.2-1.8-2-3.5-4-5.3-6.1-1.3-1.6-3.5.7-2.2,2.2,1.7,2,3.5,4,5.2,6-2.6-.2-5.3-.3-7.9-.6-2-.2-2,3,0,3.2,2.6.2,5.2.4,7.8.5-1.7,1.6-3.3,3.3-5,4.9-1.5,1.5.7,3.7,2.2,2.2,1.7-1.7,3.4-3.3,5.1-5,0,2.4,0,4.8,0,7.1,0,2.1,3.1,2.1,3.2,0,0-2.2,0-4.4,0-6.6,1.7,1.8,3.5,3.7,5.3,5.4,1.4,1.4,3.7-.8,2.2-2.2-1.8-1.8-3.6-3.7-5.4-5.6,2.7,0,5.4.1,8.1.1,2,0,2-3.2,0-3.2Z" fill="#ffc866"/>
  <path d="M39.8,473c-2.7,0-5.5,0-8.2-.1,1.8-1.8,3.6-3.6,5.4-5.3,1.5-1.5-.7-3.7-2.2-2.2-1.7,1.7-3.4,3.3-5.1,5,0-2.4,0-4.8,0-7.1,0-2.1-3.1-2.1-3.2,0,0,2.4,0,4.8,0,7.2-1.8-2-3.5-4-5.3-6.1-1.3-1.6-3.5.7-2.2,2.2,1.7,2,3.5,4,5.2,6-2.6-.2-5.3-.3-7.9-.6-2-.2-2,3,0,3.2,2.6.2,5.2.4,7.8.5-1.7,1.6-3.3,3.3-5,4.9-1.5,1.5.7,3.7,2.2,2.2,1.7-1.7,3.4-3.3,5.1-5,0,2.4,0,4.8,0,7.1,0,2.1,3.1,2.1,3.2,0,0-2.2,0-4.4,0-6.6,1.7,1.8,3.5,3.7,5.3,5.4,1.4,1.4,3.7-.8,2.2-2.2-1.8-1.8-3.6-3.7-5.4-5.6,2.7,0,5.4.1,8.1.1,2,0,2-3.2,0-3.2Z" fill="#3f3c39"/>
  <path d="M355,481.7c-2.7,0-5.5,0-8.2-.1,1.8-1.8,3.6-3.6,5.4-5.3,1.5-1.5-.7-3.7-2.2-2.2-1.7,1.7-3.4,3.3-5.1,5,0-2.4,0-4.8,0-7.1,0-2.1-3.1-2.1-3.2,0,0,2.4,0,4.8,0,7.2-1.8-2-3.5-4-5.3-6.1-1.3-1.6-3.5.7-2.2,2.2,1.7,2,3.5,4,5.2,6-2.6-.2-5.3-.3-7.9-.6-2-.2-2,3,0,3.2,2.6.2,5.2.4,7.8.5-1.7,1.6-3.3,3.3-5,4.9-1.5,1.5.7,3.7,2.2,2.2,1.7-1.7,3.4-3.3,5.1-5,0,2.4,0,4.8,0,7.1,0,2.1,3.1,2.1,3.2,0,0-2.2,0-4.4,0-6.6,1.7,1.8,3.5,3.7,5.3,5.4,1.4,1.4,3.7-.8,2.2-2.2-1.8-1.8-3.6-3.7-5.4-5.6,2.7,0,5.4.1,8.1.1,2,0,2-3.2,0-3.2Z" fill="#ffc866"/>
  <g>
    <path d="M160.9,195.8c-.2-2.6-.3-5.4.6-7.8.9-2.5,3.1-4.6,5.8-4.7,1.8,0,3.7,1,4.6,2.6.9,1.6.9,3.7,0,5.3-.7,1.2-2.1,2.2-3.5,2.1-1.4-.1-2.5-1.2-3-2.4-.5-1.3-.6-2.7-.5-4,.1-3,.8-6.1,2.3-8.7s4-4.7,7-5.3" fill="none" stroke="#3f3c39" stroke-linecap="round" stroke-miterlimit="10" stroke-width="2.3"/>
    <path d="M274.4,258.7c.2-2.4.4-4.8,1.2-7,.8-2.3,2.1-4.4,4.1-5.6s4.8-1.4,6.7,0c2.6,1.8,2.7,6.2.2,8.1-.9.7-2.1,1-3.1.5-1-.6-1.3-1.9-1.3-3.1.1-4,3.3-7.4,7-8.9,3.7-1.5,7.8-1.4,11.8-1" fill="none" stroke="#3f3c39" stroke-linecap="round" stroke-miterlimit="10" stroke-width="2.3"/>
    <path d="M38.8,181.2c-4.7-4.4-10.2-8-16.1-10.5" fill="none" stroke="#3f3c39" stroke-linecap="round" stroke-miterlimit="10" stroke-width="2.3"/>
    <path d="M109.2,139.8c1.8-4.3,4.8-8.1,8.6-10.9" fill="none" stroke="#3f3c39" stroke-linecap="round" stroke-miterlimit="10" stroke-width="2.3"/>
    <path d="M347.9,301.5c3.2-3.6,7-6.7,11.1-9.2" fill="none" stroke="#3f3c39" stroke-linecap="round" stroke-miterlimit="10" stroke-width="2.3"/>
  </g>
  <g>
    <text transform="translate(21 84.2)" fill="#ffc866" font-family="Poppins-Bold, Poppins" font-size="44.4" font-weight="700"><tspan x="0" y="0">WSZYSTKIEGO</tspan></text>
    <text transform="translate(128.2 112.4)" fill="#f24c70" font-family="Poppins-Bold, Poppins" font-size="30" font-weight="700"><tspan x="0" y="0">NAJLEPSZEGO</tspan></text>
  </g>
  <rect x="44" y="418.8" width="274.4" height="26.2" rx="13.1" ry="13.1" fill="#ffc866"/>
  <g>
    <path d="M68.7,437l-4.2-4.6v4.6h-1.3v-10.1h1.3v4.7l4.2-4.7h1.7l-4.6,5.1,4.6,5h-1.7Z" fill="#3f3c39"/>
    <path d="M73.2,435.9h3.5v1.1h-4.9v-10.1h1.3v9Z" fill="#3f3c39"/>
    <path d="M79.5,426.9v10.1h-1.3v-10.1h1.3Z" fill="#3f3c39"/>
    <path d="M87.2,437l-4.2-4.6v4.6h-1.3v-10.1h1.3v4.7l4.2-4.7h1.7l-4.6,5.1,4.6,5h-1.7Z" fill="#3f3c39"/>
    <path d="M98.4,437h-1.3l-5.3-8v8h-1.3v-10.1h1.3l5.3,8v-8h1.3v10.1Z" fill="#3f3c39"/>
    <path d="M101.9,426.9v10.1h-1.3v-10.1h1.3Z" fill="#3f3c39"/>
    <path d="M109.3,426.9v7.5c0,.8-.3,1.5-.8,2-.5.5-1.2.7-2,.7s-1.5-.3-2-.8-.8-1.2-.8-2.1h1.3c0,.5.1.9.4,1.2.2.3.6.5,1.1.5s.9-.1,1.1-.4.4-.7.4-1.1v-7.5h1.3Z" fill="#3f3c39"/>
    <path d="M121.7,434.7h-4.4l-.8,2.2h-1.4l3.7-10h1.5l3.6,10h-1.4l-.8-2.2ZM121.3,433.6l-1.8-5.1-1.8,5.1h3.7Z" fill="#3f3c39"/>
    <path d="M131.6,432.2c.3.2.5.5.7.9s.3.7.3,1.1-.1,1-.4,1.4c-.3.4-.6.7-1.1,1-.5.2-1.1.4-1.8.4h-3.8v-10.1h3.6c.7,0,1.3.1,1.8.3.5.2.8.5,1.1.9s.4.8.4,1.3-.2,1.1-.5,1.5c-.3.4-.8.7-1.3.8.4,0,.7.2,1,.4ZM126.8,431.2h2.2c.6,0,1.1-.1,1.4-.4.3-.3.5-.7.5-1.2s-.2-.9-.5-1.2c-.3-.3-.8-.4-1.5-.4h-2.2v3.3ZM130.7,435.4c.4-.3.6-.7.6-1.3s-.2-1-.6-1.3c-.4-.3-.9-.5-1.6-.5h-2.3v3.6h2.3c.7,0,1.2-.2,1.5-.5Z" fill="#3f3c39"/>
    <path d="M141.5,426.9l-3.3,6.3v3.8h-1.3v-3.8l-3.3-6.3h1.5l2.5,5.1,2.5-5.1h1.5Z" fill="#3f3c39"/>
    <path d="M147.8,435.8h4.9v1.1h-6.5v-1l4.9-7.9h-4.8v-1.1h6.4v1l-4.9,7.9Z" fill="#3f3c39"/>
    <path d="M156.6,436.4c-.8-.4-1.4-1.1-1.8-1.8s-.7-1.7-.7-2.7.2-1.9.7-2.7c.4-.8,1.1-1.4,1.8-1.8.8-.4,1.6-.7,2.6-.7s1.8.2,2.6.7c.8.4,1.4,1.1,1.8,1.8.4.8.7,1.7.7,2.7s-.2,1.9-.7,2.7c-.4.8-1.1,1.4-1.8,1.8-.8.4-1.6.7-2.6.7s-1.8-.2-2.6-.7ZM161,435.4c.6-.3,1-.8,1.3-1.4s.5-1.3.5-2.1-.2-1.5-.5-2.1-.8-1.1-1.3-1.4c-.6-.3-1.2-.5-1.9-.5s-1.4.2-1.9.5c-.6.3-1,.8-1.3,1.4s-.5,1.3-.5,2.1.2,1.5.5,2.1.8,1.1,1.3,1.4,1.2.5,1.9.5,1.3-.2,1.9-.5Z" fill="#3f3c39"/>
    <path d="M172,432.2c.3.2.5.5.7.9s.3.7.3,1.1-.1,1-.4,1.4c-.3.4-.6.7-1.1,1-.5.2-1.1.4-1.8.4h-3.8v-10.1h3.6c.7,0,1.3.1,1.8.3.5.2.8.5,1.1.9s.4.8.4,1.3-.2,1.1-.5,1.5c-.3.4-.8.7-1.3.8.4,0,.7.2,1,.4ZM167.3,431.2h2.2c.6,0,1.1-.1,1.4-.4.3-.3.5-.7.5-1.2s-.2-.9-.5-1.2c-.3-.3-.8-.4-1.5-.4h-2.2v3.3ZM171.1,435.4c.4-.3.6-.7.6-1.3s-.2-1-.6-1.3c-.4-.3-.9-.5-1.6-.5h-2.3v3.6h2.3c.7,0,1.2-.2,1.5-.5Z" fill="#3f3c39"/>
    <path d="M180.8,434.7h-4.4l-.8,2.2h-1.4l3.7-10h1.5l3.6,10h-1.4l-.8-2.2ZM180.4,433.6l-1.8-5.1-1.8,5.1h3.7Z" fill="#3f3c39"/>
    <path d="M184.8,429.2c.4-.8,1.1-1.4,1.8-1.8.8-.4,1.6-.7,2.6-.7s2.1.3,2.9.8c.8.5,1.4,1.3,1.8,2.3h-1.6c-.3-.6-.7-1.1-1.2-1.4-.5-.3-1.2-.5-1.9-.5s-1.3.2-1.9.5-1,.8-1.3,1.4c-.3.6-.5,1.3-.5,2.1s.2,1.5.5,2.1c.3.6.8,1.1,1.3,1.4.6.3,1.2.5,1.9.5s1.4-.2,1.9-.5c.5-.3.9-.8,1.2-1.4h1.6c-.4,1-1,1.7-1.8,2.2-.8.5-1.8.8-2.9.8s-1.8-.2-2.6-.7c-.8-.4-1.4-1.1-1.8-1.8-.4-.8-.7-1.7-.7-2.7s.2-1.9.7-2.7Z" fill="#3f3c39"/>
    <path d="M196.9,435.8h4.9v1.1h-6.5v-1l4.9-7.9h-4.8v-1.1h6.4v1l-4.9,7.9Z" fill="#3f3c39"/>
    <path d="M210.7,426.9l-3.3,6.3v3.8h-1.3v-3.8l-3.3-6.3h1.5l2.5,5.1,2.5-5.1h1.5Z" fill="#3f3c39"/>
    <path d="M212.3,429.2c.4-.8,1.1-1.4,1.8-1.8.8-.4,1.6-.7,2.6-.7s2.1.3,2.9.8c.8.5,1.4,1.3,1.8,2.3h-1.6c-.3-.6-.7-1.1-1.2-1.4-.5-.3-1.2-.5-1.9-.5s-1.3.2-1.9.5-1,.8-1.3,1.4c-.3.6-.5,1.3-.5,2.1s.2,1.5.5,2.1c.3.6.8,1.1,1.3,1.4.6.3,1.2.5,1.9.5s1.4-.2,1.9-.5c.5-.3.9-.8,1.2-1.4h1.6c-.4,1-1,1.7-1.8,2.2-.8.5-1.8.8-2.9.8s-1.8-.2-2.6-.7c-.8-.4-1.4-1.1-1.8-1.8-.4-.8-.7-1.7-.7-2.7s.2-1.9.7-2.7ZM218.1,424.6l-3.1,1.7v-1l3.1-1.8v1.1Z" fill="#3f3c39"/>
    <path d="M239.8,426.9l-2.9,10.1h-1.5l-2.3-8.1-2.4,8.1h-1.5s-2.8-10.1-2.8-10.1h1.4l2.2,8.6,2.4-8.6h1.5l2.3,8.5,2.2-8.5h1.4Z" fill="#3f3c39"/>
    <path d="M242.6,426.9v10.1h-1.3v-10.1h1.3Z" fill="#3f3c39"/>
    <path d="M250.4,438.9v.9c-.4.1-.8.2-1.1.2s-.9-.1-1.3-.4c-.3-.2-.5-.6-.5-1.1s.3-1.1,1-1.5h-3.7v-10.1h5.4v1.1h-4.1v3.4h3.7v1.1h-3.7v3.5h4.1v1.1l-.8.4c-.6.3-.9.6-.9,1s0,.4.2.5.4.2.6.2.6,0,.9-.2Z" fill="#3f3c39"/>
    <path d="M252.5,429.2c.4-.8,1.1-1.4,1.8-1.8.8-.4,1.6-.7,2.6-.7s2.1.3,2.9.8c.8.5,1.4,1.3,1.8,2.3h-1.6c-.3-.6-.7-1.1-1.2-1.4s-1.2-.5-1.9-.5-1.3.2-1.9.5c-.6.3-1,.8-1.3,1.4s-.5,1.3-.5,2.1.2,1.5.5,2.1.8,1.1,1.3,1.4c.6.3,1.2.5,1.9.5s1.4-.2,1.9-.5.9-.8,1.2-1.4h1.6c-.4,1-1,1.7-1.8,2.2-.8.5-1.8.8-2.9.8s-1.8-.2-2.6-.7c-.8-.4-1.4-1.1-1.8-1.8-.4-.8-.7-1.7-.7-2.7s.2-1.9.7-2.7Z" fill="#3f3c39"/>
    <path d="M264.8,427.9v3.4h3.7v1.1h-3.7v3.5h4.1v1.1h-5.4v-10.1h5.4v1.1h-4.1Z" fill="#3f3c39"/>
    <path d="M276,426.9v7.5c0,.8-.3,1.5-.8,2-.5.5-1.2.7-2,.7s-1.5-.3-2-.8c-.5-.5-.8-1.2-.8-2.1h1.3c0,.5.1.9.4,1.2s.6.5,1.1.5.9-.1,1.1-.4c.2-.3.4-.7.4-1.1v-7.5h1.3Z" fill="#3f3c39"/>
  </g>
  <rect x="292.4" y="418.8" width="26.2" height="26.2" rx="13.1" ry="13.1" fill="#f24c70"/>
  <path d="M312.1,431h0c0-.1-4.6-4.7-4.6-4.7-.6-.8.4-1.8,1.2-1.2l6.2,6.2c.3.4.3.8,0,1.1l-6.2,6.2c-.9.6-1.9-.4-1.2-1.2l4.6-4.6h0c0-.1-15.5-.1-15.5-.1,0,0-.2-.1-.3-.1-.5-.3-.5-1.1,0-1.5s.3-.1.3-.1h15.5Z" fill="#747ef7"/>
</svg>